M48
; DRILL file {KiCad (5.1.4-0-10_14)} date Sunday, 19 September 2021 at 18:42:42
; FORMAT={-:-/ absolute / inch / decimal}
; #@! TF.CreationDate,2021-09-19T18:42:42+01:00
; #@! TF.GenerationSoftware,Kicad,Pcbnew,(5.1.4-0-10_14)
; #@! TF.FileFunction,Plated,1,2,PTH
FMAT,2
INCH
T1C0.0157
T2C0.0295
T3C0.0315
T4C0.0394
%
G90
G05
T1
X1.3392Y-2.1917
X1.3392Y-2.9167
X1.7142Y-2.8667
X2.2142Y-2.8382
X2.6392Y-2.8096
X2.6642Y-2.3667
X2.9392Y-2.2917
X2.9642Y-2.3667
X3.5642Y-2.3917
X3.6592Y-2.7717
X3.6592Y-2.9117
X3.6892Y-2.2167
X3.9392Y-2.2317
X4.0192Y-2.4517
X4.3192Y-2.4317
X4.5892Y-2.2167
X4.6592Y-2.8117
X4.7392Y-2.8917
X5.3392Y-2.8417
X5.5642Y-2.8167
T2
X5.8642Y-2.4417
X5.9142Y-2.4417
X5.9642Y-2.4417
X2.0642Y-2.4417
X2.1142Y-2.4417
X2.1642Y-2.4417
X2.7392Y-2.4417
X2.7892Y-2.4417
X2.8392Y-2.4417
X4.9642Y-2.4417
X5.0142Y-2.4417
X5.0642Y-2.4417
X5.1892Y-2.4417
X5.2392Y-2.4417
X5.2892Y-2.4417
X1.9392Y-2.4417
X5.6392Y-2.4417
X5.6892Y-2.4417
X5.7392Y-2.4417
X5.4142Y-2.4417
X5.4642Y-2.4417
X5.5142Y-2.4417
X2.2892Y-2.4417
X2.3392Y-2.4417
X2.3892Y-2.4417
X1.8392Y-2.4417
X1.8892Y-2.4417
X1.6142Y-2.4417
X4.7392Y-2.4417
X4.7892Y-2.4417
X4.8392Y-2.4417
X2.5142Y-2.4417
X1.7142Y-2.4417
X2.5642Y-2.4417
X2.6142Y-2.4417
X1.6642Y-2.4417
T3
X5.0642Y-2.5667
X5.0642Y-2.9667
X2.3892Y-2.9667
X5.2642Y-2.5667
X5.2642Y-2.9667
X5.3892Y-2.5667
X5.3892Y-2.9667
X5.7142Y-2.5667
X5.7142Y-2.9667
X2.3892Y-2.5667
X4.1642Y-2.2167
X4.1642Y-2.3167
X2.2642Y-2.9667
X4.1642Y-2.8167
X4.1642Y-2.9167
X4.4642Y-2.3167
X4.4642Y-2.6167
X4.4642Y-2.8167
X4.4642Y-2.9167
X2.2642Y-2.5667
X4.1642Y-2.4167
X4.1642Y-2.5167
X4.1642Y-2.6167
X4.1642Y-2.7167
X4.4642Y-2.2167
X4.4642Y-2.5167
X4.4642Y-2.7167
X2.5892Y-2.5667
X2.5892Y-2.9667
X5.5142Y-2.5667
X5.5142Y-2.9667
X1.9392Y-2.5667
X1.9392Y-2.9667
X4.9392Y-2.5667
X4.9392Y-2.9667
X3.1392Y-2.2167
X3.1392Y-2.3167
X3.1392Y-2.4167
X3.1392Y-2.5167
X3.4392Y-2.3167
X3.4392Y-2.6167
X3.4392Y-2.7167
X3.4392Y-2.8167
X3.4392Y-2.9167
X2.1392Y-2.5667
X2.1392Y-2.9667
X3.1392Y-2.6167
X3.1392Y-2.7167
X3.1392Y-2.8167
X3.1392Y-2.9167
X3.4392Y-2.2167
X3.4392Y-2.4167
X3.4392Y-2.5167
X5.8392Y-2.5667
X5.8392Y-2.9667
X4.8142Y-2.5667
X4.8142Y-2.9667
X1.8142Y-2.5667
X1.8142Y-2.9667
X1.6892Y-2.5667
X2.8392Y-2.5667
X2.8392Y-2.9667
X1.6892Y-2.9667
X5.9642Y-2.5667
X5.9642Y-2.9667
X4.6642Y-2.5667
X4.6642Y-2.9667
X2.7142Y-2.5667
X2.7142Y-2.9667
X4.4642Y-2.4167
T4
X2.5392Y-2.1917
X2.6392Y-2.1917
X2.7392Y-2.1917
X2.8392Y-2.1917
X3.7392Y-2.3667
X3.7392Y-2.4667
X3.7392Y-2.5667
X3.7392Y-2.6667
X3.7392Y-2.7667
X3.8392Y-2.3667
X3.8392Y-2.4667
X3.8392Y-2.5667
X3.8392Y-2.6667
X3.8392Y-2.7667
X5.2142Y-2.1917
X5.3142Y-2.1917
X5.4142Y-2.1917
X5.5142Y-2.1917
X1.6392Y-2.1917
X1.7392Y-2.1917
X1.8392Y-2.1917
X1.9392Y-2.1917
X5.6642Y-2.1917
X5.7642Y-2.1917
X5.8642Y-2.1917
X5.9642Y-2.1917
X4.7642Y-2.1917
X4.8642Y-2.1917
X4.9642Y-2.1917
X5.0642Y-2.1917
X2.0892Y-2.1917
X2.1892Y-2.1917
X2.2892Y-2.1917
X2.3892Y-2.1917
T0
M30
