G04 #@! TF.GenerationSoftware,KiCad,Pcbnew,(5.1.4-0-10_14)*
G04 #@! TF.CreationDate,2021-09-19T18:42:46+01:00*
G04 #@! TF.ProjectId,switch-module,73776974-6368-42d6-9d6f-64756c652e6b,rev?*
G04 #@! TF.SameCoordinates,Original*
G04 #@! TF.FileFunction,Soldermask,Top*
G04 #@! TF.FilePolarity,Negative*
%FSLAX46Y46*%
G04 Gerber Fmt 4.6, Leading zero omitted, Abs format (unit mm)*
G04 Created by KiCad (PCBNEW (5.1.4-0-10_14)) date 2021-09-19 18:42:46*
%MOMM*%
%LPD*%
G04 APERTURE LIST*
%ADD10C,0.100000*%
G04 APERTURE END LIST*
D10*
G36*
X151656823Y-74516313D02*
G01*
X151817242Y-74564976D01*
X151884361Y-74600852D01*
X151965078Y-74643996D01*
X152094659Y-74750341D01*
X152201004Y-74879922D01*
X152201005Y-74879924D01*
X152280024Y-75027758D01*
X152328687Y-75188177D01*
X152345117Y-75355000D01*
X152328687Y-75521823D01*
X152280024Y-75682242D01*
X152239477Y-75758100D01*
X152201004Y-75830078D01*
X152094659Y-75959659D01*
X151965078Y-76066004D01*
X151965076Y-76066005D01*
X151817242Y-76145024D01*
X151656823Y-76193687D01*
X151531804Y-76206000D01*
X151448196Y-76206000D01*
X151323177Y-76193687D01*
X151162758Y-76145024D01*
X151014924Y-76066005D01*
X151014922Y-76066004D01*
X150885341Y-75959659D01*
X150778996Y-75830078D01*
X150740523Y-75758100D01*
X150699976Y-75682242D01*
X150651313Y-75521823D01*
X150634883Y-75355000D01*
X150651313Y-75188177D01*
X150699976Y-75027758D01*
X150778995Y-74879924D01*
X150778996Y-74879922D01*
X150885341Y-74750341D01*
X151014922Y-74643996D01*
X151095639Y-74600852D01*
X151162758Y-74564976D01*
X151323177Y-74516313D01*
X151448196Y-74504000D01*
X151531804Y-74504000D01*
X151656823Y-74516313D01*
X151656823Y-74516313D01*
G37*
G36*
X148481823Y-74516313D02*
G01*
X148642242Y-74564976D01*
X148709361Y-74600852D01*
X148790078Y-74643996D01*
X148919659Y-74750341D01*
X149026004Y-74879922D01*
X149026005Y-74879924D01*
X149105024Y-75027758D01*
X149153687Y-75188177D01*
X149170117Y-75355000D01*
X149153687Y-75521823D01*
X149105024Y-75682242D01*
X149064477Y-75758100D01*
X149026004Y-75830078D01*
X148919659Y-75959659D01*
X148790078Y-76066004D01*
X148790076Y-76066005D01*
X148642242Y-76145024D01*
X148481823Y-76193687D01*
X148356804Y-76206000D01*
X148273196Y-76206000D01*
X148148177Y-76193687D01*
X147987758Y-76145024D01*
X147839924Y-76066005D01*
X147839922Y-76066004D01*
X147710341Y-75959659D01*
X147603996Y-75830078D01*
X147565523Y-75758100D01*
X147524976Y-75682242D01*
X147476313Y-75521823D01*
X147459883Y-75355000D01*
X147476313Y-75188177D01*
X147524976Y-75027758D01*
X147603995Y-74879924D01*
X147603996Y-74879922D01*
X147710341Y-74750341D01*
X147839922Y-74643996D01*
X147920639Y-74600852D01*
X147987758Y-74564976D01*
X148148177Y-74516313D01*
X148273196Y-74504000D01*
X148356804Y-74504000D01*
X148481823Y-74516313D01*
X148481823Y-74516313D01*
G37*
G36*
X145306823Y-74516313D02*
G01*
X145467242Y-74564976D01*
X145534361Y-74600852D01*
X145615078Y-74643996D01*
X145744659Y-74750341D01*
X145851004Y-74879922D01*
X145851005Y-74879924D01*
X145930024Y-75027758D01*
X145978687Y-75188177D01*
X145995117Y-75355000D01*
X145978687Y-75521823D01*
X145930024Y-75682242D01*
X145889477Y-75758100D01*
X145851004Y-75830078D01*
X145744659Y-75959659D01*
X145615078Y-76066004D01*
X145615076Y-76066005D01*
X145467242Y-76145024D01*
X145306823Y-76193687D01*
X145181804Y-76206000D01*
X145098196Y-76206000D01*
X144973177Y-76193687D01*
X144812758Y-76145024D01*
X144664924Y-76066005D01*
X144664922Y-76066004D01*
X144535341Y-75959659D01*
X144428996Y-75830078D01*
X144390523Y-75758100D01*
X144349976Y-75682242D01*
X144301313Y-75521823D01*
X144284883Y-75355000D01*
X144301313Y-75188177D01*
X144349976Y-75027758D01*
X144428995Y-74879924D01*
X144428996Y-74879922D01*
X144535341Y-74750341D01*
X144664922Y-74643996D01*
X144745639Y-74600852D01*
X144812758Y-74564976D01*
X144973177Y-74516313D01*
X145098196Y-74504000D01*
X145181804Y-74504000D01*
X145306823Y-74516313D01*
X145306823Y-74516313D01*
G37*
G36*
X140226823Y-74516313D02*
G01*
X140387242Y-74564976D01*
X140454361Y-74600852D01*
X140535078Y-74643996D01*
X140664659Y-74750341D01*
X140771004Y-74879922D01*
X140771005Y-74879924D01*
X140850024Y-75027758D01*
X140898687Y-75188177D01*
X140915117Y-75355000D01*
X140898687Y-75521823D01*
X140850024Y-75682242D01*
X140809477Y-75758100D01*
X140771004Y-75830078D01*
X140664659Y-75959659D01*
X140535078Y-76066004D01*
X140535076Y-76066005D01*
X140387242Y-76145024D01*
X140226823Y-76193687D01*
X140101804Y-76206000D01*
X140018196Y-76206000D01*
X139893177Y-76193687D01*
X139732758Y-76145024D01*
X139584924Y-76066005D01*
X139584922Y-76066004D01*
X139455341Y-75959659D01*
X139348996Y-75830078D01*
X139310523Y-75758100D01*
X139269976Y-75682242D01*
X139221313Y-75521823D01*
X139204883Y-75355000D01*
X139221313Y-75188177D01*
X139269976Y-75027758D01*
X139348995Y-74879924D01*
X139348996Y-74879922D01*
X139455341Y-74750341D01*
X139584922Y-74643996D01*
X139665639Y-74600852D01*
X139732758Y-74564976D01*
X139893177Y-74516313D01*
X140018196Y-74504000D01*
X140101804Y-74504000D01*
X140226823Y-74516313D01*
X140226823Y-74516313D01*
G37*
G36*
X137051823Y-74516313D02*
G01*
X137212242Y-74564976D01*
X137279361Y-74600852D01*
X137360078Y-74643996D01*
X137489659Y-74750341D01*
X137596004Y-74879922D01*
X137596005Y-74879924D01*
X137675024Y-75027758D01*
X137723687Y-75188177D01*
X137740117Y-75355000D01*
X137723687Y-75521823D01*
X137675024Y-75682242D01*
X137634477Y-75758100D01*
X137596004Y-75830078D01*
X137489659Y-75959659D01*
X137360078Y-76066004D01*
X137360076Y-76066005D01*
X137212242Y-76145024D01*
X137051823Y-76193687D01*
X136926804Y-76206000D01*
X136843196Y-76206000D01*
X136718177Y-76193687D01*
X136557758Y-76145024D01*
X136409924Y-76066005D01*
X136409922Y-76066004D01*
X136280341Y-75959659D01*
X136173996Y-75830078D01*
X136135523Y-75758100D01*
X136094976Y-75682242D01*
X136046313Y-75521823D01*
X136029883Y-75355000D01*
X136046313Y-75188177D01*
X136094976Y-75027758D01*
X136173995Y-74879924D01*
X136173996Y-74879922D01*
X136280341Y-74750341D01*
X136409922Y-74643996D01*
X136490639Y-74600852D01*
X136557758Y-74564976D01*
X136718177Y-74516313D01*
X136843196Y-74504000D01*
X136926804Y-74504000D01*
X137051823Y-74516313D01*
X137051823Y-74516313D01*
G37*
G36*
X133876823Y-74516313D02*
G01*
X134037242Y-74564976D01*
X134104361Y-74600852D01*
X134185078Y-74643996D01*
X134314659Y-74750341D01*
X134421004Y-74879922D01*
X134421005Y-74879924D01*
X134500024Y-75027758D01*
X134548687Y-75188177D01*
X134565117Y-75355000D01*
X134548687Y-75521823D01*
X134500024Y-75682242D01*
X134459477Y-75758100D01*
X134421004Y-75830078D01*
X134314659Y-75959659D01*
X134185078Y-76066004D01*
X134185076Y-76066005D01*
X134037242Y-76145024D01*
X133876823Y-76193687D01*
X133751804Y-76206000D01*
X133668196Y-76206000D01*
X133543177Y-76193687D01*
X133382758Y-76145024D01*
X133234924Y-76066005D01*
X133234922Y-76066004D01*
X133105341Y-75959659D01*
X132998996Y-75830078D01*
X132960523Y-75758100D01*
X132919976Y-75682242D01*
X132871313Y-75521823D01*
X132854883Y-75355000D01*
X132871313Y-75188177D01*
X132919976Y-75027758D01*
X132998995Y-74879924D01*
X132998996Y-74879922D01*
X133105341Y-74750341D01*
X133234922Y-74643996D01*
X133315639Y-74600852D01*
X133382758Y-74564976D01*
X133543177Y-74516313D01*
X133668196Y-74504000D01*
X133751804Y-74504000D01*
X133876823Y-74516313D01*
X133876823Y-74516313D01*
G37*
G36*
X128796823Y-74516313D02*
G01*
X128957242Y-74564976D01*
X129024361Y-74600852D01*
X129105078Y-74643996D01*
X129234659Y-74750341D01*
X129341004Y-74879922D01*
X129341005Y-74879924D01*
X129420024Y-75027758D01*
X129468687Y-75188177D01*
X129485117Y-75355000D01*
X129468687Y-75521823D01*
X129420024Y-75682242D01*
X129379477Y-75758100D01*
X129341004Y-75830078D01*
X129234659Y-75959659D01*
X129105078Y-76066004D01*
X129105076Y-76066005D01*
X128957242Y-76145024D01*
X128796823Y-76193687D01*
X128671804Y-76206000D01*
X128588196Y-76206000D01*
X128463177Y-76193687D01*
X128302758Y-76145024D01*
X128154924Y-76066005D01*
X128154922Y-76066004D01*
X128025341Y-75959659D01*
X127918996Y-75830078D01*
X127880523Y-75758100D01*
X127839976Y-75682242D01*
X127791313Y-75521823D01*
X127774883Y-75355000D01*
X127791313Y-75188177D01*
X127839976Y-75027758D01*
X127918995Y-74879924D01*
X127918996Y-74879922D01*
X128025341Y-74750341D01*
X128154922Y-74643996D01*
X128235639Y-74600852D01*
X128302758Y-74564976D01*
X128463177Y-74516313D01*
X128588196Y-74504000D01*
X128671804Y-74504000D01*
X128796823Y-74516313D01*
X128796823Y-74516313D01*
G37*
G36*
X125621823Y-74516313D02*
G01*
X125782242Y-74564976D01*
X125849361Y-74600852D01*
X125930078Y-74643996D01*
X126059659Y-74750341D01*
X126166004Y-74879922D01*
X126166005Y-74879924D01*
X126245024Y-75027758D01*
X126293687Y-75188177D01*
X126310117Y-75355000D01*
X126293687Y-75521823D01*
X126245024Y-75682242D01*
X126204477Y-75758100D01*
X126166004Y-75830078D01*
X126059659Y-75959659D01*
X125930078Y-76066004D01*
X125930076Y-76066005D01*
X125782242Y-76145024D01*
X125621823Y-76193687D01*
X125496804Y-76206000D01*
X125413196Y-76206000D01*
X125288177Y-76193687D01*
X125127758Y-76145024D01*
X124979924Y-76066005D01*
X124979922Y-76066004D01*
X124850341Y-75959659D01*
X124743996Y-75830078D01*
X124705523Y-75758100D01*
X124664976Y-75682242D01*
X124616313Y-75521823D01*
X124599883Y-75355000D01*
X124616313Y-75188177D01*
X124664976Y-75027758D01*
X124743995Y-74879924D01*
X124743996Y-74879922D01*
X124850341Y-74750341D01*
X124979922Y-74643996D01*
X125060639Y-74600852D01*
X125127758Y-74564976D01*
X125288177Y-74516313D01*
X125413196Y-74504000D01*
X125496804Y-74504000D01*
X125621823Y-74516313D01*
X125621823Y-74516313D01*
G37*
G36*
X122446823Y-74516313D02*
G01*
X122607242Y-74564976D01*
X122674361Y-74600852D01*
X122755078Y-74643996D01*
X122884659Y-74750341D01*
X122991004Y-74879922D01*
X122991005Y-74879924D01*
X123070024Y-75027758D01*
X123118687Y-75188177D01*
X123135117Y-75355000D01*
X123118687Y-75521823D01*
X123070024Y-75682242D01*
X123029477Y-75758100D01*
X122991004Y-75830078D01*
X122884659Y-75959659D01*
X122755078Y-76066004D01*
X122755076Y-76066005D01*
X122607242Y-76145024D01*
X122446823Y-76193687D01*
X122321804Y-76206000D01*
X122238196Y-76206000D01*
X122113177Y-76193687D01*
X121952758Y-76145024D01*
X121804924Y-76066005D01*
X121804922Y-76066004D01*
X121675341Y-75959659D01*
X121568996Y-75830078D01*
X121530523Y-75758100D01*
X121489976Y-75682242D01*
X121441313Y-75521823D01*
X121424883Y-75355000D01*
X121441313Y-75188177D01*
X121489976Y-75027758D01*
X121568995Y-74879924D01*
X121568996Y-74879922D01*
X121675341Y-74750341D01*
X121804922Y-74643996D01*
X121885639Y-74600852D01*
X121952758Y-74564976D01*
X122113177Y-74516313D01*
X122238196Y-74504000D01*
X122321804Y-74504000D01*
X122446823Y-74516313D01*
X122446823Y-74516313D01*
G37*
G36*
X118718228Y-74536703D02*
G01*
X118873100Y-74600853D01*
X119012481Y-74693985D01*
X119131015Y-74812519D01*
X119224147Y-74951900D01*
X119288297Y-75106772D01*
X119321000Y-75271184D01*
X119321000Y-75438816D01*
X119288297Y-75603228D01*
X119224147Y-75758100D01*
X119131015Y-75897481D01*
X119012481Y-76016015D01*
X118873100Y-76109147D01*
X118718228Y-76173297D01*
X118553816Y-76206000D01*
X118386184Y-76206000D01*
X118221772Y-76173297D01*
X118066900Y-76109147D01*
X117927519Y-76016015D01*
X117808985Y-75897481D01*
X117715853Y-75758100D01*
X117651703Y-75603228D01*
X117619000Y-75438816D01*
X117619000Y-75271184D01*
X117651703Y-75106772D01*
X117715853Y-74951900D01*
X117808985Y-74812519D01*
X117927519Y-74693985D01*
X118066900Y-74600853D01*
X118221772Y-74536703D01*
X118386184Y-74504000D01*
X118553816Y-74504000D01*
X118718228Y-74536703D01*
X118718228Y-74536703D01*
G37*
G36*
X72281823Y-74516313D02*
G01*
X72442242Y-74564976D01*
X72509361Y-74600852D01*
X72590078Y-74643996D01*
X72719659Y-74750341D01*
X72826004Y-74879922D01*
X72826005Y-74879924D01*
X72905024Y-75027758D01*
X72953687Y-75188177D01*
X72970117Y-75355000D01*
X72953687Y-75521823D01*
X72905024Y-75682242D01*
X72864477Y-75758100D01*
X72826004Y-75830078D01*
X72719659Y-75959659D01*
X72590078Y-76066004D01*
X72590076Y-76066005D01*
X72442242Y-76145024D01*
X72281823Y-76193687D01*
X72156804Y-76206000D01*
X72073196Y-76206000D01*
X71948177Y-76193687D01*
X71787758Y-76145024D01*
X71639924Y-76066005D01*
X71639922Y-76066004D01*
X71510341Y-75959659D01*
X71403996Y-75830078D01*
X71365523Y-75758100D01*
X71324976Y-75682242D01*
X71276313Y-75521823D01*
X71259883Y-75355000D01*
X71276313Y-75188177D01*
X71324976Y-75027758D01*
X71403995Y-74879924D01*
X71403996Y-74879922D01*
X71510341Y-74750341D01*
X71639922Y-74643996D01*
X71720639Y-74600852D01*
X71787758Y-74564976D01*
X71948177Y-74516313D01*
X72073196Y-74504000D01*
X72156804Y-74504000D01*
X72281823Y-74516313D01*
X72281823Y-74516313D01*
G37*
G36*
X69106823Y-74516313D02*
G01*
X69267242Y-74564976D01*
X69334361Y-74600852D01*
X69415078Y-74643996D01*
X69544659Y-74750341D01*
X69651004Y-74879922D01*
X69651005Y-74879924D01*
X69730024Y-75027758D01*
X69778687Y-75188177D01*
X69795117Y-75355000D01*
X69778687Y-75521823D01*
X69730024Y-75682242D01*
X69689477Y-75758100D01*
X69651004Y-75830078D01*
X69544659Y-75959659D01*
X69415078Y-76066004D01*
X69415076Y-76066005D01*
X69267242Y-76145024D01*
X69106823Y-76193687D01*
X68981804Y-76206000D01*
X68898196Y-76206000D01*
X68773177Y-76193687D01*
X68612758Y-76145024D01*
X68464924Y-76066005D01*
X68464922Y-76066004D01*
X68335341Y-75959659D01*
X68228996Y-75830078D01*
X68190523Y-75758100D01*
X68149976Y-75682242D01*
X68101313Y-75521823D01*
X68084883Y-75355000D01*
X68101313Y-75188177D01*
X68149976Y-75027758D01*
X68228995Y-74879924D01*
X68228996Y-74879922D01*
X68335341Y-74750341D01*
X68464922Y-74643996D01*
X68545639Y-74600852D01*
X68612758Y-74564976D01*
X68773177Y-74516313D01*
X68898196Y-74504000D01*
X68981804Y-74504000D01*
X69106823Y-74516313D01*
X69106823Y-74516313D01*
G37*
G36*
X65931823Y-74516313D02*
G01*
X66092242Y-74564976D01*
X66159361Y-74600852D01*
X66240078Y-74643996D01*
X66369659Y-74750341D01*
X66476004Y-74879922D01*
X66476005Y-74879924D01*
X66555024Y-75027758D01*
X66603687Y-75188177D01*
X66620117Y-75355000D01*
X66603687Y-75521823D01*
X66555024Y-75682242D01*
X66514477Y-75758100D01*
X66476004Y-75830078D01*
X66369659Y-75959659D01*
X66240078Y-76066004D01*
X66240076Y-76066005D01*
X66092242Y-76145024D01*
X65931823Y-76193687D01*
X65806804Y-76206000D01*
X65723196Y-76206000D01*
X65598177Y-76193687D01*
X65437758Y-76145024D01*
X65289924Y-76066005D01*
X65289922Y-76066004D01*
X65160341Y-75959659D01*
X65053996Y-75830078D01*
X65015523Y-75758100D01*
X64974976Y-75682242D01*
X64926313Y-75521823D01*
X64909883Y-75355000D01*
X64926313Y-75188177D01*
X64974976Y-75027758D01*
X65053995Y-74879924D01*
X65053996Y-74879922D01*
X65160341Y-74750341D01*
X65289922Y-74643996D01*
X65370639Y-74600852D01*
X65437758Y-74564976D01*
X65598177Y-74516313D01*
X65723196Y-74504000D01*
X65806804Y-74504000D01*
X65931823Y-74516313D01*
X65931823Y-74516313D01*
G37*
G36*
X60851823Y-74516313D02*
G01*
X61012242Y-74564976D01*
X61079361Y-74600852D01*
X61160078Y-74643996D01*
X61289659Y-74750341D01*
X61396004Y-74879922D01*
X61396005Y-74879924D01*
X61475024Y-75027758D01*
X61523687Y-75188177D01*
X61540117Y-75355000D01*
X61523687Y-75521823D01*
X61475024Y-75682242D01*
X61434477Y-75758100D01*
X61396004Y-75830078D01*
X61289659Y-75959659D01*
X61160078Y-76066004D01*
X61160076Y-76066005D01*
X61012242Y-76145024D01*
X60851823Y-76193687D01*
X60726804Y-76206000D01*
X60643196Y-76206000D01*
X60518177Y-76193687D01*
X60357758Y-76145024D01*
X60209924Y-76066005D01*
X60209922Y-76066004D01*
X60080341Y-75959659D01*
X59973996Y-75830078D01*
X59935523Y-75758100D01*
X59894976Y-75682242D01*
X59846313Y-75521823D01*
X59829883Y-75355000D01*
X59846313Y-75188177D01*
X59894976Y-75027758D01*
X59973995Y-74879924D01*
X59973996Y-74879922D01*
X60080341Y-74750341D01*
X60209922Y-74643996D01*
X60290639Y-74600852D01*
X60357758Y-74564976D01*
X60518177Y-74516313D01*
X60643196Y-74504000D01*
X60726804Y-74504000D01*
X60851823Y-74516313D01*
X60851823Y-74516313D01*
G37*
G36*
X57676823Y-74516313D02*
G01*
X57837242Y-74564976D01*
X57904361Y-74600852D01*
X57985078Y-74643996D01*
X58114659Y-74750341D01*
X58221004Y-74879922D01*
X58221005Y-74879924D01*
X58300024Y-75027758D01*
X58348687Y-75188177D01*
X58365117Y-75355000D01*
X58348687Y-75521823D01*
X58300024Y-75682242D01*
X58259477Y-75758100D01*
X58221004Y-75830078D01*
X58114659Y-75959659D01*
X57985078Y-76066004D01*
X57985076Y-76066005D01*
X57837242Y-76145024D01*
X57676823Y-76193687D01*
X57551804Y-76206000D01*
X57468196Y-76206000D01*
X57343177Y-76193687D01*
X57182758Y-76145024D01*
X57034924Y-76066005D01*
X57034922Y-76066004D01*
X56905341Y-75959659D01*
X56798996Y-75830078D01*
X56760523Y-75758100D01*
X56719976Y-75682242D01*
X56671313Y-75521823D01*
X56654883Y-75355000D01*
X56671313Y-75188177D01*
X56719976Y-75027758D01*
X56798995Y-74879924D01*
X56798996Y-74879922D01*
X56905341Y-74750341D01*
X57034922Y-74643996D01*
X57115639Y-74600852D01*
X57182758Y-74564976D01*
X57343177Y-74516313D01*
X57468196Y-74504000D01*
X57551804Y-74504000D01*
X57676823Y-74516313D01*
X57676823Y-74516313D01*
G37*
G36*
X54501823Y-74516313D02*
G01*
X54662242Y-74564976D01*
X54729361Y-74600852D01*
X54810078Y-74643996D01*
X54939659Y-74750341D01*
X55046004Y-74879922D01*
X55046005Y-74879924D01*
X55125024Y-75027758D01*
X55173687Y-75188177D01*
X55190117Y-75355000D01*
X55173687Y-75521823D01*
X55125024Y-75682242D01*
X55084477Y-75758100D01*
X55046004Y-75830078D01*
X54939659Y-75959659D01*
X54810078Y-76066004D01*
X54810076Y-76066005D01*
X54662242Y-76145024D01*
X54501823Y-76193687D01*
X54376804Y-76206000D01*
X54293196Y-76206000D01*
X54168177Y-76193687D01*
X54007758Y-76145024D01*
X53859924Y-76066005D01*
X53859922Y-76066004D01*
X53730341Y-75959659D01*
X53623996Y-75830078D01*
X53585523Y-75758100D01*
X53544976Y-75682242D01*
X53496313Y-75521823D01*
X53479883Y-75355000D01*
X53496313Y-75188177D01*
X53544976Y-75027758D01*
X53623995Y-74879924D01*
X53623996Y-74879922D01*
X53730341Y-74750341D01*
X53859922Y-74643996D01*
X53940639Y-74600852D01*
X54007758Y-74564976D01*
X54168177Y-74516313D01*
X54293196Y-74504000D01*
X54376804Y-74504000D01*
X54501823Y-74516313D01*
X54501823Y-74516313D01*
G37*
G36*
X49421823Y-74516313D02*
G01*
X49582242Y-74564976D01*
X49649361Y-74600852D01*
X49730078Y-74643996D01*
X49859659Y-74750341D01*
X49966004Y-74879922D01*
X49966005Y-74879924D01*
X50045024Y-75027758D01*
X50093687Y-75188177D01*
X50110117Y-75355000D01*
X50093687Y-75521823D01*
X50045024Y-75682242D01*
X50004477Y-75758100D01*
X49966004Y-75830078D01*
X49859659Y-75959659D01*
X49730078Y-76066004D01*
X49730076Y-76066005D01*
X49582242Y-76145024D01*
X49421823Y-76193687D01*
X49296804Y-76206000D01*
X49213196Y-76206000D01*
X49088177Y-76193687D01*
X48927758Y-76145024D01*
X48779924Y-76066005D01*
X48779922Y-76066004D01*
X48650341Y-75959659D01*
X48543996Y-75830078D01*
X48505523Y-75758100D01*
X48464976Y-75682242D01*
X48416313Y-75521823D01*
X48399883Y-75355000D01*
X48416313Y-75188177D01*
X48464976Y-75027758D01*
X48543995Y-74879924D01*
X48543996Y-74879922D01*
X48650341Y-74750341D01*
X48779922Y-74643996D01*
X48860639Y-74600852D01*
X48927758Y-74564976D01*
X49088177Y-74516313D01*
X49213196Y-74504000D01*
X49296804Y-74504000D01*
X49421823Y-74516313D01*
X49421823Y-74516313D01*
G37*
G36*
X46246823Y-74516313D02*
G01*
X46407242Y-74564976D01*
X46474361Y-74600852D01*
X46555078Y-74643996D01*
X46684659Y-74750341D01*
X46791004Y-74879922D01*
X46791005Y-74879924D01*
X46870024Y-75027758D01*
X46918687Y-75188177D01*
X46935117Y-75355000D01*
X46918687Y-75521823D01*
X46870024Y-75682242D01*
X46829477Y-75758100D01*
X46791004Y-75830078D01*
X46684659Y-75959659D01*
X46555078Y-76066004D01*
X46555076Y-76066005D01*
X46407242Y-76145024D01*
X46246823Y-76193687D01*
X46121804Y-76206000D01*
X46038196Y-76206000D01*
X45913177Y-76193687D01*
X45752758Y-76145024D01*
X45604924Y-76066005D01*
X45604922Y-76066004D01*
X45475341Y-75959659D01*
X45368996Y-75830078D01*
X45330523Y-75758100D01*
X45289976Y-75682242D01*
X45241313Y-75521823D01*
X45224883Y-75355000D01*
X45241313Y-75188177D01*
X45289976Y-75027758D01*
X45368995Y-74879924D01*
X45368996Y-74879922D01*
X45475341Y-74750341D01*
X45604922Y-74643996D01*
X45685639Y-74600852D01*
X45752758Y-74564976D01*
X45913177Y-74516313D01*
X46038196Y-74504000D01*
X46121804Y-74504000D01*
X46246823Y-74516313D01*
X46246823Y-74516313D01*
G37*
G36*
X43071823Y-74516313D02*
G01*
X43232242Y-74564976D01*
X43299361Y-74600852D01*
X43380078Y-74643996D01*
X43509659Y-74750341D01*
X43616004Y-74879922D01*
X43616005Y-74879924D01*
X43695024Y-75027758D01*
X43743687Y-75188177D01*
X43760117Y-75355000D01*
X43743687Y-75521823D01*
X43695024Y-75682242D01*
X43654477Y-75758100D01*
X43616004Y-75830078D01*
X43509659Y-75959659D01*
X43380078Y-76066004D01*
X43380076Y-76066005D01*
X43232242Y-76145024D01*
X43071823Y-76193687D01*
X42946804Y-76206000D01*
X42863196Y-76206000D01*
X42738177Y-76193687D01*
X42577758Y-76145024D01*
X42429924Y-76066005D01*
X42429922Y-76066004D01*
X42300341Y-75959659D01*
X42193996Y-75830078D01*
X42155523Y-75758100D01*
X42114976Y-75682242D01*
X42066313Y-75521823D01*
X42049883Y-75355000D01*
X42066313Y-75188177D01*
X42114976Y-75027758D01*
X42193995Y-74879924D01*
X42193996Y-74879922D01*
X42300341Y-74750341D01*
X42429922Y-74643996D01*
X42510639Y-74600852D01*
X42577758Y-74564976D01*
X42738177Y-74516313D01*
X42863196Y-74504000D01*
X42946804Y-74504000D01*
X43071823Y-74516313D01*
X43071823Y-74516313D01*
G37*
G36*
X87521823Y-73246313D02*
G01*
X87682242Y-73294976D01*
X87814906Y-73365886D01*
X87830078Y-73373996D01*
X87959659Y-73480341D01*
X88066004Y-73609922D01*
X88066005Y-73609924D01*
X88145024Y-73757758D01*
X88193687Y-73918177D01*
X88210117Y-74085000D01*
X88193687Y-74251823D01*
X88145024Y-74412242D01*
X88095978Y-74504000D01*
X88066004Y-74560078D01*
X87959659Y-74689659D01*
X87830078Y-74796004D01*
X87830076Y-74796005D01*
X87682242Y-74875024D01*
X87521823Y-74923687D01*
X87396804Y-74936000D01*
X87313196Y-74936000D01*
X87188177Y-74923687D01*
X87027758Y-74875024D01*
X86879924Y-74796005D01*
X86879922Y-74796004D01*
X86750341Y-74689659D01*
X86643996Y-74560078D01*
X86614022Y-74504000D01*
X86564976Y-74412242D01*
X86516313Y-74251823D01*
X86499883Y-74085000D01*
X86516313Y-73918177D01*
X86564976Y-73757758D01*
X86643995Y-73609924D01*
X86643996Y-73609922D01*
X86750341Y-73480341D01*
X86879922Y-73373996D01*
X86895094Y-73365886D01*
X87027758Y-73294976D01*
X87188177Y-73246313D01*
X87313196Y-73234000D01*
X87396804Y-73234000D01*
X87521823Y-73246313D01*
X87521823Y-73246313D01*
G37*
G36*
X79901823Y-73246313D02*
G01*
X80062242Y-73294976D01*
X80194906Y-73365886D01*
X80210078Y-73373996D01*
X80339659Y-73480341D01*
X80446004Y-73609922D01*
X80446005Y-73609924D01*
X80525024Y-73757758D01*
X80573687Y-73918177D01*
X80590117Y-74085000D01*
X80573687Y-74251823D01*
X80525024Y-74412242D01*
X80475978Y-74504000D01*
X80446004Y-74560078D01*
X80339659Y-74689659D01*
X80210078Y-74796004D01*
X80210076Y-74796005D01*
X80062242Y-74875024D01*
X79901823Y-74923687D01*
X79776804Y-74936000D01*
X79693196Y-74936000D01*
X79568177Y-74923687D01*
X79407758Y-74875024D01*
X79259924Y-74796005D01*
X79259922Y-74796004D01*
X79130341Y-74689659D01*
X79023996Y-74560078D01*
X78994022Y-74504000D01*
X78944976Y-74412242D01*
X78896313Y-74251823D01*
X78879883Y-74085000D01*
X78896313Y-73918177D01*
X78944976Y-73757758D01*
X79023995Y-73609924D01*
X79023996Y-73609922D01*
X79130341Y-73480341D01*
X79259922Y-73373996D01*
X79275094Y-73365886D01*
X79407758Y-73294976D01*
X79568177Y-73246313D01*
X79693196Y-73234000D01*
X79776804Y-73234000D01*
X79901823Y-73246313D01*
X79901823Y-73246313D01*
G37*
G36*
X113556823Y-73246313D02*
G01*
X113717242Y-73294976D01*
X113849906Y-73365886D01*
X113865078Y-73373996D01*
X113994659Y-73480341D01*
X114101004Y-73609922D01*
X114101005Y-73609924D01*
X114180024Y-73757758D01*
X114228687Y-73918177D01*
X114245117Y-74085000D01*
X114228687Y-74251823D01*
X114180024Y-74412242D01*
X114130978Y-74504000D01*
X114101004Y-74560078D01*
X113994659Y-74689659D01*
X113865078Y-74796004D01*
X113865076Y-74796005D01*
X113717242Y-74875024D01*
X113556823Y-74923687D01*
X113431804Y-74936000D01*
X113348196Y-74936000D01*
X113223177Y-74923687D01*
X113062758Y-74875024D01*
X112914924Y-74796005D01*
X112914922Y-74796004D01*
X112785341Y-74689659D01*
X112678996Y-74560078D01*
X112649022Y-74504000D01*
X112599976Y-74412242D01*
X112551313Y-74251823D01*
X112534883Y-74085000D01*
X112551313Y-73918177D01*
X112599976Y-73757758D01*
X112678995Y-73609924D01*
X112678996Y-73609922D01*
X112785341Y-73480341D01*
X112914922Y-73373996D01*
X112930094Y-73365886D01*
X113062758Y-73294976D01*
X113223177Y-73246313D01*
X113348196Y-73234000D01*
X113431804Y-73234000D01*
X113556823Y-73246313D01*
X113556823Y-73246313D01*
G37*
G36*
X105936823Y-73246313D02*
G01*
X106097242Y-73294976D01*
X106229906Y-73365886D01*
X106245078Y-73373996D01*
X106374659Y-73480341D01*
X106481004Y-73609922D01*
X106481005Y-73609924D01*
X106560024Y-73757758D01*
X106608687Y-73918177D01*
X106625117Y-74085000D01*
X106608687Y-74251823D01*
X106560024Y-74412242D01*
X106510978Y-74504000D01*
X106481004Y-74560078D01*
X106374659Y-74689659D01*
X106245078Y-74796004D01*
X106245076Y-74796005D01*
X106097242Y-74875024D01*
X105936823Y-74923687D01*
X105811804Y-74936000D01*
X105728196Y-74936000D01*
X105603177Y-74923687D01*
X105442758Y-74875024D01*
X105294924Y-74796005D01*
X105294922Y-74796004D01*
X105165341Y-74689659D01*
X105058996Y-74560078D01*
X105029022Y-74504000D01*
X104979976Y-74412242D01*
X104931313Y-74251823D01*
X104914883Y-74085000D01*
X104931313Y-73918177D01*
X104979976Y-73757758D01*
X105058995Y-73609924D01*
X105058996Y-73609922D01*
X105165341Y-73480341D01*
X105294922Y-73373996D01*
X105310094Y-73365886D01*
X105442758Y-73294976D01*
X105603177Y-73246313D01*
X105728196Y-73234000D01*
X105811804Y-73234000D01*
X105936823Y-73246313D01*
X105936823Y-73246313D01*
G37*
G36*
X87521823Y-70706313D02*
G01*
X87682242Y-70754976D01*
X87814906Y-70825886D01*
X87830078Y-70833996D01*
X87959659Y-70940341D01*
X88066004Y-71069922D01*
X88066005Y-71069924D01*
X88145024Y-71217758D01*
X88193687Y-71378177D01*
X88210117Y-71545000D01*
X88193687Y-71711823D01*
X88145024Y-71872242D01*
X88074114Y-72004906D01*
X88066004Y-72020078D01*
X87959659Y-72149659D01*
X87830078Y-72256004D01*
X87830076Y-72256005D01*
X87682242Y-72335024D01*
X87521823Y-72383687D01*
X87396804Y-72396000D01*
X87313196Y-72396000D01*
X87188177Y-72383687D01*
X87027758Y-72335024D01*
X86879924Y-72256005D01*
X86879922Y-72256004D01*
X86750341Y-72149659D01*
X86643996Y-72020078D01*
X86635886Y-72004906D01*
X86564976Y-71872242D01*
X86516313Y-71711823D01*
X86499883Y-71545000D01*
X86516313Y-71378177D01*
X86564976Y-71217758D01*
X86643995Y-71069924D01*
X86643996Y-71069922D01*
X86750341Y-70940341D01*
X86879922Y-70833996D01*
X86895094Y-70825886D01*
X87027758Y-70754976D01*
X87188177Y-70706313D01*
X87313196Y-70694000D01*
X87396804Y-70694000D01*
X87521823Y-70706313D01*
X87521823Y-70706313D01*
G37*
G36*
X79901823Y-70706313D02*
G01*
X80062242Y-70754976D01*
X80194906Y-70825886D01*
X80210078Y-70833996D01*
X80339659Y-70940341D01*
X80446004Y-71069922D01*
X80446005Y-71069924D01*
X80525024Y-71217758D01*
X80573687Y-71378177D01*
X80590117Y-71545000D01*
X80573687Y-71711823D01*
X80525024Y-71872242D01*
X80454114Y-72004906D01*
X80446004Y-72020078D01*
X80339659Y-72149659D01*
X80210078Y-72256004D01*
X80210076Y-72256005D01*
X80062242Y-72335024D01*
X79901823Y-72383687D01*
X79776804Y-72396000D01*
X79693196Y-72396000D01*
X79568177Y-72383687D01*
X79407758Y-72335024D01*
X79259924Y-72256005D01*
X79259922Y-72256004D01*
X79130341Y-72149659D01*
X79023996Y-72020078D01*
X79015886Y-72004906D01*
X78944976Y-71872242D01*
X78896313Y-71711823D01*
X78879883Y-71545000D01*
X78896313Y-71378177D01*
X78944976Y-71217758D01*
X79023995Y-71069924D01*
X79023996Y-71069922D01*
X79130341Y-70940341D01*
X79259922Y-70833996D01*
X79275094Y-70825886D01*
X79407758Y-70754976D01*
X79568177Y-70706313D01*
X79693196Y-70694000D01*
X79776804Y-70694000D01*
X79901823Y-70706313D01*
X79901823Y-70706313D01*
G37*
G36*
X113556823Y-70706313D02*
G01*
X113717242Y-70754976D01*
X113849906Y-70825886D01*
X113865078Y-70833996D01*
X113994659Y-70940341D01*
X114101004Y-71069922D01*
X114101005Y-71069924D01*
X114180024Y-71217758D01*
X114228687Y-71378177D01*
X114245117Y-71545000D01*
X114228687Y-71711823D01*
X114180024Y-71872242D01*
X114109114Y-72004906D01*
X114101004Y-72020078D01*
X113994659Y-72149659D01*
X113865078Y-72256004D01*
X113865076Y-72256005D01*
X113717242Y-72335024D01*
X113556823Y-72383687D01*
X113431804Y-72396000D01*
X113348196Y-72396000D01*
X113223177Y-72383687D01*
X113062758Y-72335024D01*
X112914924Y-72256005D01*
X112914922Y-72256004D01*
X112785341Y-72149659D01*
X112678996Y-72020078D01*
X112670886Y-72004906D01*
X112599976Y-71872242D01*
X112551313Y-71711823D01*
X112534883Y-71545000D01*
X112551313Y-71378177D01*
X112599976Y-71217758D01*
X112678995Y-71069924D01*
X112678996Y-71069922D01*
X112785341Y-70940341D01*
X112914922Y-70833996D01*
X112930094Y-70825886D01*
X113062758Y-70754976D01*
X113223177Y-70706313D01*
X113348196Y-70694000D01*
X113431804Y-70694000D01*
X113556823Y-70706313D01*
X113556823Y-70706313D01*
G37*
G36*
X105936823Y-70706313D02*
G01*
X106097242Y-70754976D01*
X106229906Y-70825886D01*
X106245078Y-70833996D01*
X106374659Y-70940341D01*
X106481004Y-71069922D01*
X106481005Y-71069924D01*
X106560024Y-71217758D01*
X106608687Y-71378177D01*
X106625117Y-71545000D01*
X106608687Y-71711823D01*
X106560024Y-71872242D01*
X106489114Y-72004906D01*
X106481004Y-72020078D01*
X106374659Y-72149659D01*
X106245078Y-72256004D01*
X106245076Y-72256005D01*
X106097242Y-72335024D01*
X105936823Y-72383687D01*
X105811804Y-72396000D01*
X105728196Y-72396000D01*
X105603177Y-72383687D01*
X105442758Y-72335024D01*
X105294924Y-72256005D01*
X105294922Y-72256004D01*
X105165341Y-72149659D01*
X105058996Y-72020078D01*
X105050886Y-72004906D01*
X104979976Y-71872242D01*
X104931313Y-71711823D01*
X104914883Y-71545000D01*
X104931313Y-71378177D01*
X104979976Y-71217758D01*
X105058995Y-71069924D01*
X105058996Y-71069922D01*
X105165341Y-70940341D01*
X105294922Y-70833996D01*
X105310094Y-70825886D01*
X105442758Y-70754976D01*
X105603177Y-70706313D01*
X105728196Y-70694000D01*
X105811804Y-70694000D01*
X105936823Y-70706313D01*
X105936823Y-70706313D01*
G37*
G36*
X95085443Y-69380519D02*
G01*
X95151627Y-69387037D01*
X95321466Y-69438557D01*
X95477991Y-69522222D01*
X95513729Y-69551552D01*
X95615186Y-69634814D01*
X95698448Y-69736271D01*
X95727778Y-69772009D01*
X95811443Y-69928534D01*
X95862963Y-70098373D01*
X95880359Y-70275000D01*
X95862963Y-70451627D01*
X95811443Y-70621466D01*
X95727778Y-70777991D01*
X95698448Y-70813729D01*
X95615186Y-70915186D01*
X95513729Y-70998448D01*
X95477991Y-71027778D01*
X95321466Y-71111443D01*
X95151627Y-71162963D01*
X95085442Y-71169482D01*
X95019260Y-71176000D01*
X94930740Y-71176000D01*
X94864558Y-71169482D01*
X94798373Y-71162963D01*
X94628534Y-71111443D01*
X94472009Y-71027778D01*
X94436271Y-70998448D01*
X94334814Y-70915186D01*
X94251552Y-70813729D01*
X94222222Y-70777991D01*
X94138557Y-70621466D01*
X94087037Y-70451627D01*
X94069641Y-70275000D01*
X94087037Y-70098373D01*
X94138557Y-69928534D01*
X94222222Y-69772009D01*
X94251552Y-69736271D01*
X94334814Y-69634814D01*
X94436271Y-69551552D01*
X94472009Y-69522222D01*
X94628534Y-69438557D01*
X94798373Y-69387037D01*
X94864557Y-69380519D01*
X94930740Y-69374000D01*
X95019260Y-69374000D01*
X95085443Y-69380519D01*
X95085443Y-69380519D01*
G37*
G36*
X97625443Y-69380519D02*
G01*
X97691627Y-69387037D01*
X97861466Y-69438557D01*
X98017991Y-69522222D01*
X98053729Y-69551552D01*
X98155186Y-69634814D01*
X98238448Y-69736271D01*
X98267778Y-69772009D01*
X98351443Y-69928534D01*
X98402963Y-70098373D01*
X98420359Y-70275000D01*
X98402963Y-70451627D01*
X98351443Y-70621466D01*
X98267778Y-70777991D01*
X98238448Y-70813729D01*
X98155186Y-70915186D01*
X98053729Y-70998448D01*
X98017991Y-71027778D01*
X97861466Y-71111443D01*
X97691627Y-71162963D01*
X97625442Y-71169482D01*
X97559260Y-71176000D01*
X97470740Y-71176000D01*
X97404558Y-71169482D01*
X97338373Y-71162963D01*
X97168534Y-71111443D01*
X97012009Y-71027778D01*
X96976271Y-70998448D01*
X96874814Y-70915186D01*
X96791552Y-70813729D01*
X96762222Y-70777991D01*
X96678557Y-70621466D01*
X96627037Y-70451627D01*
X96609641Y-70275000D01*
X96627037Y-70098373D01*
X96678557Y-69928534D01*
X96762222Y-69772009D01*
X96791552Y-69736271D01*
X96874814Y-69634814D01*
X96976271Y-69551552D01*
X97012009Y-69522222D01*
X97168534Y-69438557D01*
X97338373Y-69387037D01*
X97404557Y-69380519D01*
X97470740Y-69374000D01*
X97559260Y-69374000D01*
X97625443Y-69380519D01*
X97625443Y-69380519D01*
G37*
G36*
X87521823Y-68166313D02*
G01*
X87682242Y-68214976D01*
X87814906Y-68285886D01*
X87830078Y-68293996D01*
X87959659Y-68400341D01*
X88066004Y-68529922D01*
X88066005Y-68529924D01*
X88145024Y-68677758D01*
X88193687Y-68838177D01*
X88210117Y-69005000D01*
X88193687Y-69171823D01*
X88145024Y-69332242D01*
X88115735Y-69387037D01*
X88066004Y-69480078D01*
X87959659Y-69609659D01*
X87830078Y-69716004D01*
X87830076Y-69716005D01*
X87682242Y-69795024D01*
X87521823Y-69843687D01*
X87396804Y-69856000D01*
X87313196Y-69856000D01*
X87188177Y-69843687D01*
X87027758Y-69795024D01*
X86879924Y-69716005D01*
X86879922Y-69716004D01*
X86750341Y-69609659D01*
X86643996Y-69480078D01*
X86594265Y-69387037D01*
X86564976Y-69332242D01*
X86516313Y-69171823D01*
X86499883Y-69005000D01*
X86516313Y-68838177D01*
X86564976Y-68677758D01*
X86643995Y-68529924D01*
X86643996Y-68529922D01*
X86750341Y-68400341D01*
X86879922Y-68293996D01*
X86895094Y-68285886D01*
X87027758Y-68214976D01*
X87188177Y-68166313D01*
X87313196Y-68154000D01*
X87396804Y-68154000D01*
X87521823Y-68166313D01*
X87521823Y-68166313D01*
G37*
G36*
X79901823Y-68166313D02*
G01*
X80062242Y-68214976D01*
X80194906Y-68285886D01*
X80210078Y-68293996D01*
X80339659Y-68400341D01*
X80446004Y-68529922D01*
X80446005Y-68529924D01*
X80525024Y-68677758D01*
X80573687Y-68838177D01*
X80590117Y-69005000D01*
X80573687Y-69171823D01*
X80525024Y-69332242D01*
X80495735Y-69387037D01*
X80446004Y-69480078D01*
X80339659Y-69609659D01*
X80210078Y-69716004D01*
X80210076Y-69716005D01*
X80062242Y-69795024D01*
X79901823Y-69843687D01*
X79776804Y-69856000D01*
X79693196Y-69856000D01*
X79568177Y-69843687D01*
X79407758Y-69795024D01*
X79259924Y-69716005D01*
X79259922Y-69716004D01*
X79130341Y-69609659D01*
X79023996Y-69480078D01*
X78974265Y-69387037D01*
X78944976Y-69332242D01*
X78896313Y-69171823D01*
X78879883Y-69005000D01*
X78896313Y-68838177D01*
X78944976Y-68677758D01*
X79023995Y-68529924D01*
X79023996Y-68529922D01*
X79130341Y-68400341D01*
X79259922Y-68293996D01*
X79275094Y-68285886D01*
X79407758Y-68214976D01*
X79568177Y-68166313D01*
X79693196Y-68154000D01*
X79776804Y-68154000D01*
X79901823Y-68166313D01*
X79901823Y-68166313D01*
G37*
G36*
X113556823Y-68166313D02*
G01*
X113717242Y-68214976D01*
X113849906Y-68285886D01*
X113865078Y-68293996D01*
X113994659Y-68400341D01*
X114101004Y-68529922D01*
X114101005Y-68529924D01*
X114180024Y-68677758D01*
X114228687Y-68838177D01*
X114245117Y-69005000D01*
X114228687Y-69171823D01*
X114180024Y-69332242D01*
X114150735Y-69387037D01*
X114101004Y-69480078D01*
X113994659Y-69609659D01*
X113865078Y-69716004D01*
X113865076Y-69716005D01*
X113717242Y-69795024D01*
X113556823Y-69843687D01*
X113431804Y-69856000D01*
X113348196Y-69856000D01*
X113223177Y-69843687D01*
X113062758Y-69795024D01*
X112914924Y-69716005D01*
X112914922Y-69716004D01*
X112785341Y-69609659D01*
X112678996Y-69480078D01*
X112629265Y-69387037D01*
X112599976Y-69332242D01*
X112551313Y-69171823D01*
X112534883Y-69005000D01*
X112551313Y-68838177D01*
X112599976Y-68677758D01*
X112678995Y-68529924D01*
X112678996Y-68529922D01*
X112785341Y-68400341D01*
X112914922Y-68293996D01*
X112930094Y-68285886D01*
X113062758Y-68214976D01*
X113223177Y-68166313D01*
X113348196Y-68154000D01*
X113431804Y-68154000D01*
X113556823Y-68166313D01*
X113556823Y-68166313D01*
G37*
G36*
X105936823Y-68166313D02*
G01*
X106097242Y-68214976D01*
X106229906Y-68285886D01*
X106245078Y-68293996D01*
X106374659Y-68400341D01*
X106481004Y-68529922D01*
X106481005Y-68529924D01*
X106560024Y-68677758D01*
X106608687Y-68838177D01*
X106625117Y-69005000D01*
X106608687Y-69171823D01*
X106560024Y-69332242D01*
X106530735Y-69387037D01*
X106481004Y-69480078D01*
X106374659Y-69609659D01*
X106245078Y-69716004D01*
X106245076Y-69716005D01*
X106097242Y-69795024D01*
X105936823Y-69843687D01*
X105811804Y-69856000D01*
X105728196Y-69856000D01*
X105603177Y-69843687D01*
X105442758Y-69795024D01*
X105294924Y-69716005D01*
X105294922Y-69716004D01*
X105165341Y-69609659D01*
X105058996Y-69480078D01*
X105009265Y-69387037D01*
X104979976Y-69332242D01*
X104931313Y-69171823D01*
X104914883Y-69005000D01*
X104931313Y-68838177D01*
X104979976Y-68677758D01*
X105058995Y-68529924D01*
X105058996Y-68529922D01*
X105165341Y-68400341D01*
X105294922Y-68293996D01*
X105310094Y-68285886D01*
X105442758Y-68214976D01*
X105603177Y-68166313D01*
X105728196Y-68154000D01*
X105811804Y-68154000D01*
X105936823Y-68166313D01*
X105936823Y-68166313D01*
G37*
G36*
X97625443Y-66840519D02*
G01*
X97691627Y-66847037D01*
X97861466Y-66898557D01*
X98017991Y-66982222D01*
X98053729Y-67011552D01*
X98155186Y-67094814D01*
X98238448Y-67196271D01*
X98267778Y-67232009D01*
X98351443Y-67388534D01*
X98402963Y-67558373D01*
X98420359Y-67735000D01*
X98402963Y-67911627D01*
X98351443Y-68081466D01*
X98267778Y-68237991D01*
X98238448Y-68273729D01*
X98155186Y-68375186D01*
X98053729Y-68458448D01*
X98017991Y-68487778D01*
X97861466Y-68571443D01*
X97691627Y-68622963D01*
X97625443Y-68629481D01*
X97559260Y-68636000D01*
X97470740Y-68636000D01*
X97404557Y-68629481D01*
X97338373Y-68622963D01*
X97168534Y-68571443D01*
X97012009Y-68487778D01*
X96976271Y-68458448D01*
X96874814Y-68375186D01*
X96791552Y-68273729D01*
X96762222Y-68237991D01*
X96678557Y-68081466D01*
X96627037Y-67911627D01*
X96609641Y-67735000D01*
X96627037Y-67558373D01*
X96678557Y-67388534D01*
X96762222Y-67232009D01*
X96791552Y-67196271D01*
X96874814Y-67094814D01*
X96976271Y-67011552D01*
X97012009Y-66982222D01*
X97168534Y-66898557D01*
X97338373Y-66847037D01*
X97404557Y-66840519D01*
X97470740Y-66834000D01*
X97559260Y-66834000D01*
X97625443Y-66840519D01*
X97625443Y-66840519D01*
G37*
G36*
X95085443Y-66840519D02*
G01*
X95151627Y-66847037D01*
X95321466Y-66898557D01*
X95477991Y-66982222D01*
X95513729Y-67011552D01*
X95615186Y-67094814D01*
X95698448Y-67196271D01*
X95727778Y-67232009D01*
X95811443Y-67388534D01*
X95862963Y-67558373D01*
X95880359Y-67735000D01*
X95862963Y-67911627D01*
X95811443Y-68081466D01*
X95727778Y-68237991D01*
X95698448Y-68273729D01*
X95615186Y-68375186D01*
X95513729Y-68458448D01*
X95477991Y-68487778D01*
X95321466Y-68571443D01*
X95151627Y-68622963D01*
X95085443Y-68629481D01*
X95019260Y-68636000D01*
X94930740Y-68636000D01*
X94864557Y-68629481D01*
X94798373Y-68622963D01*
X94628534Y-68571443D01*
X94472009Y-68487778D01*
X94436271Y-68458448D01*
X94334814Y-68375186D01*
X94251552Y-68273729D01*
X94222222Y-68237991D01*
X94138557Y-68081466D01*
X94087037Y-67911627D01*
X94069641Y-67735000D01*
X94087037Y-67558373D01*
X94138557Y-67388534D01*
X94222222Y-67232009D01*
X94251552Y-67196271D01*
X94334814Y-67094814D01*
X94436271Y-67011552D01*
X94472009Y-66982222D01*
X94628534Y-66898557D01*
X94798373Y-66847037D01*
X94864557Y-66840519D01*
X94930740Y-66834000D01*
X95019260Y-66834000D01*
X95085443Y-66840519D01*
X95085443Y-66840519D01*
G37*
G36*
X105936823Y-65626313D02*
G01*
X106097242Y-65674976D01*
X106229906Y-65745886D01*
X106245078Y-65753996D01*
X106374659Y-65860341D01*
X106481004Y-65989922D01*
X106481005Y-65989924D01*
X106560024Y-66137758D01*
X106608687Y-66298177D01*
X106625117Y-66465000D01*
X106608687Y-66631823D01*
X106560024Y-66792242D01*
X106530735Y-66847037D01*
X106481004Y-66940078D01*
X106374659Y-67069659D01*
X106245078Y-67176004D01*
X106245076Y-67176005D01*
X106097242Y-67255024D01*
X105936823Y-67303687D01*
X105811804Y-67316000D01*
X105728196Y-67316000D01*
X105603177Y-67303687D01*
X105442758Y-67255024D01*
X105294924Y-67176005D01*
X105294922Y-67176004D01*
X105165341Y-67069659D01*
X105058996Y-66940078D01*
X105009265Y-66847037D01*
X104979976Y-66792242D01*
X104931313Y-66631823D01*
X104914883Y-66465000D01*
X104931313Y-66298177D01*
X104979976Y-66137758D01*
X105058995Y-65989924D01*
X105058996Y-65989922D01*
X105165341Y-65860341D01*
X105294922Y-65753996D01*
X105310094Y-65745886D01*
X105442758Y-65674976D01*
X105603177Y-65626313D01*
X105728196Y-65614000D01*
X105811804Y-65614000D01*
X105936823Y-65626313D01*
X105936823Y-65626313D01*
G37*
G36*
X113556823Y-65626313D02*
G01*
X113717242Y-65674976D01*
X113849906Y-65745886D01*
X113865078Y-65753996D01*
X113994659Y-65860341D01*
X114101004Y-65989922D01*
X114101005Y-65989924D01*
X114180024Y-66137758D01*
X114228687Y-66298177D01*
X114245117Y-66465000D01*
X114228687Y-66631823D01*
X114180024Y-66792242D01*
X114150735Y-66847037D01*
X114101004Y-66940078D01*
X113994659Y-67069659D01*
X113865078Y-67176004D01*
X113865076Y-67176005D01*
X113717242Y-67255024D01*
X113556823Y-67303687D01*
X113431804Y-67316000D01*
X113348196Y-67316000D01*
X113223177Y-67303687D01*
X113062758Y-67255024D01*
X112914924Y-67176005D01*
X112914922Y-67176004D01*
X112785341Y-67069659D01*
X112678996Y-66940078D01*
X112629265Y-66847037D01*
X112599976Y-66792242D01*
X112551313Y-66631823D01*
X112534883Y-66465000D01*
X112551313Y-66298177D01*
X112599976Y-66137758D01*
X112678995Y-65989924D01*
X112678996Y-65989922D01*
X112785341Y-65860341D01*
X112914922Y-65753996D01*
X112930094Y-65745886D01*
X113062758Y-65674976D01*
X113223177Y-65626313D01*
X113348196Y-65614000D01*
X113431804Y-65614000D01*
X113556823Y-65626313D01*
X113556823Y-65626313D01*
G37*
G36*
X87521823Y-65626313D02*
G01*
X87682242Y-65674976D01*
X87814906Y-65745886D01*
X87830078Y-65753996D01*
X87959659Y-65860341D01*
X88066004Y-65989922D01*
X88066005Y-65989924D01*
X88145024Y-66137758D01*
X88193687Y-66298177D01*
X88210117Y-66465000D01*
X88193687Y-66631823D01*
X88145024Y-66792242D01*
X88115735Y-66847037D01*
X88066004Y-66940078D01*
X87959659Y-67069659D01*
X87830078Y-67176004D01*
X87830076Y-67176005D01*
X87682242Y-67255024D01*
X87521823Y-67303687D01*
X87396804Y-67316000D01*
X87313196Y-67316000D01*
X87188177Y-67303687D01*
X87027758Y-67255024D01*
X86879924Y-67176005D01*
X86879922Y-67176004D01*
X86750341Y-67069659D01*
X86643996Y-66940078D01*
X86594265Y-66847037D01*
X86564976Y-66792242D01*
X86516313Y-66631823D01*
X86499883Y-66465000D01*
X86516313Y-66298177D01*
X86564976Y-66137758D01*
X86643995Y-65989924D01*
X86643996Y-65989922D01*
X86750341Y-65860341D01*
X86879922Y-65753996D01*
X86895094Y-65745886D01*
X87027758Y-65674976D01*
X87188177Y-65626313D01*
X87313196Y-65614000D01*
X87396804Y-65614000D01*
X87521823Y-65626313D01*
X87521823Y-65626313D01*
G37*
G36*
X79901823Y-65626313D02*
G01*
X80062242Y-65674976D01*
X80194906Y-65745886D01*
X80210078Y-65753996D01*
X80339659Y-65860341D01*
X80446004Y-65989922D01*
X80446005Y-65989924D01*
X80525024Y-66137758D01*
X80573687Y-66298177D01*
X80590117Y-66465000D01*
X80573687Y-66631823D01*
X80525024Y-66792242D01*
X80495735Y-66847037D01*
X80446004Y-66940078D01*
X80339659Y-67069659D01*
X80210078Y-67176004D01*
X80210076Y-67176005D01*
X80062242Y-67255024D01*
X79901823Y-67303687D01*
X79776804Y-67316000D01*
X79693196Y-67316000D01*
X79568177Y-67303687D01*
X79407758Y-67255024D01*
X79259924Y-67176005D01*
X79259922Y-67176004D01*
X79130341Y-67069659D01*
X79023996Y-66940078D01*
X78974265Y-66847037D01*
X78944976Y-66792242D01*
X78896313Y-66631823D01*
X78879883Y-66465000D01*
X78896313Y-66298177D01*
X78944976Y-66137758D01*
X79023995Y-65989924D01*
X79023996Y-65989922D01*
X79130341Y-65860341D01*
X79259922Y-65753996D01*
X79275094Y-65745886D01*
X79407758Y-65674976D01*
X79568177Y-65626313D01*
X79693196Y-65614000D01*
X79776804Y-65614000D01*
X79901823Y-65626313D01*
X79901823Y-65626313D01*
G37*
G36*
X157580256Y-62951298D02*
G01*
X157686579Y-62972447D01*
X157987042Y-63096903D01*
X158257451Y-63277585D01*
X158487415Y-63507549D01*
X158668097Y-63777958D01*
X158668098Y-63777960D01*
X158792553Y-64078422D01*
X158856000Y-64397389D01*
X158856000Y-64722611D01*
X158830952Y-64848534D01*
X158792553Y-65041579D01*
X158668097Y-65342042D01*
X158487415Y-65612451D01*
X158257451Y-65842415D01*
X157987042Y-66023097D01*
X157987041Y-66023098D01*
X157987040Y-66023098D01*
X157966893Y-66031443D01*
X157686579Y-66147553D01*
X157580256Y-66168702D01*
X157367611Y-66211000D01*
X157042389Y-66211000D01*
X156829744Y-66168702D01*
X156723421Y-66147553D01*
X156443107Y-66031443D01*
X156422960Y-66023098D01*
X156422959Y-66023098D01*
X156422958Y-66023097D01*
X156152549Y-65842415D01*
X155922585Y-65612451D01*
X155741903Y-65342042D01*
X155617447Y-65041579D01*
X155579048Y-64848534D01*
X155554000Y-64722611D01*
X155554000Y-64397389D01*
X155617447Y-64078422D01*
X155741902Y-63777960D01*
X155741903Y-63777958D01*
X155922585Y-63507549D01*
X156152549Y-63277585D01*
X156422958Y-63096903D01*
X156723421Y-62972447D01*
X156829744Y-62951298D01*
X157042389Y-62909000D01*
X157367611Y-62909000D01*
X157580256Y-62951298D01*
X157580256Y-62951298D01*
G37*
G36*
X35660256Y-62951298D02*
G01*
X35766579Y-62972447D01*
X36067042Y-63096903D01*
X36337451Y-63277585D01*
X36567415Y-63507549D01*
X36748097Y-63777958D01*
X36748098Y-63777960D01*
X36872553Y-64078422D01*
X36936000Y-64397389D01*
X36936000Y-64722611D01*
X36910952Y-64848534D01*
X36872553Y-65041579D01*
X36748097Y-65342042D01*
X36567415Y-65612451D01*
X36337451Y-65842415D01*
X36067042Y-66023097D01*
X36067041Y-66023098D01*
X36067040Y-66023098D01*
X36046893Y-66031443D01*
X35766579Y-66147553D01*
X35660256Y-66168702D01*
X35447611Y-66211000D01*
X35122389Y-66211000D01*
X34909744Y-66168702D01*
X34803421Y-66147553D01*
X34523107Y-66031443D01*
X34502960Y-66023098D01*
X34502959Y-66023098D01*
X34502958Y-66023097D01*
X34232549Y-65842415D01*
X34002585Y-65612451D01*
X33821903Y-65342042D01*
X33697447Y-65041579D01*
X33659048Y-64848534D01*
X33634000Y-64722611D01*
X33634000Y-64397389D01*
X33697447Y-64078422D01*
X33821902Y-63777960D01*
X33821903Y-63777958D01*
X34002585Y-63507549D01*
X34232549Y-63277585D01*
X34502958Y-63096903D01*
X34803421Y-62972447D01*
X34909744Y-62951298D01*
X35122389Y-62909000D01*
X35447611Y-62909000D01*
X35660256Y-62951298D01*
X35660256Y-62951298D01*
G37*
G36*
X97625442Y-64300518D02*
G01*
X97691627Y-64307037D01*
X97861466Y-64358557D01*
X98017991Y-64442222D01*
X98053729Y-64471552D01*
X98155186Y-64554814D01*
X98235369Y-64652519D01*
X98267778Y-64692009D01*
X98351443Y-64848534D01*
X98402963Y-65018373D01*
X98420359Y-65195000D01*
X98402963Y-65371627D01*
X98351443Y-65541466D01*
X98267778Y-65697991D01*
X98238448Y-65733729D01*
X98155186Y-65835186D01*
X98053729Y-65918448D01*
X98017991Y-65947778D01*
X97861466Y-66031443D01*
X97691627Y-66082963D01*
X97625442Y-66089482D01*
X97559260Y-66096000D01*
X97470740Y-66096000D01*
X97404558Y-66089482D01*
X97338373Y-66082963D01*
X97168534Y-66031443D01*
X97012009Y-65947778D01*
X96976271Y-65918448D01*
X96874814Y-65835186D01*
X96791552Y-65733729D01*
X96762222Y-65697991D01*
X96678557Y-65541466D01*
X96627037Y-65371627D01*
X96609641Y-65195000D01*
X96627037Y-65018373D01*
X96678557Y-64848534D01*
X96762222Y-64692009D01*
X96794631Y-64652519D01*
X96874814Y-64554814D01*
X96976271Y-64471552D01*
X97012009Y-64442222D01*
X97168534Y-64358557D01*
X97338373Y-64307037D01*
X97404558Y-64300518D01*
X97470740Y-64294000D01*
X97559260Y-64294000D01*
X97625442Y-64300518D01*
X97625442Y-64300518D01*
G37*
G36*
X95085442Y-64300518D02*
G01*
X95151627Y-64307037D01*
X95321466Y-64358557D01*
X95477991Y-64442222D01*
X95513729Y-64471552D01*
X95615186Y-64554814D01*
X95695369Y-64652519D01*
X95727778Y-64692009D01*
X95811443Y-64848534D01*
X95862963Y-65018373D01*
X95880359Y-65195000D01*
X95862963Y-65371627D01*
X95811443Y-65541466D01*
X95727778Y-65697991D01*
X95698448Y-65733729D01*
X95615186Y-65835186D01*
X95513729Y-65918448D01*
X95477991Y-65947778D01*
X95321466Y-66031443D01*
X95151627Y-66082963D01*
X95085442Y-66089482D01*
X95019260Y-66096000D01*
X94930740Y-66096000D01*
X94864558Y-66089482D01*
X94798373Y-66082963D01*
X94628534Y-66031443D01*
X94472009Y-65947778D01*
X94436271Y-65918448D01*
X94334814Y-65835186D01*
X94251552Y-65733729D01*
X94222222Y-65697991D01*
X94138557Y-65541466D01*
X94087037Y-65371627D01*
X94069641Y-65195000D01*
X94087037Y-65018373D01*
X94138557Y-64848534D01*
X94222222Y-64692009D01*
X94254631Y-64652519D01*
X94334814Y-64554814D01*
X94436271Y-64471552D01*
X94472009Y-64442222D01*
X94628534Y-64358557D01*
X94798373Y-64307037D01*
X94864558Y-64300518D01*
X94930740Y-64294000D01*
X95019260Y-64294000D01*
X95085442Y-64300518D01*
X95085442Y-64300518D01*
G37*
G36*
X60933228Y-64376703D02*
G01*
X61088100Y-64440853D01*
X61227481Y-64533985D01*
X61346015Y-64652519D01*
X61439147Y-64791900D01*
X61503297Y-64946772D01*
X61536000Y-65111184D01*
X61536000Y-65278816D01*
X61503297Y-65443228D01*
X61439147Y-65598100D01*
X61346015Y-65737481D01*
X61227481Y-65856015D01*
X61088100Y-65949147D01*
X60933228Y-66013297D01*
X60768816Y-66046000D01*
X60601184Y-66046000D01*
X60436772Y-66013297D01*
X60281900Y-65949147D01*
X60142519Y-65856015D01*
X60023985Y-65737481D01*
X59930853Y-65598100D01*
X59866703Y-65443228D01*
X59834000Y-65278816D01*
X59834000Y-65111184D01*
X59866703Y-64946772D01*
X59930853Y-64791900D01*
X60023985Y-64652519D01*
X60142519Y-64533985D01*
X60281900Y-64440853D01*
X60436772Y-64376703D01*
X60601184Y-64344000D01*
X60768816Y-64344000D01*
X60933228Y-64376703D01*
X60933228Y-64376703D01*
G37*
G36*
X69188228Y-64376703D02*
G01*
X69343100Y-64440853D01*
X69482481Y-64533985D01*
X69601015Y-64652519D01*
X69694147Y-64791900D01*
X69758297Y-64946772D01*
X69791000Y-65111184D01*
X69791000Y-65278816D01*
X69758297Y-65443228D01*
X69694147Y-65598100D01*
X69601015Y-65737481D01*
X69482481Y-65856015D01*
X69343100Y-65949147D01*
X69188228Y-66013297D01*
X69023816Y-66046000D01*
X68856184Y-66046000D01*
X68691772Y-66013297D01*
X68536900Y-65949147D01*
X68397519Y-65856015D01*
X68278985Y-65737481D01*
X68185853Y-65598100D01*
X68121703Y-65443228D01*
X68089000Y-65278816D01*
X68089000Y-65111184D01*
X68121703Y-64946772D01*
X68185853Y-64791900D01*
X68278985Y-64652519D01*
X68397519Y-64533985D01*
X68536900Y-64440853D01*
X68691772Y-64376703D01*
X68856184Y-64344000D01*
X69023816Y-64344000D01*
X69188228Y-64376703D01*
X69188228Y-64376703D01*
G37*
G36*
X66013228Y-64376703D02*
G01*
X66168100Y-64440853D01*
X66307481Y-64533985D01*
X66426015Y-64652519D01*
X66519147Y-64791900D01*
X66583297Y-64946772D01*
X66616000Y-65111184D01*
X66616000Y-65278816D01*
X66583297Y-65443228D01*
X66519147Y-65598100D01*
X66426015Y-65737481D01*
X66307481Y-65856015D01*
X66168100Y-65949147D01*
X66013228Y-66013297D01*
X65848816Y-66046000D01*
X65681184Y-66046000D01*
X65516772Y-66013297D01*
X65361900Y-65949147D01*
X65222519Y-65856015D01*
X65103985Y-65737481D01*
X65010853Y-65598100D01*
X64946703Y-65443228D01*
X64914000Y-65278816D01*
X64914000Y-65111184D01*
X64946703Y-64946772D01*
X65010853Y-64791900D01*
X65103985Y-64652519D01*
X65222519Y-64533985D01*
X65361900Y-64440853D01*
X65516772Y-64376703D01*
X65681184Y-64344000D01*
X65848816Y-64344000D01*
X66013228Y-64376703D01*
X66013228Y-64376703D01*
G37*
G36*
X72363228Y-64376703D02*
G01*
X72518100Y-64440853D01*
X72657481Y-64533985D01*
X72776015Y-64652519D01*
X72869147Y-64791900D01*
X72933297Y-64946772D01*
X72966000Y-65111184D01*
X72966000Y-65278816D01*
X72933297Y-65443228D01*
X72869147Y-65598100D01*
X72776015Y-65737481D01*
X72657481Y-65856015D01*
X72518100Y-65949147D01*
X72363228Y-66013297D01*
X72198816Y-66046000D01*
X72031184Y-66046000D01*
X71866772Y-66013297D01*
X71711900Y-65949147D01*
X71572519Y-65856015D01*
X71453985Y-65737481D01*
X71360853Y-65598100D01*
X71296703Y-65443228D01*
X71264000Y-65278816D01*
X71264000Y-65111184D01*
X71296703Y-64946772D01*
X71360853Y-64791900D01*
X71453985Y-64652519D01*
X71572519Y-64533985D01*
X71711900Y-64440853D01*
X71866772Y-64376703D01*
X72031184Y-64344000D01*
X72198816Y-64344000D01*
X72363228Y-64376703D01*
X72363228Y-64376703D01*
G37*
G36*
X122528228Y-64376703D02*
G01*
X122683100Y-64440853D01*
X122822481Y-64533985D01*
X122941015Y-64652519D01*
X123034147Y-64791900D01*
X123098297Y-64946772D01*
X123131000Y-65111184D01*
X123131000Y-65278816D01*
X123098297Y-65443228D01*
X123034147Y-65598100D01*
X122941015Y-65737481D01*
X122822481Y-65856015D01*
X122683100Y-65949147D01*
X122528228Y-66013297D01*
X122363816Y-66046000D01*
X122196184Y-66046000D01*
X122031772Y-66013297D01*
X121876900Y-65949147D01*
X121737519Y-65856015D01*
X121618985Y-65737481D01*
X121525853Y-65598100D01*
X121461703Y-65443228D01*
X121429000Y-65278816D01*
X121429000Y-65111184D01*
X121461703Y-64946772D01*
X121525853Y-64791900D01*
X121618985Y-64652519D01*
X121737519Y-64533985D01*
X121876900Y-64440853D01*
X122031772Y-64376703D01*
X122196184Y-64344000D01*
X122363816Y-64344000D01*
X122528228Y-64376703D01*
X122528228Y-64376703D01*
G37*
G36*
X145388228Y-64376703D02*
G01*
X145543100Y-64440853D01*
X145682481Y-64533985D01*
X145801015Y-64652519D01*
X145894147Y-64791900D01*
X145958297Y-64946772D01*
X145991000Y-65111184D01*
X145991000Y-65278816D01*
X145958297Y-65443228D01*
X145894147Y-65598100D01*
X145801015Y-65737481D01*
X145682481Y-65856015D01*
X145543100Y-65949147D01*
X145388228Y-66013297D01*
X145223816Y-66046000D01*
X145056184Y-66046000D01*
X144891772Y-66013297D01*
X144736900Y-65949147D01*
X144597519Y-65856015D01*
X144478985Y-65737481D01*
X144385853Y-65598100D01*
X144321703Y-65443228D01*
X144289000Y-65278816D01*
X144289000Y-65111184D01*
X144321703Y-64946772D01*
X144385853Y-64791900D01*
X144478985Y-64652519D01*
X144597519Y-64533985D01*
X144736900Y-64440853D01*
X144891772Y-64376703D01*
X145056184Y-64344000D01*
X145223816Y-64344000D01*
X145388228Y-64376703D01*
X145388228Y-64376703D01*
G37*
G36*
X54583228Y-64376703D02*
G01*
X54738100Y-64440853D01*
X54877481Y-64533985D01*
X54996015Y-64652519D01*
X55089147Y-64791900D01*
X55153297Y-64946772D01*
X55186000Y-65111184D01*
X55186000Y-65278816D01*
X55153297Y-65443228D01*
X55089147Y-65598100D01*
X54996015Y-65737481D01*
X54877481Y-65856015D01*
X54738100Y-65949147D01*
X54583228Y-66013297D01*
X54418816Y-66046000D01*
X54251184Y-66046000D01*
X54086772Y-66013297D01*
X53931900Y-65949147D01*
X53792519Y-65856015D01*
X53673985Y-65737481D01*
X53580853Y-65598100D01*
X53516703Y-65443228D01*
X53484000Y-65278816D01*
X53484000Y-65111184D01*
X53516703Y-64946772D01*
X53580853Y-64791900D01*
X53673985Y-64652519D01*
X53792519Y-64533985D01*
X53931900Y-64440853D01*
X54086772Y-64376703D01*
X54251184Y-64344000D01*
X54418816Y-64344000D01*
X54583228Y-64376703D01*
X54583228Y-64376703D01*
G37*
G36*
X151738228Y-64376703D02*
G01*
X151893100Y-64440853D01*
X152032481Y-64533985D01*
X152151015Y-64652519D01*
X152244147Y-64791900D01*
X152308297Y-64946772D01*
X152341000Y-65111184D01*
X152341000Y-65278816D01*
X152308297Y-65443228D01*
X152244147Y-65598100D01*
X152151015Y-65737481D01*
X152032481Y-65856015D01*
X151893100Y-65949147D01*
X151738228Y-66013297D01*
X151573816Y-66046000D01*
X151406184Y-66046000D01*
X151241772Y-66013297D01*
X151086900Y-65949147D01*
X150947519Y-65856015D01*
X150828985Y-65737481D01*
X150735853Y-65598100D01*
X150671703Y-65443228D01*
X150639000Y-65278816D01*
X150639000Y-65111184D01*
X150671703Y-64946772D01*
X150735853Y-64791900D01*
X150828985Y-64652519D01*
X150947519Y-64533985D01*
X151086900Y-64440853D01*
X151241772Y-64376703D01*
X151406184Y-64344000D01*
X151573816Y-64344000D01*
X151738228Y-64376703D01*
X151738228Y-64376703D01*
G37*
G36*
X57758228Y-64376703D02*
G01*
X57913100Y-64440853D01*
X58052481Y-64533985D01*
X58171015Y-64652519D01*
X58264147Y-64791900D01*
X58328297Y-64946772D01*
X58361000Y-65111184D01*
X58361000Y-65278816D01*
X58328297Y-65443228D01*
X58264147Y-65598100D01*
X58171015Y-65737481D01*
X58052481Y-65856015D01*
X57913100Y-65949147D01*
X57758228Y-66013297D01*
X57593816Y-66046000D01*
X57426184Y-66046000D01*
X57261772Y-66013297D01*
X57106900Y-65949147D01*
X56967519Y-65856015D01*
X56848985Y-65737481D01*
X56755853Y-65598100D01*
X56691703Y-65443228D01*
X56659000Y-65278816D01*
X56659000Y-65111184D01*
X56691703Y-64946772D01*
X56755853Y-64791900D01*
X56848985Y-64652519D01*
X56967519Y-64533985D01*
X57106900Y-64440853D01*
X57261772Y-64376703D01*
X57426184Y-64344000D01*
X57593816Y-64344000D01*
X57758228Y-64376703D01*
X57758228Y-64376703D01*
G37*
G36*
X140308228Y-64376703D02*
G01*
X140463100Y-64440853D01*
X140602481Y-64533985D01*
X140721015Y-64652519D01*
X140814147Y-64791900D01*
X140878297Y-64946772D01*
X140911000Y-65111184D01*
X140911000Y-65278816D01*
X140878297Y-65443228D01*
X140814147Y-65598100D01*
X140721015Y-65737481D01*
X140602481Y-65856015D01*
X140463100Y-65949147D01*
X140308228Y-66013297D01*
X140143816Y-66046000D01*
X139976184Y-66046000D01*
X139811772Y-66013297D01*
X139656900Y-65949147D01*
X139517519Y-65856015D01*
X139398985Y-65737481D01*
X139305853Y-65598100D01*
X139241703Y-65443228D01*
X139209000Y-65278816D01*
X139209000Y-65111184D01*
X139241703Y-64946772D01*
X139305853Y-64791900D01*
X139398985Y-64652519D01*
X139517519Y-64533985D01*
X139656900Y-64440853D01*
X139811772Y-64376703D01*
X139976184Y-64344000D01*
X140143816Y-64344000D01*
X140308228Y-64376703D01*
X140308228Y-64376703D01*
G37*
G36*
X43153228Y-64376703D02*
G01*
X43308100Y-64440853D01*
X43447481Y-64533985D01*
X43566015Y-64652519D01*
X43659147Y-64791900D01*
X43723297Y-64946772D01*
X43756000Y-65111184D01*
X43756000Y-65278816D01*
X43723297Y-65443228D01*
X43659147Y-65598100D01*
X43566015Y-65737481D01*
X43447481Y-65856015D01*
X43308100Y-65949147D01*
X43153228Y-66013297D01*
X42988816Y-66046000D01*
X42821184Y-66046000D01*
X42656772Y-66013297D01*
X42501900Y-65949147D01*
X42362519Y-65856015D01*
X42243985Y-65737481D01*
X42150853Y-65598100D01*
X42086703Y-65443228D01*
X42054000Y-65278816D01*
X42054000Y-65111184D01*
X42086703Y-64946772D01*
X42150853Y-64791900D01*
X42243985Y-64652519D01*
X42362519Y-64533985D01*
X42501900Y-64440853D01*
X42656772Y-64376703D01*
X42821184Y-64344000D01*
X42988816Y-64344000D01*
X43153228Y-64376703D01*
X43153228Y-64376703D01*
G37*
G36*
X46328228Y-64376703D02*
G01*
X46483100Y-64440853D01*
X46622481Y-64533985D01*
X46741015Y-64652519D01*
X46834147Y-64791900D01*
X46898297Y-64946772D01*
X46931000Y-65111184D01*
X46931000Y-65278816D01*
X46898297Y-65443228D01*
X46834147Y-65598100D01*
X46741015Y-65737481D01*
X46622481Y-65856015D01*
X46483100Y-65949147D01*
X46328228Y-66013297D01*
X46163816Y-66046000D01*
X45996184Y-66046000D01*
X45831772Y-66013297D01*
X45676900Y-65949147D01*
X45537519Y-65856015D01*
X45418985Y-65737481D01*
X45325853Y-65598100D01*
X45261703Y-65443228D01*
X45229000Y-65278816D01*
X45229000Y-65111184D01*
X45261703Y-64946772D01*
X45325853Y-64791900D01*
X45418985Y-64652519D01*
X45537519Y-64533985D01*
X45676900Y-64440853D01*
X45831772Y-64376703D01*
X45996184Y-64344000D01*
X46163816Y-64344000D01*
X46328228Y-64376703D01*
X46328228Y-64376703D01*
G37*
G36*
X118636823Y-64356313D02*
G01*
X118797242Y-64404976D01*
X118864361Y-64440852D01*
X118945078Y-64483996D01*
X119074659Y-64590341D01*
X119181004Y-64719922D01*
X119181005Y-64719924D01*
X119260024Y-64867758D01*
X119308687Y-65028177D01*
X119325117Y-65195000D01*
X119308687Y-65361823D01*
X119260024Y-65522242D01*
X119219477Y-65598100D01*
X119181004Y-65670078D01*
X119074659Y-65799659D01*
X118945078Y-65906004D01*
X118945076Y-65906005D01*
X118797242Y-65985024D01*
X118636823Y-66033687D01*
X118511804Y-66046000D01*
X118428196Y-66046000D01*
X118303177Y-66033687D01*
X118142758Y-65985024D01*
X117994924Y-65906005D01*
X117994922Y-65906004D01*
X117865341Y-65799659D01*
X117758996Y-65670078D01*
X117720523Y-65598100D01*
X117679976Y-65522242D01*
X117631313Y-65361823D01*
X117614883Y-65195000D01*
X117631313Y-65028177D01*
X117679976Y-64867758D01*
X117758995Y-64719924D01*
X117758996Y-64719922D01*
X117865341Y-64590341D01*
X117994922Y-64483996D01*
X118075639Y-64440852D01*
X118142758Y-64404976D01*
X118303177Y-64356313D01*
X118428196Y-64344000D01*
X118511804Y-64344000D01*
X118636823Y-64356313D01*
X118636823Y-64356313D01*
G37*
G36*
X49503228Y-64376703D02*
G01*
X49658100Y-64440853D01*
X49797481Y-64533985D01*
X49916015Y-64652519D01*
X50009147Y-64791900D01*
X50073297Y-64946772D01*
X50106000Y-65111184D01*
X50106000Y-65278816D01*
X50073297Y-65443228D01*
X50009147Y-65598100D01*
X49916015Y-65737481D01*
X49797481Y-65856015D01*
X49658100Y-65949147D01*
X49503228Y-66013297D01*
X49338816Y-66046000D01*
X49171184Y-66046000D01*
X49006772Y-66013297D01*
X48851900Y-65949147D01*
X48712519Y-65856015D01*
X48593985Y-65737481D01*
X48500853Y-65598100D01*
X48436703Y-65443228D01*
X48404000Y-65278816D01*
X48404000Y-65111184D01*
X48436703Y-64946772D01*
X48500853Y-64791900D01*
X48593985Y-64652519D01*
X48712519Y-64533985D01*
X48851900Y-64440853D01*
X49006772Y-64376703D01*
X49171184Y-64344000D01*
X49338816Y-64344000D01*
X49503228Y-64376703D01*
X49503228Y-64376703D01*
G37*
G36*
X128878228Y-64376703D02*
G01*
X129033100Y-64440853D01*
X129172481Y-64533985D01*
X129291015Y-64652519D01*
X129384147Y-64791900D01*
X129448297Y-64946772D01*
X129481000Y-65111184D01*
X129481000Y-65278816D01*
X129448297Y-65443228D01*
X129384147Y-65598100D01*
X129291015Y-65737481D01*
X129172481Y-65856015D01*
X129033100Y-65949147D01*
X128878228Y-66013297D01*
X128713816Y-66046000D01*
X128546184Y-66046000D01*
X128381772Y-66013297D01*
X128226900Y-65949147D01*
X128087519Y-65856015D01*
X127968985Y-65737481D01*
X127875853Y-65598100D01*
X127811703Y-65443228D01*
X127779000Y-65278816D01*
X127779000Y-65111184D01*
X127811703Y-64946772D01*
X127875853Y-64791900D01*
X127968985Y-64652519D01*
X128087519Y-64533985D01*
X128226900Y-64440853D01*
X128381772Y-64376703D01*
X128546184Y-64344000D01*
X128713816Y-64344000D01*
X128878228Y-64376703D01*
X128878228Y-64376703D01*
G37*
G36*
X133958228Y-64376703D02*
G01*
X134113100Y-64440853D01*
X134252481Y-64533985D01*
X134371015Y-64652519D01*
X134464147Y-64791900D01*
X134528297Y-64946772D01*
X134561000Y-65111184D01*
X134561000Y-65278816D01*
X134528297Y-65443228D01*
X134464147Y-65598100D01*
X134371015Y-65737481D01*
X134252481Y-65856015D01*
X134113100Y-65949147D01*
X133958228Y-66013297D01*
X133793816Y-66046000D01*
X133626184Y-66046000D01*
X133461772Y-66013297D01*
X133306900Y-65949147D01*
X133167519Y-65856015D01*
X133048985Y-65737481D01*
X132955853Y-65598100D01*
X132891703Y-65443228D01*
X132859000Y-65278816D01*
X132859000Y-65111184D01*
X132891703Y-64946772D01*
X132955853Y-64791900D01*
X133048985Y-64652519D01*
X133167519Y-64533985D01*
X133306900Y-64440853D01*
X133461772Y-64376703D01*
X133626184Y-64344000D01*
X133793816Y-64344000D01*
X133958228Y-64376703D01*
X133958228Y-64376703D01*
G37*
G36*
X125703228Y-64376703D02*
G01*
X125858100Y-64440853D01*
X125997481Y-64533985D01*
X126116015Y-64652519D01*
X126209147Y-64791900D01*
X126273297Y-64946772D01*
X126306000Y-65111184D01*
X126306000Y-65278816D01*
X126273297Y-65443228D01*
X126209147Y-65598100D01*
X126116015Y-65737481D01*
X125997481Y-65856015D01*
X125858100Y-65949147D01*
X125703228Y-66013297D01*
X125538816Y-66046000D01*
X125371184Y-66046000D01*
X125206772Y-66013297D01*
X125051900Y-65949147D01*
X124912519Y-65856015D01*
X124793985Y-65737481D01*
X124700853Y-65598100D01*
X124636703Y-65443228D01*
X124604000Y-65278816D01*
X124604000Y-65111184D01*
X124636703Y-64946772D01*
X124700853Y-64791900D01*
X124793985Y-64652519D01*
X124912519Y-64533985D01*
X125051900Y-64440853D01*
X125206772Y-64376703D01*
X125371184Y-64344000D01*
X125538816Y-64344000D01*
X125703228Y-64376703D01*
X125703228Y-64376703D01*
G37*
G36*
X148563228Y-64376703D02*
G01*
X148718100Y-64440853D01*
X148857481Y-64533985D01*
X148976015Y-64652519D01*
X149069147Y-64791900D01*
X149133297Y-64946772D01*
X149166000Y-65111184D01*
X149166000Y-65278816D01*
X149133297Y-65443228D01*
X149069147Y-65598100D01*
X148976015Y-65737481D01*
X148857481Y-65856015D01*
X148718100Y-65949147D01*
X148563228Y-66013297D01*
X148398816Y-66046000D01*
X148231184Y-66046000D01*
X148066772Y-66013297D01*
X147911900Y-65949147D01*
X147772519Y-65856015D01*
X147653985Y-65737481D01*
X147560853Y-65598100D01*
X147496703Y-65443228D01*
X147464000Y-65278816D01*
X147464000Y-65111184D01*
X147496703Y-64946772D01*
X147560853Y-64791900D01*
X147653985Y-64652519D01*
X147772519Y-64533985D01*
X147911900Y-64440853D01*
X148066772Y-64376703D01*
X148231184Y-64344000D01*
X148398816Y-64344000D01*
X148563228Y-64376703D01*
X148563228Y-64376703D01*
G37*
G36*
X137133228Y-64376703D02*
G01*
X137288100Y-64440853D01*
X137427481Y-64533985D01*
X137546015Y-64652519D01*
X137639147Y-64791900D01*
X137703297Y-64946772D01*
X137736000Y-65111184D01*
X137736000Y-65278816D01*
X137703297Y-65443228D01*
X137639147Y-65598100D01*
X137546015Y-65737481D01*
X137427481Y-65856015D01*
X137288100Y-65949147D01*
X137133228Y-66013297D01*
X136968816Y-66046000D01*
X136801184Y-66046000D01*
X136636772Y-66013297D01*
X136481900Y-65949147D01*
X136342519Y-65856015D01*
X136223985Y-65737481D01*
X136130853Y-65598100D01*
X136066703Y-65443228D01*
X136034000Y-65278816D01*
X136034000Y-65111184D01*
X136066703Y-64946772D01*
X136130853Y-64791900D01*
X136223985Y-64652519D01*
X136342519Y-64533985D01*
X136481900Y-64440853D01*
X136636772Y-64376703D01*
X136801184Y-64344000D01*
X136968816Y-64344000D01*
X137133228Y-64376703D01*
X137133228Y-64376703D01*
G37*
G36*
X105936823Y-63086313D02*
G01*
X106097242Y-63134976D01*
X106229906Y-63205886D01*
X106245078Y-63213996D01*
X106374659Y-63320341D01*
X106481004Y-63449922D01*
X106481005Y-63449924D01*
X106560024Y-63597758D01*
X106608687Y-63758177D01*
X106625117Y-63925000D01*
X106608687Y-64091823D01*
X106560024Y-64252242D01*
X106530735Y-64307037D01*
X106481004Y-64400078D01*
X106374659Y-64529659D01*
X106245078Y-64636004D01*
X106245076Y-64636005D01*
X106097242Y-64715024D01*
X105936823Y-64763687D01*
X105811804Y-64776000D01*
X105728196Y-64776000D01*
X105603177Y-64763687D01*
X105442758Y-64715024D01*
X105294924Y-64636005D01*
X105294922Y-64636004D01*
X105165341Y-64529659D01*
X105058996Y-64400078D01*
X105009265Y-64307037D01*
X104979976Y-64252242D01*
X104931313Y-64091823D01*
X104914883Y-63925000D01*
X104931313Y-63758177D01*
X104979976Y-63597758D01*
X105058995Y-63449924D01*
X105058996Y-63449922D01*
X105165341Y-63320341D01*
X105294922Y-63213996D01*
X105310094Y-63205886D01*
X105442758Y-63134976D01*
X105603177Y-63086313D01*
X105728196Y-63074000D01*
X105811804Y-63074000D01*
X105936823Y-63086313D01*
X105936823Y-63086313D01*
G37*
G36*
X113556823Y-63086313D02*
G01*
X113717242Y-63134976D01*
X113849906Y-63205886D01*
X113865078Y-63213996D01*
X113994659Y-63320341D01*
X114101004Y-63449922D01*
X114101005Y-63449924D01*
X114180024Y-63597758D01*
X114228687Y-63758177D01*
X114245117Y-63925000D01*
X114228687Y-64091823D01*
X114180024Y-64252242D01*
X114150735Y-64307037D01*
X114101004Y-64400078D01*
X113994659Y-64529659D01*
X113865078Y-64636004D01*
X113865076Y-64636005D01*
X113717242Y-64715024D01*
X113556823Y-64763687D01*
X113431804Y-64776000D01*
X113348196Y-64776000D01*
X113223177Y-64763687D01*
X113062758Y-64715024D01*
X112914924Y-64636005D01*
X112914922Y-64636004D01*
X112785341Y-64529659D01*
X112678996Y-64400078D01*
X112629265Y-64307037D01*
X112599976Y-64252242D01*
X112551313Y-64091823D01*
X112534883Y-63925000D01*
X112551313Y-63758177D01*
X112599976Y-63597758D01*
X112678995Y-63449924D01*
X112678996Y-63449922D01*
X112785341Y-63320341D01*
X112914922Y-63213996D01*
X112930094Y-63205886D01*
X113062758Y-63134976D01*
X113223177Y-63086313D01*
X113348196Y-63074000D01*
X113431804Y-63074000D01*
X113556823Y-63086313D01*
X113556823Y-63086313D01*
G37*
G36*
X87521823Y-63086313D02*
G01*
X87682242Y-63134976D01*
X87814906Y-63205886D01*
X87830078Y-63213996D01*
X87959659Y-63320341D01*
X88066004Y-63449922D01*
X88066005Y-63449924D01*
X88145024Y-63597758D01*
X88193687Y-63758177D01*
X88210117Y-63925000D01*
X88193687Y-64091823D01*
X88145024Y-64252242D01*
X88115735Y-64307037D01*
X88066004Y-64400078D01*
X87959659Y-64529659D01*
X87830078Y-64636004D01*
X87830076Y-64636005D01*
X87682242Y-64715024D01*
X87521823Y-64763687D01*
X87396804Y-64776000D01*
X87313196Y-64776000D01*
X87188177Y-64763687D01*
X87027758Y-64715024D01*
X86879924Y-64636005D01*
X86879922Y-64636004D01*
X86750341Y-64529659D01*
X86643996Y-64400078D01*
X86594265Y-64307037D01*
X86564976Y-64252242D01*
X86516313Y-64091823D01*
X86499883Y-63925000D01*
X86516313Y-63758177D01*
X86564976Y-63597758D01*
X86643995Y-63449924D01*
X86643996Y-63449922D01*
X86750341Y-63320341D01*
X86879922Y-63213996D01*
X86895094Y-63205886D01*
X87027758Y-63134976D01*
X87188177Y-63086313D01*
X87313196Y-63074000D01*
X87396804Y-63074000D01*
X87521823Y-63086313D01*
X87521823Y-63086313D01*
G37*
G36*
X79901823Y-63086313D02*
G01*
X80062242Y-63134976D01*
X80194906Y-63205886D01*
X80210078Y-63213996D01*
X80339659Y-63320341D01*
X80446004Y-63449922D01*
X80446005Y-63449924D01*
X80525024Y-63597758D01*
X80573687Y-63758177D01*
X80590117Y-63925000D01*
X80573687Y-64091823D01*
X80525024Y-64252242D01*
X80495735Y-64307037D01*
X80446004Y-64400078D01*
X80339659Y-64529659D01*
X80210078Y-64636004D01*
X80210076Y-64636005D01*
X80062242Y-64715024D01*
X79901823Y-64763687D01*
X79776804Y-64776000D01*
X79693196Y-64776000D01*
X79568177Y-64763687D01*
X79407758Y-64715024D01*
X79259924Y-64636005D01*
X79259922Y-64636004D01*
X79130341Y-64529659D01*
X79023996Y-64400078D01*
X78974265Y-64307037D01*
X78944976Y-64252242D01*
X78896313Y-64091823D01*
X78879883Y-63925000D01*
X78896313Y-63758177D01*
X78944976Y-63597758D01*
X79023995Y-63449924D01*
X79023996Y-63449922D01*
X79130341Y-63320341D01*
X79259922Y-63213996D01*
X79275094Y-63205886D01*
X79407758Y-63134976D01*
X79568177Y-63086313D01*
X79693196Y-63074000D01*
X79776804Y-63074000D01*
X79901823Y-63086313D01*
X79901823Y-63086313D01*
G37*
G36*
X95085443Y-61760519D02*
G01*
X95151627Y-61767037D01*
X95321466Y-61818557D01*
X95477991Y-61902222D01*
X95513729Y-61931552D01*
X95615186Y-62014814D01*
X95698448Y-62116271D01*
X95727778Y-62152009D01*
X95727779Y-62152011D01*
X95792604Y-62273288D01*
X95811443Y-62308534D01*
X95862963Y-62478373D01*
X95880359Y-62655000D01*
X95862963Y-62831627D01*
X95811443Y-63001466D01*
X95727778Y-63157991D01*
X95698448Y-63193729D01*
X95615186Y-63295186D01*
X95513729Y-63378448D01*
X95477991Y-63407778D01*
X95321466Y-63491443D01*
X95151627Y-63542963D01*
X95085443Y-63549481D01*
X95019260Y-63556000D01*
X94930740Y-63556000D01*
X94864557Y-63549481D01*
X94798373Y-63542963D01*
X94628534Y-63491443D01*
X94472009Y-63407778D01*
X94436271Y-63378448D01*
X94334814Y-63295186D01*
X94251552Y-63193729D01*
X94222222Y-63157991D01*
X94138557Y-63001466D01*
X94087037Y-62831627D01*
X94069641Y-62655000D01*
X94087037Y-62478373D01*
X94138557Y-62308534D01*
X94157397Y-62273288D01*
X94222221Y-62152011D01*
X94222222Y-62152009D01*
X94251552Y-62116271D01*
X94334814Y-62014814D01*
X94436271Y-61931552D01*
X94472009Y-61902222D01*
X94628534Y-61818557D01*
X94798373Y-61767037D01*
X94864557Y-61760519D01*
X94930740Y-61754000D01*
X95019260Y-61754000D01*
X95085443Y-61760519D01*
X95085443Y-61760519D01*
G37*
G36*
X97625443Y-61760519D02*
G01*
X97691627Y-61767037D01*
X97861466Y-61818557D01*
X98017991Y-61902222D01*
X98053729Y-61931552D01*
X98155186Y-62014814D01*
X98238448Y-62116271D01*
X98267778Y-62152009D01*
X98267779Y-62152011D01*
X98332604Y-62273288D01*
X98351443Y-62308534D01*
X98402963Y-62478373D01*
X98420359Y-62655000D01*
X98402963Y-62831627D01*
X98351443Y-63001466D01*
X98267778Y-63157991D01*
X98238448Y-63193729D01*
X98155186Y-63295186D01*
X98053729Y-63378448D01*
X98017991Y-63407778D01*
X97861466Y-63491443D01*
X97691627Y-63542963D01*
X97625443Y-63549481D01*
X97559260Y-63556000D01*
X97470740Y-63556000D01*
X97404557Y-63549481D01*
X97338373Y-63542963D01*
X97168534Y-63491443D01*
X97012009Y-63407778D01*
X96976271Y-63378448D01*
X96874814Y-63295186D01*
X96791552Y-63193729D01*
X96762222Y-63157991D01*
X96678557Y-63001466D01*
X96627037Y-62831627D01*
X96609641Y-62655000D01*
X96627037Y-62478373D01*
X96678557Y-62308534D01*
X96697397Y-62273288D01*
X96762221Y-62152011D01*
X96762222Y-62152009D01*
X96791552Y-62116271D01*
X96874814Y-62014814D01*
X96976271Y-61931552D01*
X97012009Y-61902222D01*
X97168534Y-61818557D01*
X97338373Y-61767037D01*
X97404557Y-61760519D01*
X97470740Y-61754000D01*
X97559260Y-61754000D01*
X97625443Y-61760519D01*
X97625443Y-61760519D01*
G37*
G36*
X60797915Y-61227334D02*
G01*
X60906491Y-61260271D01*
X60906494Y-61260272D01*
X60942600Y-61279571D01*
X61006556Y-61313756D01*
X61094264Y-61385736D01*
X61166244Y-61473443D01*
X61200429Y-61537399D01*
X61219728Y-61573505D01*
X61219729Y-61573508D01*
X61252666Y-61682084D01*
X61261000Y-61766702D01*
X61261000Y-62273297D01*
X61252666Y-62357916D01*
X61220252Y-62464767D01*
X61219728Y-62466495D01*
X61213379Y-62478373D01*
X61166244Y-62566557D01*
X61094264Y-62654264D01*
X61006557Y-62726244D01*
X60942601Y-62760429D01*
X60906495Y-62779728D01*
X60906492Y-62779729D01*
X60797916Y-62812666D01*
X60685000Y-62823787D01*
X60572085Y-62812666D01*
X60463509Y-62779729D01*
X60463506Y-62779728D01*
X60427400Y-62760429D01*
X60363444Y-62726244D01*
X60275737Y-62654264D01*
X60203757Y-62566557D01*
X60160239Y-62485141D01*
X60146625Y-62464766D01*
X60129298Y-62447439D01*
X60108924Y-62433826D01*
X60086285Y-62424448D01*
X60062252Y-62419668D01*
X60037748Y-62419668D01*
X60013715Y-62424448D01*
X59991076Y-62433826D01*
X59970701Y-62447440D01*
X59953374Y-62464767D01*
X59939761Y-62485141D01*
X59896244Y-62566557D01*
X59824264Y-62654264D01*
X59736557Y-62726244D01*
X59672601Y-62760429D01*
X59636495Y-62779728D01*
X59636492Y-62779729D01*
X59527916Y-62812666D01*
X59415000Y-62823787D01*
X59302085Y-62812666D01*
X59193509Y-62779729D01*
X59193506Y-62779728D01*
X59157400Y-62760429D01*
X59093444Y-62726244D01*
X59005737Y-62654264D01*
X58942622Y-62577359D01*
X58925297Y-62560034D01*
X58904923Y-62546420D01*
X58882284Y-62537043D01*
X58858250Y-62532263D01*
X58833746Y-62532263D01*
X58809713Y-62537044D01*
X58787074Y-62546421D01*
X58766700Y-62560035D01*
X58749373Y-62577362D01*
X58735759Y-62597736D01*
X58726382Y-62620375D01*
X58721000Y-62656660D01*
X58721000Y-62821000D01*
X57569000Y-62821000D01*
X57569000Y-61219000D01*
X58721000Y-61219000D01*
X58721000Y-61383341D01*
X58723402Y-61407727D01*
X58730515Y-61431176D01*
X58742066Y-61452787D01*
X58757611Y-61471729D01*
X58776553Y-61487274D01*
X58798164Y-61498825D01*
X58821613Y-61505938D01*
X58845999Y-61508340D01*
X58870385Y-61505938D01*
X58893834Y-61498825D01*
X58915445Y-61487274D01*
X58934387Y-61471729D01*
X58942608Y-61462657D01*
X59005736Y-61385736D01*
X59093443Y-61313756D01*
X59157399Y-61279571D01*
X59193505Y-61260272D01*
X59193508Y-61260271D01*
X59302084Y-61227334D01*
X59415000Y-61216213D01*
X59527915Y-61227334D01*
X59636491Y-61260271D01*
X59636494Y-61260272D01*
X59672600Y-61279571D01*
X59736556Y-61313756D01*
X59824264Y-61385736D01*
X59896244Y-61473443D01*
X59938138Y-61551823D01*
X59939761Y-61554859D01*
X59953375Y-61575234D01*
X59970702Y-61592561D01*
X59991076Y-61606174D01*
X60013715Y-61615552D01*
X60037748Y-61620332D01*
X60062252Y-61620332D01*
X60086285Y-61615552D01*
X60108924Y-61606174D01*
X60129299Y-61592560D01*
X60146626Y-61575233D01*
X60160239Y-61554860D01*
X60203756Y-61473444D01*
X60275736Y-61385736D01*
X60363443Y-61313756D01*
X60427399Y-61279571D01*
X60463505Y-61260272D01*
X60463508Y-61260271D01*
X60572084Y-61227334D01*
X60685000Y-61216213D01*
X60797915Y-61227334D01*
X60797915Y-61227334D01*
G37*
G36*
X134457915Y-61227334D02*
G01*
X134566491Y-61260271D01*
X134566494Y-61260272D01*
X134602600Y-61279571D01*
X134666556Y-61313756D01*
X134754264Y-61385736D01*
X134826244Y-61473443D01*
X134860429Y-61537399D01*
X134879728Y-61573505D01*
X134879729Y-61573508D01*
X134912666Y-61682084D01*
X134921000Y-61766702D01*
X134921000Y-62273297D01*
X134912666Y-62357916D01*
X134880252Y-62464767D01*
X134879728Y-62466495D01*
X134873379Y-62478373D01*
X134826244Y-62566557D01*
X134754264Y-62654264D01*
X134666557Y-62726244D01*
X134602601Y-62760429D01*
X134566495Y-62779728D01*
X134566492Y-62779729D01*
X134457916Y-62812666D01*
X134345000Y-62823787D01*
X134232085Y-62812666D01*
X134123509Y-62779729D01*
X134123506Y-62779728D01*
X134087400Y-62760429D01*
X134023444Y-62726244D01*
X133935737Y-62654264D01*
X133863757Y-62566557D01*
X133820239Y-62485141D01*
X133806625Y-62464766D01*
X133789298Y-62447439D01*
X133768924Y-62433826D01*
X133746285Y-62424448D01*
X133722252Y-62419668D01*
X133697748Y-62419668D01*
X133673715Y-62424448D01*
X133651076Y-62433826D01*
X133630701Y-62447440D01*
X133613374Y-62464767D01*
X133599761Y-62485141D01*
X133556244Y-62566557D01*
X133484264Y-62654264D01*
X133396557Y-62726244D01*
X133332601Y-62760429D01*
X133296495Y-62779728D01*
X133296492Y-62779729D01*
X133187916Y-62812666D01*
X133075000Y-62823787D01*
X132962085Y-62812666D01*
X132853509Y-62779729D01*
X132853506Y-62779728D01*
X132817400Y-62760429D01*
X132753444Y-62726244D01*
X132665737Y-62654264D01*
X132602622Y-62577359D01*
X132585297Y-62560034D01*
X132564923Y-62546420D01*
X132542284Y-62537043D01*
X132518250Y-62532263D01*
X132493746Y-62532263D01*
X132469713Y-62537044D01*
X132447074Y-62546421D01*
X132426700Y-62560035D01*
X132409373Y-62577362D01*
X132395759Y-62597736D01*
X132386382Y-62620375D01*
X132381000Y-62656660D01*
X132381000Y-62821000D01*
X131229000Y-62821000D01*
X131229000Y-61219000D01*
X132381000Y-61219000D01*
X132381000Y-61383341D01*
X132383402Y-61407727D01*
X132390515Y-61431176D01*
X132402066Y-61452787D01*
X132417611Y-61471729D01*
X132436553Y-61487274D01*
X132458164Y-61498825D01*
X132481613Y-61505938D01*
X132505999Y-61508340D01*
X132530385Y-61505938D01*
X132553834Y-61498825D01*
X132575445Y-61487274D01*
X132594387Y-61471729D01*
X132602608Y-61462657D01*
X132665736Y-61385736D01*
X132753443Y-61313756D01*
X132817399Y-61279571D01*
X132853505Y-61260272D01*
X132853508Y-61260271D01*
X132962084Y-61227334D01*
X133075000Y-61216213D01*
X133187915Y-61227334D01*
X133296491Y-61260271D01*
X133296494Y-61260272D01*
X133332600Y-61279571D01*
X133396556Y-61313756D01*
X133484264Y-61385736D01*
X133556244Y-61473443D01*
X133598138Y-61551823D01*
X133599761Y-61554859D01*
X133613375Y-61575234D01*
X133630702Y-61592561D01*
X133651076Y-61606174D01*
X133673715Y-61615552D01*
X133697748Y-61620332D01*
X133722252Y-61620332D01*
X133746285Y-61615552D01*
X133768924Y-61606174D01*
X133789299Y-61592560D01*
X133806626Y-61575233D01*
X133820239Y-61554860D01*
X133863756Y-61473444D01*
X133935736Y-61385736D01*
X134023443Y-61313756D01*
X134087399Y-61279571D01*
X134123505Y-61260272D01*
X134123508Y-61260271D01*
X134232084Y-61227334D01*
X134345000Y-61216213D01*
X134457915Y-61227334D01*
X134457915Y-61227334D01*
G37*
G36*
X72227915Y-61227334D02*
G01*
X72336491Y-61260271D01*
X72336494Y-61260272D01*
X72372600Y-61279571D01*
X72436556Y-61313756D01*
X72524264Y-61385736D01*
X72596244Y-61473443D01*
X72630429Y-61537399D01*
X72649728Y-61573505D01*
X72649729Y-61573508D01*
X72682666Y-61682084D01*
X72691000Y-61766702D01*
X72691000Y-62273297D01*
X72682666Y-62357916D01*
X72650252Y-62464767D01*
X72649728Y-62466495D01*
X72643379Y-62478373D01*
X72596244Y-62566557D01*
X72524264Y-62654264D01*
X72436557Y-62726244D01*
X72372601Y-62760429D01*
X72336495Y-62779728D01*
X72336492Y-62779729D01*
X72227916Y-62812666D01*
X72115000Y-62823787D01*
X72002085Y-62812666D01*
X71893509Y-62779729D01*
X71893506Y-62779728D01*
X71857400Y-62760429D01*
X71793444Y-62726244D01*
X71705737Y-62654264D01*
X71633757Y-62566557D01*
X71590239Y-62485141D01*
X71576625Y-62464766D01*
X71559298Y-62447439D01*
X71538924Y-62433826D01*
X71516285Y-62424448D01*
X71492252Y-62419668D01*
X71467748Y-62419668D01*
X71443715Y-62424448D01*
X71421076Y-62433826D01*
X71400701Y-62447440D01*
X71383374Y-62464767D01*
X71369761Y-62485141D01*
X71326244Y-62566557D01*
X71254264Y-62654264D01*
X71166557Y-62726244D01*
X71102601Y-62760429D01*
X71066495Y-62779728D01*
X71066492Y-62779729D01*
X70957916Y-62812666D01*
X70845000Y-62823787D01*
X70732085Y-62812666D01*
X70623509Y-62779729D01*
X70623506Y-62779728D01*
X70587400Y-62760429D01*
X70523444Y-62726244D01*
X70435737Y-62654264D01*
X70372622Y-62577359D01*
X70355297Y-62560034D01*
X70334923Y-62546420D01*
X70312284Y-62537043D01*
X70288250Y-62532263D01*
X70263746Y-62532263D01*
X70239713Y-62537044D01*
X70217074Y-62546421D01*
X70196700Y-62560035D01*
X70179373Y-62577362D01*
X70165759Y-62597736D01*
X70156382Y-62620375D01*
X70151000Y-62656660D01*
X70151000Y-62821000D01*
X68999000Y-62821000D01*
X68999000Y-61219000D01*
X70151000Y-61219000D01*
X70151000Y-61383341D01*
X70153402Y-61407727D01*
X70160515Y-61431176D01*
X70172066Y-61452787D01*
X70187611Y-61471729D01*
X70206553Y-61487274D01*
X70228164Y-61498825D01*
X70251613Y-61505938D01*
X70275999Y-61508340D01*
X70300385Y-61505938D01*
X70323834Y-61498825D01*
X70345445Y-61487274D01*
X70364387Y-61471729D01*
X70372608Y-61462657D01*
X70435736Y-61385736D01*
X70523443Y-61313756D01*
X70587399Y-61279571D01*
X70623505Y-61260272D01*
X70623508Y-61260271D01*
X70732084Y-61227334D01*
X70845000Y-61216213D01*
X70957915Y-61227334D01*
X71066491Y-61260271D01*
X71066494Y-61260272D01*
X71102600Y-61279571D01*
X71166556Y-61313756D01*
X71254264Y-61385736D01*
X71326244Y-61473443D01*
X71368138Y-61551823D01*
X71369761Y-61554859D01*
X71383375Y-61575234D01*
X71400702Y-61592561D01*
X71421076Y-61606174D01*
X71443715Y-61615552D01*
X71467748Y-61620332D01*
X71492252Y-61620332D01*
X71516285Y-61615552D01*
X71538924Y-61606174D01*
X71559299Y-61592560D01*
X71576626Y-61575233D01*
X71590239Y-61554860D01*
X71633756Y-61473444D01*
X71705736Y-61385736D01*
X71793443Y-61313756D01*
X71857399Y-61279571D01*
X71893505Y-61260272D01*
X71893508Y-61260271D01*
X72002084Y-61227334D01*
X72115000Y-61216213D01*
X72227915Y-61227334D01*
X72227915Y-61227334D01*
G37*
G36*
X66512915Y-61227334D02*
G01*
X66621491Y-61260271D01*
X66621494Y-61260272D01*
X66657600Y-61279571D01*
X66721556Y-61313756D01*
X66809264Y-61385736D01*
X66881244Y-61473443D01*
X66915429Y-61537399D01*
X66934728Y-61573505D01*
X66934729Y-61573508D01*
X66967666Y-61682084D01*
X66976000Y-61766702D01*
X66976000Y-62273297D01*
X66967666Y-62357916D01*
X66935252Y-62464767D01*
X66934728Y-62466495D01*
X66928379Y-62478373D01*
X66881244Y-62566557D01*
X66809264Y-62654264D01*
X66721557Y-62726244D01*
X66657601Y-62760429D01*
X66621495Y-62779728D01*
X66621492Y-62779729D01*
X66512916Y-62812666D01*
X66400000Y-62823787D01*
X66287085Y-62812666D01*
X66178509Y-62779729D01*
X66178506Y-62779728D01*
X66142400Y-62760429D01*
X66078444Y-62726244D01*
X65990737Y-62654264D01*
X65918757Y-62566557D01*
X65875239Y-62485141D01*
X65861625Y-62464766D01*
X65844298Y-62447439D01*
X65823924Y-62433826D01*
X65801285Y-62424448D01*
X65777252Y-62419668D01*
X65752748Y-62419668D01*
X65728715Y-62424448D01*
X65706076Y-62433826D01*
X65685701Y-62447440D01*
X65668374Y-62464767D01*
X65654761Y-62485141D01*
X65611244Y-62566557D01*
X65539264Y-62654264D01*
X65451557Y-62726244D01*
X65387601Y-62760429D01*
X65351495Y-62779728D01*
X65351492Y-62779729D01*
X65242916Y-62812666D01*
X65130000Y-62823787D01*
X65017085Y-62812666D01*
X64908509Y-62779729D01*
X64908506Y-62779728D01*
X64872400Y-62760429D01*
X64808444Y-62726244D01*
X64720737Y-62654264D01*
X64657622Y-62577359D01*
X64640297Y-62560034D01*
X64619923Y-62546420D01*
X64597284Y-62537043D01*
X64573250Y-62532263D01*
X64548746Y-62532263D01*
X64524713Y-62537044D01*
X64502074Y-62546421D01*
X64481700Y-62560035D01*
X64464373Y-62577362D01*
X64450759Y-62597736D01*
X64441382Y-62620375D01*
X64436000Y-62656660D01*
X64436000Y-62821000D01*
X63284000Y-62821000D01*
X63284000Y-61219000D01*
X64436000Y-61219000D01*
X64436000Y-61383341D01*
X64438402Y-61407727D01*
X64445515Y-61431176D01*
X64457066Y-61452787D01*
X64472611Y-61471729D01*
X64491553Y-61487274D01*
X64513164Y-61498825D01*
X64536613Y-61505938D01*
X64560999Y-61508340D01*
X64585385Y-61505938D01*
X64608834Y-61498825D01*
X64630445Y-61487274D01*
X64649387Y-61471729D01*
X64657608Y-61462657D01*
X64720736Y-61385736D01*
X64808443Y-61313756D01*
X64872399Y-61279571D01*
X64908505Y-61260272D01*
X64908508Y-61260271D01*
X65017084Y-61227334D01*
X65130000Y-61216213D01*
X65242915Y-61227334D01*
X65351491Y-61260271D01*
X65351494Y-61260272D01*
X65387600Y-61279571D01*
X65451556Y-61313756D01*
X65539264Y-61385736D01*
X65611244Y-61473443D01*
X65653138Y-61551823D01*
X65654761Y-61554859D01*
X65668375Y-61575234D01*
X65685702Y-61592561D01*
X65706076Y-61606174D01*
X65728715Y-61615552D01*
X65752748Y-61620332D01*
X65777252Y-61620332D01*
X65801285Y-61615552D01*
X65823924Y-61606174D01*
X65844299Y-61592560D01*
X65861626Y-61575233D01*
X65875239Y-61554860D01*
X65918756Y-61473444D01*
X65990736Y-61385736D01*
X66078443Y-61313756D01*
X66142399Y-61279571D01*
X66178505Y-61260272D01*
X66178508Y-61260271D01*
X66287084Y-61227334D01*
X66400000Y-61216213D01*
X66512915Y-61227334D01*
X66512915Y-61227334D01*
G37*
G36*
X140172915Y-61227334D02*
G01*
X140281491Y-61260271D01*
X140281494Y-61260272D01*
X140317600Y-61279571D01*
X140381556Y-61313756D01*
X140469264Y-61385736D01*
X140541244Y-61473443D01*
X140575429Y-61537399D01*
X140594728Y-61573505D01*
X140594729Y-61573508D01*
X140627666Y-61682084D01*
X140636000Y-61766702D01*
X140636000Y-62273297D01*
X140627666Y-62357916D01*
X140595252Y-62464767D01*
X140594728Y-62466495D01*
X140588379Y-62478373D01*
X140541244Y-62566557D01*
X140469264Y-62654264D01*
X140381557Y-62726244D01*
X140317601Y-62760429D01*
X140281495Y-62779728D01*
X140281492Y-62779729D01*
X140172916Y-62812666D01*
X140060000Y-62823787D01*
X139947085Y-62812666D01*
X139838509Y-62779729D01*
X139838506Y-62779728D01*
X139802400Y-62760429D01*
X139738444Y-62726244D01*
X139650737Y-62654264D01*
X139578757Y-62566557D01*
X139535239Y-62485141D01*
X139521625Y-62464766D01*
X139504298Y-62447439D01*
X139483924Y-62433826D01*
X139461285Y-62424448D01*
X139437252Y-62419668D01*
X139412748Y-62419668D01*
X139388715Y-62424448D01*
X139366076Y-62433826D01*
X139345701Y-62447440D01*
X139328374Y-62464767D01*
X139314761Y-62485141D01*
X139271244Y-62566557D01*
X139199264Y-62654264D01*
X139111557Y-62726244D01*
X139047601Y-62760429D01*
X139011495Y-62779728D01*
X139011492Y-62779729D01*
X138902916Y-62812666D01*
X138790000Y-62823787D01*
X138677085Y-62812666D01*
X138568509Y-62779729D01*
X138568506Y-62779728D01*
X138532400Y-62760429D01*
X138468444Y-62726244D01*
X138380737Y-62654264D01*
X138317622Y-62577359D01*
X138300297Y-62560034D01*
X138279923Y-62546420D01*
X138257284Y-62537043D01*
X138233250Y-62532263D01*
X138208746Y-62532263D01*
X138184713Y-62537044D01*
X138162074Y-62546421D01*
X138141700Y-62560035D01*
X138124373Y-62577362D01*
X138110759Y-62597736D01*
X138101382Y-62620375D01*
X138096000Y-62656660D01*
X138096000Y-62821000D01*
X136944000Y-62821000D01*
X136944000Y-61219000D01*
X138096000Y-61219000D01*
X138096000Y-61383341D01*
X138098402Y-61407727D01*
X138105515Y-61431176D01*
X138117066Y-61452787D01*
X138132611Y-61471729D01*
X138151553Y-61487274D01*
X138173164Y-61498825D01*
X138196613Y-61505938D01*
X138220999Y-61508340D01*
X138245385Y-61505938D01*
X138268834Y-61498825D01*
X138290445Y-61487274D01*
X138309387Y-61471729D01*
X138317608Y-61462657D01*
X138380736Y-61385736D01*
X138468443Y-61313756D01*
X138532399Y-61279571D01*
X138568505Y-61260272D01*
X138568508Y-61260271D01*
X138677084Y-61227334D01*
X138790000Y-61216213D01*
X138902915Y-61227334D01*
X139011491Y-61260271D01*
X139011494Y-61260272D01*
X139047600Y-61279571D01*
X139111556Y-61313756D01*
X139199264Y-61385736D01*
X139271244Y-61473443D01*
X139313138Y-61551823D01*
X139314761Y-61554859D01*
X139328375Y-61575234D01*
X139345702Y-61592561D01*
X139366076Y-61606174D01*
X139388715Y-61615552D01*
X139412748Y-61620332D01*
X139437252Y-61620332D01*
X139461285Y-61615552D01*
X139483924Y-61606174D01*
X139504299Y-61592560D01*
X139521626Y-61575233D01*
X139535239Y-61554860D01*
X139578756Y-61473444D01*
X139650736Y-61385736D01*
X139738443Y-61313756D01*
X139802399Y-61279571D01*
X139838505Y-61260272D01*
X139838508Y-61260271D01*
X139947084Y-61227334D01*
X140060000Y-61216213D01*
X140172915Y-61227334D01*
X140172915Y-61227334D01*
G37*
G36*
X128742915Y-61227334D02*
G01*
X128851491Y-61260271D01*
X128851494Y-61260272D01*
X128887600Y-61279571D01*
X128951556Y-61313756D01*
X129039264Y-61385736D01*
X129111244Y-61473443D01*
X129145429Y-61537399D01*
X129164728Y-61573505D01*
X129164729Y-61573508D01*
X129197666Y-61682084D01*
X129206000Y-61766702D01*
X129206000Y-62273297D01*
X129197666Y-62357916D01*
X129165252Y-62464767D01*
X129164728Y-62466495D01*
X129158379Y-62478373D01*
X129111244Y-62566557D01*
X129039264Y-62654264D01*
X128951557Y-62726244D01*
X128887601Y-62760429D01*
X128851495Y-62779728D01*
X128851492Y-62779729D01*
X128742916Y-62812666D01*
X128630000Y-62823787D01*
X128517085Y-62812666D01*
X128408509Y-62779729D01*
X128408506Y-62779728D01*
X128372400Y-62760429D01*
X128308444Y-62726244D01*
X128220737Y-62654264D01*
X128148757Y-62566557D01*
X128105239Y-62485141D01*
X128091625Y-62464766D01*
X128074298Y-62447439D01*
X128053924Y-62433826D01*
X128031285Y-62424448D01*
X128007252Y-62419668D01*
X127982748Y-62419668D01*
X127958715Y-62424448D01*
X127936076Y-62433826D01*
X127915701Y-62447440D01*
X127898374Y-62464767D01*
X127884761Y-62485141D01*
X127841244Y-62566557D01*
X127769264Y-62654264D01*
X127681557Y-62726244D01*
X127617601Y-62760429D01*
X127581495Y-62779728D01*
X127581492Y-62779729D01*
X127472916Y-62812666D01*
X127360000Y-62823787D01*
X127247085Y-62812666D01*
X127138509Y-62779729D01*
X127138506Y-62779728D01*
X127102400Y-62760429D01*
X127038444Y-62726244D01*
X126950737Y-62654264D01*
X126887622Y-62577359D01*
X126870297Y-62560034D01*
X126849923Y-62546420D01*
X126827284Y-62537043D01*
X126803250Y-62532263D01*
X126778746Y-62532263D01*
X126754713Y-62537044D01*
X126732074Y-62546421D01*
X126711700Y-62560035D01*
X126694373Y-62577362D01*
X126680759Y-62597736D01*
X126671382Y-62620375D01*
X126666000Y-62656660D01*
X126666000Y-62821000D01*
X125514000Y-62821000D01*
X125514000Y-61219000D01*
X126666000Y-61219000D01*
X126666000Y-61383341D01*
X126668402Y-61407727D01*
X126675515Y-61431176D01*
X126687066Y-61452787D01*
X126702611Y-61471729D01*
X126721553Y-61487274D01*
X126743164Y-61498825D01*
X126766613Y-61505938D01*
X126790999Y-61508340D01*
X126815385Y-61505938D01*
X126838834Y-61498825D01*
X126860445Y-61487274D01*
X126879387Y-61471729D01*
X126887608Y-61462657D01*
X126950736Y-61385736D01*
X127038443Y-61313756D01*
X127102399Y-61279571D01*
X127138505Y-61260272D01*
X127138508Y-61260271D01*
X127247084Y-61227334D01*
X127360000Y-61216213D01*
X127472915Y-61227334D01*
X127581491Y-61260271D01*
X127581494Y-61260272D01*
X127617600Y-61279571D01*
X127681556Y-61313756D01*
X127769264Y-61385736D01*
X127841244Y-61473443D01*
X127883138Y-61551823D01*
X127884761Y-61554859D01*
X127898375Y-61575234D01*
X127915702Y-61592561D01*
X127936076Y-61606174D01*
X127958715Y-61615552D01*
X127982748Y-61620332D01*
X128007252Y-61620332D01*
X128031285Y-61615552D01*
X128053924Y-61606174D01*
X128074299Y-61592560D01*
X128091626Y-61575233D01*
X128105239Y-61554860D01*
X128148756Y-61473444D01*
X128220736Y-61385736D01*
X128308443Y-61313756D01*
X128372399Y-61279571D01*
X128408505Y-61260272D01*
X128408508Y-61260271D01*
X128517084Y-61227334D01*
X128630000Y-61216213D01*
X128742915Y-61227334D01*
X128742915Y-61227334D01*
G37*
G36*
X55082915Y-61227334D02*
G01*
X55191491Y-61260271D01*
X55191494Y-61260272D01*
X55227600Y-61279571D01*
X55291556Y-61313756D01*
X55379264Y-61385736D01*
X55451244Y-61473443D01*
X55485429Y-61537399D01*
X55504728Y-61573505D01*
X55504729Y-61573508D01*
X55537666Y-61682084D01*
X55546000Y-61766702D01*
X55546000Y-62273297D01*
X55537666Y-62357916D01*
X55505252Y-62464767D01*
X55504728Y-62466495D01*
X55498379Y-62478373D01*
X55451244Y-62566557D01*
X55379264Y-62654264D01*
X55291557Y-62726244D01*
X55227601Y-62760429D01*
X55191495Y-62779728D01*
X55191492Y-62779729D01*
X55082916Y-62812666D01*
X54970000Y-62823787D01*
X54857085Y-62812666D01*
X54748509Y-62779729D01*
X54748506Y-62779728D01*
X54712400Y-62760429D01*
X54648444Y-62726244D01*
X54560737Y-62654264D01*
X54488757Y-62566557D01*
X54445239Y-62485141D01*
X54431625Y-62464766D01*
X54414298Y-62447439D01*
X54393924Y-62433826D01*
X54371285Y-62424448D01*
X54347252Y-62419668D01*
X54322748Y-62419668D01*
X54298715Y-62424448D01*
X54276076Y-62433826D01*
X54255701Y-62447440D01*
X54238374Y-62464767D01*
X54224761Y-62485141D01*
X54181244Y-62566557D01*
X54109264Y-62654264D01*
X54021557Y-62726244D01*
X53957601Y-62760429D01*
X53921495Y-62779728D01*
X53921492Y-62779729D01*
X53812916Y-62812666D01*
X53700000Y-62823787D01*
X53587085Y-62812666D01*
X53478509Y-62779729D01*
X53478506Y-62779728D01*
X53442400Y-62760429D01*
X53378444Y-62726244D01*
X53290737Y-62654264D01*
X53227622Y-62577359D01*
X53210297Y-62560034D01*
X53189923Y-62546420D01*
X53167284Y-62537043D01*
X53143250Y-62532263D01*
X53118746Y-62532263D01*
X53094713Y-62537044D01*
X53072074Y-62546421D01*
X53051700Y-62560035D01*
X53034373Y-62577362D01*
X53020759Y-62597736D01*
X53011382Y-62620375D01*
X53006000Y-62656660D01*
X53006000Y-62821000D01*
X51854000Y-62821000D01*
X51854000Y-61219000D01*
X53006000Y-61219000D01*
X53006000Y-61383341D01*
X53008402Y-61407727D01*
X53015515Y-61431176D01*
X53027066Y-61452787D01*
X53042611Y-61471729D01*
X53061553Y-61487274D01*
X53083164Y-61498825D01*
X53106613Y-61505938D01*
X53130999Y-61508340D01*
X53155385Y-61505938D01*
X53178834Y-61498825D01*
X53200445Y-61487274D01*
X53219387Y-61471729D01*
X53227608Y-61462657D01*
X53290736Y-61385736D01*
X53378443Y-61313756D01*
X53442399Y-61279571D01*
X53478505Y-61260272D01*
X53478508Y-61260271D01*
X53587084Y-61227334D01*
X53700000Y-61216213D01*
X53812915Y-61227334D01*
X53921491Y-61260271D01*
X53921494Y-61260272D01*
X53957600Y-61279571D01*
X54021556Y-61313756D01*
X54109264Y-61385736D01*
X54181244Y-61473443D01*
X54223138Y-61551823D01*
X54224761Y-61554859D01*
X54238375Y-61575234D01*
X54255702Y-61592561D01*
X54276076Y-61606174D01*
X54298715Y-61615552D01*
X54322748Y-61620332D01*
X54347252Y-61620332D01*
X54371285Y-61615552D01*
X54393924Y-61606174D01*
X54414299Y-61592560D01*
X54431626Y-61575233D01*
X54445239Y-61554860D01*
X54488756Y-61473444D01*
X54560736Y-61385736D01*
X54648443Y-61313756D01*
X54712399Y-61279571D01*
X54748505Y-61260272D01*
X54748508Y-61260271D01*
X54857084Y-61227334D01*
X54970000Y-61216213D01*
X55082915Y-61227334D01*
X55082915Y-61227334D01*
G37*
G36*
X151602915Y-61227334D02*
G01*
X151711491Y-61260271D01*
X151711494Y-61260272D01*
X151747600Y-61279571D01*
X151811556Y-61313756D01*
X151899264Y-61385736D01*
X151971244Y-61473443D01*
X152005429Y-61537399D01*
X152024728Y-61573505D01*
X152024729Y-61573508D01*
X152057666Y-61682084D01*
X152066000Y-61766702D01*
X152066000Y-62273297D01*
X152057666Y-62357916D01*
X152025252Y-62464767D01*
X152024728Y-62466495D01*
X152018379Y-62478373D01*
X151971244Y-62566557D01*
X151899264Y-62654264D01*
X151811557Y-62726244D01*
X151747601Y-62760429D01*
X151711495Y-62779728D01*
X151711492Y-62779729D01*
X151602916Y-62812666D01*
X151490000Y-62823787D01*
X151377085Y-62812666D01*
X151268509Y-62779729D01*
X151268506Y-62779728D01*
X151232400Y-62760429D01*
X151168444Y-62726244D01*
X151080737Y-62654264D01*
X151008757Y-62566557D01*
X150965239Y-62485141D01*
X150951625Y-62464766D01*
X150934298Y-62447439D01*
X150913924Y-62433826D01*
X150891285Y-62424448D01*
X150867252Y-62419668D01*
X150842748Y-62419668D01*
X150818715Y-62424448D01*
X150796076Y-62433826D01*
X150775701Y-62447440D01*
X150758374Y-62464767D01*
X150744761Y-62485141D01*
X150701244Y-62566557D01*
X150629264Y-62654264D01*
X150541557Y-62726244D01*
X150477601Y-62760429D01*
X150441495Y-62779728D01*
X150441492Y-62779729D01*
X150332916Y-62812666D01*
X150220000Y-62823787D01*
X150107085Y-62812666D01*
X149998509Y-62779729D01*
X149998506Y-62779728D01*
X149962400Y-62760429D01*
X149898444Y-62726244D01*
X149810737Y-62654264D01*
X149747622Y-62577359D01*
X149730297Y-62560034D01*
X149709923Y-62546420D01*
X149687284Y-62537043D01*
X149663250Y-62532263D01*
X149638746Y-62532263D01*
X149614713Y-62537044D01*
X149592074Y-62546421D01*
X149571700Y-62560035D01*
X149554373Y-62577362D01*
X149540759Y-62597736D01*
X149531382Y-62620375D01*
X149526000Y-62656660D01*
X149526000Y-62821000D01*
X148374000Y-62821000D01*
X148374000Y-61219000D01*
X149526000Y-61219000D01*
X149526000Y-61383341D01*
X149528402Y-61407727D01*
X149535515Y-61431176D01*
X149547066Y-61452787D01*
X149562611Y-61471729D01*
X149581553Y-61487274D01*
X149603164Y-61498825D01*
X149626613Y-61505938D01*
X149650999Y-61508340D01*
X149675385Y-61505938D01*
X149698834Y-61498825D01*
X149720445Y-61487274D01*
X149739387Y-61471729D01*
X149747608Y-61462657D01*
X149810736Y-61385736D01*
X149898443Y-61313756D01*
X149962399Y-61279571D01*
X149998505Y-61260272D01*
X149998508Y-61260271D01*
X150107084Y-61227334D01*
X150220000Y-61216213D01*
X150332915Y-61227334D01*
X150441491Y-61260271D01*
X150441494Y-61260272D01*
X150477600Y-61279571D01*
X150541556Y-61313756D01*
X150629264Y-61385736D01*
X150701244Y-61473443D01*
X150743138Y-61551823D01*
X150744761Y-61554859D01*
X150758375Y-61575234D01*
X150775702Y-61592561D01*
X150796076Y-61606174D01*
X150818715Y-61615552D01*
X150842748Y-61620332D01*
X150867252Y-61620332D01*
X150891285Y-61615552D01*
X150913924Y-61606174D01*
X150934299Y-61592560D01*
X150951626Y-61575233D01*
X150965239Y-61554860D01*
X151008756Y-61473444D01*
X151080736Y-61385736D01*
X151168443Y-61313756D01*
X151232399Y-61279571D01*
X151268505Y-61260272D01*
X151268508Y-61260271D01*
X151377084Y-61227334D01*
X151490000Y-61216213D01*
X151602915Y-61227334D01*
X151602915Y-61227334D01*
G37*
G36*
X123027915Y-61227334D02*
G01*
X123136491Y-61260271D01*
X123136494Y-61260272D01*
X123172600Y-61279571D01*
X123236556Y-61313756D01*
X123324264Y-61385736D01*
X123396244Y-61473443D01*
X123430429Y-61537399D01*
X123449728Y-61573505D01*
X123449729Y-61573508D01*
X123482666Y-61682084D01*
X123491000Y-61766702D01*
X123491000Y-62273297D01*
X123482666Y-62357916D01*
X123450252Y-62464767D01*
X123449728Y-62466495D01*
X123443379Y-62478373D01*
X123396244Y-62566557D01*
X123324264Y-62654264D01*
X123236557Y-62726244D01*
X123172601Y-62760429D01*
X123136495Y-62779728D01*
X123136492Y-62779729D01*
X123027916Y-62812666D01*
X122915000Y-62823787D01*
X122802085Y-62812666D01*
X122693509Y-62779729D01*
X122693506Y-62779728D01*
X122657400Y-62760429D01*
X122593444Y-62726244D01*
X122505737Y-62654264D01*
X122433757Y-62566557D01*
X122390239Y-62485141D01*
X122376625Y-62464766D01*
X122359298Y-62447439D01*
X122338924Y-62433826D01*
X122316285Y-62424448D01*
X122292252Y-62419668D01*
X122267748Y-62419668D01*
X122243715Y-62424448D01*
X122221076Y-62433826D01*
X122200701Y-62447440D01*
X122183374Y-62464767D01*
X122169761Y-62485141D01*
X122126244Y-62566557D01*
X122054264Y-62654264D01*
X121966557Y-62726244D01*
X121902601Y-62760429D01*
X121866495Y-62779728D01*
X121866492Y-62779729D01*
X121757916Y-62812666D01*
X121645000Y-62823787D01*
X121532085Y-62812666D01*
X121423509Y-62779729D01*
X121423506Y-62779728D01*
X121387400Y-62760429D01*
X121323444Y-62726244D01*
X121235737Y-62654264D01*
X121172622Y-62577359D01*
X121155297Y-62560034D01*
X121134923Y-62546420D01*
X121112284Y-62537043D01*
X121088250Y-62532263D01*
X121063746Y-62532263D01*
X121039713Y-62537044D01*
X121017074Y-62546421D01*
X120996700Y-62560035D01*
X120979373Y-62577362D01*
X120965759Y-62597736D01*
X120956382Y-62620375D01*
X120951000Y-62656660D01*
X120951000Y-62821000D01*
X119799000Y-62821000D01*
X119799000Y-61219000D01*
X120951000Y-61219000D01*
X120951000Y-61383341D01*
X120953402Y-61407727D01*
X120960515Y-61431176D01*
X120972066Y-61452787D01*
X120987611Y-61471729D01*
X121006553Y-61487274D01*
X121028164Y-61498825D01*
X121051613Y-61505938D01*
X121075999Y-61508340D01*
X121100385Y-61505938D01*
X121123834Y-61498825D01*
X121145445Y-61487274D01*
X121164387Y-61471729D01*
X121172608Y-61462657D01*
X121235736Y-61385736D01*
X121323443Y-61313756D01*
X121387399Y-61279571D01*
X121423505Y-61260272D01*
X121423508Y-61260271D01*
X121532084Y-61227334D01*
X121645000Y-61216213D01*
X121757915Y-61227334D01*
X121866491Y-61260271D01*
X121866494Y-61260272D01*
X121902600Y-61279571D01*
X121966556Y-61313756D01*
X122054264Y-61385736D01*
X122126244Y-61473443D01*
X122168138Y-61551823D01*
X122169761Y-61554859D01*
X122183375Y-61575234D01*
X122200702Y-61592561D01*
X122221076Y-61606174D01*
X122243715Y-61615552D01*
X122267748Y-61620332D01*
X122292252Y-61620332D01*
X122316285Y-61615552D01*
X122338924Y-61606174D01*
X122359299Y-61592560D01*
X122376626Y-61575233D01*
X122390239Y-61554860D01*
X122433756Y-61473444D01*
X122505736Y-61385736D01*
X122593443Y-61313756D01*
X122657399Y-61279571D01*
X122693505Y-61260272D01*
X122693508Y-61260271D01*
X122802084Y-61227334D01*
X122915000Y-61216213D01*
X123027915Y-61227334D01*
X123027915Y-61227334D01*
G37*
G36*
X49367915Y-61227334D02*
G01*
X49476491Y-61260271D01*
X49476494Y-61260272D01*
X49512600Y-61279571D01*
X49576556Y-61313756D01*
X49664264Y-61385736D01*
X49736244Y-61473443D01*
X49770429Y-61537399D01*
X49789728Y-61573505D01*
X49789729Y-61573508D01*
X49822666Y-61682084D01*
X49831000Y-61766702D01*
X49831000Y-62273297D01*
X49822666Y-62357916D01*
X49790252Y-62464767D01*
X49789728Y-62466495D01*
X49783379Y-62478373D01*
X49736244Y-62566557D01*
X49664264Y-62654264D01*
X49576557Y-62726244D01*
X49512601Y-62760429D01*
X49476495Y-62779728D01*
X49476492Y-62779729D01*
X49367916Y-62812666D01*
X49255000Y-62823787D01*
X49142085Y-62812666D01*
X49033509Y-62779729D01*
X49033506Y-62779728D01*
X48997400Y-62760429D01*
X48933444Y-62726244D01*
X48845737Y-62654264D01*
X48773757Y-62566557D01*
X48730239Y-62485141D01*
X48716625Y-62464766D01*
X48699298Y-62447439D01*
X48678924Y-62433826D01*
X48656285Y-62424448D01*
X48632252Y-62419668D01*
X48607748Y-62419668D01*
X48583715Y-62424448D01*
X48561076Y-62433826D01*
X48540701Y-62447440D01*
X48523374Y-62464767D01*
X48509761Y-62485141D01*
X48466244Y-62566557D01*
X48394264Y-62654264D01*
X48306557Y-62726244D01*
X48242601Y-62760429D01*
X48206495Y-62779728D01*
X48206492Y-62779729D01*
X48097916Y-62812666D01*
X47985000Y-62823787D01*
X47872085Y-62812666D01*
X47763509Y-62779729D01*
X47763506Y-62779728D01*
X47727400Y-62760429D01*
X47663444Y-62726244D01*
X47575737Y-62654264D01*
X47512622Y-62577359D01*
X47495297Y-62560034D01*
X47474923Y-62546420D01*
X47452284Y-62537043D01*
X47428250Y-62532263D01*
X47403746Y-62532263D01*
X47379713Y-62537044D01*
X47357074Y-62546421D01*
X47336700Y-62560035D01*
X47319373Y-62577362D01*
X47305759Y-62597736D01*
X47296382Y-62620375D01*
X47291000Y-62656660D01*
X47291000Y-62821000D01*
X46139000Y-62821000D01*
X46139000Y-61219000D01*
X47291000Y-61219000D01*
X47291000Y-61383341D01*
X47293402Y-61407727D01*
X47300515Y-61431176D01*
X47312066Y-61452787D01*
X47327611Y-61471729D01*
X47346553Y-61487274D01*
X47368164Y-61498825D01*
X47391613Y-61505938D01*
X47415999Y-61508340D01*
X47440385Y-61505938D01*
X47463834Y-61498825D01*
X47485445Y-61487274D01*
X47504387Y-61471729D01*
X47512608Y-61462657D01*
X47575736Y-61385736D01*
X47663443Y-61313756D01*
X47727399Y-61279571D01*
X47763505Y-61260272D01*
X47763508Y-61260271D01*
X47872084Y-61227334D01*
X47985000Y-61216213D01*
X48097915Y-61227334D01*
X48206491Y-61260271D01*
X48206494Y-61260272D01*
X48242600Y-61279571D01*
X48306556Y-61313756D01*
X48394264Y-61385736D01*
X48466244Y-61473443D01*
X48508138Y-61551823D01*
X48509761Y-61554859D01*
X48523375Y-61575234D01*
X48540702Y-61592561D01*
X48561076Y-61606174D01*
X48583715Y-61615552D01*
X48607748Y-61620332D01*
X48632252Y-61620332D01*
X48656285Y-61615552D01*
X48678924Y-61606174D01*
X48699299Y-61592560D01*
X48716626Y-61575233D01*
X48730239Y-61554860D01*
X48773756Y-61473444D01*
X48845736Y-61385736D01*
X48933443Y-61313756D01*
X48997399Y-61279571D01*
X49033505Y-61260272D01*
X49033508Y-61260271D01*
X49142084Y-61227334D01*
X49255000Y-61216213D01*
X49367915Y-61227334D01*
X49367915Y-61227334D01*
G37*
G36*
X145887915Y-61227334D02*
G01*
X145996491Y-61260271D01*
X145996494Y-61260272D01*
X146032600Y-61279571D01*
X146096556Y-61313756D01*
X146184264Y-61385736D01*
X146256244Y-61473443D01*
X146290429Y-61537399D01*
X146309728Y-61573505D01*
X146309729Y-61573508D01*
X146342666Y-61682084D01*
X146351000Y-61766702D01*
X146351000Y-62273297D01*
X146342666Y-62357916D01*
X146310252Y-62464767D01*
X146309728Y-62466495D01*
X146303379Y-62478373D01*
X146256244Y-62566557D01*
X146184264Y-62654264D01*
X146096557Y-62726244D01*
X146032601Y-62760429D01*
X145996495Y-62779728D01*
X145996492Y-62779729D01*
X145887916Y-62812666D01*
X145775000Y-62823787D01*
X145662085Y-62812666D01*
X145553509Y-62779729D01*
X145553506Y-62779728D01*
X145517400Y-62760429D01*
X145453444Y-62726244D01*
X145365737Y-62654264D01*
X145293757Y-62566557D01*
X145250239Y-62485141D01*
X145236625Y-62464766D01*
X145219298Y-62447439D01*
X145198924Y-62433826D01*
X145176285Y-62424448D01*
X145152252Y-62419668D01*
X145127748Y-62419668D01*
X145103715Y-62424448D01*
X145081076Y-62433826D01*
X145060701Y-62447440D01*
X145043374Y-62464767D01*
X145029761Y-62485141D01*
X144986244Y-62566557D01*
X144914264Y-62654264D01*
X144826557Y-62726244D01*
X144762601Y-62760429D01*
X144726495Y-62779728D01*
X144726492Y-62779729D01*
X144617916Y-62812666D01*
X144505000Y-62823787D01*
X144392085Y-62812666D01*
X144283509Y-62779729D01*
X144283506Y-62779728D01*
X144247400Y-62760429D01*
X144183444Y-62726244D01*
X144095737Y-62654264D01*
X144032622Y-62577359D01*
X144015297Y-62560034D01*
X143994923Y-62546420D01*
X143972284Y-62537043D01*
X143948250Y-62532263D01*
X143923746Y-62532263D01*
X143899713Y-62537044D01*
X143877074Y-62546421D01*
X143856700Y-62560035D01*
X143839373Y-62577362D01*
X143825759Y-62597736D01*
X143816382Y-62620375D01*
X143811000Y-62656660D01*
X143811000Y-62821000D01*
X142659000Y-62821000D01*
X142659000Y-61219000D01*
X143811000Y-61219000D01*
X143811000Y-61383341D01*
X143813402Y-61407727D01*
X143820515Y-61431176D01*
X143832066Y-61452787D01*
X143847611Y-61471729D01*
X143866553Y-61487274D01*
X143888164Y-61498825D01*
X143911613Y-61505938D01*
X143935999Y-61508340D01*
X143960385Y-61505938D01*
X143983834Y-61498825D01*
X144005445Y-61487274D01*
X144024387Y-61471729D01*
X144032608Y-61462657D01*
X144095736Y-61385736D01*
X144183443Y-61313756D01*
X144247399Y-61279571D01*
X144283505Y-61260272D01*
X144283508Y-61260271D01*
X144392084Y-61227334D01*
X144505000Y-61216213D01*
X144617915Y-61227334D01*
X144726491Y-61260271D01*
X144726494Y-61260272D01*
X144762600Y-61279571D01*
X144826556Y-61313756D01*
X144914264Y-61385736D01*
X144986244Y-61473443D01*
X145028138Y-61551823D01*
X145029761Y-61554859D01*
X145043375Y-61575234D01*
X145060702Y-61592561D01*
X145081076Y-61606174D01*
X145103715Y-61615552D01*
X145127748Y-61620332D01*
X145152252Y-61620332D01*
X145176285Y-61615552D01*
X145198924Y-61606174D01*
X145219299Y-61592560D01*
X145236626Y-61575233D01*
X145250239Y-61554860D01*
X145293756Y-61473444D01*
X145365736Y-61385736D01*
X145453443Y-61313756D01*
X145517399Y-61279571D01*
X145553505Y-61260272D01*
X145553508Y-61260271D01*
X145662084Y-61227334D01*
X145775000Y-61216213D01*
X145887915Y-61227334D01*
X145887915Y-61227334D01*
G37*
G36*
X43652915Y-61227334D02*
G01*
X43761491Y-61260271D01*
X43761494Y-61260272D01*
X43797600Y-61279571D01*
X43861556Y-61313756D01*
X43949264Y-61385736D01*
X44021244Y-61473443D01*
X44055429Y-61537399D01*
X44074728Y-61573505D01*
X44074729Y-61573508D01*
X44107666Y-61682084D01*
X44116000Y-61766702D01*
X44116000Y-62273297D01*
X44107666Y-62357916D01*
X44075252Y-62464767D01*
X44074728Y-62466495D01*
X44068379Y-62478373D01*
X44021244Y-62566557D01*
X43949264Y-62654264D01*
X43861557Y-62726244D01*
X43797601Y-62760429D01*
X43761495Y-62779728D01*
X43761492Y-62779729D01*
X43652916Y-62812666D01*
X43540000Y-62823787D01*
X43427085Y-62812666D01*
X43318509Y-62779729D01*
X43318506Y-62779728D01*
X43282400Y-62760429D01*
X43218444Y-62726244D01*
X43130737Y-62654264D01*
X43058757Y-62566557D01*
X43015239Y-62485141D01*
X43001625Y-62464766D01*
X42984298Y-62447439D01*
X42963924Y-62433826D01*
X42941285Y-62424448D01*
X42917252Y-62419668D01*
X42892748Y-62419668D01*
X42868715Y-62424448D01*
X42846076Y-62433826D01*
X42825701Y-62447440D01*
X42808374Y-62464767D01*
X42794761Y-62485141D01*
X42751244Y-62566557D01*
X42679264Y-62654264D01*
X42591557Y-62726244D01*
X42527601Y-62760429D01*
X42491495Y-62779728D01*
X42491492Y-62779729D01*
X42382916Y-62812666D01*
X42270000Y-62823787D01*
X42157085Y-62812666D01*
X42048509Y-62779729D01*
X42048506Y-62779728D01*
X42012400Y-62760429D01*
X41948444Y-62726244D01*
X41860737Y-62654264D01*
X41797622Y-62577359D01*
X41780297Y-62560034D01*
X41759923Y-62546420D01*
X41737284Y-62537043D01*
X41713250Y-62532263D01*
X41688746Y-62532263D01*
X41664713Y-62537044D01*
X41642074Y-62546421D01*
X41621700Y-62560035D01*
X41604373Y-62577362D01*
X41590759Y-62597736D01*
X41581382Y-62620375D01*
X41576000Y-62656660D01*
X41576000Y-62821000D01*
X40424000Y-62821000D01*
X40424000Y-61219000D01*
X41576000Y-61219000D01*
X41576000Y-61383341D01*
X41578402Y-61407727D01*
X41585515Y-61431176D01*
X41597066Y-61452787D01*
X41612611Y-61471729D01*
X41631553Y-61487274D01*
X41653164Y-61498825D01*
X41676613Y-61505938D01*
X41700999Y-61508340D01*
X41725385Y-61505938D01*
X41748834Y-61498825D01*
X41770445Y-61487274D01*
X41789387Y-61471729D01*
X41797608Y-61462657D01*
X41860736Y-61385736D01*
X41948443Y-61313756D01*
X42012399Y-61279571D01*
X42048505Y-61260272D01*
X42048508Y-61260271D01*
X42157084Y-61227334D01*
X42270000Y-61216213D01*
X42382915Y-61227334D01*
X42491491Y-61260271D01*
X42491494Y-61260272D01*
X42527600Y-61279571D01*
X42591556Y-61313756D01*
X42679264Y-61385736D01*
X42751244Y-61473443D01*
X42793138Y-61551823D01*
X42794761Y-61554859D01*
X42808375Y-61575234D01*
X42825702Y-61592561D01*
X42846076Y-61606174D01*
X42868715Y-61615552D01*
X42892748Y-61620332D01*
X42917252Y-61620332D01*
X42941285Y-61615552D01*
X42963924Y-61606174D01*
X42984299Y-61592560D01*
X43001626Y-61575233D01*
X43015239Y-61554860D01*
X43058756Y-61473444D01*
X43130736Y-61385736D01*
X43218443Y-61313756D01*
X43282399Y-61279571D01*
X43318505Y-61260272D01*
X43318508Y-61260271D01*
X43427084Y-61227334D01*
X43540000Y-61216213D01*
X43652915Y-61227334D01*
X43652915Y-61227334D01*
G37*
G36*
X105936823Y-60546313D02*
G01*
X106097242Y-60594976D01*
X106229906Y-60665886D01*
X106245078Y-60673996D01*
X106374659Y-60780341D01*
X106481004Y-60909922D01*
X106481005Y-60909924D01*
X106560024Y-61057758D01*
X106608687Y-61218177D01*
X106625117Y-61385000D01*
X106608687Y-61551823D01*
X106560024Y-61712242D01*
X106530735Y-61767037D01*
X106481004Y-61860078D01*
X106374659Y-61989659D01*
X106245078Y-62096004D01*
X106245076Y-62096005D01*
X106097242Y-62175024D01*
X105936823Y-62223687D01*
X105811804Y-62236000D01*
X105728196Y-62236000D01*
X105603177Y-62223687D01*
X105442758Y-62175024D01*
X105294924Y-62096005D01*
X105294922Y-62096004D01*
X105165341Y-61989659D01*
X105058996Y-61860078D01*
X105009265Y-61767037D01*
X104979976Y-61712242D01*
X104931313Y-61551823D01*
X104914883Y-61385000D01*
X104931313Y-61218177D01*
X104979976Y-61057758D01*
X105058995Y-60909924D01*
X105058996Y-60909922D01*
X105165341Y-60780341D01*
X105294922Y-60673996D01*
X105310094Y-60665886D01*
X105442758Y-60594976D01*
X105603177Y-60546313D01*
X105728196Y-60534000D01*
X105811804Y-60534000D01*
X105936823Y-60546313D01*
X105936823Y-60546313D01*
G37*
G36*
X113556823Y-60546313D02*
G01*
X113717242Y-60594976D01*
X113849906Y-60665886D01*
X113865078Y-60673996D01*
X113994659Y-60780341D01*
X114101004Y-60909922D01*
X114101005Y-60909924D01*
X114180024Y-61057758D01*
X114228687Y-61218177D01*
X114245117Y-61385000D01*
X114228687Y-61551823D01*
X114180024Y-61712242D01*
X114150735Y-61767037D01*
X114101004Y-61860078D01*
X113994659Y-61989659D01*
X113865078Y-62096004D01*
X113865076Y-62096005D01*
X113717242Y-62175024D01*
X113556823Y-62223687D01*
X113431804Y-62236000D01*
X113348196Y-62236000D01*
X113223177Y-62223687D01*
X113062758Y-62175024D01*
X112914924Y-62096005D01*
X112914922Y-62096004D01*
X112785341Y-61989659D01*
X112678996Y-61860078D01*
X112629265Y-61767037D01*
X112599976Y-61712242D01*
X112551313Y-61551823D01*
X112534883Y-61385000D01*
X112551313Y-61218177D01*
X112599976Y-61057758D01*
X112678995Y-60909924D01*
X112678996Y-60909922D01*
X112785341Y-60780341D01*
X112914922Y-60673996D01*
X112930094Y-60665886D01*
X113062758Y-60594976D01*
X113223177Y-60546313D01*
X113348196Y-60534000D01*
X113431804Y-60534000D01*
X113556823Y-60546313D01*
X113556823Y-60546313D01*
G37*
G36*
X79901823Y-60546313D02*
G01*
X80062242Y-60594976D01*
X80194906Y-60665886D01*
X80210078Y-60673996D01*
X80339659Y-60780341D01*
X80446004Y-60909922D01*
X80446005Y-60909924D01*
X80525024Y-61057758D01*
X80573687Y-61218177D01*
X80590117Y-61385000D01*
X80573687Y-61551823D01*
X80525024Y-61712242D01*
X80495735Y-61767037D01*
X80446004Y-61860078D01*
X80339659Y-61989659D01*
X80210078Y-62096004D01*
X80210076Y-62096005D01*
X80062242Y-62175024D01*
X79901823Y-62223687D01*
X79776804Y-62236000D01*
X79693196Y-62236000D01*
X79568177Y-62223687D01*
X79407758Y-62175024D01*
X79259924Y-62096005D01*
X79259922Y-62096004D01*
X79130341Y-61989659D01*
X79023996Y-61860078D01*
X78974265Y-61767037D01*
X78944976Y-61712242D01*
X78896313Y-61551823D01*
X78879883Y-61385000D01*
X78896313Y-61218177D01*
X78944976Y-61057758D01*
X79023995Y-60909924D01*
X79023996Y-60909922D01*
X79130341Y-60780341D01*
X79259922Y-60673996D01*
X79275094Y-60665886D01*
X79407758Y-60594976D01*
X79568177Y-60546313D01*
X79693196Y-60534000D01*
X79776804Y-60534000D01*
X79901823Y-60546313D01*
X79901823Y-60546313D01*
G37*
G36*
X87521823Y-60546313D02*
G01*
X87682242Y-60594976D01*
X87814906Y-60665886D01*
X87830078Y-60673996D01*
X87959659Y-60780341D01*
X88066004Y-60909922D01*
X88066005Y-60909924D01*
X88145024Y-61057758D01*
X88193687Y-61218177D01*
X88210117Y-61385000D01*
X88193687Y-61551823D01*
X88145024Y-61712242D01*
X88115735Y-61767037D01*
X88066004Y-61860078D01*
X87959659Y-61989659D01*
X87830078Y-62096004D01*
X87830076Y-62096005D01*
X87682242Y-62175024D01*
X87521823Y-62223687D01*
X87396804Y-62236000D01*
X87313196Y-62236000D01*
X87188177Y-62223687D01*
X87027758Y-62175024D01*
X86879924Y-62096005D01*
X86879922Y-62096004D01*
X86750341Y-61989659D01*
X86643996Y-61860078D01*
X86594265Y-61767037D01*
X86564976Y-61712242D01*
X86516313Y-61551823D01*
X86499883Y-61385000D01*
X86516313Y-61218177D01*
X86564976Y-61057758D01*
X86643995Y-60909924D01*
X86643996Y-60909922D01*
X86750341Y-60780341D01*
X86879922Y-60673996D01*
X86895094Y-60665886D01*
X87027758Y-60594976D01*
X87188177Y-60546313D01*
X87313196Y-60534000D01*
X87396804Y-60534000D01*
X87521823Y-60546313D01*
X87521823Y-60546313D01*
G37*
G36*
X95876000Y-61016000D02*
G01*
X94074000Y-61016000D01*
X94074000Y-59214000D01*
X95876000Y-59214000D01*
X95876000Y-61016000D01*
X95876000Y-61016000D01*
G37*
G36*
X97625443Y-59220519D02*
G01*
X97691627Y-59227037D01*
X97861466Y-59278557D01*
X98017991Y-59362222D01*
X98053729Y-59391552D01*
X98155186Y-59474814D01*
X98238448Y-59576271D01*
X98267778Y-59612009D01*
X98351443Y-59768534D01*
X98402963Y-59938373D01*
X98420359Y-60115000D01*
X98402963Y-60291627D01*
X98351443Y-60461466D01*
X98267778Y-60617991D01*
X98238448Y-60653729D01*
X98155186Y-60755186D01*
X98053729Y-60838448D01*
X98017991Y-60867778D01*
X97861466Y-60951443D01*
X97691627Y-61002963D01*
X97625442Y-61009482D01*
X97559260Y-61016000D01*
X97470740Y-61016000D01*
X97404558Y-61009482D01*
X97338373Y-61002963D01*
X97168534Y-60951443D01*
X97012009Y-60867778D01*
X96976271Y-60838448D01*
X96874814Y-60755186D01*
X96791552Y-60653729D01*
X96762222Y-60617991D01*
X96678557Y-60461466D01*
X96627037Y-60291627D01*
X96609641Y-60115000D01*
X96627037Y-59938373D01*
X96678557Y-59768534D01*
X96762222Y-59612009D01*
X96791552Y-59576271D01*
X96874814Y-59474814D01*
X96976271Y-59391552D01*
X97012009Y-59362222D01*
X97168534Y-59278557D01*
X97338373Y-59227037D01*
X97404557Y-59220519D01*
X97470740Y-59214000D01*
X97559260Y-59214000D01*
X97625443Y-59220519D01*
X97625443Y-59220519D01*
G37*
G36*
X113556823Y-58006313D02*
G01*
X113717242Y-58054976D01*
X113849906Y-58125886D01*
X113865078Y-58133996D01*
X113994659Y-58240341D01*
X114101004Y-58369922D01*
X114101005Y-58369924D01*
X114180024Y-58517758D01*
X114228687Y-58678177D01*
X114245117Y-58845000D01*
X114228687Y-59011823D01*
X114180024Y-59172242D01*
X114150735Y-59227037D01*
X114101004Y-59320078D01*
X113994659Y-59449659D01*
X113865078Y-59556004D01*
X113865076Y-59556005D01*
X113717242Y-59635024D01*
X113556823Y-59683687D01*
X113431804Y-59696000D01*
X113348196Y-59696000D01*
X113223177Y-59683687D01*
X113062758Y-59635024D01*
X112914924Y-59556005D01*
X112914922Y-59556004D01*
X112785341Y-59449659D01*
X112678996Y-59320078D01*
X112629265Y-59227037D01*
X112599976Y-59172242D01*
X112551313Y-59011823D01*
X112534883Y-58845000D01*
X112551313Y-58678177D01*
X112599976Y-58517758D01*
X112678995Y-58369924D01*
X112678996Y-58369922D01*
X112785341Y-58240341D01*
X112914922Y-58133996D01*
X112930094Y-58125886D01*
X113062758Y-58054976D01*
X113223177Y-58006313D01*
X113348196Y-57994000D01*
X113431804Y-57994000D01*
X113556823Y-58006313D01*
X113556823Y-58006313D01*
G37*
G36*
X105936823Y-58006313D02*
G01*
X106097242Y-58054976D01*
X106229906Y-58125886D01*
X106245078Y-58133996D01*
X106374659Y-58240341D01*
X106481004Y-58369922D01*
X106481005Y-58369924D01*
X106560024Y-58517758D01*
X106608687Y-58678177D01*
X106625117Y-58845000D01*
X106608687Y-59011823D01*
X106560024Y-59172242D01*
X106530735Y-59227037D01*
X106481004Y-59320078D01*
X106374659Y-59449659D01*
X106245078Y-59556004D01*
X106245076Y-59556005D01*
X106097242Y-59635024D01*
X105936823Y-59683687D01*
X105811804Y-59696000D01*
X105728196Y-59696000D01*
X105603177Y-59683687D01*
X105442758Y-59635024D01*
X105294924Y-59556005D01*
X105294922Y-59556004D01*
X105165341Y-59449659D01*
X105058996Y-59320078D01*
X105009265Y-59227037D01*
X104979976Y-59172242D01*
X104931313Y-59011823D01*
X104914883Y-58845000D01*
X104931313Y-58678177D01*
X104979976Y-58517758D01*
X105058995Y-58369924D01*
X105058996Y-58369922D01*
X105165341Y-58240341D01*
X105294922Y-58133996D01*
X105310094Y-58125886D01*
X105442758Y-58054976D01*
X105603177Y-58006313D01*
X105728196Y-57994000D01*
X105811804Y-57994000D01*
X105936823Y-58006313D01*
X105936823Y-58006313D01*
G37*
G36*
X87521823Y-58006313D02*
G01*
X87682242Y-58054976D01*
X87814906Y-58125886D01*
X87830078Y-58133996D01*
X87959659Y-58240341D01*
X88066004Y-58369922D01*
X88066005Y-58369924D01*
X88145024Y-58517758D01*
X88193687Y-58678177D01*
X88210117Y-58845000D01*
X88193687Y-59011823D01*
X88145024Y-59172242D01*
X88115735Y-59227037D01*
X88066004Y-59320078D01*
X87959659Y-59449659D01*
X87830078Y-59556004D01*
X87830076Y-59556005D01*
X87682242Y-59635024D01*
X87521823Y-59683687D01*
X87396804Y-59696000D01*
X87313196Y-59696000D01*
X87188177Y-59683687D01*
X87027758Y-59635024D01*
X86879924Y-59556005D01*
X86879922Y-59556004D01*
X86750341Y-59449659D01*
X86643996Y-59320078D01*
X86594265Y-59227037D01*
X86564976Y-59172242D01*
X86516313Y-59011823D01*
X86499883Y-58845000D01*
X86516313Y-58678177D01*
X86564976Y-58517758D01*
X86643995Y-58369924D01*
X86643996Y-58369922D01*
X86750341Y-58240341D01*
X86879922Y-58133996D01*
X86895094Y-58125886D01*
X87027758Y-58054976D01*
X87188177Y-58006313D01*
X87313196Y-57994000D01*
X87396804Y-57994000D01*
X87521823Y-58006313D01*
X87521823Y-58006313D01*
G37*
G36*
X79901823Y-58006313D02*
G01*
X80062242Y-58054976D01*
X80194906Y-58125886D01*
X80210078Y-58133996D01*
X80339659Y-58240341D01*
X80446004Y-58369922D01*
X80446005Y-58369924D01*
X80525024Y-58517758D01*
X80573687Y-58678177D01*
X80590117Y-58845000D01*
X80573687Y-59011823D01*
X80525024Y-59172242D01*
X80495735Y-59227037D01*
X80446004Y-59320078D01*
X80339659Y-59449659D01*
X80210078Y-59556004D01*
X80210076Y-59556005D01*
X80062242Y-59635024D01*
X79901823Y-59683687D01*
X79776804Y-59696000D01*
X79693196Y-59696000D01*
X79568177Y-59683687D01*
X79407758Y-59635024D01*
X79259924Y-59556005D01*
X79259922Y-59556004D01*
X79130341Y-59449659D01*
X79023996Y-59320078D01*
X78974265Y-59227037D01*
X78944976Y-59172242D01*
X78896313Y-59011823D01*
X78879883Y-58845000D01*
X78896313Y-58678177D01*
X78944976Y-58517758D01*
X79023995Y-58369924D01*
X79023996Y-58369922D01*
X79130341Y-58240341D01*
X79259922Y-58133996D01*
X79275094Y-58125886D01*
X79407758Y-58054976D01*
X79568177Y-58006313D01*
X79693196Y-57994000D01*
X79776804Y-57994000D01*
X79901823Y-58006313D01*
X79901823Y-58006313D01*
G37*
G36*
X80586000Y-57156000D02*
G01*
X78884000Y-57156000D01*
X78884000Y-55454000D01*
X80586000Y-55454000D01*
X80586000Y-57156000D01*
X80586000Y-57156000D01*
G37*
G36*
X113556823Y-55466313D02*
G01*
X113717242Y-55514976D01*
X113849906Y-55585886D01*
X113865078Y-55593996D01*
X113994659Y-55700341D01*
X114101004Y-55829922D01*
X114101005Y-55829924D01*
X114180024Y-55977758D01*
X114228687Y-56138177D01*
X114245117Y-56305000D01*
X114228687Y-56471823D01*
X114180024Y-56632242D01*
X114109114Y-56764906D01*
X114101004Y-56780078D01*
X113994659Y-56909659D01*
X113865078Y-57016004D01*
X113865076Y-57016005D01*
X113717242Y-57095024D01*
X113556823Y-57143687D01*
X113431804Y-57156000D01*
X113348196Y-57156000D01*
X113223177Y-57143687D01*
X113062758Y-57095024D01*
X112914924Y-57016005D01*
X112914922Y-57016004D01*
X112785341Y-56909659D01*
X112678996Y-56780078D01*
X112670886Y-56764906D01*
X112599976Y-56632242D01*
X112551313Y-56471823D01*
X112534883Y-56305000D01*
X112551313Y-56138177D01*
X112599976Y-55977758D01*
X112678995Y-55829924D01*
X112678996Y-55829922D01*
X112785341Y-55700341D01*
X112914922Y-55593996D01*
X112930094Y-55585886D01*
X113062758Y-55514976D01*
X113223177Y-55466313D01*
X113348196Y-55454000D01*
X113431804Y-55454000D01*
X113556823Y-55466313D01*
X113556823Y-55466313D01*
G37*
G36*
X106621000Y-57156000D02*
G01*
X104919000Y-57156000D01*
X104919000Y-55454000D01*
X106621000Y-55454000D01*
X106621000Y-57156000D01*
X106621000Y-57156000D01*
G37*
G36*
X87521823Y-55466313D02*
G01*
X87682242Y-55514976D01*
X87814906Y-55585886D01*
X87830078Y-55593996D01*
X87959659Y-55700341D01*
X88066004Y-55829922D01*
X88066005Y-55829924D01*
X88145024Y-55977758D01*
X88193687Y-56138177D01*
X88210117Y-56305000D01*
X88193687Y-56471823D01*
X88145024Y-56632242D01*
X88074114Y-56764906D01*
X88066004Y-56780078D01*
X87959659Y-56909659D01*
X87830078Y-57016004D01*
X87830076Y-57016005D01*
X87682242Y-57095024D01*
X87521823Y-57143687D01*
X87396804Y-57156000D01*
X87313196Y-57156000D01*
X87188177Y-57143687D01*
X87027758Y-57095024D01*
X86879924Y-57016005D01*
X86879922Y-57016004D01*
X86750341Y-56909659D01*
X86643996Y-56780078D01*
X86635886Y-56764906D01*
X86564976Y-56632242D01*
X86516313Y-56471823D01*
X86499883Y-56305000D01*
X86516313Y-56138177D01*
X86564976Y-55977758D01*
X86643995Y-55829924D01*
X86643996Y-55829922D01*
X86750341Y-55700341D01*
X86879922Y-55593996D01*
X86895094Y-55585886D01*
X87027758Y-55514976D01*
X87188177Y-55466313D01*
X87313196Y-55454000D01*
X87396804Y-55454000D01*
X87521823Y-55466313D01*
X87521823Y-55466313D01*
G37*
G36*
X65396000Y-56571000D02*
G01*
X63594000Y-56571000D01*
X63594000Y-54769000D01*
X65396000Y-54769000D01*
X65396000Y-56571000D01*
X65396000Y-56571000D01*
G37*
G36*
X67145442Y-54775518D02*
G01*
X67211627Y-54782037D01*
X67381466Y-54833557D01*
X67537991Y-54917222D01*
X67573729Y-54946552D01*
X67675186Y-55029814D01*
X67758448Y-55131271D01*
X67787778Y-55167009D01*
X67871443Y-55323534D01*
X67922963Y-55493373D01*
X67940359Y-55670000D01*
X67922963Y-55846627D01*
X67871443Y-56016466D01*
X67787778Y-56172991D01*
X67758448Y-56208729D01*
X67675186Y-56310186D01*
X67573729Y-56393448D01*
X67537991Y-56422778D01*
X67381466Y-56506443D01*
X67211627Y-56557963D01*
X67145443Y-56564481D01*
X67079260Y-56571000D01*
X66990740Y-56571000D01*
X66924557Y-56564481D01*
X66858373Y-56557963D01*
X66688534Y-56506443D01*
X66532009Y-56422778D01*
X66496271Y-56393448D01*
X66394814Y-56310186D01*
X66311552Y-56208729D01*
X66282222Y-56172991D01*
X66198557Y-56016466D01*
X66147037Y-55846627D01*
X66129641Y-55670000D01*
X66147037Y-55493373D01*
X66198557Y-55323534D01*
X66282222Y-55167009D01*
X66311552Y-55131271D01*
X66394814Y-55029814D01*
X66496271Y-54946552D01*
X66532009Y-54917222D01*
X66688534Y-54833557D01*
X66858373Y-54782037D01*
X66924558Y-54775518D01*
X66990740Y-54769000D01*
X67079260Y-54769000D01*
X67145442Y-54775518D01*
X67145442Y-54775518D01*
G37*
G36*
X69685442Y-54775518D02*
G01*
X69751627Y-54782037D01*
X69921466Y-54833557D01*
X70077991Y-54917222D01*
X70113729Y-54946552D01*
X70215186Y-55029814D01*
X70298448Y-55131271D01*
X70327778Y-55167009D01*
X70411443Y-55323534D01*
X70462963Y-55493373D01*
X70480359Y-55670000D01*
X70462963Y-55846627D01*
X70411443Y-56016466D01*
X70327778Y-56172991D01*
X70298448Y-56208729D01*
X70215186Y-56310186D01*
X70113729Y-56393448D01*
X70077991Y-56422778D01*
X69921466Y-56506443D01*
X69751627Y-56557963D01*
X69685443Y-56564481D01*
X69619260Y-56571000D01*
X69530740Y-56571000D01*
X69464557Y-56564481D01*
X69398373Y-56557963D01*
X69228534Y-56506443D01*
X69072009Y-56422778D01*
X69036271Y-56393448D01*
X68934814Y-56310186D01*
X68851552Y-56208729D01*
X68822222Y-56172991D01*
X68738557Y-56016466D01*
X68687037Y-55846627D01*
X68669641Y-55670000D01*
X68687037Y-55493373D01*
X68738557Y-55323534D01*
X68822222Y-55167009D01*
X68851552Y-55131271D01*
X68934814Y-55029814D01*
X69036271Y-54946552D01*
X69072009Y-54917222D01*
X69228534Y-54833557D01*
X69398373Y-54782037D01*
X69464558Y-54775518D01*
X69530740Y-54769000D01*
X69619260Y-54769000D01*
X69685442Y-54775518D01*
X69685442Y-54775518D01*
G37*
G36*
X72225442Y-54775518D02*
G01*
X72291627Y-54782037D01*
X72461466Y-54833557D01*
X72617991Y-54917222D01*
X72653729Y-54946552D01*
X72755186Y-55029814D01*
X72838448Y-55131271D01*
X72867778Y-55167009D01*
X72951443Y-55323534D01*
X73002963Y-55493373D01*
X73020359Y-55670000D01*
X73002963Y-55846627D01*
X72951443Y-56016466D01*
X72867778Y-56172991D01*
X72838448Y-56208729D01*
X72755186Y-56310186D01*
X72653729Y-56393448D01*
X72617991Y-56422778D01*
X72461466Y-56506443D01*
X72291627Y-56557963D01*
X72225443Y-56564481D01*
X72159260Y-56571000D01*
X72070740Y-56571000D01*
X72004557Y-56564481D01*
X71938373Y-56557963D01*
X71768534Y-56506443D01*
X71612009Y-56422778D01*
X71576271Y-56393448D01*
X71474814Y-56310186D01*
X71391552Y-56208729D01*
X71362222Y-56172991D01*
X71278557Y-56016466D01*
X71227037Y-55846627D01*
X71209641Y-55670000D01*
X71227037Y-55493373D01*
X71278557Y-55323534D01*
X71362222Y-55167009D01*
X71391552Y-55131271D01*
X71474814Y-55029814D01*
X71576271Y-54946552D01*
X71612009Y-54917222D01*
X71768534Y-54833557D01*
X71938373Y-54782037D01*
X72004558Y-54775518D01*
X72070740Y-54769000D01*
X72159260Y-54769000D01*
X72225442Y-54775518D01*
X72225442Y-54775518D01*
G37*
G36*
X128740442Y-54775518D02*
G01*
X128806627Y-54782037D01*
X128976466Y-54833557D01*
X129132991Y-54917222D01*
X129168729Y-54946552D01*
X129270186Y-55029814D01*
X129353448Y-55131271D01*
X129382778Y-55167009D01*
X129466443Y-55323534D01*
X129517963Y-55493373D01*
X129535359Y-55670000D01*
X129517963Y-55846627D01*
X129466443Y-56016466D01*
X129382778Y-56172991D01*
X129353448Y-56208729D01*
X129270186Y-56310186D01*
X129168729Y-56393448D01*
X129132991Y-56422778D01*
X128976466Y-56506443D01*
X128806627Y-56557963D01*
X128740443Y-56564481D01*
X128674260Y-56571000D01*
X128585740Y-56571000D01*
X128519557Y-56564481D01*
X128453373Y-56557963D01*
X128283534Y-56506443D01*
X128127009Y-56422778D01*
X128091271Y-56393448D01*
X127989814Y-56310186D01*
X127906552Y-56208729D01*
X127877222Y-56172991D01*
X127793557Y-56016466D01*
X127742037Y-55846627D01*
X127724641Y-55670000D01*
X127742037Y-55493373D01*
X127793557Y-55323534D01*
X127877222Y-55167009D01*
X127906552Y-55131271D01*
X127989814Y-55029814D01*
X128091271Y-54946552D01*
X128127009Y-54917222D01*
X128283534Y-54833557D01*
X128453373Y-54782037D01*
X128519558Y-54775518D01*
X128585740Y-54769000D01*
X128674260Y-54769000D01*
X128740442Y-54775518D01*
X128740442Y-54775518D01*
G37*
G36*
X126200442Y-54775518D02*
G01*
X126266627Y-54782037D01*
X126436466Y-54833557D01*
X126592991Y-54917222D01*
X126628729Y-54946552D01*
X126730186Y-55029814D01*
X126813448Y-55131271D01*
X126842778Y-55167009D01*
X126926443Y-55323534D01*
X126977963Y-55493373D01*
X126995359Y-55670000D01*
X126977963Y-55846627D01*
X126926443Y-56016466D01*
X126842778Y-56172991D01*
X126813448Y-56208729D01*
X126730186Y-56310186D01*
X126628729Y-56393448D01*
X126592991Y-56422778D01*
X126436466Y-56506443D01*
X126266627Y-56557963D01*
X126200443Y-56564481D01*
X126134260Y-56571000D01*
X126045740Y-56571000D01*
X125979557Y-56564481D01*
X125913373Y-56557963D01*
X125743534Y-56506443D01*
X125587009Y-56422778D01*
X125551271Y-56393448D01*
X125449814Y-56310186D01*
X125366552Y-56208729D01*
X125337222Y-56172991D01*
X125253557Y-56016466D01*
X125202037Y-55846627D01*
X125184641Y-55670000D01*
X125202037Y-55493373D01*
X125253557Y-55323534D01*
X125337222Y-55167009D01*
X125366552Y-55131271D01*
X125449814Y-55029814D01*
X125551271Y-54946552D01*
X125587009Y-54917222D01*
X125743534Y-54833557D01*
X125913373Y-54782037D01*
X125979558Y-54775518D01*
X126045740Y-54769000D01*
X126134260Y-54769000D01*
X126200442Y-54775518D01*
X126200442Y-54775518D01*
G37*
G36*
X123660442Y-54775518D02*
G01*
X123726627Y-54782037D01*
X123896466Y-54833557D01*
X124052991Y-54917222D01*
X124088729Y-54946552D01*
X124190186Y-55029814D01*
X124273448Y-55131271D01*
X124302778Y-55167009D01*
X124386443Y-55323534D01*
X124437963Y-55493373D01*
X124455359Y-55670000D01*
X124437963Y-55846627D01*
X124386443Y-56016466D01*
X124302778Y-56172991D01*
X124273448Y-56208729D01*
X124190186Y-56310186D01*
X124088729Y-56393448D01*
X124052991Y-56422778D01*
X123896466Y-56506443D01*
X123726627Y-56557963D01*
X123660443Y-56564481D01*
X123594260Y-56571000D01*
X123505740Y-56571000D01*
X123439557Y-56564481D01*
X123373373Y-56557963D01*
X123203534Y-56506443D01*
X123047009Y-56422778D01*
X123011271Y-56393448D01*
X122909814Y-56310186D01*
X122826552Y-56208729D01*
X122797222Y-56172991D01*
X122713557Y-56016466D01*
X122662037Y-55846627D01*
X122644641Y-55670000D01*
X122662037Y-55493373D01*
X122713557Y-55323534D01*
X122797222Y-55167009D01*
X122826552Y-55131271D01*
X122909814Y-55029814D01*
X123011271Y-54946552D01*
X123047009Y-54917222D01*
X123203534Y-54833557D01*
X123373373Y-54782037D01*
X123439558Y-54775518D01*
X123505740Y-54769000D01*
X123594260Y-54769000D01*
X123660442Y-54775518D01*
X123660442Y-54775518D01*
G37*
G36*
X121911000Y-56571000D02*
G01*
X120109000Y-56571000D01*
X120109000Y-54769000D01*
X121911000Y-54769000D01*
X121911000Y-56571000D01*
X121911000Y-56571000D01*
G37*
G36*
X133341000Y-56571000D02*
G01*
X131539000Y-56571000D01*
X131539000Y-54769000D01*
X133341000Y-54769000D01*
X133341000Y-56571000D01*
X133341000Y-56571000D01*
G37*
G36*
X135090442Y-54775518D02*
G01*
X135156627Y-54782037D01*
X135326466Y-54833557D01*
X135482991Y-54917222D01*
X135518729Y-54946552D01*
X135620186Y-55029814D01*
X135703448Y-55131271D01*
X135732778Y-55167009D01*
X135816443Y-55323534D01*
X135867963Y-55493373D01*
X135885359Y-55670000D01*
X135867963Y-55846627D01*
X135816443Y-56016466D01*
X135732778Y-56172991D01*
X135703448Y-56208729D01*
X135620186Y-56310186D01*
X135518729Y-56393448D01*
X135482991Y-56422778D01*
X135326466Y-56506443D01*
X135156627Y-56557963D01*
X135090443Y-56564481D01*
X135024260Y-56571000D01*
X134935740Y-56571000D01*
X134869557Y-56564481D01*
X134803373Y-56557963D01*
X134633534Y-56506443D01*
X134477009Y-56422778D01*
X134441271Y-56393448D01*
X134339814Y-56310186D01*
X134256552Y-56208729D01*
X134227222Y-56172991D01*
X134143557Y-56016466D01*
X134092037Y-55846627D01*
X134074641Y-55670000D01*
X134092037Y-55493373D01*
X134143557Y-55323534D01*
X134227222Y-55167009D01*
X134256552Y-55131271D01*
X134339814Y-55029814D01*
X134441271Y-54946552D01*
X134477009Y-54917222D01*
X134633534Y-54833557D01*
X134803373Y-54782037D01*
X134869558Y-54775518D01*
X134935740Y-54769000D01*
X135024260Y-54769000D01*
X135090442Y-54775518D01*
X135090442Y-54775518D01*
G37*
G36*
X137630442Y-54775518D02*
G01*
X137696627Y-54782037D01*
X137866466Y-54833557D01*
X138022991Y-54917222D01*
X138058729Y-54946552D01*
X138160186Y-55029814D01*
X138243448Y-55131271D01*
X138272778Y-55167009D01*
X138356443Y-55323534D01*
X138407963Y-55493373D01*
X138425359Y-55670000D01*
X138407963Y-55846627D01*
X138356443Y-56016466D01*
X138272778Y-56172991D01*
X138243448Y-56208729D01*
X138160186Y-56310186D01*
X138058729Y-56393448D01*
X138022991Y-56422778D01*
X137866466Y-56506443D01*
X137696627Y-56557963D01*
X137630443Y-56564481D01*
X137564260Y-56571000D01*
X137475740Y-56571000D01*
X137409557Y-56564481D01*
X137343373Y-56557963D01*
X137173534Y-56506443D01*
X137017009Y-56422778D01*
X136981271Y-56393448D01*
X136879814Y-56310186D01*
X136796552Y-56208729D01*
X136767222Y-56172991D01*
X136683557Y-56016466D01*
X136632037Y-55846627D01*
X136614641Y-55670000D01*
X136632037Y-55493373D01*
X136683557Y-55323534D01*
X136767222Y-55167009D01*
X136796552Y-55131271D01*
X136879814Y-55029814D01*
X136981271Y-54946552D01*
X137017009Y-54917222D01*
X137173534Y-54833557D01*
X137343373Y-54782037D01*
X137409558Y-54775518D01*
X137475740Y-54769000D01*
X137564260Y-54769000D01*
X137630442Y-54775518D01*
X137630442Y-54775518D01*
G37*
G36*
X140170442Y-54775518D02*
G01*
X140236627Y-54782037D01*
X140406466Y-54833557D01*
X140562991Y-54917222D01*
X140598729Y-54946552D01*
X140700186Y-55029814D01*
X140783448Y-55131271D01*
X140812778Y-55167009D01*
X140896443Y-55323534D01*
X140947963Y-55493373D01*
X140965359Y-55670000D01*
X140947963Y-55846627D01*
X140896443Y-56016466D01*
X140812778Y-56172991D01*
X140783448Y-56208729D01*
X140700186Y-56310186D01*
X140598729Y-56393448D01*
X140562991Y-56422778D01*
X140406466Y-56506443D01*
X140236627Y-56557963D01*
X140170443Y-56564481D01*
X140104260Y-56571000D01*
X140015740Y-56571000D01*
X139949557Y-56564481D01*
X139883373Y-56557963D01*
X139713534Y-56506443D01*
X139557009Y-56422778D01*
X139521271Y-56393448D01*
X139419814Y-56310186D01*
X139336552Y-56208729D01*
X139307222Y-56172991D01*
X139223557Y-56016466D01*
X139172037Y-55846627D01*
X139154641Y-55670000D01*
X139172037Y-55493373D01*
X139223557Y-55323534D01*
X139307222Y-55167009D01*
X139336552Y-55131271D01*
X139419814Y-55029814D01*
X139521271Y-54946552D01*
X139557009Y-54917222D01*
X139713534Y-54833557D01*
X139883373Y-54782037D01*
X139949558Y-54775518D01*
X140015740Y-54769000D01*
X140104260Y-54769000D01*
X140170442Y-54775518D01*
X140170442Y-54775518D01*
G37*
G36*
X151600442Y-54775518D02*
G01*
X151666627Y-54782037D01*
X151836466Y-54833557D01*
X151992991Y-54917222D01*
X152028729Y-54946552D01*
X152130186Y-55029814D01*
X152213448Y-55131271D01*
X152242778Y-55167009D01*
X152326443Y-55323534D01*
X152377963Y-55493373D01*
X152395359Y-55670000D01*
X152377963Y-55846627D01*
X152326443Y-56016466D01*
X152242778Y-56172991D01*
X152213448Y-56208729D01*
X152130186Y-56310186D01*
X152028729Y-56393448D01*
X151992991Y-56422778D01*
X151836466Y-56506443D01*
X151666627Y-56557963D01*
X151600443Y-56564481D01*
X151534260Y-56571000D01*
X151445740Y-56571000D01*
X151379557Y-56564481D01*
X151313373Y-56557963D01*
X151143534Y-56506443D01*
X150987009Y-56422778D01*
X150951271Y-56393448D01*
X150849814Y-56310186D01*
X150766552Y-56208729D01*
X150737222Y-56172991D01*
X150653557Y-56016466D01*
X150602037Y-55846627D01*
X150584641Y-55670000D01*
X150602037Y-55493373D01*
X150653557Y-55323534D01*
X150737222Y-55167009D01*
X150766552Y-55131271D01*
X150849814Y-55029814D01*
X150951271Y-54946552D01*
X150987009Y-54917222D01*
X151143534Y-54833557D01*
X151313373Y-54782037D01*
X151379558Y-54775518D01*
X151445740Y-54769000D01*
X151534260Y-54769000D01*
X151600442Y-54775518D01*
X151600442Y-54775518D01*
G37*
G36*
X149060442Y-54775518D02*
G01*
X149126627Y-54782037D01*
X149296466Y-54833557D01*
X149452991Y-54917222D01*
X149488729Y-54946552D01*
X149590186Y-55029814D01*
X149673448Y-55131271D01*
X149702778Y-55167009D01*
X149786443Y-55323534D01*
X149837963Y-55493373D01*
X149855359Y-55670000D01*
X149837963Y-55846627D01*
X149786443Y-56016466D01*
X149702778Y-56172991D01*
X149673448Y-56208729D01*
X149590186Y-56310186D01*
X149488729Y-56393448D01*
X149452991Y-56422778D01*
X149296466Y-56506443D01*
X149126627Y-56557963D01*
X149060443Y-56564481D01*
X148994260Y-56571000D01*
X148905740Y-56571000D01*
X148839557Y-56564481D01*
X148773373Y-56557963D01*
X148603534Y-56506443D01*
X148447009Y-56422778D01*
X148411271Y-56393448D01*
X148309814Y-56310186D01*
X148226552Y-56208729D01*
X148197222Y-56172991D01*
X148113557Y-56016466D01*
X148062037Y-55846627D01*
X148044641Y-55670000D01*
X148062037Y-55493373D01*
X148113557Y-55323534D01*
X148197222Y-55167009D01*
X148226552Y-55131271D01*
X148309814Y-55029814D01*
X148411271Y-54946552D01*
X148447009Y-54917222D01*
X148603534Y-54833557D01*
X148773373Y-54782037D01*
X148839558Y-54775518D01*
X148905740Y-54769000D01*
X148994260Y-54769000D01*
X149060442Y-54775518D01*
X149060442Y-54775518D01*
G37*
G36*
X146520442Y-54775518D02*
G01*
X146586627Y-54782037D01*
X146756466Y-54833557D01*
X146912991Y-54917222D01*
X146948729Y-54946552D01*
X147050186Y-55029814D01*
X147133448Y-55131271D01*
X147162778Y-55167009D01*
X147246443Y-55323534D01*
X147297963Y-55493373D01*
X147315359Y-55670000D01*
X147297963Y-55846627D01*
X147246443Y-56016466D01*
X147162778Y-56172991D01*
X147133448Y-56208729D01*
X147050186Y-56310186D01*
X146948729Y-56393448D01*
X146912991Y-56422778D01*
X146756466Y-56506443D01*
X146586627Y-56557963D01*
X146520443Y-56564481D01*
X146454260Y-56571000D01*
X146365740Y-56571000D01*
X146299557Y-56564481D01*
X146233373Y-56557963D01*
X146063534Y-56506443D01*
X145907009Y-56422778D01*
X145871271Y-56393448D01*
X145769814Y-56310186D01*
X145686552Y-56208729D01*
X145657222Y-56172991D01*
X145573557Y-56016466D01*
X145522037Y-55846627D01*
X145504641Y-55670000D01*
X145522037Y-55493373D01*
X145573557Y-55323534D01*
X145657222Y-55167009D01*
X145686552Y-55131271D01*
X145769814Y-55029814D01*
X145871271Y-54946552D01*
X145907009Y-54917222D01*
X146063534Y-54833557D01*
X146233373Y-54782037D01*
X146299558Y-54775518D01*
X146365740Y-54769000D01*
X146454260Y-54769000D01*
X146520442Y-54775518D01*
X146520442Y-54775518D01*
G37*
G36*
X144771000Y-56571000D02*
G01*
X142969000Y-56571000D01*
X142969000Y-54769000D01*
X144771000Y-54769000D01*
X144771000Y-56571000D01*
X144771000Y-56571000D01*
G37*
G36*
X53966000Y-56571000D02*
G01*
X52164000Y-56571000D01*
X52164000Y-54769000D01*
X53966000Y-54769000D01*
X53966000Y-56571000D01*
X53966000Y-56571000D01*
G37*
G36*
X55715442Y-54775518D02*
G01*
X55781627Y-54782037D01*
X55951466Y-54833557D01*
X56107991Y-54917222D01*
X56143729Y-54946552D01*
X56245186Y-55029814D01*
X56328448Y-55131271D01*
X56357778Y-55167009D01*
X56441443Y-55323534D01*
X56492963Y-55493373D01*
X56510359Y-55670000D01*
X56492963Y-55846627D01*
X56441443Y-56016466D01*
X56357778Y-56172991D01*
X56328448Y-56208729D01*
X56245186Y-56310186D01*
X56143729Y-56393448D01*
X56107991Y-56422778D01*
X55951466Y-56506443D01*
X55781627Y-56557963D01*
X55715443Y-56564481D01*
X55649260Y-56571000D01*
X55560740Y-56571000D01*
X55494557Y-56564481D01*
X55428373Y-56557963D01*
X55258534Y-56506443D01*
X55102009Y-56422778D01*
X55066271Y-56393448D01*
X54964814Y-56310186D01*
X54881552Y-56208729D01*
X54852222Y-56172991D01*
X54768557Y-56016466D01*
X54717037Y-55846627D01*
X54699641Y-55670000D01*
X54717037Y-55493373D01*
X54768557Y-55323534D01*
X54852222Y-55167009D01*
X54881552Y-55131271D01*
X54964814Y-55029814D01*
X55066271Y-54946552D01*
X55102009Y-54917222D01*
X55258534Y-54833557D01*
X55428373Y-54782037D01*
X55494558Y-54775518D01*
X55560740Y-54769000D01*
X55649260Y-54769000D01*
X55715442Y-54775518D01*
X55715442Y-54775518D01*
G37*
G36*
X42536000Y-56571000D02*
G01*
X40734000Y-56571000D01*
X40734000Y-54769000D01*
X42536000Y-54769000D01*
X42536000Y-56571000D01*
X42536000Y-56571000D01*
G37*
G36*
X44285442Y-54775518D02*
G01*
X44351627Y-54782037D01*
X44521466Y-54833557D01*
X44677991Y-54917222D01*
X44713729Y-54946552D01*
X44815186Y-55029814D01*
X44898448Y-55131271D01*
X44927778Y-55167009D01*
X45011443Y-55323534D01*
X45062963Y-55493373D01*
X45080359Y-55670000D01*
X45062963Y-55846627D01*
X45011443Y-56016466D01*
X44927778Y-56172991D01*
X44898448Y-56208729D01*
X44815186Y-56310186D01*
X44713729Y-56393448D01*
X44677991Y-56422778D01*
X44521466Y-56506443D01*
X44351627Y-56557963D01*
X44285443Y-56564481D01*
X44219260Y-56571000D01*
X44130740Y-56571000D01*
X44064557Y-56564481D01*
X43998373Y-56557963D01*
X43828534Y-56506443D01*
X43672009Y-56422778D01*
X43636271Y-56393448D01*
X43534814Y-56310186D01*
X43451552Y-56208729D01*
X43422222Y-56172991D01*
X43338557Y-56016466D01*
X43287037Y-55846627D01*
X43269641Y-55670000D01*
X43287037Y-55493373D01*
X43338557Y-55323534D01*
X43422222Y-55167009D01*
X43451552Y-55131271D01*
X43534814Y-55029814D01*
X43636271Y-54946552D01*
X43672009Y-54917222D01*
X43828534Y-54833557D01*
X43998373Y-54782037D01*
X44064558Y-54775518D01*
X44130740Y-54769000D01*
X44219260Y-54769000D01*
X44285442Y-54775518D01*
X44285442Y-54775518D01*
G37*
G36*
X46825442Y-54775518D02*
G01*
X46891627Y-54782037D01*
X47061466Y-54833557D01*
X47217991Y-54917222D01*
X47253729Y-54946552D01*
X47355186Y-55029814D01*
X47438448Y-55131271D01*
X47467778Y-55167009D01*
X47551443Y-55323534D01*
X47602963Y-55493373D01*
X47620359Y-55670000D01*
X47602963Y-55846627D01*
X47551443Y-56016466D01*
X47467778Y-56172991D01*
X47438448Y-56208729D01*
X47355186Y-56310186D01*
X47253729Y-56393448D01*
X47217991Y-56422778D01*
X47061466Y-56506443D01*
X46891627Y-56557963D01*
X46825443Y-56564481D01*
X46759260Y-56571000D01*
X46670740Y-56571000D01*
X46604557Y-56564481D01*
X46538373Y-56557963D01*
X46368534Y-56506443D01*
X46212009Y-56422778D01*
X46176271Y-56393448D01*
X46074814Y-56310186D01*
X45991552Y-56208729D01*
X45962222Y-56172991D01*
X45878557Y-56016466D01*
X45827037Y-55846627D01*
X45809641Y-55670000D01*
X45827037Y-55493373D01*
X45878557Y-55323534D01*
X45962222Y-55167009D01*
X45991552Y-55131271D01*
X46074814Y-55029814D01*
X46176271Y-54946552D01*
X46212009Y-54917222D01*
X46368534Y-54833557D01*
X46538373Y-54782037D01*
X46604558Y-54775518D01*
X46670740Y-54769000D01*
X46759260Y-54769000D01*
X46825442Y-54775518D01*
X46825442Y-54775518D01*
G37*
G36*
X49365442Y-54775518D02*
G01*
X49431627Y-54782037D01*
X49601466Y-54833557D01*
X49757991Y-54917222D01*
X49793729Y-54946552D01*
X49895186Y-55029814D01*
X49978448Y-55131271D01*
X50007778Y-55167009D01*
X50091443Y-55323534D01*
X50142963Y-55493373D01*
X50160359Y-55670000D01*
X50142963Y-55846627D01*
X50091443Y-56016466D01*
X50007778Y-56172991D01*
X49978448Y-56208729D01*
X49895186Y-56310186D01*
X49793729Y-56393448D01*
X49757991Y-56422778D01*
X49601466Y-56506443D01*
X49431627Y-56557963D01*
X49365443Y-56564481D01*
X49299260Y-56571000D01*
X49210740Y-56571000D01*
X49144557Y-56564481D01*
X49078373Y-56557963D01*
X48908534Y-56506443D01*
X48752009Y-56422778D01*
X48716271Y-56393448D01*
X48614814Y-56310186D01*
X48531552Y-56208729D01*
X48502222Y-56172991D01*
X48418557Y-56016466D01*
X48367037Y-55846627D01*
X48349641Y-55670000D01*
X48367037Y-55493373D01*
X48418557Y-55323534D01*
X48502222Y-55167009D01*
X48531552Y-55131271D01*
X48614814Y-55029814D01*
X48716271Y-54946552D01*
X48752009Y-54917222D01*
X48908534Y-54833557D01*
X49078373Y-54782037D01*
X49144558Y-54775518D01*
X49210740Y-54769000D01*
X49299260Y-54769000D01*
X49365442Y-54775518D01*
X49365442Y-54775518D01*
G37*
G36*
X58255442Y-54775518D02*
G01*
X58321627Y-54782037D01*
X58491466Y-54833557D01*
X58647991Y-54917222D01*
X58683729Y-54946552D01*
X58785186Y-55029814D01*
X58868448Y-55131271D01*
X58897778Y-55167009D01*
X58981443Y-55323534D01*
X59032963Y-55493373D01*
X59050359Y-55670000D01*
X59032963Y-55846627D01*
X58981443Y-56016466D01*
X58897778Y-56172991D01*
X58868448Y-56208729D01*
X58785186Y-56310186D01*
X58683729Y-56393448D01*
X58647991Y-56422778D01*
X58491466Y-56506443D01*
X58321627Y-56557963D01*
X58255443Y-56564481D01*
X58189260Y-56571000D01*
X58100740Y-56571000D01*
X58034557Y-56564481D01*
X57968373Y-56557963D01*
X57798534Y-56506443D01*
X57642009Y-56422778D01*
X57606271Y-56393448D01*
X57504814Y-56310186D01*
X57421552Y-56208729D01*
X57392222Y-56172991D01*
X57308557Y-56016466D01*
X57257037Y-55846627D01*
X57239641Y-55670000D01*
X57257037Y-55493373D01*
X57308557Y-55323534D01*
X57392222Y-55167009D01*
X57421552Y-55131271D01*
X57504814Y-55029814D01*
X57606271Y-54946552D01*
X57642009Y-54917222D01*
X57798534Y-54833557D01*
X57968373Y-54782037D01*
X58034558Y-54775518D01*
X58100740Y-54769000D01*
X58189260Y-54769000D01*
X58255442Y-54775518D01*
X58255442Y-54775518D01*
G37*
G36*
X60795442Y-54775518D02*
G01*
X60861627Y-54782037D01*
X61031466Y-54833557D01*
X61187991Y-54917222D01*
X61223729Y-54946552D01*
X61325186Y-55029814D01*
X61408448Y-55131271D01*
X61437778Y-55167009D01*
X61521443Y-55323534D01*
X61572963Y-55493373D01*
X61590359Y-55670000D01*
X61572963Y-55846627D01*
X61521443Y-56016466D01*
X61437778Y-56172991D01*
X61408448Y-56208729D01*
X61325186Y-56310186D01*
X61223729Y-56393448D01*
X61187991Y-56422778D01*
X61031466Y-56506443D01*
X60861627Y-56557963D01*
X60795443Y-56564481D01*
X60729260Y-56571000D01*
X60640740Y-56571000D01*
X60574557Y-56564481D01*
X60508373Y-56557963D01*
X60338534Y-56506443D01*
X60182009Y-56422778D01*
X60146271Y-56393448D01*
X60044814Y-56310186D01*
X59961552Y-56208729D01*
X59932222Y-56172991D01*
X59848557Y-56016466D01*
X59797037Y-55846627D01*
X59779641Y-55670000D01*
X59797037Y-55493373D01*
X59848557Y-55323534D01*
X59932222Y-55167009D01*
X59961552Y-55131271D01*
X60044814Y-55029814D01*
X60146271Y-54946552D01*
X60182009Y-54917222D01*
X60338534Y-54833557D01*
X60508373Y-54782037D01*
X60574558Y-54775518D01*
X60640740Y-54769000D01*
X60729260Y-54769000D01*
X60795442Y-54775518D01*
X60795442Y-54775518D01*
G37*
M02*
