G04 #@! TF.GenerationSoftware,KiCad,Pcbnew,(5.1.4-0-10_14)*
G04 #@! TF.CreationDate,2021-09-19T18:42:46+01:00*
G04 #@! TF.ProjectId,switch-module,73776974-6368-42d6-9d6f-64756c652e6b,rev?*
G04 #@! TF.SameCoordinates,Original*
G04 #@! TF.FileFunction,Copper,L2,Bot*
G04 #@! TF.FilePolarity,Positive*
%FSLAX46Y46*%
G04 Gerber Fmt 4.6, Leading zero omitted, Abs format (unit mm)*
G04 Created by KiCad (PCBNEW (5.1.4-0-10_14)) date 2021-09-19 18:42:46*
%MOMM*%
%LPD*%
G04 APERTURE LIST*
%ADD10C,1.600000*%
%ADD11O,1.600000X1.600000*%
%ADD12R,1.600000X1.600000*%
%ADD13O,1.050000X1.500000*%
%ADD14R,1.050000X1.500000*%
%ADD15O,1.700000X1.700000*%
%ADD16R,1.700000X1.700000*%
%ADD17C,0.800000*%
%ADD18C,0.250000*%
%ADD19C,0.254000*%
G04 APERTURE END LIST*
D10*
X42905000Y-65195000D03*
D11*
X42905000Y-75355000D03*
D12*
X105770000Y-56305000D03*
D11*
X113390000Y-74085000D03*
X105770000Y-58845000D03*
X113390000Y-71545000D03*
X105770000Y-61385000D03*
X113390000Y-69005000D03*
X105770000Y-63925000D03*
X113390000Y-66465000D03*
X105770000Y-66465000D03*
X113390000Y-63925000D03*
X105770000Y-69005000D03*
X113390000Y-61385000D03*
X105770000Y-71545000D03*
X113390000Y-58845000D03*
X105770000Y-74085000D03*
X113390000Y-56305000D03*
D13*
X121645000Y-62020000D03*
X122915000Y-62020000D03*
D14*
X120375000Y-62020000D03*
D15*
X97515000Y-70275000D03*
X94975000Y-70275000D03*
X97515000Y-67735000D03*
X94975000Y-67735000D03*
X97515000Y-65195000D03*
X94975000Y-65195000D03*
X97515000Y-62655000D03*
X94975000Y-62655000D03*
X97515000Y-60115000D03*
D16*
X94975000Y-60115000D03*
X143870000Y-55670000D03*
D15*
X146410000Y-55670000D03*
X148950000Y-55670000D03*
X151490000Y-55670000D03*
X140060000Y-55670000D03*
X137520000Y-55670000D03*
X134980000Y-55670000D03*
D16*
X132440000Y-55670000D03*
X121010000Y-55670000D03*
D15*
X123550000Y-55670000D03*
X126090000Y-55670000D03*
X128630000Y-55670000D03*
X72115000Y-55670000D03*
X69575000Y-55670000D03*
X67035000Y-55670000D03*
D16*
X64495000Y-55670000D03*
X53065000Y-55670000D03*
D15*
X55605000Y-55670000D03*
X58145000Y-55670000D03*
X60685000Y-55670000D03*
X49255000Y-55670000D03*
X46715000Y-55670000D03*
X44175000Y-55670000D03*
D16*
X41635000Y-55670000D03*
D13*
X144505000Y-62020000D03*
X145775000Y-62020000D03*
D14*
X143235000Y-62020000D03*
D13*
X133075000Y-62020000D03*
X134345000Y-62020000D03*
D14*
X131805000Y-62020000D03*
D13*
X150220000Y-62020000D03*
X151490000Y-62020000D03*
D14*
X148950000Y-62020000D03*
X137520000Y-62020000D03*
D13*
X140060000Y-62020000D03*
X138790000Y-62020000D03*
X127360000Y-62020000D03*
X128630000Y-62020000D03*
D14*
X126090000Y-62020000D03*
X63860000Y-62020000D03*
D13*
X66400000Y-62020000D03*
X65130000Y-62020000D03*
D14*
X52430000Y-62020000D03*
D13*
X54970000Y-62020000D03*
X53700000Y-62020000D03*
D14*
X41000000Y-62020000D03*
D13*
X43540000Y-62020000D03*
X42270000Y-62020000D03*
D14*
X69575000Y-62020000D03*
D13*
X72115000Y-62020000D03*
X70845000Y-62020000D03*
X59415000Y-62020000D03*
X60685000Y-62020000D03*
D14*
X58145000Y-62020000D03*
X46715000Y-62020000D03*
D13*
X49255000Y-62020000D03*
X47985000Y-62020000D03*
D11*
X145140000Y-75355000D03*
D10*
X145140000Y-65195000D03*
D11*
X133710000Y-75355000D03*
D10*
X133710000Y-65195000D03*
X122280000Y-65195000D03*
D11*
X122280000Y-75355000D03*
X151490000Y-75355000D03*
D10*
X151490000Y-65195000D03*
D11*
X140060000Y-75355000D03*
D10*
X140060000Y-65195000D03*
X128630000Y-65195000D03*
D11*
X128630000Y-75355000D03*
D10*
X65765000Y-65195000D03*
D11*
X65765000Y-75355000D03*
D10*
X54335000Y-65195000D03*
D11*
X54335000Y-75355000D03*
D10*
X72115000Y-65195000D03*
D11*
X72115000Y-75355000D03*
D10*
X60685000Y-65195000D03*
D11*
X60685000Y-75355000D03*
X49255000Y-75355000D03*
D10*
X49255000Y-65195000D03*
D11*
X148315000Y-75355000D03*
D10*
X148315000Y-65195000D03*
X136885000Y-65195000D03*
D11*
X136885000Y-75355000D03*
X125455000Y-75355000D03*
D10*
X125455000Y-65195000D03*
X68940000Y-65195000D03*
D11*
X68940000Y-75355000D03*
X57510000Y-75355000D03*
D10*
X57510000Y-65195000D03*
X46080000Y-65195000D03*
D11*
X46080000Y-75355000D03*
X118470000Y-65195000D03*
D10*
X118470000Y-75355000D03*
D11*
X87355000Y-56305000D03*
X79735000Y-74085000D03*
X87355000Y-58845000D03*
X79735000Y-71545000D03*
X87355000Y-61385000D03*
X79735000Y-69005000D03*
X87355000Y-63925000D03*
X79735000Y-66465000D03*
X87355000Y-66465000D03*
X79735000Y-63925000D03*
X87355000Y-69005000D03*
X79735000Y-61385000D03*
X87355000Y-71545000D03*
X79735000Y-58845000D03*
X87355000Y-74085000D03*
D12*
X79735000Y-56305000D03*
D17*
X34015000Y-55670000D03*
X34015000Y-74085000D03*
X141330000Y-71545000D03*
X116565000Y-56305000D03*
X90530000Y-60750000D03*
X93705000Y-56305000D03*
X100055000Y-56686000D03*
X102087000Y-62274000D03*
X109707000Y-61766000D03*
X118343000Y-71418000D03*
X92943000Y-70402000D03*
X92943000Y-73958000D03*
X67670000Y-60115000D03*
X74655000Y-58210000D03*
X75290000Y-60115000D03*
X120375000Y-73450000D03*
X135615000Y-72180000D03*
X67035000Y-71365000D03*
X56240000Y-72090000D03*
X43540000Y-72815000D03*
D18*
X143870000Y-56770000D02*
X147045000Y-59945000D01*
X143870000Y-55670000D02*
X143870000Y-56770000D01*
X147045000Y-63290000D02*
X145140000Y-65195000D01*
X147045000Y-59945000D02*
X147045000Y-63290000D01*
X140198630Y-69005000D02*
X114521370Y-69005000D01*
X114521370Y-69005000D02*
X113390000Y-69005000D01*
X144008630Y-65195000D02*
X140198630Y-69005000D01*
X145140000Y-65195000D02*
X144008630Y-65195000D01*
X132440000Y-56770000D02*
X135615000Y-59945000D01*
X132440000Y-55670000D02*
X132440000Y-56770000D01*
X135615000Y-63290000D02*
X133710000Y-65195000D01*
X135615000Y-59945000D02*
X135615000Y-63290000D01*
X114189999Y-67264999D02*
X113390000Y-66465000D01*
X130508631Y-67264999D02*
X114189999Y-67264999D01*
X132578630Y-65195000D02*
X130508631Y-67264999D01*
X133710000Y-65195000D02*
X132578630Y-65195000D01*
X121010000Y-56770000D02*
X124185000Y-59945000D01*
X121010000Y-55670000D02*
X121010000Y-56770000D01*
X124185000Y-63290000D02*
X122280000Y-65195000D01*
X124185000Y-59945000D02*
X124185000Y-63290000D01*
X121148630Y-65195000D02*
X119878630Y-66465000D01*
X122280000Y-65195000D02*
X121148630Y-65195000D01*
X118074998Y-66465000D02*
X115534998Y-63925000D01*
X119878630Y-66465000D02*
X118074998Y-66465000D01*
X115534998Y-63925000D02*
X113390000Y-63925000D01*
X64495000Y-55670000D02*
X64495000Y-56940000D01*
X64495000Y-56940000D02*
X67670000Y-60115000D01*
X67670000Y-63290000D02*
X65765000Y-65195000D01*
X67670000Y-60115000D02*
X67670000Y-63290000D01*
X53065000Y-56770000D02*
X56240000Y-59945000D01*
X53065000Y-55670000D02*
X53065000Y-56770000D01*
X56240000Y-59945000D02*
X56240000Y-63290000D01*
X56240000Y-63290000D02*
X54335000Y-65195000D01*
X55460001Y-66320001D02*
X55134999Y-65994999D01*
X55134999Y-65994999D02*
X54335000Y-65195000D01*
X72655001Y-66320001D02*
X55460001Y-66320001D01*
X73240001Y-65735001D02*
X72655001Y-66320001D01*
X73240001Y-59624999D02*
X73240001Y-65735001D01*
X74655000Y-58210000D02*
X73240001Y-59624999D01*
X41635000Y-56770000D02*
X44810000Y-59945000D01*
X41635000Y-55670000D02*
X41635000Y-56770000D01*
X44810000Y-63290000D02*
X42905000Y-65195000D01*
X44810000Y-59945000D02*
X44810000Y-60115000D01*
X44810000Y-60115000D02*
X44810000Y-63290000D01*
X72841401Y-66770011D02*
X44480011Y-66770011D01*
X43704999Y-65994999D02*
X42905000Y-65195000D01*
X44480011Y-66770011D02*
X43704999Y-65994999D01*
X75290000Y-64321412D02*
X72841401Y-66770011D01*
X75290000Y-60115000D02*
X75290000Y-64321412D01*
X143235000Y-61020000D02*
X143235000Y-62020000D01*
X141965000Y-59750000D02*
X143235000Y-61020000D01*
X141965000Y-53765000D02*
X141965000Y-59750000D01*
X131805000Y-62020000D02*
X131805000Y-61020000D01*
X131805000Y-61020000D02*
X130535000Y-59750000D01*
X130535000Y-59750000D02*
X130535000Y-53765000D01*
X120375000Y-62020000D02*
X120375000Y-61385000D01*
X119105000Y-53765000D02*
X141965000Y-53765000D01*
X119105000Y-53765000D02*
X119105000Y-59480000D01*
X120375000Y-60750000D02*
X120375000Y-62020000D01*
X119105000Y-59480000D02*
X120375000Y-60750000D01*
X63860000Y-61020000D02*
X62590000Y-59750000D01*
X63860000Y-62020000D02*
X63860000Y-61020000D01*
X62590000Y-59750000D02*
X62590000Y-53765000D01*
X39730000Y-59750000D02*
X41000000Y-61020000D01*
X41000000Y-61020000D02*
X41000000Y-62020000D01*
X41000000Y-53765000D02*
X39730000Y-55035000D01*
X51160000Y-53765000D02*
X41000000Y-53765000D01*
X39730000Y-55035000D02*
X39730000Y-59750000D01*
X52430000Y-61020000D02*
X51160000Y-59750000D01*
X52430000Y-62020000D02*
X52430000Y-61020000D01*
X51160000Y-53765000D02*
X94340000Y-53765000D01*
X94975000Y-54400000D02*
X94975000Y-60115000D01*
X94340000Y-53765000D02*
X94975000Y-54400000D01*
X95610000Y-53765000D02*
X94975000Y-54400000D01*
X119105000Y-53765000D02*
X95610000Y-53765000D01*
X51160000Y-59750000D02*
X51160000Y-55543000D01*
X51160000Y-55543000D02*
X51160000Y-53765000D01*
X145140000Y-73450000D02*
X145140000Y-75355000D01*
X133710000Y-75355000D02*
X133710000Y-73450000D01*
X122280000Y-75355000D02*
X122280000Y-73450000D01*
X44810000Y-73450000D02*
X42905000Y-75355000D01*
X75925000Y-74720000D02*
X74655000Y-73450000D01*
X75925000Y-74720000D02*
X77195000Y-75990000D01*
X77195000Y-75990000D02*
X115295000Y-75990000D01*
X115295000Y-75990000D02*
X117835000Y-73450000D01*
X117835000Y-73450000D02*
X145140000Y-73450000D01*
X54335000Y-75355000D02*
X54335000Y-73450000D01*
X65765000Y-75355000D02*
X65765000Y-73450000D01*
X65765000Y-73450000D02*
X44810000Y-73450000D01*
X74655000Y-73450000D02*
X65765000Y-73450000D01*
X118470000Y-75355000D02*
X118470000Y-73450000D01*
X94975000Y-62655000D02*
X93070000Y-60750000D01*
X93070000Y-60750000D02*
X93070000Y-57575000D01*
X93070000Y-57575000D02*
X91800000Y-56305000D01*
X91800000Y-56305000D02*
X87355000Y-56305000D01*
X96339999Y-61290001D02*
X96339999Y-57480001D01*
X94975000Y-62655000D02*
X96339999Y-61290001D01*
X96339999Y-57480001D02*
X99420000Y-54400000D01*
X111485000Y-54400000D02*
X113390000Y-56305000D01*
X99420000Y-54400000D02*
X111485000Y-54400000D01*
X144221371Y-70130001D02*
X104990001Y-70130001D01*
X148315000Y-74223630D02*
X144221371Y-70130001D01*
X148315000Y-75355000D02*
X148315000Y-74223630D01*
X87355000Y-61623588D02*
X88930011Y-63198599D01*
X87355000Y-61385000D02*
X87355000Y-61623588D01*
X88930011Y-63198599D02*
X88930011Y-68800601D01*
X88930011Y-68800601D02*
X92349401Y-72219991D01*
X102900011Y-72219991D02*
X104990001Y-70130001D01*
X92349401Y-72219991D02*
X102900011Y-72219991D01*
X80534999Y-59644999D02*
X79735000Y-58845000D01*
X83400001Y-62510001D02*
X80534999Y-59644999D01*
X87605003Y-62510001D02*
X83400001Y-62510001D01*
X88480001Y-63384999D02*
X87605003Y-62510001D01*
X115690002Y-72180000D02*
X115200001Y-72670001D01*
X88480001Y-68987001D02*
X88480001Y-63384999D01*
X135615000Y-72180000D02*
X115690002Y-72180000D01*
X92163001Y-72670001D02*
X88480001Y-68987001D01*
X115200001Y-72670001D02*
X92163001Y-72670001D01*
X67035000Y-71365000D02*
X75470000Y-71365000D01*
X75470000Y-71365000D02*
X76560000Y-70275000D01*
X76560000Y-70275000D02*
X76560000Y-57575000D01*
X77830000Y-56305000D02*
X79735000Y-56305000D01*
X76560000Y-57575000D02*
X77830000Y-56305000D01*
X76650000Y-72090000D02*
X79735000Y-69005000D01*
X56240000Y-72090000D02*
X76650000Y-72090000D01*
X78465000Y-72815000D02*
X79735000Y-71545000D01*
X78465000Y-72815000D02*
X45535000Y-72815000D01*
X45535000Y-72815000D02*
X43540000Y-72815000D01*
D19*
G36*
X160355000Y-75965000D02*
G01*
X152791078Y-75965000D01*
X152822182Y-75906808D01*
X152904236Y-75636309D01*
X152931943Y-75355000D01*
X152904236Y-75073691D01*
X152822182Y-74803192D01*
X152688932Y-74553899D01*
X152509608Y-74335392D01*
X152291101Y-74156068D01*
X152041808Y-74022818D01*
X151771309Y-73940764D01*
X151560492Y-73920000D01*
X151419508Y-73920000D01*
X151208691Y-73940764D01*
X150938192Y-74022818D01*
X150688899Y-74156068D01*
X150470392Y-74335392D01*
X150291068Y-74553899D01*
X150157818Y-74803192D01*
X150075764Y-75073691D01*
X150048057Y-75355000D01*
X150075764Y-75636309D01*
X150157818Y-75906808D01*
X150188922Y-75965000D01*
X149616078Y-75965000D01*
X149647182Y-75906808D01*
X149729236Y-75636309D01*
X149756943Y-75355000D01*
X149729236Y-75073691D01*
X149647182Y-74803192D01*
X149513932Y-74553899D01*
X149334608Y-74335392D01*
X149116101Y-74156068D01*
X149069573Y-74131198D01*
X149064003Y-74074644D01*
X149020546Y-73931383D01*
X148949974Y-73799354D01*
X148855001Y-73683629D01*
X148826003Y-73659831D01*
X144785175Y-69619004D01*
X144761372Y-69590000D01*
X144645647Y-69495027D01*
X144513618Y-69424455D01*
X144370357Y-69380998D01*
X144258704Y-69370001D01*
X144258693Y-69370001D01*
X144221371Y-69366325D01*
X144184049Y-69370001D01*
X140908430Y-69370001D01*
X144097018Y-66181414D01*
X144225241Y-66309637D01*
X144460273Y-66466680D01*
X144721426Y-66574853D01*
X144998665Y-66630000D01*
X145281335Y-66630000D01*
X145558574Y-66574853D01*
X145819727Y-66466680D01*
X146054759Y-66309637D01*
X146254637Y-66109759D01*
X146411680Y-65874727D01*
X146519853Y-65613574D01*
X146575000Y-65336335D01*
X146575000Y-65053665D01*
X146880000Y-65053665D01*
X146880000Y-65336335D01*
X146935147Y-65613574D01*
X147043320Y-65874727D01*
X147200363Y-66109759D01*
X147400241Y-66309637D01*
X147635273Y-66466680D01*
X147896426Y-66574853D01*
X148173665Y-66630000D01*
X148456335Y-66630000D01*
X148733574Y-66574853D01*
X148994727Y-66466680D01*
X149229759Y-66309637D01*
X149429637Y-66109759D01*
X149586680Y-65874727D01*
X149694853Y-65613574D01*
X149750000Y-65336335D01*
X149750000Y-65053665D01*
X150055000Y-65053665D01*
X150055000Y-65336335D01*
X150110147Y-65613574D01*
X150218320Y-65874727D01*
X150375363Y-66109759D01*
X150575241Y-66309637D01*
X150810273Y-66466680D01*
X151071426Y-66574853D01*
X151348665Y-66630000D01*
X151631335Y-66630000D01*
X151908574Y-66574853D01*
X152169727Y-66466680D01*
X152404759Y-66309637D01*
X152604637Y-66109759D01*
X152761680Y-65874727D01*
X152869853Y-65613574D01*
X152925000Y-65336335D01*
X152925000Y-65053665D01*
X152869853Y-64776426D01*
X152761680Y-64515273D01*
X152644482Y-64339872D01*
X154970000Y-64339872D01*
X154970000Y-64780128D01*
X155055890Y-65211925D01*
X155224369Y-65618669D01*
X155468962Y-65984729D01*
X155780271Y-66296038D01*
X156146331Y-66540631D01*
X156553075Y-66709110D01*
X156984872Y-66795000D01*
X157425128Y-66795000D01*
X157856925Y-66709110D01*
X158263669Y-66540631D01*
X158629729Y-66296038D01*
X158941038Y-65984729D01*
X159185631Y-65618669D01*
X159354110Y-65211925D01*
X159440000Y-64780128D01*
X159440000Y-64339872D01*
X159354110Y-63908075D01*
X159185631Y-63501331D01*
X158941038Y-63135271D01*
X158629729Y-62823962D01*
X158263669Y-62579369D01*
X157856925Y-62410890D01*
X157425128Y-62325000D01*
X156984872Y-62325000D01*
X156553075Y-62410890D01*
X156146331Y-62579369D01*
X155780271Y-62823962D01*
X155468962Y-63135271D01*
X155224369Y-63501331D01*
X155055890Y-63908075D01*
X154970000Y-64339872D01*
X152644482Y-64339872D01*
X152604637Y-64280241D01*
X152404759Y-64080363D01*
X152169727Y-63923320D01*
X151908574Y-63815147D01*
X151631335Y-63760000D01*
X151348665Y-63760000D01*
X151071426Y-63815147D01*
X150810273Y-63923320D01*
X150575241Y-64080363D01*
X150375363Y-64280241D01*
X150218320Y-64515273D01*
X150110147Y-64776426D01*
X150055000Y-65053665D01*
X149750000Y-65053665D01*
X149694853Y-64776426D01*
X149586680Y-64515273D01*
X149429637Y-64280241D01*
X149229759Y-64080363D01*
X148994727Y-63923320D01*
X148733574Y-63815147D01*
X148456335Y-63760000D01*
X148173665Y-63760000D01*
X147896426Y-63815147D01*
X147635273Y-63923320D01*
X147400241Y-64080363D01*
X147200363Y-64280241D01*
X147043320Y-64515273D01*
X146935147Y-64776426D01*
X146880000Y-65053665D01*
X146575000Y-65053665D01*
X146538688Y-64871114D01*
X147556003Y-63853799D01*
X147585001Y-63830001D01*
X147679974Y-63714276D01*
X147750546Y-63582247D01*
X147794003Y-63438986D01*
X147805000Y-63327333D01*
X147805000Y-63327323D01*
X147808676Y-63290000D01*
X147805000Y-63252677D01*
X147805000Y-62913642D01*
X147835498Y-63014180D01*
X147894463Y-63124494D01*
X147973815Y-63221185D01*
X148070506Y-63300537D01*
X148180820Y-63359502D01*
X148300518Y-63395812D01*
X148425000Y-63408072D01*
X148664250Y-63405000D01*
X148823000Y-63246250D01*
X148823000Y-62147000D01*
X148803000Y-62147000D01*
X148803000Y-61893000D01*
X148823000Y-61893000D01*
X148823000Y-61738022D01*
X149060000Y-61738022D01*
X149060000Y-62301979D01*
X149076785Y-62472400D01*
X149077000Y-62473109D01*
X149077000Y-63246250D01*
X149235750Y-63405000D01*
X149475000Y-63408072D01*
X149599482Y-63395812D01*
X149719180Y-63359502D01*
X149783902Y-63324907D01*
X149992601Y-63388215D01*
X150220000Y-63410612D01*
X150447400Y-63388215D01*
X150666060Y-63321885D01*
X150855001Y-63220894D01*
X151043941Y-63321885D01*
X151262601Y-63388215D01*
X151490000Y-63410612D01*
X151717400Y-63388215D01*
X151936060Y-63321885D01*
X152137579Y-63214171D01*
X152314212Y-63069212D01*
X152459171Y-62892579D01*
X152566885Y-62691059D01*
X152633215Y-62472399D01*
X152650000Y-62301978D01*
X152650000Y-61738021D01*
X152633215Y-61567600D01*
X152566885Y-61348940D01*
X152459171Y-61147421D01*
X152314212Y-60970788D01*
X152137578Y-60825829D01*
X151936059Y-60718115D01*
X151717399Y-60651785D01*
X151490000Y-60629388D01*
X151262600Y-60651785D01*
X151043940Y-60718115D01*
X150855000Y-60819106D01*
X150666059Y-60718115D01*
X150447399Y-60651785D01*
X150220000Y-60629388D01*
X149992600Y-60651785D01*
X149783902Y-60715093D01*
X149719180Y-60680498D01*
X149599482Y-60644188D01*
X149475000Y-60631928D01*
X149235750Y-60635000D01*
X149077000Y-60793750D01*
X149077000Y-61566892D01*
X149076785Y-61567601D01*
X149060000Y-61738022D01*
X148823000Y-61738022D01*
X148823000Y-60793750D01*
X148664250Y-60635000D01*
X148425000Y-60631928D01*
X148300518Y-60644188D01*
X148180820Y-60680498D01*
X148070506Y-60739463D01*
X147973815Y-60818815D01*
X147894463Y-60915506D01*
X147835498Y-61025820D01*
X147805000Y-61126358D01*
X147805000Y-59982322D01*
X147808676Y-59944999D01*
X147805000Y-59907676D01*
X147805000Y-59907667D01*
X147794003Y-59796014D01*
X147750546Y-59652753D01*
X147722891Y-59601015D01*
X147679974Y-59520723D01*
X147608799Y-59433997D01*
X147585001Y-59404999D01*
X147556004Y-59381202D01*
X145157345Y-56982543D01*
X145171185Y-56971185D01*
X145250537Y-56874494D01*
X145309502Y-56764180D01*
X145330393Y-56695313D01*
X145354866Y-56725134D01*
X145580986Y-56910706D01*
X145838966Y-57048599D01*
X146118889Y-57133513D01*
X146337050Y-57155000D01*
X146482950Y-57155000D01*
X146701111Y-57133513D01*
X146981034Y-57048599D01*
X147239014Y-56910706D01*
X147465134Y-56725134D01*
X147650706Y-56499014D01*
X147685201Y-56434477D01*
X147754822Y-56551355D01*
X147949731Y-56767588D01*
X148183080Y-56941641D01*
X148445901Y-57066825D01*
X148593110Y-57111476D01*
X148823000Y-56990155D01*
X148823000Y-55797000D01*
X149077000Y-55797000D01*
X149077000Y-56990155D01*
X149306890Y-57111476D01*
X149454099Y-57066825D01*
X149716920Y-56941641D01*
X149950269Y-56767588D01*
X150145178Y-56551355D01*
X150220000Y-56425745D01*
X150294822Y-56551355D01*
X150489731Y-56767588D01*
X150723080Y-56941641D01*
X150985901Y-57066825D01*
X151133110Y-57111476D01*
X151363000Y-56990155D01*
X151363000Y-55797000D01*
X151617000Y-55797000D01*
X151617000Y-56990155D01*
X151846890Y-57111476D01*
X151994099Y-57066825D01*
X152256920Y-56941641D01*
X152490269Y-56767588D01*
X152685178Y-56551355D01*
X152834157Y-56301252D01*
X152931481Y-56026891D01*
X152810814Y-55797000D01*
X151617000Y-55797000D01*
X151363000Y-55797000D01*
X149077000Y-55797000D01*
X148823000Y-55797000D01*
X148803000Y-55797000D01*
X148803000Y-55543000D01*
X148823000Y-55543000D01*
X148823000Y-54349845D01*
X149077000Y-54349845D01*
X149077000Y-55543000D01*
X151363000Y-55543000D01*
X151363000Y-54349845D01*
X151617000Y-54349845D01*
X151617000Y-55543000D01*
X152810814Y-55543000D01*
X152931481Y-55313109D01*
X152834157Y-55038748D01*
X152685178Y-54788645D01*
X152490269Y-54572412D01*
X152256920Y-54398359D01*
X151994099Y-54273175D01*
X151846890Y-54228524D01*
X151617000Y-54349845D01*
X151363000Y-54349845D01*
X151133110Y-54228524D01*
X150985901Y-54273175D01*
X150723080Y-54398359D01*
X150489731Y-54572412D01*
X150294822Y-54788645D01*
X150220000Y-54914255D01*
X150145178Y-54788645D01*
X149950269Y-54572412D01*
X149716920Y-54398359D01*
X149454099Y-54273175D01*
X149306890Y-54228524D01*
X149077000Y-54349845D01*
X148823000Y-54349845D01*
X148593110Y-54228524D01*
X148445901Y-54273175D01*
X148183080Y-54398359D01*
X147949731Y-54572412D01*
X147754822Y-54788645D01*
X147685201Y-54905523D01*
X147650706Y-54840986D01*
X147465134Y-54614866D01*
X147239014Y-54429294D01*
X146981034Y-54291401D01*
X146701111Y-54206487D01*
X146482950Y-54185000D01*
X146337050Y-54185000D01*
X146118889Y-54206487D01*
X145838966Y-54291401D01*
X145580986Y-54429294D01*
X145354866Y-54614866D01*
X145330393Y-54644687D01*
X145309502Y-54575820D01*
X145250537Y-54465506D01*
X145171185Y-54368815D01*
X145074494Y-54289463D01*
X144964180Y-54230498D01*
X144844482Y-54194188D01*
X144720000Y-54181928D01*
X143020000Y-54181928D01*
X142895518Y-54194188D01*
X142775820Y-54230498D01*
X142725000Y-54257662D01*
X142725000Y-53802333D01*
X142726215Y-53790000D01*
X160355001Y-53790000D01*
X160355000Y-75965000D01*
X160355000Y-75965000D01*
G37*
X160355000Y-75965000D02*
X152791078Y-75965000D01*
X152822182Y-75906808D01*
X152904236Y-75636309D01*
X152931943Y-75355000D01*
X152904236Y-75073691D01*
X152822182Y-74803192D01*
X152688932Y-74553899D01*
X152509608Y-74335392D01*
X152291101Y-74156068D01*
X152041808Y-74022818D01*
X151771309Y-73940764D01*
X151560492Y-73920000D01*
X151419508Y-73920000D01*
X151208691Y-73940764D01*
X150938192Y-74022818D01*
X150688899Y-74156068D01*
X150470392Y-74335392D01*
X150291068Y-74553899D01*
X150157818Y-74803192D01*
X150075764Y-75073691D01*
X150048057Y-75355000D01*
X150075764Y-75636309D01*
X150157818Y-75906808D01*
X150188922Y-75965000D01*
X149616078Y-75965000D01*
X149647182Y-75906808D01*
X149729236Y-75636309D01*
X149756943Y-75355000D01*
X149729236Y-75073691D01*
X149647182Y-74803192D01*
X149513932Y-74553899D01*
X149334608Y-74335392D01*
X149116101Y-74156068D01*
X149069573Y-74131198D01*
X149064003Y-74074644D01*
X149020546Y-73931383D01*
X148949974Y-73799354D01*
X148855001Y-73683629D01*
X148826003Y-73659831D01*
X144785175Y-69619004D01*
X144761372Y-69590000D01*
X144645647Y-69495027D01*
X144513618Y-69424455D01*
X144370357Y-69380998D01*
X144258704Y-69370001D01*
X144258693Y-69370001D01*
X144221371Y-69366325D01*
X144184049Y-69370001D01*
X140908430Y-69370001D01*
X144097018Y-66181414D01*
X144225241Y-66309637D01*
X144460273Y-66466680D01*
X144721426Y-66574853D01*
X144998665Y-66630000D01*
X145281335Y-66630000D01*
X145558574Y-66574853D01*
X145819727Y-66466680D01*
X146054759Y-66309637D01*
X146254637Y-66109759D01*
X146411680Y-65874727D01*
X146519853Y-65613574D01*
X146575000Y-65336335D01*
X146575000Y-65053665D01*
X146880000Y-65053665D01*
X146880000Y-65336335D01*
X146935147Y-65613574D01*
X147043320Y-65874727D01*
X147200363Y-66109759D01*
X147400241Y-66309637D01*
X147635273Y-66466680D01*
X147896426Y-66574853D01*
X148173665Y-66630000D01*
X148456335Y-66630000D01*
X148733574Y-66574853D01*
X148994727Y-66466680D01*
X149229759Y-66309637D01*
X149429637Y-66109759D01*
X149586680Y-65874727D01*
X149694853Y-65613574D01*
X149750000Y-65336335D01*
X149750000Y-65053665D01*
X150055000Y-65053665D01*
X150055000Y-65336335D01*
X150110147Y-65613574D01*
X150218320Y-65874727D01*
X150375363Y-66109759D01*
X150575241Y-66309637D01*
X150810273Y-66466680D01*
X151071426Y-66574853D01*
X151348665Y-66630000D01*
X151631335Y-66630000D01*
X151908574Y-66574853D01*
X152169727Y-66466680D01*
X152404759Y-66309637D01*
X152604637Y-66109759D01*
X152761680Y-65874727D01*
X152869853Y-65613574D01*
X152925000Y-65336335D01*
X152925000Y-65053665D01*
X152869853Y-64776426D01*
X152761680Y-64515273D01*
X152644482Y-64339872D01*
X154970000Y-64339872D01*
X154970000Y-64780128D01*
X155055890Y-65211925D01*
X155224369Y-65618669D01*
X155468962Y-65984729D01*
X155780271Y-66296038D01*
X156146331Y-66540631D01*
X156553075Y-66709110D01*
X156984872Y-66795000D01*
X157425128Y-66795000D01*
X157856925Y-66709110D01*
X158263669Y-66540631D01*
X158629729Y-66296038D01*
X158941038Y-65984729D01*
X159185631Y-65618669D01*
X159354110Y-65211925D01*
X159440000Y-64780128D01*
X159440000Y-64339872D01*
X159354110Y-63908075D01*
X159185631Y-63501331D01*
X158941038Y-63135271D01*
X158629729Y-62823962D01*
X158263669Y-62579369D01*
X157856925Y-62410890D01*
X157425128Y-62325000D01*
X156984872Y-62325000D01*
X156553075Y-62410890D01*
X156146331Y-62579369D01*
X155780271Y-62823962D01*
X155468962Y-63135271D01*
X155224369Y-63501331D01*
X155055890Y-63908075D01*
X154970000Y-64339872D01*
X152644482Y-64339872D01*
X152604637Y-64280241D01*
X152404759Y-64080363D01*
X152169727Y-63923320D01*
X151908574Y-63815147D01*
X151631335Y-63760000D01*
X151348665Y-63760000D01*
X151071426Y-63815147D01*
X150810273Y-63923320D01*
X150575241Y-64080363D01*
X150375363Y-64280241D01*
X150218320Y-64515273D01*
X150110147Y-64776426D01*
X150055000Y-65053665D01*
X149750000Y-65053665D01*
X149694853Y-64776426D01*
X149586680Y-64515273D01*
X149429637Y-64280241D01*
X149229759Y-64080363D01*
X148994727Y-63923320D01*
X148733574Y-63815147D01*
X148456335Y-63760000D01*
X148173665Y-63760000D01*
X147896426Y-63815147D01*
X147635273Y-63923320D01*
X147400241Y-64080363D01*
X147200363Y-64280241D01*
X147043320Y-64515273D01*
X146935147Y-64776426D01*
X146880000Y-65053665D01*
X146575000Y-65053665D01*
X146538688Y-64871114D01*
X147556003Y-63853799D01*
X147585001Y-63830001D01*
X147679974Y-63714276D01*
X147750546Y-63582247D01*
X147794003Y-63438986D01*
X147805000Y-63327333D01*
X147805000Y-63327323D01*
X147808676Y-63290000D01*
X147805000Y-63252677D01*
X147805000Y-62913642D01*
X147835498Y-63014180D01*
X147894463Y-63124494D01*
X147973815Y-63221185D01*
X148070506Y-63300537D01*
X148180820Y-63359502D01*
X148300518Y-63395812D01*
X148425000Y-63408072D01*
X148664250Y-63405000D01*
X148823000Y-63246250D01*
X148823000Y-62147000D01*
X148803000Y-62147000D01*
X148803000Y-61893000D01*
X148823000Y-61893000D01*
X148823000Y-61738022D01*
X149060000Y-61738022D01*
X149060000Y-62301979D01*
X149076785Y-62472400D01*
X149077000Y-62473109D01*
X149077000Y-63246250D01*
X149235750Y-63405000D01*
X149475000Y-63408072D01*
X149599482Y-63395812D01*
X149719180Y-63359502D01*
X149783902Y-63324907D01*
X149992601Y-63388215D01*
X150220000Y-63410612D01*
X150447400Y-63388215D01*
X150666060Y-63321885D01*
X150855001Y-63220894D01*
X151043941Y-63321885D01*
X151262601Y-63388215D01*
X151490000Y-63410612D01*
X151717400Y-63388215D01*
X151936060Y-63321885D01*
X152137579Y-63214171D01*
X152314212Y-63069212D01*
X152459171Y-62892579D01*
X152566885Y-62691059D01*
X152633215Y-62472399D01*
X152650000Y-62301978D01*
X152650000Y-61738021D01*
X152633215Y-61567600D01*
X152566885Y-61348940D01*
X152459171Y-61147421D01*
X152314212Y-60970788D01*
X152137578Y-60825829D01*
X151936059Y-60718115D01*
X151717399Y-60651785D01*
X151490000Y-60629388D01*
X151262600Y-60651785D01*
X151043940Y-60718115D01*
X150855000Y-60819106D01*
X150666059Y-60718115D01*
X150447399Y-60651785D01*
X150220000Y-60629388D01*
X149992600Y-60651785D01*
X149783902Y-60715093D01*
X149719180Y-60680498D01*
X149599482Y-60644188D01*
X149475000Y-60631928D01*
X149235750Y-60635000D01*
X149077000Y-60793750D01*
X149077000Y-61566892D01*
X149076785Y-61567601D01*
X149060000Y-61738022D01*
X148823000Y-61738022D01*
X148823000Y-60793750D01*
X148664250Y-60635000D01*
X148425000Y-60631928D01*
X148300518Y-60644188D01*
X148180820Y-60680498D01*
X148070506Y-60739463D01*
X147973815Y-60818815D01*
X147894463Y-60915506D01*
X147835498Y-61025820D01*
X147805000Y-61126358D01*
X147805000Y-59982322D01*
X147808676Y-59944999D01*
X147805000Y-59907676D01*
X147805000Y-59907667D01*
X147794003Y-59796014D01*
X147750546Y-59652753D01*
X147722891Y-59601015D01*
X147679974Y-59520723D01*
X147608799Y-59433997D01*
X147585001Y-59404999D01*
X147556004Y-59381202D01*
X145157345Y-56982543D01*
X145171185Y-56971185D01*
X145250537Y-56874494D01*
X145309502Y-56764180D01*
X145330393Y-56695313D01*
X145354866Y-56725134D01*
X145580986Y-56910706D01*
X145838966Y-57048599D01*
X146118889Y-57133513D01*
X146337050Y-57155000D01*
X146482950Y-57155000D01*
X146701111Y-57133513D01*
X146981034Y-57048599D01*
X147239014Y-56910706D01*
X147465134Y-56725134D01*
X147650706Y-56499014D01*
X147685201Y-56434477D01*
X147754822Y-56551355D01*
X147949731Y-56767588D01*
X148183080Y-56941641D01*
X148445901Y-57066825D01*
X148593110Y-57111476D01*
X148823000Y-56990155D01*
X148823000Y-55797000D01*
X149077000Y-55797000D01*
X149077000Y-56990155D01*
X149306890Y-57111476D01*
X149454099Y-57066825D01*
X149716920Y-56941641D01*
X149950269Y-56767588D01*
X150145178Y-56551355D01*
X150220000Y-56425745D01*
X150294822Y-56551355D01*
X150489731Y-56767588D01*
X150723080Y-56941641D01*
X150985901Y-57066825D01*
X151133110Y-57111476D01*
X151363000Y-56990155D01*
X151363000Y-55797000D01*
X151617000Y-55797000D01*
X151617000Y-56990155D01*
X151846890Y-57111476D01*
X151994099Y-57066825D01*
X152256920Y-56941641D01*
X152490269Y-56767588D01*
X152685178Y-56551355D01*
X152834157Y-56301252D01*
X152931481Y-56026891D01*
X152810814Y-55797000D01*
X151617000Y-55797000D01*
X151363000Y-55797000D01*
X149077000Y-55797000D01*
X148823000Y-55797000D01*
X148803000Y-55797000D01*
X148803000Y-55543000D01*
X148823000Y-55543000D01*
X148823000Y-54349845D01*
X149077000Y-54349845D01*
X149077000Y-55543000D01*
X151363000Y-55543000D01*
X151363000Y-54349845D01*
X151617000Y-54349845D01*
X151617000Y-55543000D01*
X152810814Y-55543000D01*
X152931481Y-55313109D01*
X152834157Y-55038748D01*
X152685178Y-54788645D01*
X152490269Y-54572412D01*
X152256920Y-54398359D01*
X151994099Y-54273175D01*
X151846890Y-54228524D01*
X151617000Y-54349845D01*
X151363000Y-54349845D01*
X151133110Y-54228524D01*
X150985901Y-54273175D01*
X150723080Y-54398359D01*
X150489731Y-54572412D01*
X150294822Y-54788645D01*
X150220000Y-54914255D01*
X150145178Y-54788645D01*
X149950269Y-54572412D01*
X149716920Y-54398359D01*
X149454099Y-54273175D01*
X149306890Y-54228524D01*
X149077000Y-54349845D01*
X148823000Y-54349845D01*
X148593110Y-54228524D01*
X148445901Y-54273175D01*
X148183080Y-54398359D01*
X147949731Y-54572412D01*
X147754822Y-54788645D01*
X147685201Y-54905523D01*
X147650706Y-54840986D01*
X147465134Y-54614866D01*
X147239014Y-54429294D01*
X146981034Y-54291401D01*
X146701111Y-54206487D01*
X146482950Y-54185000D01*
X146337050Y-54185000D01*
X146118889Y-54206487D01*
X145838966Y-54291401D01*
X145580986Y-54429294D01*
X145354866Y-54614866D01*
X145330393Y-54644687D01*
X145309502Y-54575820D01*
X145250537Y-54465506D01*
X145171185Y-54368815D01*
X145074494Y-54289463D01*
X144964180Y-54230498D01*
X144844482Y-54194188D01*
X144720000Y-54181928D01*
X143020000Y-54181928D01*
X142895518Y-54194188D01*
X142775820Y-54230498D01*
X142725000Y-54257662D01*
X142725000Y-53802333D01*
X142726215Y-53790000D01*
X160355001Y-53790000D01*
X160355000Y-75965000D01*
G36*
X39219003Y-54471196D02*
G01*
X39189999Y-54494999D01*
X39145693Y-54548987D01*
X39095026Y-54610724D01*
X39024455Y-54742753D01*
X39024454Y-54742754D01*
X38980997Y-54886015D01*
X38970000Y-54997668D01*
X38970000Y-54997678D01*
X38966324Y-55035000D01*
X38970000Y-55072323D01*
X38970001Y-59712668D01*
X38966324Y-59750000D01*
X38970001Y-59787332D01*
X38970001Y-59787333D01*
X38980998Y-59898986D01*
X38983632Y-59907668D01*
X39024454Y-60042246D01*
X39095026Y-60174276D01*
X39139940Y-60229003D01*
X39190000Y-60290001D01*
X39218998Y-60313799D01*
X39901354Y-60996156D01*
X39885498Y-61025820D01*
X39849188Y-61145518D01*
X39836928Y-61270000D01*
X39836928Y-62770000D01*
X39849188Y-62894482D01*
X39885498Y-63014180D01*
X39944463Y-63124494D01*
X40023815Y-63221185D01*
X40120506Y-63300537D01*
X40230820Y-63359502D01*
X40350518Y-63395812D01*
X40475000Y-63408072D01*
X41525000Y-63408072D01*
X41649482Y-63395812D01*
X41769180Y-63359502D01*
X41833902Y-63324907D01*
X42042601Y-63388215D01*
X42270000Y-63410612D01*
X42497400Y-63388215D01*
X42716060Y-63321885D01*
X42905001Y-63220894D01*
X43093941Y-63321885D01*
X43312601Y-63388215D01*
X43540000Y-63410612D01*
X43622735Y-63402463D01*
X43228886Y-63796312D01*
X43046335Y-63760000D01*
X42763665Y-63760000D01*
X42486426Y-63815147D01*
X42225273Y-63923320D01*
X41990241Y-64080363D01*
X41790363Y-64280241D01*
X41633320Y-64515273D01*
X41525147Y-64776426D01*
X41470000Y-65053665D01*
X41470000Y-65336335D01*
X41525147Y-65613574D01*
X41633320Y-65874727D01*
X41790363Y-66109759D01*
X41990241Y-66309637D01*
X42225273Y-66466680D01*
X42486426Y-66574853D01*
X42763665Y-66630000D01*
X43046335Y-66630000D01*
X43228887Y-66593688D01*
X43916216Y-67281019D01*
X43940010Y-67310012D01*
X43969003Y-67333806D01*
X43969007Y-67333810D01*
X44039696Y-67391822D01*
X44055735Y-67404985D01*
X44187764Y-67475557D01*
X44331025Y-67519014D01*
X44442678Y-67530011D01*
X44442687Y-67530011D01*
X44480010Y-67533687D01*
X44517333Y-67530011D01*
X72804079Y-67530011D01*
X72841401Y-67533687D01*
X72878723Y-67530011D01*
X72878734Y-67530011D01*
X72990387Y-67519014D01*
X73133648Y-67475557D01*
X73265677Y-67404985D01*
X73381402Y-67310012D01*
X73405205Y-67281008D01*
X75800000Y-64886214D01*
X75800000Y-69960198D01*
X75155199Y-70605000D01*
X67738711Y-70605000D01*
X67694774Y-70561063D01*
X67525256Y-70447795D01*
X67336898Y-70369774D01*
X67136939Y-70330000D01*
X66933061Y-70330000D01*
X66733102Y-70369774D01*
X66544744Y-70447795D01*
X66375226Y-70561063D01*
X66231063Y-70705226D01*
X66117795Y-70874744D01*
X66039774Y-71063102D01*
X66000000Y-71263061D01*
X66000000Y-71330000D01*
X56943711Y-71330000D01*
X56899774Y-71286063D01*
X56730256Y-71172795D01*
X56541898Y-71094774D01*
X56341939Y-71055000D01*
X56138061Y-71055000D01*
X55938102Y-71094774D01*
X55749744Y-71172795D01*
X55580226Y-71286063D01*
X55436063Y-71430226D01*
X55322795Y-71599744D01*
X55244774Y-71788102D01*
X55205000Y-71988061D01*
X55205000Y-72055000D01*
X44243711Y-72055000D01*
X44199774Y-72011063D01*
X44030256Y-71897795D01*
X43841898Y-71819774D01*
X43641939Y-71780000D01*
X43438061Y-71780000D01*
X43238102Y-71819774D01*
X43049744Y-71897795D01*
X42880226Y-72011063D01*
X42736063Y-72155226D01*
X42622795Y-72324744D01*
X42544774Y-72513102D01*
X42505000Y-72713061D01*
X42505000Y-72916939D01*
X42544774Y-73116898D01*
X42622795Y-73305256D01*
X42736063Y-73474774D01*
X42880226Y-73618937D01*
X43049744Y-73732205D01*
X43238102Y-73810226D01*
X43352264Y-73832934D01*
X43230906Y-73954292D01*
X43186309Y-73940764D01*
X42975492Y-73920000D01*
X42834508Y-73920000D01*
X42623691Y-73940764D01*
X42353192Y-74022818D01*
X42103899Y-74156068D01*
X41885392Y-74335392D01*
X41706068Y-74553899D01*
X41572818Y-74803192D01*
X41490764Y-75073691D01*
X41463057Y-75355000D01*
X41490764Y-75636309D01*
X41572818Y-75906808D01*
X41603922Y-75965000D01*
X32135000Y-75965000D01*
X32135000Y-64339872D01*
X33050000Y-64339872D01*
X33050000Y-64780128D01*
X33135890Y-65211925D01*
X33304369Y-65618669D01*
X33548962Y-65984729D01*
X33860271Y-66296038D01*
X34226331Y-66540631D01*
X34633075Y-66709110D01*
X35064872Y-66795000D01*
X35505128Y-66795000D01*
X35936925Y-66709110D01*
X36343669Y-66540631D01*
X36709729Y-66296038D01*
X37021038Y-65984729D01*
X37265631Y-65618669D01*
X37434110Y-65211925D01*
X37520000Y-64780128D01*
X37520000Y-64339872D01*
X37434110Y-63908075D01*
X37265631Y-63501331D01*
X37021038Y-63135271D01*
X36709729Y-62823962D01*
X36343669Y-62579369D01*
X35936925Y-62410890D01*
X35505128Y-62325000D01*
X35064872Y-62325000D01*
X34633075Y-62410890D01*
X34226331Y-62579369D01*
X33860271Y-62823962D01*
X33548962Y-63135271D01*
X33304369Y-63501331D01*
X33135890Y-63908075D01*
X33050000Y-64339872D01*
X32135000Y-64339872D01*
X32135000Y-53790000D01*
X39900198Y-53790000D01*
X39219003Y-54471196D01*
X39219003Y-54471196D01*
G37*
X39219003Y-54471196D02*
X39189999Y-54494999D01*
X39145693Y-54548987D01*
X39095026Y-54610724D01*
X39024455Y-54742753D01*
X39024454Y-54742754D01*
X38980997Y-54886015D01*
X38970000Y-54997668D01*
X38970000Y-54997678D01*
X38966324Y-55035000D01*
X38970000Y-55072323D01*
X38970001Y-59712668D01*
X38966324Y-59750000D01*
X38970001Y-59787332D01*
X38970001Y-59787333D01*
X38980998Y-59898986D01*
X38983632Y-59907668D01*
X39024454Y-60042246D01*
X39095026Y-60174276D01*
X39139940Y-60229003D01*
X39190000Y-60290001D01*
X39218998Y-60313799D01*
X39901354Y-60996156D01*
X39885498Y-61025820D01*
X39849188Y-61145518D01*
X39836928Y-61270000D01*
X39836928Y-62770000D01*
X39849188Y-62894482D01*
X39885498Y-63014180D01*
X39944463Y-63124494D01*
X40023815Y-63221185D01*
X40120506Y-63300537D01*
X40230820Y-63359502D01*
X40350518Y-63395812D01*
X40475000Y-63408072D01*
X41525000Y-63408072D01*
X41649482Y-63395812D01*
X41769180Y-63359502D01*
X41833902Y-63324907D01*
X42042601Y-63388215D01*
X42270000Y-63410612D01*
X42497400Y-63388215D01*
X42716060Y-63321885D01*
X42905001Y-63220894D01*
X43093941Y-63321885D01*
X43312601Y-63388215D01*
X43540000Y-63410612D01*
X43622735Y-63402463D01*
X43228886Y-63796312D01*
X43046335Y-63760000D01*
X42763665Y-63760000D01*
X42486426Y-63815147D01*
X42225273Y-63923320D01*
X41990241Y-64080363D01*
X41790363Y-64280241D01*
X41633320Y-64515273D01*
X41525147Y-64776426D01*
X41470000Y-65053665D01*
X41470000Y-65336335D01*
X41525147Y-65613574D01*
X41633320Y-65874727D01*
X41790363Y-66109759D01*
X41990241Y-66309637D01*
X42225273Y-66466680D01*
X42486426Y-66574853D01*
X42763665Y-66630000D01*
X43046335Y-66630000D01*
X43228887Y-66593688D01*
X43916216Y-67281019D01*
X43940010Y-67310012D01*
X43969003Y-67333806D01*
X43969007Y-67333810D01*
X44039696Y-67391822D01*
X44055735Y-67404985D01*
X44187764Y-67475557D01*
X44331025Y-67519014D01*
X44442678Y-67530011D01*
X44442687Y-67530011D01*
X44480010Y-67533687D01*
X44517333Y-67530011D01*
X72804079Y-67530011D01*
X72841401Y-67533687D01*
X72878723Y-67530011D01*
X72878734Y-67530011D01*
X72990387Y-67519014D01*
X73133648Y-67475557D01*
X73265677Y-67404985D01*
X73381402Y-67310012D01*
X73405205Y-67281008D01*
X75800000Y-64886214D01*
X75800000Y-69960198D01*
X75155199Y-70605000D01*
X67738711Y-70605000D01*
X67694774Y-70561063D01*
X67525256Y-70447795D01*
X67336898Y-70369774D01*
X67136939Y-70330000D01*
X66933061Y-70330000D01*
X66733102Y-70369774D01*
X66544744Y-70447795D01*
X66375226Y-70561063D01*
X66231063Y-70705226D01*
X66117795Y-70874744D01*
X66039774Y-71063102D01*
X66000000Y-71263061D01*
X66000000Y-71330000D01*
X56943711Y-71330000D01*
X56899774Y-71286063D01*
X56730256Y-71172795D01*
X56541898Y-71094774D01*
X56341939Y-71055000D01*
X56138061Y-71055000D01*
X55938102Y-71094774D01*
X55749744Y-71172795D01*
X55580226Y-71286063D01*
X55436063Y-71430226D01*
X55322795Y-71599744D01*
X55244774Y-71788102D01*
X55205000Y-71988061D01*
X55205000Y-72055000D01*
X44243711Y-72055000D01*
X44199774Y-72011063D01*
X44030256Y-71897795D01*
X43841898Y-71819774D01*
X43641939Y-71780000D01*
X43438061Y-71780000D01*
X43238102Y-71819774D01*
X43049744Y-71897795D01*
X42880226Y-72011063D01*
X42736063Y-72155226D01*
X42622795Y-72324744D01*
X42544774Y-72513102D01*
X42505000Y-72713061D01*
X42505000Y-72916939D01*
X42544774Y-73116898D01*
X42622795Y-73305256D01*
X42736063Y-73474774D01*
X42880226Y-73618937D01*
X43049744Y-73732205D01*
X43238102Y-73810226D01*
X43352264Y-73832934D01*
X43230906Y-73954292D01*
X43186309Y-73940764D01*
X42975492Y-73920000D01*
X42834508Y-73920000D01*
X42623691Y-73940764D01*
X42353192Y-74022818D01*
X42103899Y-74156068D01*
X41885392Y-74335392D01*
X41706068Y-74553899D01*
X41572818Y-74803192D01*
X41490764Y-75073691D01*
X41463057Y-75355000D01*
X41490764Y-75636309D01*
X41572818Y-75906808D01*
X41603922Y-75965000D01*
X32135000Y-75965000D01*
X32135000Y-64339872D01*
X33050000Y-64339872D01*
X33050000Y-64780128D01*
X33135890Y-65211925D01*
X33304369Y-65618669D01*
X33548962Y-65984729D01*
X33860271Y-66296038D01*
X34226331Y-66540631D01*
X34633075Y-66709110D01*
X35064872Y-66795000D01*
X35505128Y-66795000D01*
X35936925Y-66709110D01*
X36343669Y-66540631D01*
X36709729Y-66296038D01*
X37021038Y-65984729D01*
X37265631Y-65618669D01*
X37434110Y-65211925D01*
X37520000Y-64780128D01*
X37520000Y-64339872D01*
X37434110Y-63908075D01*
X37265631Y-63501331D01*
X37021038Y-63135271D01*
X36709729Y-62823962D01*
X36343669Y-62579369D01*
X35936925Y-62410890D01*
X35505128Y-62325000D01*
X35064872Y-62325000D01*
X34633075Y-62410890D01*
X34226331Y-62579369D01*
X33860271Y-62823962D01*
X33548962Y-63135271D01*
X33304369Y-63501331D01*
X33135890Y-63908075D01*
X33050000Y-64339872D01*
X32135000Y-64339872D01*
X32135000Y-53790000D01*
X39900198Y-53790000D01*
X39219003Y-54471196D01*
G36*
X147326462Y-74309894D02*
G01*
X147295392Y-74335392D01*
X147116068Y-74553899D01*
X146982818Y-74803192D01*
X146900764Y-75073691D01*
X146873057Y-75355000D01*
X146900764Y-75636309D01*
X146982818Y-75906808D01*
X147013922Y-75965000D01*
X146441078Y-75965000D01*
X146472182Y-75906808D01*
X146554236Y-75636309D01*
X146581943Y-75355000D01*
X146554236Y-75073691D01*
X146472182Y-74803192D01*
X146338932Y-74553899D01*
X146159608Y-74335392D01*
X145941101Y-74156068D01*
X145900000Y-74134099D01*
X145900000Y-73487333D01*
X145903677Y-73450000D01*
X145889003Y-73301014D01*
X145845546Y-73157753D01*
X145774974Y-73025724D01*
X145680001Y-72909999D01*
X145564276Y-72815026D01*
X145432247Y-72744454D01*
X145288986Y-72700997D01*
X145177333Y-72690000D01*
X145140000Y-72686323D01*
X145102667Y-72690000D01*
X136519013Y-72690000D01*
X136532205Y-72670256D01*
X136610226Y-72481898D01*
X136650000Y-72281939D01*
X136650000Y-72078061D01*
X136610226Y-71878102D01*
X136532205Y-71689744D01*
X136418937Y-71520226D01*
X136274774Y-71376063D01*
X136105256Y-71262795D01*
X135916898Y-71184774D01*
X135716939Y-71145000D01*
X135513061Y-71145000D01*
X135313102Y-71184774D01*
X135124744Y-71262795D01*
X134955226Y-71376063D01*
X134911289Y-71420000D01*
X115727324Y-71420000D01*
X115690001Y-71416324D01*
X115652678Y-71420000D01*
X115652669Y-71420000D01*
X115541016Y-71430997D01*
X115422529Y-71466939D01*
X115397755Y-71474454D01*
X115265725Y-71545026D01*
X115259666Y-71549999D01*
X115150001Y-71639999D01*
X115126198Y-71669003D01*
X114885200Y-71910001D01*
X114778849Y-71910001D01*
X114804236Y-71826309D01*
X114831943Y-71545000D01*
X114804236Y-71263691D01*
X114722182Y-70993192D01*
X114667025Y-70890001D01*
X143906570Y-70890001D01*
X147326462Y-74309894D01*
X147326462Y-74309894D01*
G37*
X147326462Y-74309894D02*
X147295392Y-74335392D01*
X147116068Y-74553899D01*
X146982818Y-74803192D01*
X146900764Y-75073691D01*
X146873057Y-75355000D01*
X146900764Y-75636309D01*
X146982818Y-75906808D01*
X147013922Y-75965000D01*
X146441078Y-75965000D01*
X146472182Y-75906808D01*
X146554236Y-75636309D01*
X146581943Y-75355000D01*
X146554236Y-75073691D01*
X146472182Y-74803192D01*
X146338932Y-74553899D01*
X146159608Y-74335392D01*
X145941101Y-74156068D01*
X145900000Y-74134099D01*
X145900000Y-73487333D01*
X145903677Y-73450000D01*
X145889003Y-73301014D01*
X145845546Y-73157753D01*
X145774974Y-73025724D01*
X145680001Y-72909999D01*
X145564276Y-72815026D01*
X145432247Y-72744454D01*
X145288986Y-72700997D01*
X145177333Y-72690000D01*
X145140000Y-72686323D01*
X145102667Y-72690000D01*
X136519013Y-72690000D01*
X136532205Y-72670256D01*
X136610226Y-72481898D01*
X136650000Y-72281939D01*
X136650000Y-72078061D01*
X136610226Y-71878102D01*
X136532205Y-71689744D01*
X136418937Y-71520226D01*
X136274774Y-71376063D01*
X136105256Y-71262795D01*
X135916898Y-71184774D01*
X135716939Y-71145000D01*
X135513061Y-71145000D01*
X135313102Y-71184774D01*
X135124744Y-71262795D01*
X134955226Y-71376063D01*
X134911289Y-71420000D01*
X115727324Y-71420000D01*
X115690001Y-71416324D01*
X115652678Y-71420000D01*
X115652669Y-71420000D01*
X115541016Y-71430997D01*
X115422529Y-71466939D01*
X115397755Y-71474454D01*
X115265725Y-71545026D01*
X115259666Y-71549999D01*
X115150001Y-71639999D01*
X115126198Y-71669003D01*
X114885200Y-71910001D01*
X114778849Y-71910001D01*
X114804236Y-71826309D01*
X114831943Y-71545000D01*
X114804236Y-71263691D01*
X114722182Y-70993192D01*
X114667025Y-70890001D01*
X143906570Y-70890001D01*
X147326462Y-74309894D01*
G36*
X91599202Y-73181004D02*
G01*
X91623000Y-73210002D01*
X91713044Y-73283899D01*
X91738725Y-73304975D01*
X91870754Y-73375547D01*
X92014015Y-73419004D01*
X92163001Y-73433678D01*
X92200334Y-73430001D01*
X104500007Y-73430001D01*
X104418754Y-73601913D01*
X104378096Y-73735961D01*
X104500085Y-73958000D01*
X105643000Y-73958000D01*
X105643000Y-73938000D01*
X105897000Y-73938000D01*
X105897000Y-73958000D01*
X107039915Y-73958000D01*
X107161904Y-73735961D01*
X107121246Y-73601913D01*
X107039993Y-73430001D01*
X112112975Y-73430001D01*
X112057818Y-73533192D01*
X111975764Y-73803691D01*
X111948057Y-74085000D01*
X111975764Y-74366309D01*
X112057818Y-74636808D01*
X112191068Y-74886101D01*
X112370392Y-75104608D01*
X112523183Y-75230000D01*
X106633275Y-75230000D01*
X106833519Y-75048414D01*
X107001037Y-74822420D01*
X107121246Y-74568087D01*
X107161904Y-74434039D01*
X107039915Y-74212000D01*
X105897000Y-74212000D01*
X105897000Y-74232000D01*
X105643000Y-74232000D01*
X105643000Y-74212000D01*
X104500085Y-74212000D01*
X104378096Y-74434039D01*
X104418754Y-74568087D01*
X104538963Y-74822420D01*
X104706481Y-75048414D01*
X104906725Y-75230000D01*
X88221817Y-75230000D01*
X88374608Y-75104608D01*
X88553932Y-74886101D01*
X88687182Y-74636808D01*
X88769236Y-74366309D01*
X88796943Y-74085000D01*
X88769236Y-73803691D01*
X88687182Y-73533192D01*
X88553932Y-73283899D01*
X88374608Y-73065392D01*
X88156101Y-72886068D01*
X88023142Y-72815000D01*
X88156101Y-72743932D01*
X88374608Y-72564608D01*
X88553932Y-72346101D01*
X88687182Y-72096808D01*
X88769236Y-71826309D01*
X88796943Y-71545000D01*
X88769236Y-71263691D01*
X88687182Y-70993192D01*
X88553932Y-70743899D01*
X88374608Y-70525392D01*
X88156101Y-70346068D01*
X88018318Y-70272421D01*
X88210131Y-70157385D01*
X88401786Y-69983588D01*
X91599202Y-73181004D01*
X91599202Y-73181004D01*
G37*
X91599202Y-73181004D02*
X91623000Y-73210002D01*
X91713044Y-73283899D01*
X91738725Y-73304975D01*
X91870754Y-73375547D01*
X92014015Y-73419004D01*
X92163001Y-73433678D01*
X92200334Y-73430001D01*
X104500007Y-73430001D01*
X104418754Y-73601913D01*
X104378096Y-73735961D01*
X104500085Y-73958000D01*
X105643000Y-73958000D01*
X105643000Y-73938000D01*
X105897000Y-73938000D01*
X105897000Y-73958000D01*
X107039915Y-73958000D01*
X107161904Y-73735961D01*
X107121246Y-73601913D01*
X107039993Y-73430001D01*
X112112975Y-73430001D01*
X112057818Y-73533192D01*
X111975764Y-73803691D01*
X111948057Y-74085000D01*
X111975764Y-74366309D01*
X112057818Y-74636808D01*
X112191068Y-74886101D01*
X112370392Y-75104608D01*
X112523183Y-75230000D01*
X106633275Y-75230000D01*
X106833519Y-75048414D01*
X107001037Y-74822420D01*
X107121246Y-74568087D01*
X107161904Y-74434039D01*
X107039915Y-74212000D01*
X105897000Y-74212000D01*
X105897000Y-74232000D01*
X105643000Y-74232000D01*
X105643000Y-74212000D01*
X104500085Y-74212000D01*
X104378096Y-74434039D01*
X104418754Y-74568087D01*
X104538963Y-74822420D01*
X104706481Y-75048414D01*
X104906725Y-75230000D01*
X88221817Y-75230000D01*
X88374608Y-75104608D01*
X88553932Y-74886101D01*
X88687182Y-74636808D01*
X88769236Y-74366309D01*
X88796943Y-74085000D01*
X88769236Y-73803691D01*
X88687182Y-73533192D01*
X88553932Y-73283899D01*
X88374608Y-73065392D01*
X88156101Y-72886068D01*
X88023142Y-72815000D01*
X88156101Y-72743932D01*
X88374608Y-72564608D01*
X88553932Y-72346101D01*
X88687182Y-72096808D01*
X88769236Y-71826309D01*
X88796943Y-71545000D01*
X88769236Y-71263691D01*
X88687182Y-70993192D01*
X88553932Y-70743899D01*
X88374608Y-70525392D01*
X88156101Y-70346068D01*
X88018318Y-70272421D01*
X88210131Y-70157385D01*
X88401786Y-69983588D01*
X91599202Y-73181004D01*
G36*
X82836201Y-63021003D02*
G01*
X82860000Y-63050002D01*
X82975725Y-63144975D01*
X83107754Y-63215547D01*
X83251015Y-63259004D01*
X83362668Y-63270001D01*
X83362676Y-63270001D01*
X83400001Y-63273677D01*
X83437326Y-63270001D01*
X86077975Y-63270001D01*
X86022818Y-63373192D01*
X85940764Y-63643691D01*
X85913057Y-63925000D01*
X85940764Y-64206309D01*
X86022818Y-64476808D01*
X86156068Y-64726101D01*
X86335392Y-64944608D01*
X86553899Y-65123932D01*
X86686858Y-65195000D01*
X86553899Y-65266068D01*
X86335392Y-65445392D01*
X86156068Y-65663899D01*
X86022818Y-65913192D01*
X85940764Y-66183691D01*
X85913057Y-66465000D01*
X85940764Y-66746309D01*
X86022818Y-67016808D01*
X86156068Y-67266101D01*
X86335392Y-67484608D01*
X86553899Y-67663932D01*
X86691682Y-67737579D01*
X86499869Y-67852615D01*
X86291481Y-68041586D01*
X86123963Y-68267580D01*
X86003754Y-68521913D01*
X85963096Y-68655961D01*
X86085085Y-68878000D01*
X87228000Y-68878000D01*
X87228000Y-68858000D01*
X87482000Y-68858000D01*
X87482000Y-68878000D01*
X87502000Y-68878000D01*
X87502000Y-69132000D01*
X87482000Y-69132000D01*
X87482000Y-69152000D01*
X87228000Y-69152000D01*
X87228000Y-69132000D01*
X86085085Y-69132000D01*
X85963096Y-69354039D01*
X86003754Y-69488087D01*
X86123963Y-69742420D01*
X86291481Y-69968414D01*
X86499869Y-70157385D01*
X86691682Y-70272421D01*
X86553899Y-70346068D01*
X86335392Y-70525392D01*
X86156068Y-70743899D01*
X86022818Y-70993192D01*
X85940764Y-71263691D01*
X85913057Y-71545000D01*
X85940764Y-71826309D01*
X86022818Y-72096808D01*
X86156068Y-72346101D01*
X86335392Y-72564608D01*
X86553899Y-72743932D01*
X86686858Y-72815000D01*
X86553899Y-72886068D01*
X86335392Y-73065392D01*
X86156068Y-73283899D01*
X86022818Y-73533192D01*
X85940764Y-73803691D01*
X85913057Y-74085000D01*
X85940764Y-74366309D01*
X86022818Y-74636808D01*
X86156068Y-74886101D01*
X86335392Y-75104608D01*
X86488183Y-75230000D01*
X80598275Y-75230000D01*
X80798519Y-75048414D01*
X80966037Y-74822420D01*
X81086246Y-74568087D01*
X81126904Y-74434039D01*
X81004915Y-74212000D01*
X79862000Y-74212000D01*
X79862000Y-74232000D01*
X79608000Y-74232000D01*
X79608000Y-74212000D01*
X78465085Y-74212000D01*
X78343096Y-74434039D01*
X78383754Y-74568087D01*
X78503963Y-74822420D01*
X78671481Y-75048414D01*
X78871725Y-75230000D01*
X77509802Y-75230000D01*
X76488803Y-74209002D01*
X76488799Y-74208997D01*
X75854802Y-73575000D01*
X78396474Y-73575000D01*
X78383754Y-73601913D01*
X78343096Y-73735961D01*
X78465085Y-73958000D01*
X79608000Y-73958000D01*
X79608000Y-73938000D01*
X79862000Y-73938000D01*
X79862000Y-73958000D01*
X81004915Y-73958000D01*
X81126904Y-73735961D01*
X81086246Y-73601913D01*
X80966037Y-73347580D01*
X80798519Y-73121586D01*
X80590131Y-72932615D01*
X80398318Y-72817579D01*
X80536101Y-72743932D01*
X80754608Y-72564608D01*
X80933932Y-72346101D01*
X81067182Y-72096808D01*
X81149236Y-71826309D01*
X81176943Y-71545000D01*
X81149236Y-71263691D01*
X81067182Y-70993192D01*
X80933932Y-70743899D01*
X80754608Y-70525392D01*
X80536101Y-70346068D01*
X80403142Y-70275000D01*
X80536101Y-70203932D01*
X80754608Y-70024608D01*
X80933932Y-69806101D01*
X81067182Y-69556808D01*
X81149236Y-69286309D01*
X81176943Y-69005000D01*
X81149236Y-68723691D01*
X81067182Y-68453192D01*
X80933932Y-68203899D01*
X80754608Y-67985392D01*
X80536101Y-67806068D01*
X80403142Y-67735000D01*
X80536101Y-67663932D01*
X80754608Y-67484608D01*
X80933932Y-67266101D01*
X81067182Y-67016808D01*
X81149236Y-66746309D01*
X81176943Y-66465000D01*
X81149236Y-66183691D01*
X81067182Y-65913192D01*
X80933932Y-65663899D01*
X80754608Y-65445392D01*
X80536101Y-65266068D01*
X80403142Y-65195000D01*
X80536101Y-65123932D01*
X80754608Y-64944608D01*
X80933932Y-64726101D01*
X81067182Y-64476808D01*
X81149236Y-64206309D01*
X81176943Y-63925000D01*
X81149236Y-63643691D01*
X81067182Y-63373192D01*
X80933932Y-63123899D01*
X80754608Y-62905392D01*
X80536101Y-62726068D01*
X80403142Y-62655000D01*
X80536101Y-62583932D01*
X80754608Y-62404608D01*
X80933932Y-62186101D01*
X81067182Y-61936808D01*
X81149236Y-61666309D01*
X81176943Y-61385000D01*
X81174402Y-61359204D01*
X82836201Y-63021003D01*
X82836201Y-63021003D01*
G37*
X82836201Y-63021003D02*
X82860000Y-63050002D01*
X82975725Y-63144975D01*
X83107754Y-63215547D01*
X83251015Y-63259004D01*
X83362668Y-63270001D01*
X83362676Y-63270001D01*
X83400001Y-63273677D01*
X83437326Y-63270001D01*
X86077975Y-63270001D01*
X86022818Y-63373192D01*
X85940764Y-63643691D01*
X85913057Y-63925000D01*
X85940764Y-64206309D01*
X86022818Y-64476808D01*
X86156068Y-64726101D01*
X86335392Y-64944608D01*
X86553899Y-65123932D01*
X86686858Y-65195000D01*
X86553899Y-65266068D01*
X86335392Y-65445392D01*
X86156068Y-65663899D01*
X86022818Y-65913192D01*
X85940764Y-66183691D01*
X85913057Y-66465000D01*
X85940764Y-66746309D01*
X86022818Y-67016808D01*
X86156068Y-67266101D01*
X86335392Y-67484608D01*
X86553899Y-67663932D01*
X86691682Y-67737579D01*
X86499869Y-67852615D01*
X86291481Y-68041586D01*
X86123963Y-68267580D01*
X86003754Y-68521913D01*
X85963096Y-68655961D01*
X86085085Y-68878000D01*
X87228000Y-68878000D01*
X87228000Y-68858000D01*
X87482000Y-68858000D01*
X87482000Y-68878000D01*
X87502000Y-68878000D01*
X87502000Y-69132000D01*
X87482000Y-69132000D01*
X87482000Y-69152000D01*
X87228000Y-69152000D01*
X87228000Y-69132000D01*
X86085085Y-69132000D01*
X85963096Y-69354039D01*
X86003754Y-69488087D01*
X86123963Y-69742420D01*
X86291481Y-69968414D01*
X86499869Y-70157385D01*
X86691682Y-70272421D01*
X86553899Y-70346068D01*
X86335392Y-70525392D01*
X86156068Y-70743899D01*
X86022818Y-70993192D01*
X85940764Y-71263691D01*
X85913057Y-71545000D01*
X85940764Y-71826309D01*
X86022818Y-72096808D01*
X86156068Y-72346101D01*
X86335392Y-72564608D01*
X86553899Y-72743932D01*
X86686858Y-72815000D01*
X86553899Y-72886068D01*
X86335392Y-73065392D01*
X86156068Y-73283899D01*
X86022818Y-73533192D01*
X85940764Y-73803691D01*
X85913057Y-74085000D01*
X85940764Y-74366309D01*
X86022818Y-74636808D01*
X86156068Y-74886101D01*
X86335392Y-75104608D01*
X86488183Y-75230000D01*
X80598275Y-75230000D01*
X80798519Y-75048414D01*
X80966037Y-74822420D01*
X81086246Y-74568087D01*
X81126904Y-74434039D01*
X81004915Y-74212000D01*
X79862000Y-74212000D01*
X79862000Y-74232000D01*
X79608000Y-74232000D01*
X79608000Y-74212000D01*
X78465085Y-74212000D01*
X78343096Y-74434039D01*
X78383754Y-74568087D01*
X78503963Y-74822420D01*
X78671481Y-75048414D01*
X78871725Y-75230000D01*
X77509802Y-75230000D01*
X76488803Y-74209002D01*
X76488799Y-74208997D01*
X75854802Y-73575000D01*
X78396474Y-73575000D01*
X78383754Y-73601913D01*
X78343096Y-73735961D01*
X78465085Y-73958000D01*
X79608000Y-73958000D01*
X79608000Y-73938000D01*
X79862000Y-73938000D01*
X79862000Y-73958000D01*
X81004915Y-73958000D01*
X81126904Y-73735961D01*
X81086246Y-73601913D01*
X80966037Y-73347580D01*
X80798519Y-73121586D01*
X80590131Y-72932615D01*
X80398318Y-72817579D01*
X80536101Y-72743932D01*
X80754608Y-72564608D01*
X80933932Y-72346101D01*
X81067182Y-72096808D01*
X81149236Y-71826309D01*
X81176943Y-71545000D01*
X81149236Y-71263691D01*
X81067182Y-70993192D01*
X80933932Y-70743899D01*
X80754608Y-70525392D01*
X80536101Y-70346068D01*
X80403142Y-70275000D01*
X80536101Y-70203932D01*
X80754608Y-70024608D01*
X80933932Y-69806101D01*
X81067182Y-69556808D01*
X81149236Y-69286309D01*
X81176943Y-69005000D01*
X81149236Y-68723691D01*
X81067182Y-68453192D01*
X80933932Y-68203899D01*
X80754608Y-67985392D01*
X80536101Y-67806068D01*
X80403142Y-67735000D01*
X80536101Y-67663932D01*
X80754608Y-67484608D01*
X80933932Y-67266101D01*
X81067182Y-67016808D01*
X81149236Y-66746309D01*
X81176943Y-66465000D01*
X81149236Y-66183691D01*
X81067182Y-65913192D01*
X80933932Y-65663899D01*
X80754608Y-65445392D01*
X80536101Y-65266068D01*
X80403142Y-65195000D01*
X80536101Y-65123932D01*
X80754608Y-64944608D01*
X80933932Y-64726101D01*
X81067182Y-64476808D01*
X81149236Y-64206309D01*
X81176943Y-63925000D01*
X81149236Y-63643691D01*
X81067182Y-63373192D01*
X80933932Y-63123899D01*
X80754608Y-62905392D01*
X80536101Y-62726068D01*
X80403142Y-62655000D01*
X80536101Y-62583932D01*
X80754608Y-62404608D01*
X80933932Y-62186101D01*
X81067182Y-61936808D01*
X81149236Y-61666309D01*
X81176943Y-61385000D01*
X81174402Y-61359204D01*
X82836201Y-63021003D01*
G36*
X92310001Y-57889803D02*
G01*
X92310000Y-60712677D01*
X92306324Y-60750000D01*
X92310000Y-60787322D01*
X92310000Y-60787332D01*
X92320997Y-60898985D01*
X92350958Y-60997755D01*
X92364454Y-61042246D01*
X92435026Y-61174276D01*
X92474871Y-61222826D01*
X92529999Y-61290001D01*
X92559003Y-61313804D01*
X93534203Y-62289005D01*
X93511487Y-62363889D01*
X93482815Y-62655000D01*
X93511487Y-62946111D01*
X93596401Y-63226034D01*
X93734294Y-63484014D01*
X93919866Y-63710134D01*
X94145986Y-63895706D01*
X94210523Y-63930201D01*
X94093645Y-63999822D01*
X93877412Y-64194731D01*
X93703359Y-64428080D01*
X93578175Y-64690901D01*
X93533524Y-64838110D01*
X93654845Y-65068000D01*
X94848000Y-65068000D01*
X94848000Y-65048000D01*
X95102000Y-65048000D01*
X95102000Y-65068000D01*
X95122000Y-65068000D01*
X95122000Y-65322000D01*
X95102000Y-65322000D01*
X95102000Y-67608000D01*
X95122000Y-67608000D01*
X95122000Y-67862000D01*
X95102000Y-67862000D01*
X95102000Y-67882000D01*
X94848000Y-67882000D01*
X94848000Y-67862000D01*
X93654845Y-67862000D01*
X93533524Y-68091890D01*
X93578175Y-68239099D01*
X93703359Y-68501920D01*
X93877412Y-68735269D01*
X94093645Y-68930178D01*
X94210523Y-68999799D01*
X94145986Y-69034294D01*
X93919866Y-69219866D01*
X93734294Y-69445986D01*
X93596401Y-69703966D01*
X93511487Y-69983889D01*
X93482815Y-70275000D01*
X93511487Y-70566111D01*
X93596401Y-70846034D01*
X93734294Y-71104014D01*
X93919866Y-71330134D01*
X94078097Y-71459991D01*
X92664203Y-71459991D01*
X89690011Y-68485800D01*
X89690011Y-65551890D01*
X93533524Y-65551890D01*
X93578175Y-65699099D01*
X93703359Y-65961920D01*
X93877412Y-66195269D01*
X94093645Y-66390178D01*
X94219255Y-66465000D01*
X94093645Y-66539822D01*
X93877412Y-66734731D01*
X93703359Y-66968080D01*
X93578175Y-67230901D01*
X93533524Y-67378110D01*
X93654845Y-67608000D01*
X94848000Y-67608000D01*
X94848000Y-65322000D01*
X93654845Y-65322000D01*
X93533524Y-65551890D01*
X89690011Y-65551890D01*
X89690011Y-63235922D01*
X89693687Y-63198599D01*
X89690011Y-63161276D01*
X89690011Y-63161266D01*
X89679014Y-63049613D01*
X89635557Y-62906352D01*
X89591518Y-62823962D01*
X89564985Y-62774322D01*
X89493810Y-62687596D01*
X89470012Y-62658598D01*
X89441015Y-62634801D01*
X88700178Y-61893965D01*
X88769236Y-61666309D01*
X88796943Y-61385000D01*
X88769236Y-61103691D01*
X88687182Y-60833192D01*
X88553932Y-60583899D01*
X88374608Y-60365392D01*
X88156101Y-60186068D01*
X88023142Y-60115000D01*
X88156101Y-60043932D01*
X88374608Y-59864608D01*
X88553932Y-59646101D01*
X88687182Y-59396808D01*
X88769236Y-59126309D01*
X88796943Y-58845000D01*
X88769236Y-58563691D01*
X88687182Y-58293192D01*
X88553932Y-58043899D01*
X88374608Y-57825392D01*
X88156101Y-57646068D01*
X88023142Y-57575000D01*
X88156101Y-57503932D01*
X88374608Y-57324608D01*
X88553932Y-57106101D01*
X88575901Y-57065000D01*
X91485199Y-57065000D01*
X92310001Y-57889803D01*
X92310001Y-57889803D01*
G37*
X92310001Y-57889803D02*
X92310000Y-60712677D01*
X92306324Y-60750000D01*
X92310000Y-60787322D01*
X92310000Y-60787332D01*
X92320997Y-60898985D01*
X92350958Y-60997755D01*
X92364454Y-61042246D01*
X92435026Y-61174276D01*
X92474871Y-61222826D01*
X92529999Y-61290001D01*
X92559003Y-61313804D01*
X93534203Y-62289005D01*
X93511487Y-62363889D01*
X93482815Y-62655000D01*
X93511487Y-62946111D01*
X93596401Y-63226034D01*
X93734294Y-63484014D01*
X93919866Y-63710134D01*
X94145986Y-63895706D01*
X94210523Y-63930201D01*
X94093645Y-63999822D01*
X93877412Y-64194731D01*
X93703359Y-64428080D01*
X93578175Y-64690901D01*
X93533524Y-64838110D01*
X93654845Y-65068000D01*
X94848000Y-65068000D01*
X94848000Y-65048000D01*
X95102000Y-65048000D01*
X95102000Y-65068000D01*
X95122000Y-65068000D01*
X95122000Y-65322000D01*
X95102000Y-65322000D01*
X95102000Y-67608000D01*
X95122000Y-67608000D01*
X95122000Y-67862000D01*
X95102000Y-67862000D01*
X95102000Y-67882000D01*
X94848000Y-67882000D01*
X94848000Y-67862000D01*
X93654845Y-67862000D01*
X93533524Y-68091890D01*
X93578175Y-68239099D01*
X93703359Y-68501920D01*
X93877412Y-68735269D01*
X94093645Y-68930178D01*
X94210523Y-68999799D01*
X94145986Y-69034294D01*
X93919866Y-69219866D01*
X93734294Y-69445986D01*
X93596401Y-69703966D01*
X93511487Y-69983889D01*
X93482815Y-70275000D01*
X93511487Y-70566111D01*
X93596401Y-70846034D01*
X93734294Y-71104014D01*
X93919866Y-71330134D01*
X94078097Y-71459991D01*
X92664203Y-71459991D01*
X89690011Y-68485800D01*
X89690011Y-65551890D01*
X93533524Y-65551890D01*
X93578175Y-65699099D01*
X93703359Y-65961920D01*
X93877412Y-66195269D01*
X94093645Y-66390178D01*
X94219255Y-66465000D01*
X94093645Y-66539822D01*
X93877412Y-66734731D01*
X93703359Y-66968080D01*
X93578175Y-67230901D01*
X93533524Y-67378110D01*
X93654845Y-67608000D01*
X94848000Y-67608000D01*
X94848000Y-65322000D01*
X93654845Y-65322000D01*
X93533524Y-65551890D01*
X89690011Y-65551890D01*
X89690011Y-63235922D01*
X89693687Y-63198599D01*
X89690011Y-63161276D01*
X89690011Y-63161266D01*
X89679014Y-63049613D01*
X89635557Y-62906352D01*
X89591518Y-62823962D01*
X89564985Y-62774322D01*
X89493810Y-62687596D01*
X89470012Y-62658598D01*
X89441015Y-62634801D01*
X88700178Y-61893965D01*
X88769236Y-61666309D01*
X88796943Y-61385000D01*
X88769236Y-61103691D01*
X88687182Y-60833192D01*
X88553932Y-60583899D01*
X88374608Y-60365392D01*
X88156101Y-60186068D01*
X88023142Y-60115000D01*
X88156101Y-60043932D01*
X88374608Y-59864608D01*
X88553932Y-59646101D01*
X88687182Y-59396808D01*
X88769236Y-59126309D01*
X88796943Y-58845000D01*
X88769236Y-58563691D01*
X88687182Y-58293192D01*
X88553932Y-58043899D01*
X88374608Y-57825392D01*
X88156101Y-57646068D01*
X88023142Y-57575000D01*
X88156101Y-57503932D01*
X88374608Y-57324608D01*
X88553932Y-57106101D01*
X88575901Y-57065000D01*
X91485199Y-57065000D01*
X92310001Y-57889803D01*
G36*
X104380498Y-55260820D02*
G01*
X104344188Y-55380518D01*
X104331928Y-55505000D01*
X104331928Y-57105000D01*
X104344188Y-57229482D01*
X104380498Y-57349180D01*
X104439463Y-57459494D01*
X104518815Y-57556185D01*
X104615506Y-57635537D01*
X104725820Y-57694502D01*
X104845518Y-57730812D01*
X104863482Y-57732581D01*
X104750392Y-57825392D01*
X104571068Y-58043899D01*
X104437818Y-58293192D01*
X104355764Y-58563691D01*
X104328057Y-58845000D01*
X104355764Y-59126309D01*
X104437818Y-59396808D01*
X104571068Y-59646101D01*
X104750392Y-59864608D01*
X104968899Y-60043932D01*
X105101858Y-60115000D01*
X104968899Y-60186068D01*
X104750392Y-60365392D01*
X104571068Y-60583899D01*
X104437818Y-60833192D01*
X104355764Y-61103691D01*
X104328057Y-61385000D01*
X104355764Y-61666309D01*
X104437818Y-61936808D01*
X104571068Y-62186101D01*
X104750392Y-62404608D01*
X104968899Y-62583932D01*
X105101858Y-62655000D01*
X104968899Y-62726068D01*
X104750392Y-62905392D01*
X104571068Y-63123899D01*
X104437818Y-63373192D01*
X104355764Y-63643691D01*
X104328057Y-63925000D01*
X104355764Y-64206309D01*
X104437818Y-64476808D01*
X104571068Y-64726101D01*
X104750392Y-64944608D01*
X104968899Y-65123932D01*
X105106682Y-65197579D01*
X104914869Y-65312615D01*
X104706481Y-65501586D01*
X104538963Y-65727580D01*
X104418754Y-65981913D01*
X104378096Y-66115961D01*
X104500085Y-66338000D01*
X105643000Y-66338000D01*
X105643000Y-66318000D01*
X105897000Y-66318000D01*
X105897000Y-66338000D01*
X107039915Y-66338000D01*
X107161904Y-66115961D01*
X107121246Y-65981913D01*
X107001037Y-65727580D01*
X106833519Y-65501586D01*
X106625131Y-65312615D01*
X106433318Y-65197579D01*
X106571101Y-65123932D01*
X106789608Y-64944608D01*
X106968932Y-64726101D01*
X107102182Y-64476808D01*
X107184236Y-64206309D01*
X107211943Y-63925000D01*
X107184236Y-63643691D01*
X107102182Y-63373192D01*
X106968932Y-63123899D01*
X106789608Y-62905392D01*
X106571101Y-62726068D01*
X106438142Y-62655000D01*
X106571101Y-62583932D01*
X106789608Y-62404608D01*
X106968932Y-62186101D01*
X107102182Y-61936808D01*
X107184236Y-61666309D01*
X107211943Y-61385000D01*
X107184236Y-61103691D01*
X107102182Y-60833192D01*
X106968932Y-60583899D01*
X106789608Y-60365392D01*
X106571101Y-60186068D01*
X106438142Y-60115000D01*
X106571101Y-60043932D01*
X106789608Y-59864608D01*
X106968932Y-59646101D01*
X107102182Y-59396808D01*
X107184236Y-59126309D01*
X107211943Y-58845000D01*
X107184236Y-58563691D01*
X107102182Y-58293192D01*
X106968932Y-58043899D01*
X106789608Y-57825392D01*
X106676518Y-57732581D01*
X106694482Y-57730812D01*
X106814180Y-57694502D01*
X106924494Y-57635537D01*
X107021185Y-57556185D01*
X107100537Y-57459494D01*
X107159502Y-57349180D01*
X107195812Y-57229482D01*
X107208072Y-57105000D01*
X107208072Y-55505000D01*
X107195812Y-55380518D01*
X107159502Y-55260820D01*
X107105612Y-55160000D01*
X111170199Y-55160000D01*
X111989292Y-55979094D01*
X111975764Y-56023691D01*
X111948057Y-56305000D01*
X111975764Y-56586309D01*
X112057818Y-56856808D01*
X112191068Y-57106101D01*
X112370392Y-57324608D01*
X112588899Y-57503932D01*
X112721858Y-57575000D01*
X112588899Y-57646068D01*
X112370392Y-57825392D01*
X112191068Y-58043899D01*
X112057818Y-58293192D01*
X111975764Y-58563691D01*
X111948057Y-58845000D01*
X111975764Y-59126309D01*
X112057818Y-59396808D01*
X112191068Y-59646101D01*
X112370392Y-59864608D01*
X112588899Y-60043932D01*
X112721858Y-60115000D01*
X112588899Y-60186068D01*
X112370392Y-60365392D01*
X112191068Y-60583899D01*
X112057818Y-60833192D01*
X111975764Y-61103691D01*
X111948057Y-61385000D01*
X111975764Y-61666309D01*
X112057818Y-61936808D01*
X112191068Y-62186101D01*
X112370392Y-62404608D01*
X112588899Y-62583932D01*
X112721858Y-62655000D01*
X112588899Y-62726068D01*
X112370392Y-62905392D01*
X112191068Y-63123899D01*
X112057818Y-63373192D01*
X111975764Y-63643691D01*
X111948057Y-63925000D01*
X111975764Y-64206309D01*
X112057818Y-64476808D01*
X112191068Y-64726101D01*
X112370392Y-64944608D01*
X112588899Y-65123932D01*
X112721858Y-65195000D01*
X112588899Y-65266068D01*
X112370392Y-65445392D01*
X112191068Y-65663899D01*
X112057818Y-65913192D01*
X111975764Y-66183691D01*
X111948057Y-66465000D01*
X111975764Y-66746309D01*
X112057818Y-67016808D01*
X112191068Y-67266101D01*
X112370392Y-67484608D01*
X112588899Y-67663932D01*
X112721858Y-67735000D01*
X112588899Y-67806068D01*
X112370392Y-67985392D01*
X112191068Y-68203899D01*
X112057818Y-68453192D01*
X111975764Y-68723691D01*
X111948057Y-69005000D01*
X111975764Y-69286309D01*
X112001151Y-69370001D01*
X107158849Y-69370001D01*
X107184236Y-69286309D01*
X107211943Y-69005000D01*
X107184236Y-68723691D01*
X107102182Y-68453192D01*
X106968932Y-68203899D01*
X106789608Y-67985392D01*
X106571101Y-67806068D01*
X106433318Y-67732421D01*
X106625131Y-67617385D01*
X106833519Y-67428414D01*
X107001037Y-67202420D01*
X107121246Y-66948087D01*
X107161904Y-66814039D01*
X107039915Y-66592000D01*
X105897000Y-66592000D01*
X105897000Y-66612000D01*
X105643000Y-66612000D01*
X105643000Y-66592000D01*
X104500085Y-66592000D01*
X104378096Y-66814039D01*
X104418754Y-66948087D01*
X104538963Y-67202420D01*
X104706481Y-67428414D01*
X104914869Y-67617385D01*
X105106682Y-67732421D01*
X104968899Y-67806068D01*
X104750392Y-67985392D01*
X104571068Y-68203899D01*
X104437818Y-68453192D01*
X104355764Y-68723691D01*
X104328057Y-69005000D01*
X104355764Y-69286309D01*
X104437818Y-69556808D01*
X104453864Y-69586829D01*
X104450000Y-69590000D01*
X104426202Y-69618998D01*
X102585210Y-71459991D01*
X98411903Y-71459991D01*
X98570134Y-71330134D01*
X98755706Y-71104014D01*
X98893599Y-70846034D01*
X98978513Y-70566111D01*
X99007185Y-70275000D01*
X98978513Y-69983889D01*
X98893599Y-69703966D01*
X98755706Y-69445986D01*
X98570134Y-69219866D01*
X98344014Y-69034294D01*
X98289209Y-69005000D01*
X98344014Y-68975706D01*
X98570134Y-68790134D01*
X98755706Y-68564014D01*
X98893599Y-68306034D01*
X98978513Y-68026111D01*
X99007185Y-67735000D01*
X98978513Y-67443889D01*
X98893599Y-67163966D01*
X98755706Y-66905986D01*
X98570134Y-66679866D01*
X98344014Y-66494294D01*
X98289209Y-66465000D01*
X98344014Y-66435706D01*
X98570134Y-66250134D01*
X98755706Y-66024014D01*
X98893599Y-65766034D01*
X98978513Y-65486111D01*
X99007185Y-65195000D01*
X98978513Y-64903889D01*
X98893599Y-64623966D01*
X98755706Y-64365986D01*
X98570134Y-64139866D01*
X98344014Y-63954294D01*
X98289209Y-63925000D01*
X98344014Y-63895706D01*
X98570134Y-63710134D01*
X98755706Y-63484014D01*
X98893599Y-63226034D01*
X98978513Y-62946111D01*
X99007185Y-62655000D01*
X98978513Y-62363889D01*
X98893599Y-62083966D01*
X98755706Y-61825986D01*
X98570134Y-61599866D01*
X98344014Y-61414294D01*
X98289209Y-61385000D01*
X98344014Y-61355706D01*
X98570134Y-61170134D01*
X98755706Y-60944014D01*
X98893599Y-60686034D01*
X98978513Y-60406111D01*
X99007185Y-60115000D01*
X98978513Y-59823889D01*
X98893599Y-59543966D01*
X98755706Y-59285986D01*
X98570134Y-59059866D01*
X98344014Y-58874294D01*
X98086034Y-58736401D01*
X97806111Y-58651487D01*
X97587950Y-58630000D01*
X97442050Y-58630000D01*
X97223889Y-58651487D01*
X97099999Y-58689069D01*
X97099999Y-57794802D01*
X99734802Y-55160000D01*
X104434388Y-55160000D01*
X104380498Y-55260820D01*
X104380498Y-55260820D01*
G37*
X104380498Y-55260820D02*
X104344188Y-55380518D01*
X104331928Y-55505000D01*
X104331928Y-57105000D01*
X104344188Y-57229482D01*
X104380498Y-57349180D01*
X104439463Y-57459494D01*
X104518815Y-57556185D01*
X104615506Y-57635537D01*
X104725820Y-57694502D01*
X104845518Y-57730812D01*
X104863482Y-57732581D01*
X104750392Y-57825392D01*
X104571068Y-58043899D01*
X104437818Y-58293192D01*
X104355764Y-58563691D01*
X104328057Y-58845000D01*
X104355764Y-59126309D01*
X104437818Y-59396808D01*
X104571068Y-59646101D01*
X104750392Y-59864608D01*
X104968899Y-60043932D01*
X105101858Y-60115000D01*
X104968899Y-60186068D01*
X104750392Y-60365392D01*
X104571068Y-60583899D01*
X104437818Y-60833192D01*
X104355764Y-61103691D01*
X104328057Y-61385000D01*
X104355764Y-61666309D01*
X104437818Y-61936808D01*
X104571068Y-62186101D01*
X104750392Y-62404608D01*
X104968899Y-62583932D01*
X105101858Y-62655000D01*
X104968899Y-62726068D01*
X104750392Y-62905392D01*
X104571068Y-63123899D01*
X104437818Y-63373192D01*
X104355764Y-63643691D01*
X104328057Y-63925000D01*
X104355764Y-64206309D01*
X104437818Y-64476808D01*
X104571068Y-64726101D01*
X104750392Y-64944608D01*
X104968899Y-65123932D01*
X105106682Y-65197579D01*
X104914869Y-65312615D01*
X104706481Y-65501586D01*
X104538963Y-65727580D01*
X104418754Y-65981913D01*
X104378096Y-66115961D01*
X104500085Y-66338000D01*
X105643000Y-66338000D01*
X105643000Y-66318000D01*
X105897000Y-66318000D01*
X105897000Y-66338000D01*
X107039915Y-66338000D01*
X107161904Y-66115961D01*
X107121246Y-65981913D01*
X107001037Y-65727580D01*
X106833519Y-65501586D01*
X106625131Y-65312615D01*
X106433318Y-65197579D01*
X106571101Y-65123932D01*
X106789608Y-64944608D01*
X106968932Y-64726101D01*
X107102182Y-64476808D01*
X107184236Y-64206309D01*
X107211943Y-63925000D01*
X107184236Y-63643691D01*
X107102182Y-63373192D01*
X106968932Y-63123899D01*
X106789608Y-62905392D01*
X106571101Y-62726068D01*
X106438142Y-62655000D01*
X106571101Y-62583932D01*
X106789608Y-62404608D01*
X106968932Y-62186101D01*
X107102182Y-61936808D01*
X107184236Y-61666309D01*
X107211943Y-61385000D01*
X107184236Y-61103691D01*
X107102182Y-60833192D01*
X106968932Y-60583899D01*
X106789608Y-60365392D01*
X106571101Y-60186068D01*
X106438142Y-60115000D01*
X106571101Y-60043932D01*
X106789608Y-59864608D01*
X106968932Y-59646101D01*
X107102182Y-59396808D01*
X107184236Y-59126309D01*
X107211943Y-58845000D01*
X107184236Y-58563691D01*
X107102182Y-58293192D01*
X106968932Y-58043899D01*
X106789608Y-57825392D01*
X106676518Y-57732581D01*
X106694482Y-57730812D01*
X106814180Y-57694502D01*
X106924494Y-57635537D01*
X107021185Y-57556185D01*
X107100537Y-57459494D01*
X107159502Y-57349180D01*
X107195812Y-57229482D01*
X107208072Y-57105000D01*
X107208072Y-55505000D01*
X107195812Y-55380518D01*
X107159502Y-55260820D01*
X107105612Y-55160000D01*
X111170199Y-55160000D01*
X111989292Y-55979094D01*
X111975764Y-56023691D01*
X111948057Y-56305000D01*
X111975764Y-56586309D01*
X112057818Y-56856808D01*
X112191068Y-57106101D01*
X112370392Y-57324608D01*
X112588899Y-57503932D01*
X112721858Y-57575000D01*
X112588899Y-57646068D01*
X112370392Y-57825392D01*
X112191068Y-58043899D01*
X112057818Y-58293192D01*
X111975764Y-58563691D01*
X111948057Y-58845000D01*
X111975764Y-59126309D01*
X112057818Y-59396808D01*
X112191068Y-59646101D01*
X112370392Y-59864608D01*
X112588899Y-60043932D01*
X112721858Y-60115000D01*
X112588899Y-60186068D01*
X112370392Y-60365392D01*
X112191068Y-60583899D01*
X112057818Y-60833192D01*
X111975764Y-61103691D01*
X111948057Y-61385000D01*
X111975764Y-61666309D01*
X112057818Y-61936808D01*
X112191068Y-62186101D01*
X112370392Y-62404608D01*
X112588899Y-62583932D01*
X112721858Y-62655000D01*
X112588899Y-62726068D01*
X112370392Y-62905392D01*
X112191068Y-63123899D01*
X112057818Y-63373192D01*
X111975764Y-63643691D01*
X111948057Y-63925000D01*
X111975764Y-64206309D01*
X112057818Y-64476808D01*
X112191068Y-64726101D01*
X112370392Y-64944608D01*
X112588899Y-65123932D01*
X112721858Y-65195000D01*
X112588899Y-65266068D01*
X112370392Y-65445392D01*
X112191068Y-65663899D01*
X112057818Y-65913192D01*
X111975764Y-66183691D01*
X111948057Y-66465000D01*
X111975764Y-66746309D01*
X112057818Y-67016808D01*
X112191068Y-67266101D01*
X112370392Y-67484608D01*
X112588899Y-67663932D01*
X112721858Y-67735000D01*
X112588899Y-67806068D01*
X112370392Y-67985392D01*
X112191068Y-68203899D01*
X112057818Y-68453192D01*
X111975764Y-68723691D01*
X111948057Y-69005000D01*
X111975764Y-69286309D01*
X112001151Y-69370001D01*
X107158849Y-69370001D01*
X107184236Y-69286309D01*
X107211943Y-69005000D01*
X107184236Y-68723691D01*
X107102182Y-68453192D01*
X106968932Y-68203899D01*
X106789608Y-67985392D01*
X106571101Y-67806068D01*
X106433318Y-67732421D01*
X106625131Y-67617385D01*
X106833519Y-67428414D01*
X107001037Y-67202420D01*
X107121246Y-66948087D01*
X107161904Y-66814039D01*
X107039915Y-66592000D01*
X105897000Y-66592000D01*
X105897000Y-66612000D01*
X105643000Y-66612000D01*
X105643000Y-66592000D01*
X104500085Y-66592000D01*
X104378096Y-66814039D01*
X104418754Y-66948087D01*
X104538963Y-67202420D01*
X104706481Y-67428414D01*
X104914869Y-67617385D01*
X105106682Y-67732421D01*
X104968899Y-67806068D01*
X104750392Y-67985392D01*
X104571068Y-68203899D01*
X104437818Y-68453192D01*
X104355764Y-68723691D01*
X104328057Y-69005000D01*
X104355764Y-69286309D01*
X104437818Y-69556808D01*
X104453864Y-69586829D01*
X104450000Y-69590000D01*
X104426202Y-69618998D01*
X102585210Y-71459991D01*
X98411903Y-71459991D01*
X98570134Y-71330134D01*
X98755706Y-71104014D01*
X98893599Y-70846034D01*
X98978513Y-70566111D01*
X99007185Y-70275000D01*
X98978513Y-69983889D01*
X98893599Y-69703966D01*
X98755706Y-69445986D01*
X98570134Y-69219866D01*
X98344014Y-69034294D01*
X98289209Y-69005000D01*
X98344014Y-68975706D01*
X98570134Y-68790134D01*
X98755706Y-68564014D01*
X98893599Y-68306034D01*
X98978513Y-68026111D01*
X99007185Y-67735000D01*
X98978513Y-67443889D01*
X98893599Y-67163966D01*
X98755706Y-66905986D01*
X98570134Y-66679866D01*
X98344014Y-66494294D01*
X98289209Y-66465000D01*
X98344014Y-66435706D01*
X98570134Y-66250134D01*
X98755706Y-66024014D01*
X98893599Y-65766034D01*
X98978513Y-65486111D01*
X99007185Y-65195000D01*
X98978513Y-64903889D01*
X98893599Y-64623966D01*
X98755706Y-64365986D01*
X98570134Y-64139866D01*
X98344014Y-63954294D01*
X98289209Y-63925000D01*
X98344014Y-63895706D01*
X98570134Y-63710134D01*
X98755706Y-63484014D01*
X98893599Y-63226034D01*
X98978513Y-62946111D01*
X99007185Y-62655000D01*
X98978513Y-62363889D01*
X98893599Y-62083966D01*
X98755706Y-61825986D01*
X98570134Y-61599866D01*
X98344014Y-61414294D01*
X98289209Y-61385000D01*
X98344014Y-61355706D01*
X98570134Y-61170134D01*
X98755706Y-60944014D01*
X98893599Y-60686034D01*
X98978513Y-60406111D01*
X99007185Y-60115000D01*
X98978513Y-59823889D01*
X98893599Y-59543966D01*
X98755706Y-59285986D01*
X98570134Y-59059866D01*
X98344014Y-58874294D01*
X98086034Y-58736401D01*
X97806111Y-58651487D01*
X97587950Y-58630000D01*
X97442050Y-58630000D01*
X97223889Y-58651487D01*
X97099999Y-58689069D01*
X97099999Y-57794802D01*
X99734802Y-55160000D01*
X104434388Y-55160000D01*
X104380498Y-55260820D01*
G36*
X137647000Y-55543000D02*
G01*
X139933000Y-55543000D01*
X139933000Y-55523000D01*
X140187000Y-55523000D01*
X140187000Y-55543000D01*
X140207000Y-55543000D01*
X140207000Y-55797000D01*
X140187000Y-55797000D01*
X140187000Y-56990155D01*
X140416890Y-57111476D01*
X140564099Y-57066825D01*
X140826920Y-56941641D01*
X141060269Y-56767588D01*
X141205000Y-56607022D01*
X141205001Y-59712668D01*
X141201324Y-59750000D01*
X141205001Y-59787332D01*
X141205001Y-59787333D01*
X141215998Y-59898986D01*
X141218632Y-59907668D01*
X141259454Y-60042246D01*
X141330026Y-60174276D01*
X141374940Y-60229003D01*
X141425000Y-60290001D01*
X141453998Y-60313799D01*
X142136354Y-60996156D01*
X142120498Y-61025820D01*
X142084188Y-61145518D01*
X142071928Y-61270000D01*
X142071928Y-62770000D01*
X142084188Y-62894482D01*
X142120498Y-63014180D01*
X142179463Y-63124494D01*
X142258815Y-63221185D01*
X142355506Y-63300537D01*
X142465820Y-63359502D01*
X142585518Y-63395812D01*
X142710000Y-63408072D01*
X143760000Y-63408072D01*
X143884482Y-63395812D01*
X144004180Y-63359502D01*
X144068902Y-63324907D01*
X144277601Y-63388215D01*
X144505000Y-63410612D01*
X144732400Y-63388215D01*
X144951060Y-63321885D01*
X145140001Y-63220894D01*
X145328941Y-63321885D01*
X145547601Y-63388215D01*
X145775000Y-63410612D01*
X145857735Y-63402463D01*
X145463886Y-63796312D01*
X145281335Y-63760000D01*
X144998665Y-63760000D01*
X144721426Y-63815147D01*
X144460273Y-63923320D01*
X144225241Y-64080363D01*
X144025363Y-64280241D01*
X143918481Y-64440202D01*
X143859644Y-64445997D01*
X143716383Y-64489454D01*
X143584354Y-64560026D01*
X143468629Y-64654999D01*
X143444831Y-64683997D01*
X139883829Y-68245000D01*
X114610901Y-68245000D01*
X114588932Y-68203899D01*
X114442113Y-68024999D01*
X130471309Y-68024999D01*
X130508631Y-68028675D01*
X130545953Y-68024999D01*
X130545964Y-68024999D01*
X130657617Y-68014002D01*
X130800878Y-67970545D01*
X130932907Y-67899973D01*
X131048632Y-67805000D01*
X131072435Y-67775996D01*
X132667018Y-66181414D01*
X132795241Y-66309637D01*
X133030273Y-66466680D01*
X133291426Y-66574853D01*
X133568665Y-66630000D01*
X133851335Y-66630000D01*
X134128574Y-66574853D01*
X134389727Y-66466680D01*
X134624759Y-66309637D01*
X134824637Y-66109759D01*
X134981680Y-65874727D01*
X135089853Y-65613574D01*
X135145000Y-65336335D01*
X135145000Y-65053665D01*
X135450000Y-65053665D01*
X135450000Y-65336335D01*
X135505147Y-65613574D01*
X135613320Y-65874727D01*
X135770363Y-66109759D01*
X135970241Y-66309637D01*
X136205273Y-66466680D01*
X136466426Y-66574853D01*
X136743665Y-66630000D01*
X137026335Y-66630000D01*
X137303574Y-66574853D01*
X137564727Y-66466680D01*
X137799759Y-66309637D01*
X137999637Y-66109759D01*
X138156680Y-65874727D01*
X138264853Y-65613574D01*
X138320000Y-65336335D01*
X138320000Y-65053665D01*
X138625000Y-65053665D01*
X138625000Y-65336335D01*
X138680147Y-65613574D01*
X138788320Y-65874727D01*
X138945363Y-66109759D01*
X139145241Y-66309637D01*
X139380273Y-66466680D01*
X139641426Y-66574853D01*
X139918665Y-66630000D01*
X140201335Y-66630000D01*
X140478574Y-66574853D01*
X140739727Y-66466680D01*
X140974759Y-66309637D01*
X141174637Y-66109759D01*
X141331680Y-65874727D01*
X141439853Y-65613574D01*
X141495000Y-65336335D01*
X141495000Y-65053665D01*
X141439853Y-64776426D01*
X141331680Y-64515273D01*
X141174637Y-64280241D01*
X140974759Y-64080363D01*
X140739727Y-63923320D01*
X140478574Y-63815147D01*
X140201335Y-63760000D01*
X139918665Y-63760000D01*
X139641426Y-63815147D01*
X139380273Y-63923320D01*
X139145241Y-64080363D01*
X138945363Y-64280241D01*
X138788320Y-64515273D01*
X138680147Y-64776426D01*
X138625000Y-65053665D01*
X138320000Y-65053665D01*
X138264853Y-64776426D01*
X138156680Y-64515273D01*
X137999637Y-64280241D01*
X137799759Y-64080363D01*
X137564727Y-63923320D01*
X137303574Y-63815147D01*
X137026335Y-63760000D01*
X136743665Y-63760000D01*
X136466426Y-63815147D01*
X136205273Y-63923320D01*
X135970241Y-64080363D01*
X135770363Y-64280241D01*
X135613320Y-64515273D01*
X135505147Y-64776426D01*
X135450000Y-65053665D01*
X135145000Y-65053665D01*
X135108688Y-64871114D01*
X136126003Y-63853799D01*
X136155001Y-63830001D01*
X136249974Y-63714276D01*
X136320546Y-63582247D01*
X136364003Y-63438986D01*
X136375000Y-63327333D01*
X136375000Y-63327323D01*
X136378676Y-63290000D01*
X136375000Y-63252677D01*
X136375000Y-62913642D01*
X136405498Y-63014180D01*
X136464463Y-63124494D01*
X136543815Y-63221185D01*
X136640506Y-63300537D01*
X136750820Y-63359502D01*
X136870518Y-63395812D01*
X136995000Y-63408072D01*
X137234250Y-63405000D01*
X137393000Y-63246250D01*
X137393000Y-62147000D01*
X137373000Y-62147000D01*
X137373000Y-61893000D01*
X137393000Y-61893000D01*
X137393000Y-61738022D01*
X137630000Y-61738022D01*
X137630000Y-62301979D01*
X137646785Y-62472400D01*
X137647000Y-62473109D01*
X137647000Y-63246250D01*
X137805750Y-63405000D01*
X138045000Y-63408072D01*
X138169482Y-63395812D01*
X138289180Y-63359502D01*
X138353902Y-63324907D01*
X138562601Y-63388215D01*
X138790000Y-63410612D01*
X139017400Y-63388215D01*
X139236060Y-63321885D01*
X139425001Y-63220894D01*
X139613941Y-63321885D01*
X139832601Y-63388215D01*
X140060000Y-63410612D01*
X140287400Y-63388215D01*
X140506060Y-63321885D01*
X140707579Y-63214171D01*
X140884212Y-63069212D01*
X141029171Y-62892579D01*
X141136885Y-62691059D01*
X141203215Y-62472399D01*
X141220000Y-62301978D01*
X141220000Y-61738021D01*
X141203215Y-61567600D01*
X141136885Y-61348940D01*
X141029171Y-61147421D01*
X140884212Y-60970788D01*
X140707578Y-60825829D01*
X140506059Y-60718115D01*
X140287399Y-60651785D01*
X140060000Y-60629388D01*
X139832600Y-60651785D01*
X139613940Y-60718115D01*
X139425000Y-60819106D01*
X139236059Y-60718115D01*
X139017399Y-60651785D01*
X138790000Y-60629388D01*
X138562600Y-60651785D01*
X138353902Y-60715093D01*
X138289180Y-60680498D01*
X138169482Y-60644188D01*
X138045000Y-60631928D01*
X137805750Y-60635000D01*
X137647000Y-60793750D01*
X137647000Y-61566892D01*
X137646785Y-61567601D01*
X137630000Y-61738022D01*
X137393000Y-61738022D01*
X137393000Y-60793750D01*
X137234250Y-60635000D01*
X136995000Y-60631928D01*
X136870518Y-60644188D01*
X136750820Y-60680498D01*
X136640506Y-60739463D01*
X136543815Y-60818815D01*
X136464463Y-60915506D01*
X136405498Y-61025820D01*
X136375000Y-61126358D01*
X136375000Y-59982322D01*
X136378676Y-59944999D01*
X136375000Y-59907676D01*
X136375000Y-59907667D01*
X136364003Y-59796014D01*
X136320546Y-59652753D01*
X136292891Y-59601015D01*
X136249974Y-59520723D01*
X136178799Y-59433997D01*
X136155001Y-59404999D01*
X136126004Y-59381202D01*
X133727345Y-56982543D01*
X133741185Y-56971185D01*
X133820537Y-56874494D01*
X133879502Y-56764180D01*
X133900393Y-56695313D01*
X133924866Y-56725134D01*
X134150986Y-56910706D01*
X134408966Y-57048599D01*
X134688889Y-57133513D01*
X134907050Y-57155000D01*
X135052950Y-57155000D01*
X135271111Y-57133513D01*
X135551034Y-57048599D01*
X135809014Y-56910706D01*
X136035134Y-56725134D01*
X136220706Y-56499014D01*
X136255201Y-56434477D01*
X136324822Y-56551355D01*
X136519731Y-56767588D01*
X136753080Y-56941641D01*
X137015901Y-57066825D01*
X137163110Y-57111476D01*
X137393000Y-56990155D01*
X137393000Y-55797000D01*
X137647000Y-55797000D01*
X137647000Y-56990155D01*
X137876890Y-57111476D01*
X138024099Y-57066825D01*
X138286920Y-56941641D01*
X138520269Y-56767588D01*
X138715178Y-56551355D01*
X138790000Y-56425745D01*
X138864822Y-56551355D01*
X139059731Y-56767588D01*
X139293080Y-56941641D01*
X139555901Y-57066825D01*
X139703110Y-57111476D01*
X139933000Y-56990155D01*
X139933000Y-55797000D01*
X137647000Y-55797000D01*
X137393000Y-55797000D01*
X137373000Y-55797000D01*
X137373000Y-55543000D01*
X137393000Y-55543000D01*
X137393000Y-55523000D01*
X137647000Y-55523000D01*
X137647000Y-55543000D01*
X137647000Y-55543000D01*
G37*
X137647000Y-55543000D02*
X139933000Y-55543000D01*
X139933000Y-55523000D01*
X140187000Y-55523000D01*
X140187000Y-55543000D01*
X140207000Y-55543000D01*
X140207000Y-55797000D01*
X140187000Y-55797000D01*
X140187000Y-56990155D01*
X140416890Y-57111476D01*
X140564099Y-57066825D01*
X140826920Y-56941641D01*
X141060269Y-56767588D01*
X141205000Y-56607022D01*
X141205001Y-59712668D01*
X141201324Y-59750000D01*
X141205001Y-59787332D01*
X141205001Y-59787333D01*
X141215998Y-59898986D01*
X141218632Y-59907668D01*
X141259454Y-60042246D01*
X141330026Y-60174276D01*
X141374940Y-60229003D01*
X141425000Y-60290001D01*
X141453998Y-60313799D01*
X142136354Y-60996156D01*
X142120498Y-61025820D01*
X142084188Y-61145518D01*
X142071928Y-61270000D01*
X142071928Y-62770000D01*
X142084188Y-62894482D01*
X142120498Y-63014180D01*
X142179463Y-63124494D01*
X142258815Y-63221185D01*
X142355506Y-63300537D01*
X142465820Y-63359502D01*
X142585518Y-63395812D01*
X142710000Y-63408072D01*
X143760000Y-63408072D01*
X143884482Y-63395812D01*
X144004180Y-63359502D01*
X144068902Y-63324907D01*
X144277601Y-63388215D01*
X144505000Y-63410612D01*
X144732400Y-63388215D01*
X144951060Y-63321885D01*
X145140001Y-63220894D01*
X145328941Y-63321885D01*
X145547601Y-63388215D01*
X145775000Y-63410612D01*
X145857735Y-63402463D01*
X145463886Y-63796312D01*
X145281335Y-63760000D01*
X144998665Y-63760000D01*
X144721426Y-63815147D01*
X144460273Y-63923320D01*
X144225241Y-64080363D01*
X144025363Y-64280241D01*
X143918481Y-64440202D01*
X143859644Y-64445997D01*
X143716383Y-64489454D01*
X143584354Y-64560026D01*
X143468629Y-64654999D01*
X143444831Y-64683997D01*
X139883829Y-68245000D01*
X114610901Y-68245000D01*
X114588932Y-68203899D01*
X114442113Y-68024999D01*
X130471309Y-68024999D01*
X130508631Y-68028675D01*
X130545953Y-68024999D01*
X130545964Y-68024999D01*
X130657617Y-68014002D01*
X130800878Y-67970545D01*
X130932907Y-67899973D01*
X131048632Y-67805000D01*
X131072435Y-67775996D01*
X132667018Y-66181414D01*
X132795241Y-66309637D01*
X133030273Y-66466680D01*
X133291426Y-66574853D01*
X133568665Y-66630000D01*
X133851335Y-66630000D01*
X134128574Y-66574853D01*
X134389727Y-66466680D01*
X134624759Y-66309637D01*
X134824637Y-66109759D01*
X134981680Y-65874727D01*
X135089853Y-65613574D01*
X135145000Y-65336335D01*
X135145000Y-65053665D01*
X135450000Y-65053665D01*
X135450000Y-65336335D01*
X135505147Y-65613574D01*
X135613320Y-65874727D01*
X135770363Y-66109759D01*
X135970241Y-66309637D01*
X136205273Y-66466680D01*
X136466426Y-66574853D01*
X136743665Y-66630000D01*
X137026335Y-66630000D01*
X137303574Y-66574853D01*
X137564727Y-66466680D01*
X137799759Y-66309637D01*
X137999637Y-66109759D01*
X138156680Y-65874727D01*
X138264853Y-65613574D01*
X138320000Y-65336335D01*
X138320000Y-65053665D01*
X138625000Y-65053665D01*
X138625000Y-65336335D01*
X138680147Y-65613574D01*
X138788320Y-65874727D01*
X138945363Y-66109759D01*
X139145241Y-66309637D01*
X139380273Y-66466680D01*
X139641426Y-66574853D01*
X139918665Y-66630000D01*
X140201335Y-66630000D01*
X140478574Y-66574853D01*
X140739727Y-66466680D01*
X140974759Y-66309637D01*
X141174637Y-66109759D01*
X141331680Y-65874727D01*
X141439853Y-65613574D01*
X141495000Y-65336335D01*
X141495000Y-65053665D01*
X141439853Y-64776426D01*
X141331680Y-64515273D01*
X141174637Y-64280241D01*
X140974759Y-64080363D01*
X140739727Y-63923320D01*
X140478574Y-63815147D01*
X140201335Y-63760000D01*
X139918665Y-63760000D01*
X139641426Y-63815147D01*
X139380273Y-63923320D01*
X139145241Y-64080363D01*
X138945363Y-64280241D01*
X138788320Y-64515273D01*
X138680147Y-64776426D01*
X138625000Y-65053665D01*
X138320000Y-65053665D01*
X138264853Y-64776426D01*
X138156680Y-64515273D01*
X137999637Y-64280241D01*
X137799759Y-64080363D01*
X137564727Y-63923320D01*
X137303574Y-63815147D01*
X137026335Y-63760000D01*
X136743665Y-63760000D01*
X136466426Y-63815147D01*
X136205273Y-63923320D01*
X135970241Y-64080363D01*
X135770363Y-64280241D01*
X135613320Y-64515273D01*
X135505147Y-64776426D01*
X135450000Y-65053665D01*
X135145000Y-65053665D01*
X135108688Y-64871114D01*
X136126003Y-63853799D01*
X136155001Y-63830001D01*
X136249974Y-63714276D01*
X136320546Y-63582247D01*
X136364003Y-63438986D01*
X136375000Y-63327333D01*
X136375000Y-63327323D01*
X136378676Y-63290000D01*
X136375000Y-63252677D01*
X136375000Y-62913642D01*
X136405498Y-63014180D01*
X136464463Y-63124494D01*
X136543815Y-63221185D01*
X136640506Y-63300537D01*
X136750820Y-63359502D01*
X136870518Y-63395812D01*
X136995000Y-63408072D01*
X137234250Y-63405000D01*
X137393000Y-63246250D01*
X137393000Y-62147000D01*
X137373000Y-62147000D01*
X137373000Y-61893000D01*
X137393000Y-61893000D01*
X137393000Y-61738022D01*
X137630000Y-61738022D01*
X137630000Y-62301979D01*
X137646785Y-62472400D01*
X137647000Y-62473109D01*
X137647000Y-63246250D01*
X137805750Y-63405000D01*
X138045000Y-63408072D01*
X138169482Y-63395812D01*
X138289180Y-63359502D01*
X138353902Y-63324907D01*
X138562601Y-63388215D01*
X138790000Y-63410612D01*
X139017400Y-63388215D01*
X139236060Y-63321885D01*
X139425001Y-63220894D01*
X139613941Y-63321885D01*
X139832601Y-63388215D01*
X140060000Y-63410612D01*
X140287400Y-63388215D01*
X140506060Y-63321885D01*
X140707579Y-63214171D01*
X140884212Y-63069212D01*
X141029171Y-62892579D01*
X141136885Y-62691059D01*
X141203215Y-62472399D01*
X141220000Y-62301978D01*
X141220000Y-61738021D01*
X141203215Y-61567600D01*
X141136885Y-61348940D01*
X141029171Y-61147421D01*
X140884212Y-60970788D01*
X140707578Y-60825829D01*
X140506059Y-60718115D01*
X140287399Y-60651785D01*
X140060000Y-60629388D01*
X139832600Y-60651785D01*
X139613940Y-60718115D01*
X139425000Y-60819106D01*
X139236059Y-60718115D01*
X139017399Y-60651785D01*
X138790000Y-60629388D01*
X138562600Y-60651785D01*
X138353902Y-60715093D01*
X138289180Y-60680498D01*
X138169482Y-60644188D01*
X138045000Y-60631928D01*
X137805750Y-60635000D01*
X137647000Y-60793750D01*
X137647000Y-61566892D01*
X137646785Y-61567601D01*
X137630000Y-61738022D01*
X137393000Y-61738022D01*
X137393000Y-60793750D01*
X137234250Y-60635000D01*
X136995000Y-60631928D01*
X136870518Y-60644188D01*
X136750820Y-60680498D01*
X136640506Y-60739463D01*
X136543815Y-60818815D01*
X136464463Y-60915506D01*
X136405498Y-61025820D01*
X136375000Y-61126358D01*
X136375000Y-59982322D01*
X136378676Y-59944999D01*
X136375000Y-59907676D01*
X136375000Y-59907667D01*
X136364003Y-59796014D01*
X136320546Y-59652753D01*
X136292891Y-59601015D01*
X136249974Y-59520723D01*
X136178799Y-59433997D01*
X136155001Y-59404999D01*
X136126004Y-59381202D01*
X133727345Y-56982543D01*
X133741185Y-56971185D01*
X133820537Y-56874494D01*
X133879502Y-56764180D01*
X133900393Y-56695313D01*
X133924866Y-56725134D01*
X134150986Y-56910706D01*
X134408966Y-57048599D01*
X134688889Y-57133513D01*
X134907050Y-57155000D01*
X135052950Y-57155000D01*
X135271111Y-57133513D01*
X135551034Y-57048599D01*
X135809014Y-56910706D01*
X136035134Y-56725134D01*
X136220706Y-56499014D01*
X136255201Y-56434477D01*
X136324822Y-56551355D01*
X136519731Y-56767588D01*
X136753080Y-56941641D01*
X137015901Y-57066825D01*
X137163110Y-57111476D01*
X137393000Y-56990155D01*
X137393000Y-55797000D01*
X137647000Y-55797000D01*
X137647000Y-56990155D01*
X137876890Y-57111476D01*
X138024099Y-57066825D01*
X138286920Y-56941641D01*
X138520269Y-56767588D01*
X138715178Y-56551355D01*
X138790000Y-56425745D01*
X138864822Y-56551355D01*
X139059731Y-56767588D01*
X139293080Y-56941641D01*
X139555901Y-57066825D01*
X139703110Y-57111476D01*
X139933000Y-56990155D01*
X139933000Y-55797000D01*
X137647000Y-55797000D01*
X137393000Y-55797000D01*
X137373000Y-55797000D01*
X137373000Y-55543000D01*
X137393000Y-55543000D01*
X137393000Y-55523000D01*
X137647000Y-55523000D01*
X137647000Y-55543000D01*
G36*
X126217000Y-55543000D02*
G01*
X128503000Y-55543000D01*
X128503000Y-55523000D01*
X128757000Y-55523000D01*
X128757000Y-55543000D01*
X128777000Y-55543000D01*
X128777000Y-55797000D01*
X128757000Y-55797000D01*
X128757000Y-56990155D01*
X128986890Y-57111476D01*
X129134099Y-57066825D01*
X129396920Y-56941641D01*
X129630269Y-56767588D01*
X129775001Y-56607022D01*
X129775000Y-59712677D01*
X129771324Y-59750000D01*
X129775000Y-59787322D01*
X129775000Y-59787332D01*
X129785997Y-59898985D01*
X129816942Y-60000998D01*
X129829454Y-60042246D01*
X129900026Y-60174276D01*
X129935039Y-60216939D01*
X129994999Y-60290001D01*
X130024003Y-60313804D01*
X130706354Y-60996156D01*
X130690498Y-61025820D01*
X130654188Y-61145518D01*
X130641928Y-61270000D01*
X130641928Y-62770000D01*
X130654188Y-62894482D01*
X130690498Y-63014180D01*
X130749463Y-63124494D01*
X130828815Y-63221185D01*
X130925506Y-63300537D01*
X131035820Y-63359502D01*
X131155518Y-63395812D01*
X131280000Y-63408072D01*
X132330000Y-63408072D01*
X132454482Y-63395812D01*
X132574180Y-63359502D01*
X132638902Y-63324907D01*
X132847601Y-63388215D01*
X133075000Y-63410612D01*
X133302400Y-63388215D01*
X133521060Y-63321885D01*
X133710001Y-63220894D01*
X133898941Y-63321885D01*
X134117601Y-63388215D01*
X134345000Y-63410612D01*
X134427735Y-63402463D01*
X134033886Y-63796312D01*
X133851335Y-63760000D01*
X133568665Y-63760000D01*
X133291426Y-63815147D01*
X133030273Y-63923320D01*
X132795241Y-64080363D01*
X132595363Y-64280241D01*
X132488481Y-64440202D01*
X132429644Y-64445997D01*
X132286383Y-64489454D01*
X132154354Y-64560026D01*
X132038629Y-64654999D01*
X132014831Y-64683997D01*
X130193830Y-66504999D01*
X129217217Y-66504999D01*
X129309727Y-66466680D01*
X129544759Y-66309637D01*
X129744637Y-66109759D01*
X129901680Y-65874727D01*
X130009853Y-65613574D01*
X130065000Y-65336335D01*
X130065000Y-65053665D01*
X130009853Y-64776426D01*
X129901680Y-64515273D01*
X129744637Y-64280241D01*
X129544759Y-64080363D01*
X129309727Y-63923320D01*
X129048574Y-63815147D01*
X128771335Y-63760000D01*
X128488665Y-63760000D01*
X128211426Y-63815147D01*
X127950273Y-63923320D01*
X127715241Y-64080363D01*
X127515363Y-64280241D01*
X127358320Y-64515273D01*
X127250147Y-64776426D01*
X127195000Y-65053665D01*
X127195000Y-65336335D01*
X127250147Y-65613574D01*
X127358320Y-65874727D01*
X127515363Y-66109759D01*
X127715241Y-66309637D01*
X127950273Y-66466680D01*
X128042783Y-66504999D01*
X126042217Y-66504999D01*
X126134727Y-66466680D01*
X126369759Y-66309637D01*
X126569637Y-66109759D01*
X126726680Y-65874727D01*
X126834853Y-65613574D01*
X126890000Y-65336335D01*
X126890000Y-65053665D01*
X126834853Y-64776426D01*
X126726680Y-64515273D01*
X126569637Y-64280241D01*
X126369759Y-64080363D01*
X126134727Y-63923320D01*
X125873574Y-63815147D01*
X125596335Y-63760000D01*
X125313665Y-63760000D01*
X125036426Y-63815147D01*
X124775273Y-63923320D01*
X124540241Y-64080363D01*
X124340363Y-64280241D01*
X124183320Y-64515273D01*
X124075147Y-64776426D01*
X124020000Y-65053665D01*
X124020000Y-65336335D01*
X124075147Y-65613574D01*
X124183320Y-65874727D01*
X124340363Y-66109759D01*
X124540241Y-66309637D01*
X124775273Y-66466680D01*
X124867783Y-66504999D01*
X122867217Y-66504999D01*
X122959727Y-66466680D01*
X123194759Y-66309637D01*
X123394637Y-66109759D01*
X123551680Y-65874727D01*
X123659853Y-65613574D01*
X123715000Y-65336335D01*
X123715000Y-65053665D01*
X123678688Y-64871114D01*
X124696003Y-63853799D01*
X124725001Y-63830001D01*
X124819974Y-63714276D01*
X124890546Y-63582247D01*
X124934003Y-63438986D01*
X124945000Y-63327333D01*
X124945000Y-63327323D01*
X124948676Y-63290000D01*
X124945000Y-63252677D01*
X124945000Y-62913642D01*
X124975498Y-63014180D01*
X125034463Y-63124494D01*
X125113815Y-63221185D01*
X125210506Y-63300537D01*
X125320820Y-63359502D01*
X125440518Y-63395812D01*
X125565000Y-63408072D01*
X125804250Y-63405000D01*
X125963000Y-63246250D01*
X125963000Y-62147000D01*
X125943000Y-62147000D01*
X125943000Y-61893000D01*
X125963000Y-61893000D01*
X125963000Y-61738022D01*
X126200000Y-61738022D01*
X126200000Y-62301979D01*
X126216785Y-62472400D01*
X126217000Y-62473109D01*
X126217000Y-63246250D01*
X126375750Y-63405000D01*
X126615000Y-63408072D01*
X126739482Y-63395812D01*
X126859180Y-63359502D01*
X126923902Y-63324907D01*
X127132601Y-63388215D01*
X127360000Y-63410612D01*
X127587400Y-63388215D01*
X127806060Y-63321885D01*
X127995001Y-63220894D01*
X128183941Y-63321885D01*
X128402601Y-63388215D01*
X128630000Y-63410612D01*
X128857400Y-63388215D01*
X129076060Y-63321885D01*
X129277579Y-63214171D01*
X129454212Y-63069212D01*
X129599171Y-62892579D01*
X129706885Y-62691059D01*
X129773215Y-62472399D01*
X129790000Y-62301978D01*
X129790000Y-61738021D01*
X129773215Y-61567600D01*
X129706885Y-61348940D01*
X129599171Y-61147421D01*
X129454212Y-60970788D01*
X129277578Y-60825829D01*
X129076059Y-60718115D01*
X128857399Y-60651785D01*
X128630000Y-60629388D01*
X128402600Y-60651785D01*
X128183940Y-60718115D01*
X127995000Y-60819106D01*
X127806059Y-60718115D01*
X127587399Y-60651785D01*
X127360000Y-60629388D01*
X127132600Y-60651785D01*
X126923902Y-60715093D01*
X126859180Y-60680498D01*
X126739482Y-60644188D01*
X126615000Y-60631928D01*
X126375750Y-60635000D01*
X126217000Y-60793750D01*
X126217000Y-61566892D01*
X126216785Y-61567601D01*
X126200000Y-61738022D01*
X125963000Y-61738022D01*
X125963000Y-60793750D01*
X125804250Y-60635000D01*
X125565000Y-60631928D01*
X125440518Y-60644188D01*
X125320820Y-60680498D01*
X125210506Y-60739463D01*
X125113815Y-60818815D01*
X125034463Y-60915506D01*
X124975498Y-61025820D01*
X124945000Y-61126358D01*
X124945000Y-59982322D01*
X124948676Y-59944999D01*
X124945000Y-59907676D01*
X124945000Y-59907667D01*
X124934003Y-59796014D01*
X124890546Y-59652753D01*
X124862891Y-59601015D01*
X124819974Y-59520723D01*
X124748799Y-59433997D01*
X124725001Y-59404999D01*
X124696004Y-59381202D01*
X122297345Y-56982543D01*
X122311185Y-56971185D01*
X122390537Y-56874494D01*
X122449502Y-56764180D01*
X122470393Y-56695313D01*
X122494866Y-56725134D01*
X122720986Y-56910706D01*
X122978966Y-57048599D01*
X123258889Y-57133513D01*
X123477050Y-57155000D01*
X123622950Y-57155000D01*
X123841111Y-57133513D01*
X124121034Y-57048599D01*
X124379014Y-56910706D01*
X124605134Y-56725134D01*
X124790706Y-56499014D01*
X124825201Y-56434477D01*
X124894822Y-56551355D01*
X125089731Y-56767588D01*
X125323080Y-56941641D01*
X125585901Y-57066825D01*
X125733110Y-57111476D01*
X125963000Y-56990155D01*
X125963000Y-55797000D01*
X126217000Y-55797000D01*
X126217000Y-56990155D01*
X126446890Y-57111476D01*
X126594099Y-57066825D01*
X126856920Y-56941641D01*
X127090269Y-56767588D01*
X127285178Y-56551355D01*
X127360000Y-56425745D01*
X127434822Y-56551355D01*
X127629731Y-56767588D01*
X127863080Y-56941641D01*
X128125901Y-57066825D01*
X128273110Y-57111476D01*
X128503000Y-56990155D01*
X128503000Y-55797000D01*
X126217000Y-55797000D01*
X125963000Y-55797000D01*
X125943000Y-55797000D01*
X125943000Y-55543000D01*
X125963000Y-55543000D01*
X125963000Y-55523000D01*
X126217000Y-55523000D01*
X126217000Y-55543000D01*
X126217000Y-55543000D01*
G37*
X126217000Y-55543000D02*
X128503000Y-55543000D01*
X128503000Y-55523000D01*
X128757000Y-55523000D01*
X128757000Y-55543000D01*
X128777000Y-55543000D01*
X128777000Y-55797000D01*
X128757000Y-55797000D01*
X128757000Y-56990155D01*
X128986890Y-57111476D01*
X129134099Y-57066825D01*
X129396920Y-56941641D01*
X129630269Y-56767588D01*
X129775001Y-56607022D01*
X129775000Y-59712677D01*
X129771324Y-59750000D01*
X129775000Y-59787322D01*
X129775000Y-59787332D01*
X129785997Y-59898985D01*
X129816942Y-60000998D01*
X129829454Y-60042246D01*
X129900026Y-60174276D01*
X129935039Y-60216939D01*
X129994999Y-60290001D01*
X130024003Y-60313804D01*
X130706354Y-60996156D01*
X130690498Y-61025820D01*
X130654188Y-61145518D01*
X130641928Y-61270000D01*
X130641928Y-62770000D01*
X130654188Y-62894482D01*
X130690498Y-63014180D01*
X130749463Y-63124494D01*
X130828815Y-63221185D01*
X130925506Y-63300537D01*
X131035820Y-63359502D01*
X131155518Y-63395812D01*
X131280000Y-63408072D01*
X132330000Y-63408072D01*
X132454482Y-63395812D01*
X132574180Y-63359502D01*
X132638902Y-63324907D01*
X132847601Y-63388215D01*
X133075000Y-63410612D01*
X133302400Y-63388215D01*
X133521060Y-63321885D01*
X133710001Y-63220894D01*
X133898941Y-63321885D01*
X134117601Y-63388215D01*
X134345000Y-63410612D01*
X134427735Y-63402463D01*
X134033886Y-63796312D01*
X133851335Y-63760000D01*
X133568665Y-63760000D01*
X133291426Y-63815147D01*
X133030273Y-63923320D01*
X132795241Y-64080363D01*
X132595363Y-64280241D01*
X132488481Y-64440202D01*
X132429644Y-64445997D01*
X132286383Y-64489454D01*
X132154354Y-64560026D01*
X132038629Y-64654999D01*
X132014831Y-64683997D01*
X130193830Y-66504999D01*
X129217217Y-66504999D01*
X129309727Y-66466680D01*
X129544759Y-66309637D01*
X129744637Y-66109759D01*
X129901680Y-65874727D01*
X130009853Y-65613574D01*
X130065000Y-65336335D01*
X130065000Y-65053665D01*
X130009853Y-64776426D01*
X129901680Y-64515273D01*
X129744637Y-64280241D01*
X129544759Y-64080363D01*
X129309727Y-63923320D01*
X129048574Y-63815147D01*
X128771335Y-63760000D01*
X128488665Y-63760000D01*
X128211426Y-63815147D01*
X127950273Y-63923320D01*
X127715241Y-64080363D01*
X127515363Y-64280241D01*
X127358320Y-64515273D01*
X127250147Y-64776426D01*
X127195000Y-65053665D01*
X127195000Y-65336335D01*
X127250147Y-65613574D01*
X127358320Y-65874727D01*
X127515363Y-66109759D01*
X127715241Y-66309637D01*
X127950273Y-66466680D01*
X128042783Y-66504999D01*
X126042217Y-66504999D01*
X126134727Y-66466680D01*
X126369759Y-66309637D01*
X126569637Y-66109759D01*
X126726680Y-65874727D01*
X126834853Y-65613574D01*
X126890000Y-65336335D01*
X126890000Y-65053665D01*
X126834853Y-64776426D01*
X126726680Y-64515273D01*
X126569637Y-64280241D01*
X126369759Y-64080363D01*
X126134727Y-63923320D01*
X125873574Y-63815147D01*
X125596335Y-63760000D01*
X125313665Y-63760000D01*
X125036426Y-63815147D01*
X124775273Y-63923320D01*
X124540241Y-64080363D01*
X124340363Y-64280241D01*
X124183320Y-64515273D01*
X124075147Y-64776426D01*
X124020000Y-65053665D01*
X124020000Y-65336335D01*
X124075147Y-65613574D01*
X124183320Y-65874727D01*
X124340363Y-66109759D01*
X124540241Y-66309637D01*
X124775273Y-66466680D01*
X124867783Y-66504999D01*
X122867217Y-66504999D01*
X122959727Y-66466680D01*
X123194759Y-66309637D01*
X123394637Y-66109759D01*
X123551680Y-65874727D01*
X123659853Y-65613574D01*
X123715000Y-65336335D01*
X123715000Y-65053665D01*
X123678688Y-64871114D01*
X124696003Y-63853799D01*
X124725001Y-63830001D01*
X124819974Y-63714276D01*
X124890546Y-63582247D01*
X124934003Y-63438986D01*
X124945000Y-63327333D01*
X124945000Y-63327323D01*
X124948676Y-63290000D01*
X124945000Y-63252677D01*
X124945000Y-62913642D01*
X124975498Y-63014180D01*
X125034463Y-63124494D01*
X125113815Y-63221185D01*
X125210506Y-63300537D01*
X125320820Y-63359502D01*
X125440518Y-63395812D01*
X125565000Y-63408072D01*
X125804250Y-63405000D01*
X125963000Y-63246250D01*
X125963000Y-62147000D01*
X125943000Y-62147000D01*
X125943000Y-61893000D01*
X125963000Y-61893000D01*
X125963000Y-61738022D01*
X126200000Y-61738022D01*
X126200000Y-62301979D01*
X126216785Y-62472400D01*
X126217000Y-62473109D01*
X126217000Y-63246250D01*
X126375750Y-63405000D01*
X126615000Y-63408072D01*
X126739482Y-63395812D01*
X126859180Y-63359502D01*
X126923902Y-63324907D01*
X127132601Y-63388215D01*
X127360000Y-63410612D01*
X127587400Y-63388215D01*
X127806060Y-63321885D01*
X127995001Y-63220894D01*
X128183941Y-63321885D01*
X128402601Y-63388215D01*
X128630000Y-63410612D01*
X128857400Y-63388215D01*
X129076060Y-63321885D01*
X129277579Y-63214171D01*
X129454212Y-63069212D01*
X129599171Y-62892579D01*
X129706885Y-62691059D01*
X129773215Y-62472399D01*
X129790000Y-62301978D01*
X129790000Y-61738021D01*
X129773215Y-61567600D01*
X129706885Y-61348940D01*
X129599171Y-61147421D01*
X129454212Y-60970788D01*
X129277578Y-60825829D01*
X129076059Y-60718115D01*
X128857399Y-60651785D01*
X128630000Y-60629388D01*
X128402600Y-60651785D01*
X128183940Y-60718115D01*
X127995000Y-60819106D01*
X127806059Y-60718115D01*
X127587399Y-60651785D01*
X127360000Y-60629388D01*
X127132600Y-60651785D01*
X126923902Y-60715093D01*
X126859180Y-60680498D01*
X126739482Y-60644188D01*
X126615000Y-60631928D01*
X126375750Y-60635000D01*
X126217000Y-60793750D01*
X126217000Y-61566892D01*
X126216785Y-61567601D01*
X126200000Y-61738022D01*
X125963000Y-61738022D01*
X125963000Y-60793750D01*
X125804250Y-60635000D01*
X125565000Y-60631928D01*
X125440518Y-60644188D01*
X125320820Y-60680498D01*
X125210506Y-60739463D01*
X125113815Y-60818815D01*
X125034463Y-60915506D01*
X124975498Y-61025820D01*
X124945000Y-61126358D01*
X124945000Y-59982322D01*
X124948676Y-59944999D01*
X124945000Y-59907676D01*
X124945000Y-59907667D01*
X124934003Y-59796014D01*
X124890546Y-59652753D01*
X124862891Y-59601015D01*
X124819974Y-59520723D01*
X124748799Y-59433997D01*
X124725001Y-59404999D01*
X124696004Y-59381202D01*
X122297345Y-56982543D01*
X122311185Y-56971185D01*
X122390537Y-56874494D01*
X122449502Y-56764180D01*
X122470393Y-56695313D01*
X122494866Y-56725134D01*
X122720986Y-56910706D01*
X122978966Y-57048599D01*
X123258889Y-57133513D01*
X123477050Y-57155000D01*
X123622950Y-57155000D01*
X123841111Y-57133513D01*
X124121034Y-57048599D01*
X124379014Y-56910706D01*
X124605134Y-56725134D01*
X124790706Y-56499014D01*
X124825201Y-56434477D01*
X124894822Y-56551355D01*
X125089731Y-56767588D01*
X125323080Y-56941641D01*
X125585901Y-57066825D01*
X125733110Y-57111476D01*
X125963000Y-56990155D01*
X125963000Y-55797000D01*
X126217000Y-55797000D01*
X126217000Y-56990155D01*
X126446890Y-57111476D01*
X126594099Y-57066825D01*
X126856920Y-56941641D01*
X127090269Y-56767588D01*
X127285178Y-56551355D01*
X127360000Y-56425745D01*
X127434822Y-56551355D01*
X127629731Y-56767588D01*
X127863080Y-56941641D01*
X128125901Y-57066825D01*
X128273110Y-57111476D01*
X128503000Y-56990155D01*
X128503000Y-55797000D01*
X126217000Y-55797000D01*
X125963000Y-55797000D01*
X125943000Y-55797000D01*
X125943000Y-55543000D01*
X125963000Y-55543000D01*
X125963000Y-55523000D01*
X126217000Y-55523000D01*
X126217000Y-55543000D01*
G36*
X46842000Y-55543000D02*
G01*
X49128000Y-55543000D01*
X49128000Y-55523000D01*
X49382000Y-55523000D01*
X49382000Y-55543000D01*
X49402000Y-55543000D01*
X49402000Y-55797000D01*
X49382000Y-55797000D01*
X49382000Y-56990155D01*
X49611890Y-57111476D01*
X49759099Y-57066825D01*
X50021920Y-56941641D01*
X50255269Y-56767588D01*
X50400001Y-56607022D01*
X50400000Y-59712677D01*
X50396324Y-59750000D01*
X50400000Y-59787322D01*
X50400000Y-59787332D01*
X50410997Y-59898985D01*
X50441942Y-60000998D01*
X50454454Y-60042246D01*
X50525026Y-60174276D01*
X50560039Y-60216939D01*
X50619999Y-60290001D01*
X50649003Y-60313804D01*
X51331354Y-60996156D01*
X51315498Y-61025820D01*
X51279188Y-61145518D01*
X51266928Y-61270000D01*
X51266928Y-62770000D01*
X51279188Y-62894482D01*
X51315498Y-63014180D01*
X51374463Y-63124494D01*
X51453815Y-63221185D01*
X51550506Y-63300537D01*
X51660820Y-63359502D01*
X51780518Y-63395812D01*
X51905000Y-63408072D01*
X52955000Y-63408072D01*
X53079482Y-63395812D01*
X53199180Y-63359502D01*
X53263902Y-63324907D01*
X53472601Y-63388215D01*
X53700000Y-63410612D01*
X53927400Y-63388215D01*
X54146060Y-63321885D01*
X54335001Y-63220894D01*
X54523941Y-63321885D01*
X54742601Y-63388215D01*
X54970000Y-63410612D01*
X55052735Y-63402463D01*
X54658886Y-63796312D01*
X54476335Y-63760000D01*
X54193665Y-63760000D01*
X53916426Y-63815147D01*
X53655273Y-63923320D01*
X53420241Y-64080363D01*
X53220363Y-64280241D01*
X53063320Y-64515273D01*
X52955147Y-64776426D01*
X52900000Y-65053665D01*
X52900000Y-65336335D01*
X52955147Y-65613574D01*
X53063320Y-65874727D01*
X53153714Y-66010011D01*
X50436286Y-66010011D01*
X50526680Y-65874727D01*
X50634853Y-65613574D01*
X50690000Y-65336335D01*
X50690000Y-65053665D01*
X50634853Y-64776426D01*
X50526680Y-64515273D01*
X50369637Y-64280241D01*
X50169759Y-64080363D01*
X49934727Y-63923320D01*
X49673574Y-63815147D01*
X49396335Y-63760000D01*
X49113665Y-63760000D01*
X48836426Y-63815147D01*
X48575273Y-63923320D01*
X48340241Y-64080363D01*
X48140363Y-64280241D01*
X47983320Y-64515273D01*
X47875147Y-64776426D01*
X47820000Y-65053665D01*
X47820000Y-65336335D01*
X47875147Y-65613574D01*
X47983320Y-65874727D01*
X48073714Y-66010011D01*
X47261286Y-66010011D01*
X47351680Y-65874727D01*
X47459853Y-65613574D01*
X47515000Y-65336335D01*
X47515000Y-65053665D01*
X47459853Y-64776426D01*
X47351680Y-64515273D01*
X47194637Y-64280241D01*
X46994759Y-64080363D01*
X46759727Y-63923320D01*
X46498574Y-63815147D01*
X46221335Y-63760000D01*
X45938665Y-63760000D01*
X45661426Y-63815147D01*
X45400273Y-63923320D01*
X45165241Y-64080363D01*
X44965363Y-64280241D01*
X44808320Y-64515273D01*
X44700147Y-64776426D01*
X44645000Y-65053665D01*
X44645000Y-65336335D01*
X44700147Y-65613574D01*
X44808320Y-65874727D01*
X44898714Y-66010011D01*
X44794813Y-66010011D01*
X44303688Y-65518887D01*
X44340000Y-65336335D01*
X44340000Y-65053665D01*
X44303688Y-64871114D01*
X45321003Y-63853799D01*
X45350001Y-63830001D01*
X45444974Y-63714276D01*
X45515546Y-63582247D01*
X45559003Y-63438986D01*
X45570000Y-63327333D01*
X45570000Y-63327323D01*
X45573676Y-63290000D01*
X45570000Y-63252677D01*
X45570000Y-62913642D01*
X45600498Y-63014180D01*
X45659463Y-63124494D01*
X45738815Y-63221185D01*
X45835506Y-63300537D01*
X45945820Y-63359502D01*
X46065518Y-63395812D01*
X46190000Y-63408072D01*
X46429250Y-63405000D01*
X46588000Y-63246250D01*
X46588000Y-62147000D01*
X46568000Y-62147000D01*
X46568000Y-61893000D01*
X46588000Y-61893000D01*
X46588000Y-61738022D01*
X46825000Y-61738022D01*
X46825000Y-62301979D01*
X46841785Y-62472400D01*
X46842000Y-62473109D01*
X46842000Y-63246250D01*
X47000750Y-63405000D01*
X47240000Y-63408072D01*
X47364482Y-63395812D01*
X47484180Y-63359502D01*
X47548902Y-63324907D01*
X47757601Y-63388215D01*
X47985000Y-63410612D01*
X48212400Y-63388215D01*
X48431060Y-63321885D01*
X48620001Y-63220894D01*
X48808941Y-63321885D01*
X49027601Y-63388215D01*
X49255000Y-63410612D01*
X49482400Y-63388215D01*
X49701060Y-63321885D01*
X49902579Y-63214171D01*
X50079212Y-63069212D01*
X50224171Y-62892579D01*
X50331885Y-62691059D01*
X50398215Y-62472399D01*
X50415000Y-62301978D01*
X50415000Y-61738021D01*
X50398215Y-61567600D01*
X50331885Y-61348940D01*
X50224171Y-61147421D01*
X50079212Y-60970788D01*
X49902578Y-60825829D01*
X49701059Y-60718115D01*
X49482399Y-60651785D01*
X49255000Y-60629388D01*
X49027600Y-60651785D01*
X48808940Y-60718115D01*
X48620000Y-60819106D01*
X48431059Y-60718115D01*
X48212399Y-60651785D01*
X47985000Y-60629388D01*
X47757600Y-60651785D01*
X47548902Y-60715093D01*
X47484180Y-60680498D01*
X47364482Y-60644188D01*
X47240000Y-60631928D01*
X47000750Y-60635000D01*
X46842000Y-60793750D01*
X46842000Y-61566892D01*
X46841785Y-61567601D01*
X46825000Y-61738022D01*
X46588000Y-61738022D01*
X46588000Y-60793750D01*
X46429250Y-60635000D01*
X46190000Y-60631928D01*
X46065518Y-60644188D01*
X45945820Y-60680498D01*
X45835506Y-60739463D01*
X45738815Y-60818815D01*
X45659463Y-60915506D01*
X45600498Y-61025820D01*
X45570000Y-61126358D01*
X45570000Y-59982322D01*
X45573676Y-59944999D01*
X45570000Y-59907676D01*
X45570000Y-59907667D01*
X45559003Y-59796014D01*
X45515546Y-59652753D01*
X45487891Y-59601015D01*
X45444974Y-59520723D01*
X45373799Y-59433997D01*
X45350001Y-59404999D01*
X45321004Y-59381202D01*
X42922345Y-56982543D01*
X42936185Y-56971185D01*
X43015537Y-56874494D01*
X43074502Y-56764180D01*
X43095393Y-56695313D01*
X43119866Y-56725134D01*
X43345986Y-56910706D01*
X43603966Y-57048599D01*
X43883889Y-57133513D01*
X44102050Y-57155000D01*
X44247950Y-57155000D01*
X44466111Y-57133513D01*
X44746034Y-57048599D01*
X45004014Y-56910706D01*
X45230134Y-56725134D01*
X45415706Y-56499014D01*
X45450201Y-56434477D01*
X45519822Y-56551355D01*
X45714731Y-56767588D01*
X45948080Y-56941641D01*
X46210901Y-57066825D01*
X46358110Y-57111476D01*
X46588000Y-56990155D01*
X46588000Y-55797000D01*
X46842000Y-55797000D01*
X46842000Y-56990155D01*
X47071890Y-57111476D01*
X47219099Y-57066825D01*
X47481920Y-56941641D01*
X47715269Y-56767588D01*
X47910178Y-56551355D01*
X47985000Y-56425745D01*
X48059822Y-56551355D01*
X48254731Y-56767588D01*
X48488080Y-56941641D01*
X48750901Y-57066825D01*
X48898110Y-57111476D01*
X49128000Y-56990155D01*
X49128000Y-55797000D01*
X46842000Y-55797000D01*
X46588000Y-55797000D01*
X46568000Y-55797000D01*
X46568000Y-55543000D01*
X46588000Y-55543000D01*
X46588000Y-55523000D01*
X46842000Y-55523000D01*
X46842000Y-55543000D01*
X46842000Y-55543000D01*
G37*
X46842000Y-55543000D02*
X49128000Y-55543000D01*
X49128000Y-55523000D01*
X49382000Y-55523000D01*
X49382000Y-55543000D01*
X49402000Y-55543000D01*
X49402000Y-55797000D01*
X49382000Y-55797000D01*
X49382000Y-56990155D01*
X49611890Y-57111476D01*
X49759099Y-57066825D01*
X50021920Y-56941641D01*
X50255269Y-56767588D01*
X50400001Y-56607022D01*
X50400000Y-59712677D01*
X50396324Y-59750000D01*
X50400000Y-59787322D01*
X50400000Y-59787332D01*
X50410997Y-59898985D01*
X50441942Y-60000998D01*
X50454454Y-60042246D01*
X50525026Y-60174276D01*
X50560039Y-60216939D01*
X50619999Y-60290001D01*
X50649003Y-60313804D01*
X51331354Y-60996156D01*
X51315498Y-61025820D01*
X51279188Y-61145518D01*
X51266928Y-61270000D01*
X51266928Y-62770000D01*
X51279188Y-62894482D01*
X51315498Y-63014180D01*
X51374463Y-63124494D01*
X51453815Y-63221185D01*
X51550506Y-63300537D01*
X51660820Y-63359502D01*
X51780518Y-63395812D01*
X51905000Y-63408072D01*
X52955000Y-63408072D01*
X53079482Y-63395812D01*
X53199180Y-63359502D01*
X53263902Y-63324907D01*
X53472601Y-63388215D01*
X53700000Y-63410612D01*
X53927400Y-63388215D01*
X54146060Y-63321885D01*
X54335001Y-63220894D01*
X54523941Y-63321885D01*
X54742601Y-63388215D01*
X54970000Y-63410612D01*
X55052735Y-63402463D01*
X54658886Y-63796312D01*
X54476335Y-63760000D01*
X54193665Y-63760000D01*
X53916426Y-63815147D01*
X53655273Y-63923320D01*
X53420241Y-64080363D01*
X53220363Y-64280241D01*
X53063320Y-64515273D01*
X52955147Y-64776426D01*
X52900000Y-65053665D01*
X52900000Y-65336335D01*
X52955147Y-65613574D01*
X53063320Y-65874727D01*
X53153714Y-66010011D01*
X50436286Y-66010011D01*
X50526680Y-65874727D01*
X50634853Y-65613574D01*
X50690000Y-65336335D01*
X50690000Y-65053665D01*
X50634853Y-64776426D01*
X50526680Y-64515273D01*
X50369637Y-64280241D01*
X50169759Y-64080363D01*
X49934727Y-63923320D01*
X49673574Y-63815147D01*
X49396335Y-63760000D01*
X49113665Y-63760000D01*
X48836426Y-63815147D01*
X48575273Y-63923320D01*
X48340241Y-64080363D01*
X48140363Y-64280241D01*
X47983320Y-64515273D01*
X47875147Y-64776426D01*
X47820000Y-65053665D01*
X47820000Y-65336335D01*
X47875147Y-65613574D01*
X47983320Y-65874727D01*
X48073714Y-66010011D01*
X47261286Y-66010011D01*
X47351680Y-65874727D01*
X47459853Y-65613574D01*
X47515000Y-65336335D01*
X47515000Y-65053665D01*
X47459853Y-64776426D01*
X47351680Y-64515273D01*
X47194637Y-64280241D01*
X46994759Y-64080363D01*
X46759727Y-63923320D01*
X46498574Y-63815147D01*
X46221335Y-63760000D01*
X45938665Y-63760000D01*
X45661426Y-63815147D01*
X45400273Y-63923320D01*
X45165241Y-64080363D01*
X44965363Y-64280241D01*
X44808320Y-64515273D01*
X44700147Y-64776426D01*
X44645000Y-65053665D01*
X44645000Y-65336335D01*
X44700147Y-65613574D01*
X44808320Y-65874727D01*
X44898714Y-66010011D01*
X44794813Y-66010011D01*
X44303688Y-65518887D01*
X44340000Y-65336335D01*
X44340000Y-65053665D01*
X44303688Y-64871114D01*
X45321003Y-63853799D01*
X45350001Y-63830001D01*
X45444974Y-63714276D01*
X45515546Y-63582247D01*
X45559003Y-63438986D01*
X45570000Y-63327333D01*
X45570000Y-63327323D01*
X45573676Y-63290000D01*
X45570000Y-63252677D01*
X45570000Y-62913642D01*
X45600498Y-63014180D01*
X45659463Y-63124494D01*
X45738815Y-63221185D01*
X45835506Y-63300537D01*
X45945820Y-63359502D01*
X46065518Y-63395812D01*
X46190000Y-63408072D01*
X46429250Y-63405000D01*
X46588000Y-63246250D01*
X46588000Y-62147000D01*
X46568000Y-62147000D01*
X46568000Y-61893000D01*
X46588000Y-61893000D01*
X46588000Y-61738022D01*
X46825000Y-61738022D01*
X46825000Y-62301979D01*
X46841785Y-62472400D01*
X46842000Y-62473109D01*
X46842000Y-63246250D01*
X47000750Y-63405000D01*
X47240000Y-63408072D01*
X47364482Y-63395812D01*
X47484180Y-63359502D01*
X47548902Y-63324907D01*
X47757601Y-63388215D01*
X47985000Y-63410612D01*
X48212400Y-63388215D01*
X48431060Y-63321885D01*
X48620001Y-63220894D01*
X48808941Y-63321885D01*
X49027601Y-63388215D01*
X49255000Y-63410612D01*
X49482400Y-63388215D01*
X49701060Y-63321885D01*
X49902579Y-63214171D01*
X50079212Y-63069212D01*
X50224171Y-62892579D01*
X50331885Y-62691059D01*
X50398215Y-62472399D01*
X50415000Y-62301978D01*
X50415000Y-61738021D01*
X50398215Y-61567600D01*
X50331885Y-61348940D01*
X50224171Y-61147421D01*
X50079212Y-60970788D01*
X49902578Y-60825829D01*
X49701059Y-60718115D01*
X49482399Y-60651785D01*
X49255000Y-60629388D01*
X49027600Y-60651785D01*
X48808940Y-60718115D01*
X48620000Y-60819106D01*
X48431059Y-60718115D01*
X48212399Y-60651785D01*
X47985000Y-60629388D01*
X47757600Y-60651785D01*
X47548902Y-60715093D01*
X47484180Y-60680498D01*
X47364482Y-60644188D01*
X47240000Y-60631928D01*
X47000750Y-60635000D01*
X46842000Y-60793750D01*
X46842000Y-61566892D01*
X46841785Y-61567601D01*
X46825000Y-61738022D01*
X46588000Y-61738022D01*
X46588000Y-60793750D01*
X46429250Y-60635000D01*
X46190000Y-60631928D01*
X46065518Y-60644188D01*
X45945820Y-60680498D01*
X45835506Y-60739463D01*
X45738815Y-60818815D01*
X45659463Y-60915506D01*
X45600498Y-61025820D01*
X45570000Y-61126358D01*
X45570000Y-59982322D01*
X45573676Y-59944999D01*
X45570000Y-59907676D01*
X45570000Y-59907667D01*
X45559003Y-59796014D01*
X45515546Y-59652753D01*
X45487891Y-59601015D01*
X45444974Y-59520723D01*
X45373799Y-59433997D01*
X45350001Y-59404999D01*
X45321004Y-59381202D01*
X42922345Y-56982543D01*
X42936185Y-56971185D01*
X43015537Y-56874494D01*
X43074502Y-56764180D01*
X43095393Y-56695313D01*
X43119866Y-56725134D01*
X43345986Y-56910706D01*
X43603966Y-57048599D01*
X43883889Y-57133513D01*
X44102050Y-57155000D01*
X44247950Y-57155000D01*
X44466111Y-57133513D01*
X44746034Y-57048599D01*
X45004014Y-56910706D01*
X45230134Y-56725134D01*
X45415706Y-56499014D01*
X45450201Y-56434477D01*
X45519822Y-56551355D01*
X45714731Y-56767588D01*
X45948080Y-56941641D01*
X46210901Y-57066825D01*
X46358110Y-57111476D01*
X46588000Y-56990155D01*
X46588000Y-55797000D01*
X46842000Y-55797000D01*
X46842000Y-56990155D01*
X47071890Y-57111476D01*
X47219099Y-57066825D01*
X47481920Y-56941641D01*
X47715269Y-56767588D01*
X47910178Y-56551355D01*
X47985000Y-56425745D01*
X48059822Y-56551355D01*
X48254731Y-56767588D01*
X48488080Y-56941641D01*
X48750901Y-57066825D01*
X48898110Y-57111476D01*
X49128000Y-56990155D01*
X49128000Y-55797000D01*
X46842000Y-55797000D01*
X46588000Y-55797000D01*
X46568000Y-55797000D01*
X46568000Y-55543000D01*
X46588000Y-55543000D01*
X46588000Y-55523000D01*
X46842000Y-55523000D01*
X46842000Y-55543000D01*
G36*
X58272000Y-55543000D02*
G01*
X60558000Y-55543000D01*
X60558000Y-55523000D01*
X60812000Y-55523000D01*
X60812000Y-55543000D01*
X60832000Y-55543000D01*
X60832000Y-55797000D01*
X60812000Y-55797000D01*
X60812000Y-56990155D01*
X61041890Y-57111476D01*
X61189099Y-57066825D01*
X61451920Y-56941641D01*
X61685269Y-56767588D01*
X61830001Y-56607022D01*
X61830000Y-59712677D01*
X61826324Y-59750000D01*
X61830000Y-59787322D01*
X61830000Y-59787332D01*
X61840997Y-59898985D01*
X61871942Y-60000998D01*
X61884454Y-60042246D01*
X61955026Y-60174276D01*
X61990039Y-60216939D01*
X62049999Y-60290001D01*
X62079003Y-60313804D01*
X62761354Y-60996156D01*
X62745498Y-61025820D01*
X62709188Y-61145518D01*
X62696928Y-61270000D01*
X62696928Y-62770000D01*
X62709188Y-62894482D01*
X62745498Y-63014180D01*
X62804463Y-63124494D01*
X62883815Y-63221185D01*
X62980506Y-63300537D01*
X63090820Y-63359502D01*
X63210518Y-63395812D01*
X63335000Y-63408072D01*
X64385000Y-63408072D01*
X64509482Y-63395812D01*
X64629180Y-63359502D01*
X64693902Y-63324907D01*
X64902601Y-63388215D01*
X65130000Y-63410612D01*
X65357400Y-63388215D01*
X65576060Y-63321885D01*
X65765001Y-63220894D01*
X65953941Y-63321885D01*
X66172601Y-63388215D01*
X66400000Y-63410612D01*
X66482735Y-63402463D01*
X66088886Y-63796312D01*
X65906335Y-63760000D01*
X65623665Y-63760000D01*
X65346426Y-63815147D01*
X65085273Y-63923320D01*
X64850241Y-64080363D01*
X64650363Y-64280241D01*
X64493320Y-64515273D01*
X64385147Y-64776426D01*
X64330000Y-65053665D01*
X64330000Y-65336335D01*
X64374491Y-65560001D01*
X62075509Y-65560001D01*
X62120000Y-65336335D01*
X62120000Y-65053665D01*
X62064853Y-64776426D01*
X61956680Y-64515273D01*
X61799637Y-64280241D01*
X61599759Y-64080363D01*
X61364727Y-63923320D01*
X61103574Y-63815147D01*
X60826335Y-63760000D01*
X60543665Y-63760000D01*
X60266426Y-63815147D01*
X60005273Y-63923320D01*
X59770241Y-64080363D01*
X59570363Y-64280241D01*
X59413320Y-64515273D01*
X59305147Y-64776426D01*
X59250000Y-65053665D01*
X59250000Y-65336335D01*
X59294491Y-65560001D01*
X58900509Y-65560001D01*
X58945000Y-65336335D01*
X58945000Y-65053665D01*
X58889853Y-64776426D01*
X58781680Y-64515273D01*
X58624637Y-64280241D01*
X58424759Y-64080363D01*
X58189727Y-63923320D01*
X57928574Y-63815147D01*
X57651335Y-63760000D01*
X57368665Y-63760000D01*
X57091426Y-63815147D01*
X56830273Y-63923320D01*
X56595241Y-64080363D01*
X56395363Y-64280241D01*
X56238320Y-64515273D01*
X56130147Y-64776426D01*
X56075000Y-65053665D01*
X56075000Y-65336335D01*
X56119491Y-65560001D01*
X55774802Y-65560001D01*
X55733688Y-65518887D01*
X55770000Y-65336335D01*
X55770000Y-65053665D01*
X55733688Y-64871114D01*
X56751003Y-63853799D01*
X56780001Y-63830001D01*
X56874974Y-63714276D01*
X56945546Y-63582247D01*
X56989003Y-63438986D01*
X57000000Y-63327333D01*
X57000000Y-63327323D01*
X57003676Y-63290000D01*
X57000000Y-63252677D01*
X57000000Y-62913642D01*
X57030498Y-63014180D01*
X57089463Y-63124494D01*
X57168815Y-63221185D01*
X57265506Y-63300537D01*
X57375820Y-63359502D01*
X57495518Y-63395812D01*
X57620000Y-63408072D01*
X57859250Y-63405000D01*
X58018000Y-63246250D01*
X58018000Y-62147000D01*
X57998000Y-62147000D01*
X57998000Y-61893000D01*
X58018000Y-61893000D01*
X58018000Y-61738022D01*
X58255000Y-61738022D01*
X58255000Y-62301979D01*
X58271785Y-62472400D01*
X58272000Y-62473109D01*
X58272000Y-63246250D01*
X58430750Y-63405000D01*
X58670000Y-63408072D01*
X58794482Y-63395812D01*
X58914180Y-63359502D01*
X58978902Y-63324907D01*
X59187601Y-63388215D01*
X59415000Y-63410612D01*
X59642400Y-63388215D01*
X59861060Y-63321885D01*
X60050001Y-63220894D01*
X60238941Y-63321885D01*
X60457601Y-63388215D01*
X60685000Y-63410612D01*
X60912400Y-63388215D01*
X61131060Y-63321885D01*
X61332579Y-63214171D01*
X61509212Y-63069212D01*
X61654171Y-62892579D01*
X61761885Y-62691059D01*
X61828215Y-62472399D01*
X61845000Y-62301978D01*
X61845000Y-61738021D01*
X61828215Y-61567600D01*
X61761885Y-61348940D01*
X61654171Y-61147421D01*
X61509212Y-60970788D01*
X61332578Y-60825829D01*
X61131059Y-60718115D01*
X60912399Y-60651785D01*
X60685000Y-60629388D01*
X60457600Y-60651785D01*
X60238940Y-60718115D01*
X60050000Y-60819106D01*
X59861059Y-60718115D01*
X59642399Y-60651785D01*
X59415000Y-60629388D01*
X59187600Y-60651785D01*
X58978902Y-60715093D01*
X58914180Y-60680498D01*
X58794482Y-60644188D01*
X58670000Y-60631928D01*
X58430750Y-60635000D01*
X58272000Y-60793750D01*
X58272000Y-61566892D01*
X58271785Y-61567601D01*
X58255000Y-61738022D01*
X58018000Y-61738022D01*
X58018000Y-60793750D01*
X57859250Y-60635000D01*
X57620000Y-60631928D01*
X57495518Y-60644188D01*
X57375820Y-60680498D01*
X57265506Y-60739463D01*
X57168815Y-60818815D01*
X57089463Y-60915506D01*
X57030498Y-61025820D01*
X57000000Y-61126358D01*
X57000000Y-59982322D01*
X57003676Y-59944999D01*
X57000000Y-59907676D01*
X57000000Y-59907667D01*
X56989003Y-59796014D01*
X56945546Y-59652753D01*
X56917891Y-59601015D01*
X56874974Y-59520723D01*
X56803799Y-59433997D01*
X56780001Y-59404999D01*
X56751004Y-59381202D01*
X54352345Y-56982543D01*
X54366185Y-56971185D01*
X54445537Y-56874494D01*
X54504502Y-56764180D01*
X54525393Y-56695313D01*
X54549866Y-56725134D01*
X54775986Y-56910706D01*
X55033966Y-57048599D01*
X55313889Y-57133513D01*
X55532050Y-57155000D01*
X55677950Y-57155000D01*
X55896111Y-57133513D01*
X56176034Y-57048599D01*
X56434014Y-56910706D01*
X56660134Y-56725134D01*
X56845706Y-56499014D01*
X56880201Y-56434477D01*
X56949822Y-56551355D01*
X57144731Y-56767588D01*
X57378080Y-56941641D01*
X57640901Y-57066825D01*
X57788110Y-57111476D01*
X58018000Y-56990155D01*
X58018000Y-55797000D01*
X58272000Y-55797000D01*
X58272000Y-56990155D01*
X58501890Y-57111476D01*
X58649099Y-57066825D01*
X58911920Y-56941641D01*
X59145269Y-56767588D01*
X59340178Y-56551355D01*
X59415000Y-56425745D01*
X59489822Y-56551355D01*
X59684731Y-56767588D01*
X59918080Y-56941641D01*
X60180901Y-57066825D01*
X60328110Y-57111476D01*
X60558000Y-56990155D01*
X60558000Y-55797000D01*
X58272000Y-55797000D01*
X58018000Y-55797000D01*
X57998000Y-55797000D01*
X57998000Y-55543000D01*
X58018000Y-55543000D01*
X58018000Y-55523000D01*
X58272000Y-55523000D01*
X58272000Y-55543000D01*
X58272000Y-55543000D01*
G37*
X58272000Y-55543000D02*
X60558000Y-55543000D01*
X60558000Y-55523000D01*
X60812000Y-55523000D01*
X60812000Y-55543000D01*
X60832000Y-55543000D01*
X60832000Y-55797000D01*
X60812000Y-55797000D01*
X60812000Y-56990155D01*
X61041890Y-57111476D01*
X61189099Y-57066825D01*
X61451920Y-56941641D01*
X61685269Y-56767588D01*
X61830001Y-56607022D01*
X61830000Y-59712677D01*
X61826324Y-59750000D01*
X61830000Y-59787322D01*
X61830000Y-59787332D01*
X61840997Y-59898985D01*
X61871942Y-60000998D01*
X61884454Y-60042246D01*
X61955026Y-60174276D01*
X61990039Y-60216939D01*
X62049999Y-60290001D01*
X62079003Y-60313804D01*
X62761354Y-60996156D01*
X62745498Y-61025820D01*
X62709188Y-61145518D01*
X62696928Y-61270000D01*
X62696928Y-62770000D01*
X62709188Y-62894482D01*
X62745498Y-63014180D01*
X62804463Y-63124494D01*
X62883815Y-63221185D01*
X62980506Y-63300537D01*
X63090820Y-63359502D01*
X63210518Y-63395812D01*
X63335000Y-63408072D01*
X64385000Y-63408072D01*
X64509482Y-63395812D01*
X64629180Y-63359502D01*
X64693902Y-63324907D01*
X64902601Y-63388215D01*
X65130000Y-63410612D01*
X65357400Y-63388215D01*
X65576060Y-63321885D01*
X65765001Y-63220894D01*
X65953941Y-63321885D01*
X66172601Y-63388215D01*
X66400000Y-63410612D01*
X66482735Y-63402463D01*
X66088886Y-63796312D01*
X65906335Y-63760000D01*
X65623665Y-63760000D01*
X65346426Y-63815147D01*
X65085273Y-63923320D01*
X64850241Y-64080363D01*
X64650363Y-64280241D01*
X64493320Y-64515273D01*
X64385147Y-64776426D01*
X64330000Y-65053665D01*
X64330000Y-65336335D01*
X64374491Y-65560001D01*
X62075509Y-65560001D01*
X62120000Y-65336335D01*
X62120000Y-65053665D01*
X62064853Y-64776426D01*
X61956680Y-64515273D01*
X61799637Y-64280241D01*
X61599759Y-64080363D01*
X61364727Y-63923320D01*
X61103574Y-63815147D01*
X60826335Y-63760000D01*
X60543665Y-63760000D01*
X60266426Y-63815147D01*
X60005273Y-63923320D01*
X59770241Y-64080363D01*
X59570363Y-64280241D01*
X59413320Y-64515273D01*
X59305147Y-64776426D01*
X59250000Y-65053665D01*
X59250000Y-65336335D01*
X59294491Y-65560001D01*
X58900509Y-65560001D01*
X58945000Y-65336335D01*
X58945000Y-65053665D01*
X58889853Y-64776426D01*
X58781680Y-64515273D01*
X58624637Y-64280241D01*
X58424759Y-64080363D01*
X58189727Y-63923320D01*
X57928574Y-63815147D01*
X57651335Y-63760000D01*
X57368665Y-63760000D01*
X57091426Y-63815147D01*
X56830273Y-63923320D01*
X56595241Y-64080363D01*
X56395363Y-64280241D01*
X56238320Y-64515273D01*
X56130147Y-64776426D01*
X56075000Y-65053665D01*
X56075000Y-65336335D01*
X56119491Y-65560001D01*
X55774802Y-65560001D01*
X55733688Y-65518887D01*
X55770000Y-65336335D01*
X55770000Y-65053665D01*
X55733688Y-64871114D01*
X56751003Y-63853799D01*
X56780001Y-63830001D01*
X56874974Y-63714276D01*
X56945546Y-63582247D01*
X56989003Y-63438986D01*
X57000000Y-63327333D01*
X57000000Y-63327323D01*
X57003676Y-63290000D01*
X57000000Y-63252677D01*
X57000000Y-62913642D01*
X57030498Y-63014180D01*
X57089463Y-63124494D01*
X57168815Y-63221185D01*
X57265506Y-63300537D01*
X57375820Y-63359502D01*
X57495518Y-63395812D01*
X57620000Y-63408072D01*
X57859250Y-63405000D01*
X58018000Y-63246250D01*
X58018000Y-62147000D01*
X57998000Y-62147000D01*
X57998000Y-61893000D01*
X58018000Y-61893000D01*
X58018000Y-61738022D01*
X58255000Y-61738022D01*
X58255000Y-62301979D01*
X58271785Y-62472400D01*
X58272000Y-62473109D01*
X58272000Y-63246250D01*
X58430750Y-63405000D01*
X58670000Y-63408072D01*
X58794482Y-63395812D01*
X58914180Y-63359502D01*
X58978902Y-63324907D01*
X59187601Y-63388215D01*
X59415000Y-63410612D01*
X59642400Y-63388215D01*
X59861060Y-63321885D01*
X60050001Y-63220894D01*
X60238941Y-63321885D01*
X60457601Y-63388215D01*
X60685000Y-63410612D01*
X60912400Y-63388215D01*
X61131060Y-63321885D01*
X61332579Y-63214171D01*
X61509212Y-63069212D01*
X61654171Y-62892579D01*
X61761885Y-62691059D01*
X61828215Y-62472399D01*
X61845000Y-62301978D01*
X61845000Y-61738021D01*
X61828215Y-61567600D01*
X61761885Y-61348940D01*
X61654171Y-61147421D01*
X61509212Y-60970788D01*
X61332578Y-60825829D01*
X61131059Y-60718115D01*
X60912399Y-60651785D01*
X60685000Y-60629388D01*
X60457600Y-60651785D01*
X60238940Y-60718115D01*
X60050000Y-60819106D01*
X59861059Y-60718115D01*
X59642399Y-60651785D01*
X59415000Y-60629388D01*
X59187600Y-60651785D01*
X58978902Y-60715093D01*
X58914180Y-60680498D01*
X58794482Y-60644188D01*
X58670000Y-60631928D01*
X58430750Y-60635000D01*
X58272000Y-60793750D01*
X58272000Y-61566892D01*
X58271785Y-61567601D01*
X58255000Y-61738022D01*
X58018000Y-61738022D01*
X58018000Y-60793750D01*
X57859250Y-60635000D01*
X57620000Y-60631928D01*
X57495518Y-60644188D01*
X57375820Y-60680498D01*
X57265506Y-60739463D01*
X57168815Y-60818815D01*
X57089463Y-60915506D01*
X57030498Y-61025820D01*
X57000000Y-61126358D01*
X57000000Y-59982322D01*
X57003676Y-59944999D01*
X57000000Y-59907676D01*
X57000000Y-59907667D01*
X56989003Y-59796014D01*
X56945546Y-59652753D01*
X56917891Y-59601015D01*
X56874974Y-59520723D01*
X56803799Y-59433997D01*
X56780001Y-59404999D01*
X56751004Y-59381202D01*
X54352345Y-56982543D01*
X54366185Y-56971185D01*
X54445537Y-56874494D01*
X54504502Y-56764180D01*
X54525393Y-56695313D01*
X54549866Y-56725134D01*
X54775986Y-56910706D01*
X55033966Y-57048599D01*
X55313889Y-57133513D01*
X55532050Y-57155000D01*
X55677950Y-57155000D01*
X55896111Y-57133513D01*
X56176034Y-57048599D01*
X56434014Y-56910706D01*
X56660134Y-56725134D01*
X56845706Y-56499014D01*
X56880201Y-56434477D01*
X56949822Y-56551355D01*
X57144731Y-56767588D01*
X57378080Y-56941641D01*
X57640901Y-57066825D01*
X57788110Y-57111476D01*
X58018000Y-56990155D01*
X58018000Y-55797000D01*
X58272000Y-55797000D01*
X58272000Y-56990155D01*
X58501890Y-57111476D01*
X58649099Y-57066825D01*
X58911920Y-56941641D01*
X59145269Y-56767588D01*
X59340178Y-56551355D01*
X59415000Y-56425745D01*
X59489822Y-56551355D01*
X59684731Y-56767588D01*
X59918080Y-56941641D01*
X60180901Y-57066825D01*
X60328110Y-57111476D01*
X60558000Y-56990155D01*
X60558000Y-55797000D01*
X58272000Y-55797000D01*
X58018000Y-55797000D01*
X57998000Y-55797000D01*
X57998000Y-55543000D01*
X58018000Y-55543000D01*
X58018000Y-55523000D01*
X58272000Y-55523000D01*
X58272000Y-55543000D01*
G36*
X94215000Y-54714802D02*
G01*
X94215001Y-58626928D01*
X94125000Y-58626928D01*
X94000518Y-58639188D01*
X93880820Y-58675498D01*
X93830000Y-58702662D01*
X93830000Y-57612322D01*
X93833676Y-57574999D01*
X93830000Y-57537676D01*
X93830000Y-57537667D01*
X93819003Y-57426014D01*
X93775546Y-57282753D01*
X93704974Y-57150724D01*
X93610001Y-57034999D01*
X93581003Y-57011201D01*
X92363804Y-55794003D01*
X92340001Y-55764999D01*
X92224276Y-55670026D01*
X92092247Y-55599454D01*
X91948986Y-55555997D01*
X91837333Y-55545000D01*
X91837322Y-55545000D01*
X91800000Y-55541324D01*
X91762678Y-55545000D01*
X88575901Y-55545000D01*
X88553932Y-55503899D01*
X88374608Y-55285392D01*
X88156101Y-55106068D01*
X87906808Y-54972818D01*
X87636309Y-54890764D01*
X87425492Y-54870000D01*
X87284508Y-54870000D01*
X87073691Y-54890764D01*
X86803192Y-54972818D01*
X86553899Y-55106068D01*
X86335392Y-55285392D01*
X86156068Y-55503899D01*
X86022818Y-55753192D01*
X85940764Y-56023691D01*
X85913057Y-56305000D01*
X85940764Y-56586309D01*
X86022818Y-56856808D01*
X86156068Y-57106101D01*
X86335392Y-57324608D01*
X86553899Y-57503932D01*
X86686858Y-57575000D01*
X86553899Y-57646068D01*
X86335392Y-57825392D01*
X86156068Y-58043899D01*
X86022818Y-58293192D01*
X85940764Y-58563691D01*
X85913057Y-58845000D01*
X85940764Y-59126309D01*
X86022818Y-59396808D01*
X86156068Y-59646101D01*
X86335392Y-59864608D01*
X86553899Y-60043932D01*
X86686858Y-60115000D01*
X86553899Y-60186068D01*
X86335392Y-60365392D01*
X86156068Y-60583899D01*
X86022818Y-60833192D01*
X85940764Y-61103691D01*
X85913057Y-61385000D01*
X85940764Y-61666309D01*
X85966151Y-61750001D01*
X83714803Y-61750001D01*
X81135708Y-59170907D01*
X81149236Y-59126309D01*
X81176943Y-58845000D01*
X81149236Y-58563691D01*
X81067182Y-58293192D01*
X80933932Y-58043899D01*
X80754608Y-57825392D01*
X80641518Y-57732581D01*
X80659482Y-57730812D01*
X80779180Y-57694502D01*
X80889494Y-57635537D01*
X80986185Y-57556185D01*
X81065537Y-57459494D01*
X81124502Y-57349180D01*
X81160812Y-57229482D01*
X81173072Y-57105000D01*
X81173072Y-55505000D01*
X81160812Y-55380518D01*
X81124502Y-55260820D01*
X81065537Y-55150506D01*
X80986185Y-55053815D01*
X80889494Y-54974463D01*
X80779180Y-54915498D01*
X80659482Y-54879188D01*
X80535000Y-54866928D01*
X78935000Y-54866928D01*
X78810518Y-54879188D01*
X78690820Y-54915498D01*
X78580506Y-54974463D01*
X78483815Y-55053815D01*
X78404463Y-55150506D01*
X78345498Y-55260820D01*
X78309188Y-55380518D01*
X78296928Y-55505000D01*
X78296928Y-55545000D01*
X77867322Y-55545000D01*
X77829999Y-55541324D01*
X77792676Y-55545000D01*
X77792667Y-55545000D01*
X77681014Y-55555997D01*
X77537753Y-55599454D01*
X77405724Y-55670026D01*
X77289999Y-55764999D01*
X77266201Y-55793997D01*
X76048998Y-57011201D01*
X76020000Y-57034999D01*
X75996202Y-57063997D01*
X75996201Y-57063998D01*
X75925026Y-57150724D01*
X75854454Y-57282754D01*
X75834305Y-57349180D01*
X75810998Y-57426014D01*
X75801839Y-57519003D01*
X75796324Y-57575000D01*
X75800001Y-57612332D01*
X75800001Y-59210988D01*
X75780256Y-59197795D01*
X75591898Y-59119774D01*
X75391939Y-59080000D01*
X75215903Y-59080000D01*
X75314774Y-59013937D01*
X75458937Y-58869774D01*
X75572205Y-58700256D01*
X75650226Y-58511898D01*
X75690000Y-58311939D01*
X75690000Y-58108061D01*
X75650226Y-57908102D01*
X75572205Y-57719744D01*
X75458937Y-57550226D01*
X75314774Y-57406063D01*
X75145256Y-57292795D01*
X74956898Y-57214774D01*
X74756939Y-57175000D01*
X74553061Y-57175000D01*
X74353102Y-57214774D01*
X74164744Y-57292795D01*
X73995226Y-57406063D01*
X73851063Y-57550226D01*
X73737795Y-57719744D01*
X73659774Y-57908102D01*
X73620000Y-58108061D01*
X73620000Y-58170198D01*
X72729004Y-59061195D01*
X72700000Y-59084998D01*
X72644872Y-59152173D01*
X72605027Y-59200723D01*
X72559453Y-59285986D01*
X72534455Y-59332753D01*
X72490998Y-59476014D01*
X72480001Y-59587667D01*
X72480001Y-59587677D01*
X72476325Y-59624999D01*
X72480001Y-59662322D01*
X72480001Y-60693526D01*
X72342399Y-60651785D01*
X72115000Y-60629388D01*
X71887600Y-60651785D01*
X71668940Y-60718115D01*
X71480000Y-60819106D01*
X71291059Y-60718115D01*
X71072399Y-60651785D01*
X70845000Y-60629388D01*
X70617600Y-60651785D01*
X70408902Y-60715093D01*
X70344180Y-60680498D01*
X70224482Y-60644188D01*
X70100000Y-60631928D01*
X69860750Y-60635000D01*
X69702000Y-60793750D01*
X69702000Y-61566892D01*
X69701785Y-61567601D01*
X69685000Y-61738022D01*
X69685000Y-62301979D01*
X69701785Y-62472400D01*
X69702000Y-62473109D01*
X69702000Y-63246250D01*
X69860750Y-63405000D01*
X70100000Y-63408072D01*
X70224482Y-63395812D01*
X70344180Y-63359502D01*
X70408902Y-63324907D01*
X70617601Y-63388215D01*
X70845000Y-63410612D01*
X71072400Y-63388215D01*
X71291060Y-63321885D01*
X71480001Y-63220894D01*
X71668941Y-63321885D01*
X71887601Y-63388215D01*
X72115000Y-63410612D01*
X72342400Y-63388215D01*
X72480002Y-63346474D01*
X72480002Y-63804491D01*
X72256335Y-63760000D01*
X71973665Y-63760000D01*
X71696426Y-63815147D01*
X71435273Y-63923320D01*
X71200241Y-64080363D01*
X71000363Y-64280241D01*
X70843320Y-64515273D01*
X70735147Y-64776426D01*
X70680000Y-65053665D01*
X70680000Y-65336335D01*
X70724491Y-65560001D01*
X70330509Y-65560001D01*
X70375000Y-65336335D01*
X70375000Y-65053665D01*
X70319853Y-64776426D01*
X70211680Y-64515273D01*
X70054637Y-64280241D01*
X69854759Y-64080363D01*
X69619727Y-63923320D01*
X69358574Y-63815147D01*
X69081335Y-63760000D01*
X68798665Y-63760000D01*
X68521426Y-63815147D01*
X68260273Y-63923320D01*
X68025241Y-64080363D01*
X67825363Y-64280241D01*
X67668320Y-64515273D01*
X67560147Y-64776426D01*
X67505000Y-65053665D01*
X67505000Y-65336335D01*
X67549491Y-65560001D01*
X67155509Y-65560001D01*
X67200000Y-65336335D01*
X67200000Y-65053665D01*
X67163688Y-64871114D01*
X68181003Y-63853799D01*
X68210001Y-63830001D01*
X68304974Y-63714276D01*
X68375546Y-63582247D01*
X68419003Y-63438986D01*
X68430000Y-63327333D01*
X68430000Y-63327323D01*
X68433676Y-63290000D01*
X68430000Y-63252677D01*
X68430000Y-62913642D01*
X68460498Y-63014180D01*
X68519463Y-63124494D01*
X68598815Y-63221185D01*
X68695506Y-63300537D01*
X68805820Y-63359502D01*
X68925518Y-63395812D01*
X69050000Y-63408072D01*
X69289250Y-63405000D01*
X69448000Y-63246250D01*
X69448000Y-62147000D01*
X69428000Y-62147000D01*
X69428000Y-61893000D01*
X69448000Y-61893000D01*
X69448000Y-60793750D01*
X69289250Y-60635000D01*
X69050000Y-60631928D01*
X68925518Y-60644188D01*
X68805820Y-60680498D01*
X68695506Y-60739463D01*
X68598815Y-60818815D01*
X68519463Y-60915506D01*
X68460498Y-61025820D01*
X68430000Y-61126358D01*
X68430000Y-60818711D01*
X68473937Y-60774774D01*
X68587205Y-60605256D01*
X68665226Y-60416898D01*
X68705000Y-60216939D01*
X68705000Y-60013061D01*
X68665226Y-59813102D01*
X68587205Y-59624744D01*
X68473937Y-59455226D01*
X68329774Y-59311063D01*
X68160256Y-59197795D01*
X67971898Y-59119774D01*
X67771939Y-59080000D01*
X67709802Y-59080000D01*
X65687011Y-57057210D01*
X65699494Y-57050537D01*
X65796185Y-56971185D01*
X65875537Y-56874494D01*
X65934502Y-56764180D01*
X65955393Y-56695313D01*
X65979866Y-56725134D01*
X66205986Y-56910706D01*
X66463966Y-57048599D01*
X66743889Y-57133513D01*
X66962050Y-57155000D01*
X67107950Y-57155000D01*
X67326111Y-57133513D01*
X67606034Y-57048599D01*
X67864014Y-56910706D01*
X68090134Y-56725134D01*
X68275706Y-56499014D01*
X68310201Y-56434477D01*
X68379822Y-56551355D01*
X68574731Y-56767588D01*
X68808080Y-56941641D01*
X69070901Y-57066825D01*
X69218110Y-57111476D01*
X69448000Y-56990155D01*
X69448000Y-55797000D01*
X69702000Y-55797000D01*
X69702000Y-56990155D01*
X69931890Y-57111476D01*
X70079099Y-57066825D01*
X70341920Y-56941641D01*
X70575269Y-56767588D01*
X70770178Y-56551355D01*
X70845000Y-56425745D01*
X70919822Y-56551355D01*
X71114731Y-56767588D01*
X71348080Y-56941641D01*
X71610901Y-57066825D01*
X71758110Y-57111476D01*
X71988000Y-56990155D01*
X71988000Y-55797000D01*
X72242000Y-55797000D01*
X72242000Y-56990155D01*
X72471890Y-57111476D01*
X72619099Y-57066825D01*
X72881920Y-56941641D01*
X73115269Y-56767588D01*
X73310178Y-56551355D01*
X73459157Y-56301252D01*
X73556481Y-56026891D01*
X73435814Y-55797000D01*
X72242000Y-55797000D01*
X71988000Y-55797000D01*
X69702000Y-55797000D01*
X69448000Y-55797000D01*
X69428000Y-55797000D01*
X69428000Y-55543000D01*
X69448000Y-55543000D01*
X69448000Y-55523000D01*
X69702000Y-55523000D01*
X69702000Y-55543000D01*
X71988000Y-55543000D01*
X71988000Y-55523000D01*
X72242000Y-55523000D01*
X72242000Y-55543000D01*
X73435814Y-55543000D01*
X73556481Y-55313109D01*
X73459157Y-55038748D01*
X73310178Y-54788645D01*
X73115269Y-54572412D01*
X73051705Y-54525000D01*
X94025199Y-54525000D01*
X94215000Y-54714802D01*
X94215000Y-54714802D01*
G37*
X94215000Y-54714802D02*
X94215001Y-58626928D01*
X94125000Y-58626928D01*
X94000518Y-58639188D01*
X93880820Y-58675498D01*
X93830000Y-58702662D01*
X93830000Y-57612322D01*
X93833676Y-57574999D01*
X93830000Y-57537676D01*
X93830000Y-57537667D01*
X93819003Y-57426014D01*
X93775546Y-57282753D01*
X93704974Y-57150724D01*
X93610001Y-57034999D01*
X93581003Y-57011201D01*
X92363804Y-55794003D01*
X92340001Y-55764999D01*
X92224276Y-55670026D01*
X92092247Y-55599454D01*
X91948986Y-55555997D01*
X91837333Y-55545000D01*
X91837322Y-55545000D01*
X91800000Y-55541324D01*
X91762678Y-55545000D01*
X88575901Y-55545000D01*
X88553932Y-55503899D01*
X88374608Y-55285392D01*
X88156101Y-55106068D01*
X87906808Y-54972818D01*
X87636309Y-54890764D01*
X87425492Y-54870000D01*
X87284508Y-54870000D01*
X87073691Y-54890764D01*
X86803192Y-54972818D01*
X86553899Y-55106068D01*
X86335392Y-55285392D01*
X86156068Y-55503899D01*
X86022818Y-55753192D01*
X85940764Y-56023691D01*
X85913057Y-56305000D01*
X85940764Y-56586309D01*
X86022818Y-56856808D01*
X86156068Y-57106101D01*
X86335392Y-57324608D01*
X86553899Y-57503932D01*
X86686858Y-57575000D01*
X86553899Y-57646068D01*
X86335392Y-57825392D01*
X86156068Y-58043899D01*
X86022818Y-58293192D01*
X85940764Y-58563691D01*
X85913057Y-58845000D01*
X85940764Y-59126309D01*
X86022818Y-59396808D01*
X86156068Y-59646101D01*
X86335392Y-59864608D01*
X86553899Y-60043932D01*
X86686858Y-60115000D01*
X86553899Y-60186068D01*
X86335392Y-60365392D01*
X86156068Y-60583899D01*
X86022818Y-60833192D01*
X85940764Y-61103691D01*
X85913057Y-61385000D01*
X85940764Y-61666309D01*
X85966151Y-61750001D01*
X83714803Y-61750001D01*
X81135708Y-59170907D01*
X81149236Y-59126309D01*
X81176943Y-58845000D01*
X81149236Y-58563691D01*
X81067182Y-58293192D01*
X80933932Y-58043899D01*
X80754608Y-57825392D01*
X80641518Y-57732581D01*
X80659482Y-57730812D01*
X80779180Y-57694502D01*
X80889494Y-57635537D01*
X80986185Y-57556185D01*
X81065537Y-57459494D01*
X81124502Y-57349180D01*
X81160812Y-57229482D01*
X81173072Y-57105000D01*
X81173072Y-55505000D01*
X81160812Y-55380518D01*
X81124502Y-55260820D01*
X81065537Y-55150506D01*
X80986185Y-55053815D01*
X80889494Y-54974463D01*
X80779180Y-54915498D01*
X80659482Y-54879188D01*
X80535000Y-54866928D01*
X78935000Y-54866928D01*
X78810518Y-54879188D01*
X78690820Y-54915498D01*
X78580506Y-54974463D01*
X78483815Y-55053815D01*
X78404463Y-55150506D01*
X78345498Y-55260820D01*
X78309188Y-55380518D01*
X78296928Y-55505000D01*
X78296928Y-55545000D01*
X77867322Y-55545000D01*
X77829999Y-55541324D01*
X77792676Y-55545000D01*
X77792667Y-55545000D01*
X77681014Y-55555997D01*
X77537753Y-55599454D01*
X77405724Y-55670026D01*
X77289999Y-55764999D01*
X77266201Y-55793997D01*
X76048998Y-57011201D01*
X76020000Y-57034999D01*
X75996202Y-57063997D01*
X75996201Y-57063998D01*
X75925026Y-57150724D01*
X75854454Y-57282754D01*
X75834305Y-57349180D01*
X75810998Y-57426014D01*
X75801839Y-57519003D01*
X75796324Y-57575000D01*
X75800001Y-57612332D01*
X75800001Y-59210988D01*
X75780256Y-59197795D01*
X75591898Y-59119774D01*
X75391939Y-59080000D01*
X75215903Y-59080000D01*
X75314774Y-59013937D01*
X75458937Y-58869774D01*
X75572205Y-58700256D01*
X75650226Y-58511898D01*
X75690000Y-58311939D01*
X75690000Y-58108061D01*
X75650226Y-57908102D01*
X75572205Y-57719744D01*
X75458937Y-57550226D01*
X75314774Y-57406063D01*
X75145256Y-57292795D01*
X74956898Y-57214774D01*
X74756939Y-57175000D01*
X74553061Y-57175000D01*
X74353102Y-57214774D01*
X74164744Y-57292795D01*
X73995226Y-57406063D01*
X73851063Y-57550226D01*
X73737795Y-57719744D01*
X73659774Y-57908102D01*
X73620000Y-58108061D01*
X73620000Y-58170198D01*
X72729004Y-59061195D01*
X72700000Y-59084998D01*
X72644872Y-59152173D01*
X72605027Y-59200723D01*
X72559453Y-59285986D01*
X72534455Y-59332753D01*
X72490998Y-59476014D01*
X72480001Y-59587667D01*
X72480001Y-59587677D01*
X72476325Y-59624999D01*
X72480001Y-59662322D01*
X72480001Y-60693526D01*
X72342399Y-60651785D01*
X72115000Y-60629388D01*
X71887600Y-60651785D01*
X71668940Y-60718115D01*
X71480000Y-60819106D01*
X71291059Y-60718115D01*
X71072399Y-60651785D01*
X70845000Y-60629388D01*
X70617600Y-60651785D01*
X70408902Y-60715093D01*
X70344180Y-60680498D01*
X70224482Y-60644188D01*
X70100000Y-60631928D01*
X69860750Y-60635000D01*
X69702000Y-60793750D01*
X69702000Y-61566892D01*
X69701785Y-61567601D01*
X69685000Y-61738022D01*
X69685000Y-62301979D01*
X69701785Y-62472400D01*
X69702000Y-62473109D01*
X69702000Y-63246250D01*
X69860750Y-63405000D01*
X70100000Y-63408072D01*
X70224482Y-63395812D01*
X70344180Y-63359502D01*
X70408902Y-63324907D01*
X70617601Y-63388215D01*
X70845000Y-63410612D01*
X71072400Y-63388215D01*
X71291060Y-63321885D01*
X71480001Y-63220894D01*
X71668941Y-63321885D01*
X71887601Y-63388215D01*
X72115000Y-63410612D01*
X72342400Y-63388215D01*
X72480002Y-63346474D01*
X72480002Y-63804491D01*
X72256335Y-63760000D01*
X71973665Y-63760000D01*
X71696426Y-63815147D01*
X71435273Y-63923320D01*
X71200241Y-64080363D01*
X71000363Y-64280241D01*
X70843320Y-64515273D01*
X70735147Y-64776426D01*
X70680000Y-65053665D01*
X70680000Y-65336335D01*
X70724491Y-65560001D01*
X70330509Y-65560001D01*
X70375000Y-65336335D01*
X70375000Y-65053665D01*
X70319853Y-64776426D01*
X70211680Y-64515273D01*
X70054637Y-64280241D01*
X69854759Y-64080363D01*
X69619727Y-63923320D01*
X69358574Y-63815147D01*
X69081335Y-63760000D01*
X68798665Y-63760000D01*
X68521426Y-63815147D01*
X68260273Y-63923320D01*
X68025241Y-64080363D01*
X67825363Y-64280241D01*
X67668320Y-64515273D01*
X67560147Y-64776426D01*
X67505000Y-65053665D01*
X67505000Y-65336335D01*
X67549491Y-65560001D01*
X67155509Y-65560001D01*
X67200000Y-65336335D01*
X67200000Y-65053665D01*
X67163688Y-64871114D01*
X68181003Y-63853799D01*
X68210001Y-63830001D01*
X68304974Y-63714276D01*
X68375546Y-63582247D01*
X68419003Y-63438986D01*
X68430000Y-63327333D01*
X68430000Y-63327323D01*
X68433676Y-63290000D01*
X68430000Y-63252677D01*
X68430000Y-62913642D01*
X68460498Y-63014180D01*
X68519463Y-63124494D01*
X68598815Y-63221185D01*
X68695506Y-63300537D01*
X68805820Y-63359502D01*
X68925518Y-63395812D01*
X69050000Y-63408072D01*
X69289250Y-63405000D01*
X69448000Y-63246250D01*
X69448000Y-62147000D01*
X69428000Y-62147000D01*
X69428000Y-61893000D01*
X69448000Y-61893000D01*
X69448000Y-60793750D01*
X69289250Y-60635000D01*
X69050000Y-60631928D01*
X68925518Y-60644188D01*
X68805820Y-60680498D01*
X68695506Y-60739463D01*
X68598815Y-60818815D01*
X68519463Y-60915506D01*
X68460498Y-61025820D01*
X68430000Y-61126358D01*
X68430000Y-60818711D01*
X68473937Y-60774774D01*
X68587205Y-60605256D01*
X68665226Y-60416898D01*
X68705000Y-60216939D01*
X68705000Y-60013061D01*
X68665226Y-59813102D01*
X68587205Y-59624744D01*
X68473937Y-59455226D01*
X68329774Y-59311063D01*
X68160256Y-59197795D01*
X67971898Y-59119774D01*
X67771939Y-59080000D01*
X67709802Y-59080000D01*
X65687011Y-57057210D01*
X65699494Y-57050537D01*
X65796185Y-56971185D01*
X65875537Y-56874494D01*
X65934502Y-56764180D01*
X65955393Y-56695313D01*
X65979866Y-56725134D01*
X66205986Y-56910706D01*
X66463966Y-57048599D01*
X66743889Y-57133513D01*
X66962050Y-57155000D01*
X67107950Y-57155000D01*
X67326111Y-57133513D01*
X67606034Y-57048599D01*
X67864014Y-56910706D01*
X68090134Y-56725134D01*
X68275706Y-56499014D01*
X68310201Y-56434477D01*
X68379822Y-56551355D01*
X68574731Y-56767588D01*
X68808080Y-56941641D01*
X69070901Y-57066825D01*
X69218110Y-57111476D01*
X69448000Y-56990155D01*
X69448000Y-55797000D01*
X69702000Y-55797000D01*
X69702000Y-56990155D01*
X69931890Y-57111476D01*
X70079099Y-57066825D01*
X70341920Y-56941641D01*
X70575269Y-56767588D01*
X70770178Y-56551355D01*
X70845000Y-56425745D01*
X70919822Y-56551355D01*
X71114731Y-56767588D01*
X71348080Y-56941641D01*
X71610901Y-57066825D01*
X71758110Y-57111476D01*
X71988000Y-56990155D01*
X71988000Y-55797000D01*
X72242000Y-55797000D01*
X72242000Y-56990155D01*
X72471890Y-57111476D01*
X72619099Y-57066825D01*
X72881920Y-56941641D01*
X73115269Y-56767588D01*
X73310178Y-56551355D01*
X73459157Y-56301252D01*
X73556481Y-56026891D01*
X73435814Y-55797000D01*
X72242000Y-55797000D01*
X71988000Y-55797000D01*
X69702000Y-55797000D01*
X69448000Y-55797000D01*
X69428000Y-55797000D01*
X69428000Y-55543000D01*
X69448000Y-55543000D01*
X69448000Y-55523000D01*
X69702000Y-55523000D01*
X69702000Y-55543000D01*
X71988000Y-55543000D01*
X71988000Y-55523000D01*
X72242000Y-55523000D01*
X72242000Y-55543000D01*
X73435814Y-55543000D01*
X73556481Y-55313109D01*
X73459157Y-55038748D01*
X73310178Y-54788645D01*
X73115269Y-54572412D01*
X73051705Y-54525000D01*
X94025199Y-54525000D01*
X94215000Y-54714802D01*
G36*
X118345001Y-59442668D02*
G01*
X118341324Y-59480000D01*
X118345001Y-59517333D01*
X118355998Y-59628986D01*
X118361190Y-59646101D01*
X118399454Y-59772246D01*
X118470026Y-59904276D01*
X118524592Y-59970764D01*
X118565000Y-60020001D01*
X118593998Y-60043799D01*
X119385382Y-60835183D01*
X119319463Y-60915506D01*
X119260498Y-61025820D01*
X119224188Y-61145518D01*
X119211928Y-61270000D01*
X119211928Y-62770000D01*
X119224188Y-62894482D01*
X119260498Y-63014180D01*
X119319463Y-63124494D01*
X119398815Y-63221185D01*
X119495506Y-63300537D01*
X119605820Y-63359502D01*
X119725518Y-63395812D01*
X119850000Y-63408072D01*
X120900000Y-63408072D01*
X121024482Y-63395812D01*
X121144180Y-63359502D01*
X121208902Y-63324907D01*
X121417601Y-63388215D01*
X121645000Y-63410612D01*
X121872400Y-63388215D01*
X122091060Y-63321885D01*
X122280001Y-63220894D01*
X122468941Y-63321885D01*
X122687601Y-63388215D01*
X122915000Y-63410612D01*
X122997735Y-63402463D01*
X122603886Y-63796312D01*
X122421335Y-63760000D01*
X122138665Y-63760000D01*
X121861426Y-63815147D01*
X121600273Y-63923320D01*
X121365241Y-64080363D01*
X121165363Y-64280241D01*
X121058481Y-64440202D01*
X120999644Y-64445997D01*
X120856383Y-64489454D01*
X120724354Y-64560026D01*
X120608629Y-64654999D01*
X120584831Y-64683997D01*
X119894256Y-65374572D01*
X119911943Y-65195000D01*
X119884236Y-64913691D01*
X119802182Y-64643192D01*
X119668932Y-64393899D01*
X119489608Y-64175392D01*
X119271101Y-63996068D01*
X119021808Y-63862818D01*
X118751309Y-63780764D01*
X118540492Y-63760000D01*
X118399508Y-63760000D01*
X118188691Y-63780764D01*
X117918192Y-63862818D01*
X117668899Y-63996068D01*
X117450392Y-64175392D01*
X117271068Y-64393899D01*
X117204061Y-64519261D01*
X116098802Y-63414003D01*
X116074999Y-63384999D01*
X115959274Y-63290026D01*
X115827245Y-63219454D01*
X115683984Y-63175997D01*
X115572331Y-63165000D01*
X115572320Y-63165000D01*
X115534998Y-63161324D01*
X115497676Y-63165000D01*
X114610901Y-63165000D01*
X114588932Y-63123899D01*
X114409608Y-62905392D01*
X114191101Y-62726068D01*
X114058142Y-62655000D01*
X114191101Y-62583932D01*
X114409608Y-62404608D01*
X114588932Y-62186101D01*
X114722182Y-61936808D01*
X114804236Y-61666309D01*
X114831943Y-61385000D01*
X114804236Y-61103691D01*
X114722182Y-60833192D01*
X114588932Y-60583899D01*
X114409608Y-60365392D01*
X114191101Y-60186068D01*
X114058142Y-60115000D01*
X114191101Y-60043932D01*
X114409608Y-59864608D01*
X114588932Y-59646101D01*
X114722182Y-59396808D01*
X114804236Y-59126309D01*
X114831943Y-58845000D01*
X114804236Y-58563691D01*
X114722182Y-58293192D01*
X114588932Y-58043899D01*
X114409608Y-57825392D01*
X114191101Y-57646068D01*
X114058142Y-57575000D01*
X114191101Y-57503932D01*
X114409608Y-57324608D01*
X114588932Y-57106101D01*
X114722182Y-56856808D01*
X114804236Y-56586309D01*
X114831943Y-56305000D01*
X114804236Y-56023691D01*
X114722182Y-55753192D01*
X114588932Y-55503899D01*
X114409608Y-55285392D01*
X114191101Y-55106068D01*
X113941808Y-54972818D01*
X113671309Y-54890764D01*
X113460492Y-54870000D01*
X113319508Y-54870000D01*
X113108691Y-54890764D01*
X113064094Y-54904292D01*
X112684801Y-54525000D01*
X118345000Y-54525000D01*
X118345001Y-59442668D01*
X118345001Y-59442668D01*
G37*
X118345001Y-59442668D02*
X118341324Y-59480000D01*
X118345001Y-59517333D01*
X118355998Y-59628986D01*
X118361190Y-59646101D01*
X118399454Y-59772246D01*
X118470026Y-59904276D01*
X118524592Y-59970764D01*
X118565000Y-60020001D01*
X118593998Y-60043799D01*
X119385382Y-60835183D01*
X119319463Y-60915506D01*
X119260498Y-61025820D01*
X119224188Y-61145518D01*
X119211928Y-61270000D01*
X119211928Y-62770000D01*
X119224188Y-62894482D01*
X119260498Y-63014180D01*
X119319463Y-63124494D01*
X119398815Y-63221185D01*
X119495506Y-63300537D01*
X119605820Y-63359502D01*
X119725518Y-63395812D01*
X119850000Y-63408072D01*
X120900000Y-63408072D01*
X121024482Y-63395812D01*
X121144180Y-63359502D01*
X121208902Y-63324907D01*
X121417601Y-63388215D01*
X121645000Y-63410612D01*
X121872400Y-63388215D01*
X122091060Y-63321885D01*
X122280001Y-63220894D01*
X122468941Y-63321885D01*
X122687601Y-63388215D01*
X122915000Y-63410612D01*
X122997735Y-63402463D01*
X122603886Y-63796312D01*
X122421335Y-63760000D01*
X122138665Y-63760000D01*
X121861426Y-63815147D01*
X121600273Y-63923320D01*
X121365241Y-64080363D01*
X121165363Y-64280241D01*
X121058481Y-64440202D01*
X120999644Y-64445997D01*
X120856383Y-64489454D01*
X120724354Y-64560026D01*
X120608629Y-64654999D01*
X120584831Y-64683997D01*
X119894256Y-65374572D01*
X119911943Y-65195000D01*
X119884236Y-64913691D01*
X119802182Y-64643192D01*
X119668932Y-64393899D01*
X119489608Y-64175392D01*
X119271101Y-63996068D01*
X119021808Y-63862818D01*
X118751309Y-63780764D01*
X118540492Y-63760000D01*
X118399508Y-63760000D01*
X118188691Y-63780764D01*
X117918192Y-63862818D01*
X117668899Y-63996068D01*
X117450392Y-64175392D01*
X117271068Y-64393899D01*
X117204061Y-64519261D01*
X116098802Y-63414003D01*
X116074999Y-63384999D01*
X115959274Y-63290026D01*
X115827245Y-63219454D01*
X115683984Y-63175997D01*
X115572331Y-63165000D01*
X115572320Y-63165000D01*
X115534998Y-63161324D01*
X115497676Y-63165000D01*
X114610901Y-63165000D01*
X114588932Y-63123899D01*
X114409608Y-62905392D01*
X114191101Y-62726068D01*
X114058142Y-62655000D01*
X114191101Y-62583932D01*
X114409608Y-62404608D01*
X114588932Y-62186101D01*
X114722182Y-61936808D01*
X114804236Y-61666309D01*
X114831943Y-61385000D01*
X114804236Y-61103691D01*
X114722182Y-60833192D01*
X114588932Y-60583899D01*
X114409608Y-60365392D01*
X114191101Y-60186068D01*
X114058142Y-60115000D01*
X114191101Y-60043932D01*
X114409608Y-59864608D01*
X114588932Y-59646101D01*
X114722182Y-59396808D01*
X114804236Y-59126309D01*
X114831943Y-58845000D01*
X114804236Y-58563691D01*
X114722182Y-58293192D01*
X114588932Y-58043899D01*
X114409608Y-57825392D01*
X114191101Y-57646068D01*
X114058142Y-57575000D01*
X114191101Y-57503932D01*
X114409608Y-57324608D01*
X114588932Y-57106101D01*
X114722182Y-56856808D01*
X114804236Y-56586309D01*
X114831943Y-56305000D01*
X114804236Y-56023691D01*
X114722182Y-55753192D01*
X114588932Y-55503899D01*
X114409608Y-55285392D01*
X114191101Y-55106068D01*
X113941808Y-54972818D01*
X113671309Y-54890764D01*
X113460492Y-54870000D01*
X113319508Y-54870000D01*
X113108691Y-54890764D01*
X113064094Y-54904292D01*
X112684801Y-54525000D01*
X118345000Y-54525000D01*
X118345001Y-59442668D01*
M02*
