G04 #@! TF.GenerationSoftware,KiCad,Pcbnew,(5.1.4-0-10_14)*
G04 #@! TF.CreationDate,2021-09-19T18:42:46+01:00*
G04 #@! TF.ProjectId,switch-module,73776974-6368-42d6-9d6f-64756c652e6b,rev?*
G04 #@! TF.SameCoordinates,Original*
G04 #@! TF.FileFunction,Legend,Top*
G04 #@! TF.FilePolarity,Positive*
%FSLAX46Y46*%
G04 Gerber Fmt 4.6, Leading zero omitted, Abs format (unit mm)*
G04 Created by KiCad (PCBNEW (5.1.4-0-10_14)) date 2021-09-19 18:42:46*
%MOMM*%
%LPD*%
G04 APERTURE LIST*
%ADD10C,0.125000*%
%ADD11C,0.120000*%
%ADD12C,0.150000*%
G04 APERTURE END LIST*
D10*
X155681071Y-75375416D02*
X156328690Y-75375416D01*
X156404880Y-75413511D01*
X156442976Y-75451607D01*
X156481071Y-75527797D01*
X156481071Y-75642083D01*
X156442976Y-75718273D01*
X156176309Y-75375416D02*
X156214404Y-75451607D01*
X156214404Y-75603988D01*
X156176309Y-75680178D01*
X156138214Y-75718273D01*
X156062023Y-75756369D01*
X155833452Y-75756369D01*
X155757261Y-75718273D01*
X155719166Y-75680178D01*
X155681071Y-75603988D01*
X155681071Y-75451607D01*
X155719166Y-75375416D01*
X156214404Y-74994464D02*
X155681071Y-74994464D01*
X155414404Y-74994464D02*
X155452500Y-75032559D01*
X155490595Y-74994464D01*
X155452500Y-74956369D01*
X155414404Y-74994464D01*
X155490595Y-74994464D01*
X155681071Y-74727797D02*
X155681071Y-74423035D01*
X155414404Y-74613511D02*
X156100119Y-74613511D01*
X156176309Y-74575416D01*
X156214404Y-74499226D01*
X156214404Y-74423035D01*
X156214404Y-74156369D02*
X155414404Y-74156369D01*
X156214404Y-73813511D02*
X155795357Y-73813511D01*
X155719166Y-73851607D01*
X155681071Y-73927797D01*
X155681071Y-74042083D01*
X155719166Y-74118273D01*
X155757261Y-74156369D01*
X155681071Y-73089702D02*
X156214404Y-73089702D01*
X155681071Y-73432559D02*
X156100119Y-73432559D01*
X156176309Y-73394464D01*
X156214404Y-73318273D01*
X156214404Y-73203988D01*
X156176309Y-73127797D01*
X156138214Y-73089702D01*
X156214404Y-72708750D02*
X155414404Y-72708750D01*
X155719166Y-72708750D02*
X155681071Y-72632559D01*
X155681071Y-72480178D01*
X155719166Y-72403988D01*
X155757261Y-72365892D01*
X155833452Y-72327797D01*
X156062023Y-72327797D01*
X156138214Y-72365892D01*
X156176309Y-72403988D01*
X156214404Y-72480178D01*
X156214404Y-72632559D01*
X156176309Y-72708750D01*
X156138214Y-71984940D02*
X156176309Y-71946845D01*
X156214404Y-71984940D01*
X156176309Y-72023035D01*
X156138214Y-71984940D01*
X156214404Y-71984940D01*
X156176309Y-71261130D02*
X156214404Y-71337321D01*
X156214404Y-71489702D01*
X156176309Y-71565892D01*
X156138214Y-71603988D01*
X156062023Y-71642083D01*
X155833452Y-71642083D01*
X155757261Y-71603988D01*
X155719166Y-71565892D01*
X155681071Y-71489702D01*
X155681071Y-71337321D01*
X155719166Y-71261130D01*
X156214404Y-70803988D02*
X156176309Y-70880178D01*
X156138214Y-70918273D01*
X156062023Y-70956369D01*
X155833452Y-70956369D01*
X155757261Y-70918273D01*
X155719166Y-70880178D01*
X155681071Y-70803988D01*
X155681071Y-70689702D01*
X155719166Y-70613511D01*
X155757261Y-70575416D01*
X155833452Y-70537321D01*
X156062023Y-70537321D01*
X156138214Y-70575416D01*
X156176309Y-70613511D01*
X156214404Y-70689702D01*
X156214404Y-70803988D01*
X156214404Y-70194464D02*
X155681071Y-70194464D01*
X155757261Y-70194464D02*
X155719166Y-70156369D01*
X155681071Y-70080178D01*
X155681071Y-69965892D01*
X155719166Y-69889702D01*
X155795357Y-69851607D01*
X156214404Y-69851607D01*
X155795357Y-69851607D02*
X155719166Y-69813511D01*
X155681071Y-69737321D01*
X155681071Y-69623035D01*
X155719166Y-69546845D01*
X155795357Y-69508750D01*
X156214404Y-69508750D01*
X155376309Y-68556369D02*
X156404880Y-69242083D01*
X157006071Y-75718273D02*
X157691785Y-75718273D01*
X157767976Y-75756369D01*
X157806071Y-75832559D01*
X157806071Y-75870654D01*
X156739404Y-75718273D02*
X156777500Y-75756369D01*
X156815595Y-75718273D01*
X156777500Y-75680178D01*
X156739404Y-75718273D01*
X156815595Y-75718273D01*
X157501309Y-75032559D02*
X157539404Y-75108750D01*
X157539404Y-75261130D01*
X157501309Y-75337321D01*
X157425119Y-75375416D01*
X157120357Y-75375416D01*
X157044166Y-75337321D01*
X157006071Y-75261130D01*
X157006071Y-75108750D01*
X157044166Y-75032559D01*
X157120357Y-74994464D01*
X157196547Y-74994464D01*
X157272738Y-75375416D01*
X157006071Y-74727797D02*
X157539404Y-74537321D01*
X157006071Y-74346845D01*
X157539404Y-73699226D02*
X157120357Y-73699226D01*
X157044166Y-73737321D01*
X157006071Y-73813511D01*
X157006071Y-73965892D01*
X157044166Y-74042083D01*
X157501309Y-73699226D02*
X157539404Y-73775416D01*
X157539404Y-73965892D01*
X157501309Y-74042083D01*
X157425119Y-74080178D01*
X157348928Y-74080178D01*
X157272738Y-74042083D01*
X157234642Y-73965892D01*
X157234642Y-73775416D01*
X157196547Y-73699226D01*
X157006071Y-73318273D02*
X157539404Y-73318273D01*
X157082261Y-73318273D02*
X157044166Y-73280178D01*
X157006071Y-73203988D01*
X157006071Y-73089702D01*
X157044166Y-73013511D01*
X157120357Y-72975416D01*
X157539404Y-72975416D01*
X157501309Y-72632559D02*
X157539404Y-72556369D01*
X157539404Y-72403988D01*
X157501309Y-72327797D01*
X157425119Y-72289702D01*
X157387023Y-72289702D01*
X157310833Y-72327797D01*
X157272738Y-72403988D01*
X157272738Y-72518273D01*
X157234642Y-72594464D01*
X157158452Y-72632559D01*
X157120357Y-72632559D01*
X157044166Y-72594464D01*
X157006071Y-72518273D01*
X157006071Y-72403988D01*
X157044166Y-72327797D01*
X156739404Y-72023035D02*
X156739404Y-71527797D01*
X157044166Y-71794464D01*
X157044166Y-71680178D01*
X157082261Y-71603988D01*
X157120357Y-71565892D01*
X157196547Y-71527797D01*
X157387023Y-71527797D01*
X157463214Y-71565892D01*
X157501309Y-71603988D01*
X157539404Y-71680178D01*
X157539404Y-71908750D01*
X157501309Y-71984940D01*
X157463214Y-72023035D01*
X157539404Y-70765892D02*
X157539404Y-71223035D01*
X157539404Y-70994464D02*
X156739404Y-70994464D01*
X156853690Y-71070654D01*
X156929880Y-71146845D01*
X156967976Y-71223035D01*
X157006071Y-70080178D02*
X157539404Y-70080178D01*
X156701309Y-70270654D02*
X157272738Y-70461130D01*
X157272738Y-69965892D01*
X156815595Y-69699226D02*
X156777500Y-69661130D01*
X156739404Y-69584940D01*
X156739404Y-69394464D01*
X156777500Y-69318273D01*
X156815595Y-69280178D01*
X156891785Y-69242083D01*
X156967976Y-69242083D01*
X157082261Y-69280178D01*
X157539404Y-69737321D01*
X157539404Y-69242083D01*
X156701309Y-68327797D02*
X157729880Y-69013511D01*
X158826309Y-75756369D02*
X158864404Y-75680178D01*
X158864404Y-75527797D01*
X158826309Y-75451607D01*
X158750119Y-75413511D01*
X158712023Y-75413511D01*
X158635833Y-75451607D01*
X158597738Y-75527797D01*
X158597738Y-75642083D01*
X158559642Y-75718273D01*
X158483452Y-75756369D01*
X158445357Y-75756369D01*
X158369166Y-75718273D01*
X158331071Y-75642083D01*
X158331071Y-75527797D01*
X158369166Y-75451607D01*
X158864404Y-75070654D02*
X158331071Y-75070654D01*
X158407261Y-75070654D02*
X158369166Y-75032559D01*
X158331071Y-74956369D01*
X158331071Y-74842083D01*
X158369166Y-74765892D01*
X158445357Y-74727797D01*
X158864404Y-74727797D01*
X158445357Y-74727797D02*
X158369166Y-74689702D01*
X158331071Y-74613511D01*
X158331071Y-74499226D01*
X158369166Y-74423035D01*
X158445357Y-74384940D01*
X158864404Y-74384940D01*
X158559642Y-74003988D02*
X158559642Y-73394464D01*
X158864404Y-72670654D02*
X158064404Y-72670654D01*
X158826309Y-72670654D02*
X158864404Y-72746845D01*
X158864404Y-72899226D01*
X158826309Y-72975416D01*
X158788214Y-73013511D01*
X158712023Y-73051607D01*
X158483452Y-73051607D01*
X158407261Y-73013511D01*
X158369166Y-72975416D01*
X158331071Y-72899226D01*
X158331071Y-72746845D01*
X158369166Y-72670654D01*
X158826309Y-71984940D02*
X158864404Y-72061130D01*
X158864404Y-72213511D01*
X158826309Y-72289702D01*
X158750119Y-72327797D01*
X158445357Y-72327797D01*
X158369166Y-72289702D01*
X158331071Y-72213511D01*
X158331071Y-72061130D01*
X158369166Y-71984940D01*
X158445357Y-71946845D01*
X158521547Y-71946845D01*
X158597738Y-72327797D01*
X158826309Y-71642083D02*
X158864404Y-71565892D01*
X158864404Y-71413511D01*
X158826309Y-71337321D01*
X158750119Y-71299226D01*
X158712023Y-71299226D01*
X158635833Y-71337321D01*
X158597738Y-71413511D01*
X158597738Y-71527797D01*
X158559642Y-71603988D01*
X158483452Y-71642083D01*
X158445357Y-71642083D01*
X158369166Y-71603988D01*
X158331071Y-71527797D01*
X158331071Y-71413511D01*
X158369166Y-71337321D01*
X158864404Y-70956369D02*
X158064404Y-70956369D01*
X158559642Y-70880178D02*
X158864404Y-70651607D01*
X158331071Y-70651607D02*
X158635833Y-70956369D01*
X158559642Y-70308750D02*
X158559642Y-69699226D01*
X159656071Y-75794464D02*
X160189404Y-75603988D01*
X159656071Y-75413511D01*
X160189404Y-75108750D02*
X159656071Y-75108750D01*
X159389404Y-75108750D02*
X159427500Y-75146845D01*
X159465595Y-75108750D01*
X159427500Y-75070654D01*
X159389404Y-75108750D01*
X159465595Y-75108750D01*
X160189404Y-74384940D02*
X159389404Y-74384940D01*
X160151309Y-74384940D02*
X160189404Y-74461130D01*
X160189404Y-74613511D01*
X160151309Y-74689702D01*
X160113214Y-74727797D01*
X160037023Y-74765892D01*
X159808452Y-74765892D01*
X159732261Y-74727797D01*
X159694166Y-74689702D01*
X159656071Y-74613511D01*
X159656071Y-74461130D01*
X159694166Y-74384940D01*
X160151309Y-73699226D02*
X160189404Y-73775416D01*
X160189404Y-73927797D01*
X160151309Y-74003988D01*
X160075119Y-74042083D01*
X159770357Y-74042083D01*
X159694166Y-74003988D01*
X159656071Y-73927797D01*
X159656071Y-73775416D01*
X159694166Y-73699226D01*
X159770357Y-73661130D01*
X159846547Y-73661130D01*
X159922738Y-74042083D01*
X160189404Y-73203988D02*
X160151309Y-73280178D01*
X160113214Y-73318273D01*
X160037023Y-73356369D01*
X159808452Y-73356369D01*
X159732261Y-73318273D01*
X159694166Y-73280178D01*
X159656071Y-73203988D01*
X159656071Y-73089702D01*
X159694166Y-73013511D01*
X159732261Y-72975416D01*
X159808452Y-72937321D01*
X160037023Y-72937321D01*
X160113214Y-72975416D01*
X160151309Y-73013511D01*
X160189404Y-73089702D01*
X160189404Y-73203988D01*
X159884642Y-72594464D02*
X159884642Y-71984940D01*
X160151309Y-71261130D02*
X160189404Y-71337321D01*
X160189404Y-71489702D01*
X160151309Y-71565892D01*
X160113214Y-71603988D01*
X160037023Y-71642083D01*
X159808452Y-71642083D01*
X159732261Y-71603988D01*
X159694166Y-71565892D01*
X159656071Y-71489702D01*
X159656071Y-71337321D01*
X159694166Y-71261130D01*
X160189404Y-70803988D02*
X160151309Y-70880178D01*
X160113214Y-70918273D01*
X160037023Y-70956369D01*
X159808452Y-70956369D01*
X159732261Y-70918273D01*
X159694166Y-70880178D01*
X159656071Y-70803988D01*
X159656071Y-70689702D01*
X159694166Y-70613511D01*
X159732261Y-70575416D01*
X159808452Y-70537321D01*
X160037023Y-70537321D01*
X160113214Y-70575416D01*
X160151309Y-70613511D01*
X160189404Y-70689702D01*
X160189404Y-70803988D01*
X159656071Y-70194464D02*
X160189404Y-70194464D01*
X159732261Y-70194464D02*
X159694166Y-70156369D01*
X159656071Y-70080178D01*
X159656071Y-69965892D01*
X159694166Y-69889702D01*
X159770357Y-69851607D01*
X160189404Y-69851607D01*
X159656071Y-69584940D02*
X159656071Y-69280178D01*
X159389404Y-69470654D02*
X160075119Y-69470654D01*
X160151309Y-69432559D01*
X160189404Y-69356369D01*
X160189404Y-69280178D01*
X160189404Y-69013511D02*
X159656071Y-69013511D01*
X159808452Y-69013511D02*
X159732261Y-68975416D01*
X159694166Y-68937321D01*
X159656071Y-68861130D01*
X159656071Y-68784940D01*
X160189404Y-68403988D02*
X160151309Y-68480178D01*
X160113214Y-68518273D01*
X160037023Y-68556369D01*
X159808452Y-68556369D01*
X159732261Y-68518273D01*
X159694166Y-68480178D01*
X159656071Y-68403988D01*
X159656071Y-68289702D01*
X159694166Y-68213511D01*
X159732261Y-68175416D01*
X159808452Y-68137321D01*
X160037023Y-68137321D01*
X160113214Y-68175416D01*
X160151309Y-68213511D01*
X160189404Y-68289702D01*
X160189404Y-68403988D01*
X160189404Y-67680178D02*
X160151309Y-67756369D01*
X160075119Y-67794464D01*
X159389404Y-67794464D01*
X36605833Y-75756369D02*
X36605833Y-75375416D01*
X36834404Y-75832559D02*
X36034404Y-75565892D01*
X36834404Y-75299226D01*
X36834404Y-75032559D02*
X36034404Y-75032559D01*
X36034404Y-74842083D01*
X36072500Y-74727797D01*
X36148690Y-74651607D01*
X36224880Y-74613511D01*
X36377261Y-74575416D01*
X36491547Y-74575416D01*
X36643928Y-74613511D01*
X36720119Y-74651607D01*
X36796309Y-74727797D01*
X36834404Y-74842083D01*
X36834404Y-75032559D01*
X36758214Y-73775416D02*
X36796309Y-73813511D01*
X36834404Y-73927797D01*
X36834404Y-74003988D01*
X36796309Y-74118273D01*
X36720119Y-74194464D01*
X36643928Y-74232559D01*
X36491547Y-74270654D01*
X36377261Y-74270654D01*
X36224880Y-74232559D01*
X36148690Y-74194464D01*
X36072500Y-74118273D01*
X36034404Y-74003988D01*
X36034404Y-73927797D01*
X36072500Y-73813511D01*
X36110595Y-73775416D01*
X36796309Y-72861130D02*
X36834404Y-72746845D01*
X36834404Y-72556369D01*
X36796309Y-72480178D01*
X36758214Y-72442083D01*
X36682023Y-72403988D01*
X36605833Y-72403988D01*
X36529642Y-72442083D01*
X36491547Y-72480178D01*
X36453452Y-72556369D01*
X36415357Y-72708750D01*
X36377261Y-72784940D01*
X36339166Y-72823035D01*
X36262976Y-72861130D01*
X36186785Y-72861130D01*
X36110595Y-72823035D01*
X36072500Y-72784940D01*
X36034404Y-72708750D01*
X36034404Y-72518273D01*
X36072500Y-72403988D01*
X36834404Y-72061130D02*
X36034404Y-72061130D01*
X36605833Y-71794464D01*
X36034404Y-71527797D01*
X36834404Y-71527797D01*
X36834404Y-70537321D02*
X36034404Y-70537321D01*
X36034404Y-70346845D01*
X36072500Y-70232559D01*
X36148690Y-70156369D01*
X36224880Y-70118273D01*
X36377261Y-70080178D01*
X36491547Y-70080178D01*
X36643928Y-70118273D01*
X36720119Y-70156369D01*
X36796309Y-70232559D01*
X36834404Y-70346845D01*
X36834404Y-70537321D01*
X36796309Y-69432559D02*
X36834404Y-69508750D01*
X36834404Y-69661130D01*
X36796309Y-69737321D01*
X36720119Y-69775416D01*
X36415357Y-69775416D01*
X36339166Y-69737321D01*
X36301071Y-69661130D01*
X36301071Y-69508750D01*
X36339166Y-69432559D01*
X36415357Y-69394464D01*
X36491547Y-69394464D01*
X36567738Y-69775416D01*
X36796309Y-69089702D02*
X36834404Y-69013511D01*
X36834404Y-68861130D01*
X36796309Y-68784940D01*
X36720119Y-68746845D01*
X36682023Y-68746845D01*
X36605833Y-68784940D01*
X36567738Y-68861130D01*
X36567738Y-68975416D01*
X36529642Y-69051607D01*
X36453452Y-69089702D01*
X36415357Y-69089702D01*
X36339166Y-69051607D01*
X36301071Y-68975416D01*
X36301071Y-68861130D01*
X36339166Y-68784940D01*
X36834404Y-68403988D02*
X36034404Y-68403988D01*
X36529642Y-68327797D02*
X36834404Y-68099226D01*
X36301071Y-68099226D02*
X36605833Y-68403988D01*
X37359404Y-75832559D02*
X38159404Y-75565892D01*
X37359404Y-75299226D01*
X38159404Y-75032559D02*
X37626071Y-75032559D01*
X37359404Y-75032559D02*
X37397500Y-75070654D01*
X37435595Y-75032559D01*
X37397500Y-74994464D01*
X37359404Y-75032559D01*
X37435595Y-75032559D01*
X38159404Y-74308750D02*
X37359404Y-74308750D01*
X38121309Y-74308750D02*
X38159404Y-74384940D01*
X38159404Y-74537321D01*
X38121309Y-74613511D01*
X38083214Y-74651607D01*
X38007023Y-74689702D01*
X37778452Y-74689702D01*
X37702261Y-74651607D01*
X37664166Y-74613511D01*
X37626071Y-74537321D01*
X37626071Y-74384940D01*
X37664166Y-74308750D01*
X38121309Y-73623035D02*
X38159404Y-73699226D01*
X38159404Y-73851607D01*
X38121309Y-73927797D01*
X38045119Y-73965892D01*
X37740357Y-73965892D01*
X37664166Y-73927797D01*
X37626071Y-73851607D01*
X37626071Y-73699226D01*
X37664166Y-73623035D01*
X37740357Y-73584940D01*
X37816547Y-73584940D01*
X37892738Y-73965892D01*
X38159404Y-73127797D02*
X38121309Y-73203988D01*
X38083214Y-73242083D01*
X38007023Y-73280178D01*
X37778452Y-73280178D01*
X37702261Y-73242083D01*
X37664166Y-73203988D01*
X37626071Y-73127797D01*
X37626071Y-73013511D01*
X37664166Y-72937321D01*
X37702261Y-72899226D01*
X37778452Y-72861130D01*
X38007023Y-72861130D01*
X38083214Y-72899226D01*
X38121309Y-72937321D01*
X38159404Y-73013511D01*
X38159404Y-73127797D01*
X38121309Y-71565892D02*
X38159404Y-71642083D01*
X38159404Y-71794464D01*
X38121309Y-71870654D01*
X38083214Y-71908750D01*
X38007023Y-71946845D01*
X37778452Y-71946845D01*
X37702261Y-71908750D01*
X37664166Y-71870654D01*
X37626071Y-71794464D01*
X37626071Y-71642083D01*
X37664166Y-71565892D01*
X38159404Y-71108750D02*
X38121309Y-71184940D01*
X38083214Y-71223035D01*
X38007023Y-71261130D01*
X37778452Y-71261130D01*
X37702261Y-71223035D01*
X37664166Y-71184940D01*
X37626071Y-71108750D01*
X37626071Y-70994464D01*
X37664166Y-70918273D01*
X37702261Y-70880178D01*
X37778452Y-70842083D01*
X38007023Y-70842083D01*
X38083214Y-70880178D01*
X38121309Y-70918273D01*
X38159404Y-70994464D01*
X38159404Y-71108750D01*
X37626071Y-70499226D02*
X38159404Y-70499226D01*
X37702261Y-70499226D02*
X37664166Y-70461130D01*
X37626071Y-70384940D01*
X37626071Y-70270654D01*
X37664166Y-70194464D01*
X37740357Y-70156369D01*
X38159404Y-70156369D01*
X37626071Y-69889702D02*
X37626071Y-69584940D01*
X37359404Y-69775416D02*
X38045119Y-69775416D01*
X38121309Y-69737321D01*
X38159404Y-69661130D01*
X38159404Y-69584940D01*
X38159404Y-69318273D02*
X37626071Y-69318273D01*
X37778452Y-69318273D02*
X37702261Y-69280178D01*
X37664166Y-69242083D01*
X37626071Y-69165892D01*
X37626071Y-69089702D01*
X38159404Y-68708750D02*
X38121309Y-68784940D01*
X38083214Y-68823035D01*
X38007023Y-68861130D01*
X37778452Y-68861130D01*
X37702261Y-68823035D01*
X37664166Y-68784940D01*
X37626071Y-68708750D01*
X37626071Y-68594464D01*
X37664166Y-68518273D01*
X37702261Y-68480178D01*
X37778452Y-68442083D01*
X38007023Y-68442083D01*
X38083214Y-68480178D01*
X38121309Y-68518273D01*
X38159404Y-68594464D01*
X38159404Y-68708750D01*
X38159404Y-67984940D02*
X38121309Y-68061130D01*
X38045119Y-68099226D01*
X37359404Y-68099226D01*
X39065357Y-75451607D02*
X39103452Y-75337321D01*
X39141547Y-75299226D01*
X39217738Y-75261130D01*
X39332023Y-75261130D01*
X39408214Y-75299226D01*
X39446309Y-75337321D01*
X39484404Y-75413511D01*
X39484404Y-75718273D01*
X38684404Y-75718273D01*
X38684404Y-75451607D01*
X38722500Y-75375416D01*
X38760595Y-75337321D01*
X38836785Y-75299226D01*
X38912976Y-75299226D01*
X38989166Y-75337321D01*
X39027261Y-75375416D01*
X39065357Y-75451607D01*
X39065357Y-75718273D01*
X38951071Y-74575416D02*
X39484404Y-74575416D01*
X38951071Y-74918273D02*
X39370119Y-74918273D01*
X39446309Y-74880178D01*
X39484404Y-74803988D01*
X39484404Y-74689702D01*
X39446309Y-74613511D01*
X39408214Y-74575416D01*
X38951071Y-74308750D02*
X38951071Y-74003988D01*
X38684404Y-74194464D02*
X39370119Y-74194464D01*
X39446309Y-74156369D01*
X39484404Y-74080178D01*
X39484404Y-74003988D01*
X38951071Y-73851607D02*
X38951071Y-73546845D01*
X38684404Y-73737321D02*
X39370119Y-73737321D01*
X39446309Y-73699226D01*
X39484404Y-73623035D01*
X39484404Y-73546845D01*
X39484404Y-73165892D02*
X39446309Y-73242083D01*
X39408214Y-73280178D01*
X39332023Y-73318273D01*
X39103452Y-73318273D01*
X39027261Y-73280178D01*
X38989166Y-73242083D01*
X38951071Y-73165892D01*
X38951071Y-73051607D01*
X38989166Y-72975416D01*
X39027261Y-72937321D01*
X39103452Y-72899226D01*
X39332023Y-72899226D01*
X39408214Y-72937321D01*
X39446309Y-72975416D01*
X39484404Y-73051607D01*
X39484404Y-73165892D01*
X38951071Y-72556369D02*
X39484404Y-72556369D01*
X39027261Y-72556369D02*
X38989166Y-72518273D01*
X38951071Y-72442083D01*
X38951071Y-72327797D01*
X38989166Y-72251607D01*
X39065357Y-72213511D01*
X39484404Y-72213511D01*
X38951071Y-71223035D02*
X39751071Y-71223035D01*
X38989166Y-71223035D02*
X38951071Y-71146845D01*
X38951071Y-70994464D01*
X38989166Y-70918273D01*
X39027261Y-70880178D01*
X39103452Y-70842083D01*
X39332023Y-70842083D01*
X39408214Y-70880178D01*
X39446309Y-70918273D01*
X39484404Y-70994464D01*
X39484404Y-71146845D01*
X39446309Y-71223035D01*
X39484404Y-70156369D02*
X39065357Y-70156369D01*
X38989166Y-70194464D01*
X38951071Y-70270654D01*
X38951071Y-70423035D01*
X38989166Y-70499226D01*
X39446309Y-70156369D02*
X39484404Y-70232559D01*
X39484404Y-70423035D01*
X39446309Y-70499226D01*
X39370119Y-70537321D01*
X39293928Y-70537321D01*
X39217738Y-70499226D01*
X39179642Y-70423035D01*
X39179642Y-70232559D01*
X39141547Y-70156369D01*
X38951071Y-69775416D02*
X39484404Y-69775416D01*
X39027261Y-69775416D02*
X38989166Y-69737321D01*
X38951071Y-69661130D01*
X38951071Y-69546845D01*
X38989166Y-69470654D01*
X39065357Y-69432559D01*
X39484404Y-69432559D01*
X39446309Y-68746845D02*
X39484404Y-68823035D01*
X39484404Y-68975416D01*
X39446309Y-69051607D01*
X39370119Y-69089702D01*
X39065357Y-69089702D01*
X38989166Y-69051607D01*
X38951071Y-68975416D01*
X38951071Y-68823035D01*
X38989166Y-68746845D01*
X39065357Y-68708750D01*
X39141547Y-68708750D01*
X39217738Y-69089702D01*
X39484404Y-68251607D02*
X39446309Y-68327797D01*
X39370119Y-68365892D01*
X38684404Y-68365892D01*
X38951071Y-67413511D02*
X39484404Y-67223035D01*
X38951071Y-67032559D01*
X39484404Y-66308750D02*
X39484404Y-66765892D01*
X39484404Y-66537321D02*
X38684404Y-66537321D01*
X38798690Y-66613511D01*
X38874880Y-66689702D01*
X38912976Y-66765892D01*
X40009404Y-75489702D02*
X40580833Y-75489702D01*
X40695119Y-75527797D01*
X40771309Y-75603988D01*
X40809404Y-75718273D01*
X40809404Y-75794464D01*
X40809404Y-74994464D02*
X40771309Y-75070654D01*
X40733214Y-75108750D01*
X40657023Y-75146845D01*
X40428452Y-75146845D01*
X40352261Y-75108750D01*
X40314166Y-75070654D01*
X40276071Y-74994464D01*
X40276071Y-74880178D01*
X40314166Y-74803988D01*
X40352261Y-74765892D01*
X40428452Y-74727797D01*
X40657023Y-74727797D01*
X40733214Y-74765892D01*
X40771309Y-74803988D01*
X40809404Y-74880178D01*
X40809404Y-74994464D01*
X40809404Y-74384940D02*
X40009404Y-74384940D01*
X40809404Y-74042083D02*
X40390357Y-74042083D01*
X40314166Y-74080178D01*
X40276071Y-74156369D01*
X40276071Y-74270654D01*
X40314166Y-74346845D01*
X40352261Y-74384940D01*
X40276071Y-73661130D02*
X40809404Y-73661130D01*
X40352261Y-73661130D02*
X40314166Y-73623035D01*
X40276071Y-73546845D01*
X40276071Y-73432559D01*
X40314166Y-73356369D01*
X40390357Y-73318273D01*
X40809404Y-73318273D01*
X40390357Y-72327797D02*
X40390357Y-72061130D01*
X40809404Y-71946845D02*
X40809404Y-72327797D01*
X40009404Y-72327797D01*
X40009404Y-71946845D01*
X40276071Y-71680178D02*
X40809404Y-71489702D01*
X40276071Y-71299226D01*
X40809404Y-70651607D02*
X40390357Y-70651607D01*
X40314166Y-70689702D01*
X40276071Y-70765892D01*
X40276071Y-70918273D01*
X40314166Y-70994464D01*
X40771309Y-70651607D02*
X40809404Y-70727797D01*
X40809404Y-70918273D01*
X40771309Y-70994464D01*
X40695119Y-71032559D01*
X40618928Y-71032559D01*
X40542738Y-70994464D01*
X40504642Y-70918273D01*
X40504642Y-70727797D01*
X40466547Y-70651607D01*
X40276071Y-70270654D02*
X40809404Y-70270654D01*
X40352261Y-70270654D02*
X40314166Y-70232559D01*
X40276071Y-70156369D01*
X40276071Y-70042083D01*
X40314166Y-69965892D01*
X40390357Y-69927797D01*
X40809404Y-69927797D01*
X40771309Y-69584940D02*
X40809404Y-69508750D01*
X40809404Y-69356369D01*
X40771309Y-69280178D01*
X40695119Y-69242083D01*
X40657023Y-69242083D01*
X40580833Y-69280178D01*
X40542738Y-69356369D01*
X40542738Y-69470654D01*
X40504642Y-69546845D01*
X40428452Y-69584940D01*
X40390357Y-69584940D01*
X40314166Y-69546845D01*
X40276071Y-69470654D01*
X40276071Y-69356369D01*
X40314166Y-69280178D01*
X40085595Y-68327797D02*
X40047500Y-68289702D01*
X40009404Y-68213511D01*
X40009404Y-68023035D01*
X40047500Y-67946845D01*
X40085595Y-67908750D01*
X40161785Y-67870654D01*
X40237976Y-67870654D01*
X40352261Y-67908750D01*
X40809404Y-68365892D01*
X40809404Y-67870654D01*
X40009404Y-67375416D02*
X40009404Y-67299226D01*
X40047500Y-67223035D01*
X40085595Y-67184940D01*
X40161785Y-67146845D01*
X40314166Y-67108750D01*
X40504642Y-67108750D01*
X40657023Y-67146845D01*
X40733214Y-67184940D01*
X40771309Y-67223035D01*
X40809404Y-67299226D01*
X40809404Y-67375416D01*
X40771309Y-67451607D01*
X40733214Y-67489702D01*
X40657023Y-67527797D01*
X40504642Y-67565892D01*
X40314166Y-67565892D01*
X40161785Y-67527797D01*
X40085595Y-67489702D01*
X40047500Y-67451607D01*
X40009404Y-67375416D01*
X40085595Y-66803988D02*
X40047500Y-66765892D01*
X40009404Y-66689702D01*
X40009404Y-66499226D01*
X40047500Y-66423035D01*
X40085595Y-66384940D01*
X40161785Y-66346845D01*
X40237976Y-66346845D01*
X40352261Y-66384940D01*
X40809404Y-66842083D01*
X40809404Y-66346845D01*
X40809404Y-65584940D02*
X40809404Y-66042083D01*
X40809404Y-65813511D02*
X40009404Y-65813511D01*
X40123690Y-65889702D01*
X40199880Y-65965892D01*
X40237976Y-66042083D01*
D11*
X44275000Y-67005000D02*
X41535000Y-67005000D01*
X41535000Y-67005000D02*
X41535000Y-73545000D01*
X41535000Y-73545000D02*
X44275000Y-73545000D01*
X44275000Y-73545000D02*
X44275000Y-67005000D01*
X42905000Y-66235000D02*
X42905000Y-67005000D01*
X42905000Y-74315000D02*
X42905000Y-73545000D01*
X110580000Y-54975000D02*
G75*
G02X108580000Y-54975000I-1000000J0D01*
G01*
X108580000Y-54975000D02*
X106930000Y-54975000D01*
X106930000Y-54975000D02*
X106930000Y-75415000D01*
X106930000Y-75415000D02*
X112230000Y-75415000D01*
X112230000Y-75415000D02*
X112230000Y-54975000D01*
X112230000Y-54975000D02*
X110580000Y-54975000D01*
X104440000Y-54915000D02*
X104440000Y-75475000D01*
X104440000Y-75475000D02*
X114720000Y-75475000D01*
X114720000Y-75475000D02*
X114720000Y-54915000D01*
X114720000Y-54915000D02*
X104440000Y-54915000D01*
X119845000Y-63870000D02*
X123445000Y-63870000D01*
X119806522Y-63858478D02*
G75*
G02X121645000Y-59420000I1838478J1838478D01*
G01*
X123483478Y-63858478D02*
G75*
G03X121645000Y-59420000I-1838478J1838478D01*
G01*
X93645000Y-58785000D02*
X94975000Y-58785000D01*
X93645000Y-60115000D02*
X93645000Y-58785000D01*
X96245000Y-58785000D02*
X98845000Y-58785000D01*
X96245000Y-61385000D02*
X96245000Y-58785000D01*
X93645000Y-61385000D02*
X96245000Y-61385000D01*
X98845000Y-58785000D02*
X98845000Y-71605000D01*
X93645000Y-61385000D02*
X93645000Y-71605000D01*
X93645000Y-71605000D02*
X98845000Y-71605000D01*
X152820000Y-57000000D02*
X152820000Y-54340000D01*
X145140000Y-57000000D02*
X152820000Y-57000000D01*
X145140000Y-54340000D02*
X152820000Y-54340000D01*
X145140000Y-57000000D02*
X145140000Y-54340000D01*
X143870000Y-57000000D02*
X142540000Y-57000000D01*
X142540000Y-57000000D02*
X142540000Y-55670000D01*
X131110000Y-57000000D02*
X131110000Y-55670000D01*
X132440000Y-57000000D02*
X131110000Y-57000000D01*
X133710000Y-57000000D02*
X133710000Y-54340000D01*
X133710000Y-54340000D02*
X141390000Y-54340000D01*
X133710000Y-57000000D02*
X141390000Y-57000000D01*
X141390000Y-57000000D02*
X141390000Y-54340000D01*
X129960000Y-57000000D02*
X129960000Y-54340000D01*
X122280000Y-57000000D02*
X129960000Y-57000000D01*
X122280000Y-54340000D02*
X129960000Y-54340000D01*
X122280000Y-57000000D02*
X122280000Y-54340000D01*
X121010000Y-57000000D02*
X119680000Y-57000000D01*
X119680000Y-57000000D02*
X119680000Y-55670000D01*
X63165000Y-57000000D02*
X63165000Y-55670000D01*
X64495000Y-57000000D02*
X63165000Y-57000000D01*
X65765000Y-57000000D02*
X65765000Y-54340000D01*
X65765000Y-54340000D02*
X73445000Y-54340000D01*
X65765000Y-57000000D02*
X73445000Y-57000000D01*
X73445000Y-57000000D02*
X73445000Y-54340000D01*
X62015000Y-57000000D02*
X62015000Y-54340000D01*
X54335000Y-57000000D02*
X62015000Y-57000000D01*
X54335000Y-54340000D02*
X62015000Y-54340000D01*
X54335000Y-57000000D02*
X54335000Y-54340000D01*
X53065000Y-57000000D02*
X51735000Y-57000000D01*
X51735000Y-57000000D02*
X51735000Y-55670000D01*
X40305000Y-57000000D02*
X40305000Y-55670000D01*
X41635000Y-57000000D02*
X40305000Y-57000000D01*
X42905000Y-57000000D02*
X42905000Y-54340000D01*
X42905000Y-54340000D02*
X50585000Y-54340000D01*
X42905000Y-57000000D02*
X50585000Y-57000000D01*
X50585000Y-57000000D02*
X50585000Y-54340000D01*
X142705000Y-63870000D02*
X146305000Y-63870000D01*
X142666522Y-63858478D02*
G75*
G02X144505000Y-59420000I1838478J1838478D01*
G01*
X146343478Y-63858478D02*
G75*
G03X144505000Y-59420000I-1838478J1838478D01*
G01*
X131275000Y-63870000D02*
X134875000Y-63870000D01*
X131236522Y-63858478D02*
G75*
G02X133075000Y-59420000I1838478J1838478D01*
G01*
X134913478Y-63858478D02*
G75*
G03X133075000Y-59420000I-1838478J1838478D01*
G01*
X148420000Y-63870000D02*
X152020000Y-63870000D01*
X148381522Y-63858478D02*
G75*
G02X150220000Y-59420000I1838478J1838478D01*
G01*
X152058478Y-63858478D02*
G75*
G03X150220000Y-59420000I-1838478J1838478D01*
G01*
X140628478Y-63858478D02*
G75*
G03X138790000Y-59420000I-1838478J1838478D01*
G01*
X136951522Y-63858478D02*
G75*
G02X138790000Y-59420000I1838478J1838478D01*
G01*
X136990000Y-63870000D02*
X140590000Y-63870000D01*
X125560000Y-63870000D02*
X129160000Y-63870000D01*
X125521522Y-63858478D02*
G75*
G02X127360000Y-59420000I1838478J1838478D01*
G01*
X129198478Y-63858478D02*
G75*
G03X127360000Y-59420000I-1838478J1838478D01*
G01*
X66968478Y-63858478D02*
G75*
G03X65130000Y-59420000I-1838478J1838478D01*
G01*
X63291522Y-63858478D02*
G75*
G02X65130000Y-59420000I1838478J1838478D01*
G01*
X63330000Y-63870000D02*
X66930000Y-63870000D01*
X55538478Y-63858478D02*
G75*
G03X53700000Y-59420000I-1838478J1838478D01*
G01*
X51861522Y-63858478D02*
G75*
G02X53700000Y-59420000I1838478J1838478D01*
G01*
X51900000Y-63870000D02*
X55500000Y-63870000D01*
X44108478Y-63858478D02*
G75*
G03X42270000Y-59420000I-1838478J1838478D01*
G01*
X40431522Y-63858478D02*
G75*
G02X42270000Y-59420000I1838478J1838478D01*
G01*
X40470000Y-63870000D02*
X44070000Y-63870000D01*
X72683478Y-63858478D02*
G75*
G03X70845000Y-59420000I-1838478J1838478D01*
G01*
X69006522Y-63858478D02*
G75*
G02X70845000Y-59420000I1838478J1838478D01*
G01*
X69045000Y-63870000D02*
X72645000Y-63870000D01*
X57615000Y-63870000D02*
X61215000Y-63870000D01*
X57576522Y-63858478D02*
G75*
G02X59415000Y-59420000I1838478J1838478D01*
G01*
X61253478Y-63858478D02*
G75*
G03X59415000Y-59420000I-1838478J1838478D01*
G01*
X49823478Y-63858478D02*
G75*
G03X47985000Y-59420000I-1838478J1838478D01*
G01*
X46146522Y-63858478D02*
G75*
G02X47985000Y-59420000I1838478J1838478D01*
G01*
X46185000Y-63870000D02*
X49785000Y-63870000D01*
X145140000Y-74315000D02*
X145140000Y-73545000D01*
X145140000Y-66235000D02*
X145140000Y-67005000D01*
X146510000Y-73545000D02*
X146510000Y-67005000D01*
X143770000Y-73545000D02*
X146510000Y-73545000D01*
X143770000Y-67005000D02*
X143770000Y-73545000D01*
X146510000Y-67005000D02*
X143770000Y-67005000D01*
X133710000Y-74315000D02*
X133710000Y-73545000D01*
X133710000Y-66235000D02*
X133710000Y-67005000D01*
X135080000Y-73545000D02*
X135080000Y-67005000D01*
X132340000Y-73545000D02*
X135080000Y-73545000D01*
X132340000Y-67005000D02*
X132340000Y-73545000D01*
X135080000Y-67005000D02*
X132340000Y-67005000D01*
X123650000Y-67005000D02*
X120910000Y-67005000D01*
X120910000Y-67005000D02*
X120910000Y-73545000D01*
X120910000Y-73545000D02*
X123650000Y-73545000D01*
X123650000Y-73545000D02*
X123650000Y-67005000D01*
X122280000Y-66235000D02*
X122280000Y-67005000D01*
X122280000Y-74315000D02*
X122280000Y-73545000D01*
X151490000Y-74315000D02*
X151490000Y-73545000D01*
X151490000Y-66235000D02*
X151490000Y-67005000D01*
X152860000Y-73545000D02*
X152860000Y-67005000D01*
X150120000Y-73545000D02*
X152860000Y-73545000D01*
X150120000Y-67005000D02*
X150120000Y-73545000D01*
X152860000Y-67005000D02*
X150120000Y-67005000D01*
X140060000Y-74315000D02*
X140060000Y-73545000D01*
X140060000Y-66235000D02*
X140060000Y-67005000D01*
X141430000Y-73545000D02*
X141430000Y-67005000D01*
X138690000Y-73545000D02*
X141430000Y-73545000D01*
X138690000Y-67005000D02*
X138690000Y-73545000D01*
X141430000Y-67005000D02*
X138690000Y-67005000D01*
X130000000Y-67005000D02*
X127260000Y-67005000D01*
X127260000Y-67005000D02*
X127260000Y-73545000D01*
X127260000Y-73545000D02*
X130000000Y-73545000D01*
X130000000Y-73545000D02*
X130000000Y-67005000D01*
X128630000Y-66235000D02*
X128630000Y-67005000D01*
X128630000Y-74315000D02*
X128630000Y-73545000D01*
X67135000Y-67005000D02*
X64395000Y-67005000D01*
X64395000Y-67005000D02*
X64395000Y-73545000D01*
X64395000Y-73545000D02*
X67135000Y-73545000D01*
X67135000Y-73545000D02*
X67135000Y-67005000D01*
X65765000Y-66235000D02*
X65765000Y-67005000D01*
X65765000Y-74315000D02*
X65765000Y-73545000D01*
X55705000Y-67005000D02*
X52965000Y-67005000D01*
X52965000Y-67005000D02*
X52965000Y-73545000D01*
X52965000Y-73545000D02*
X55705000Y-73545000D01*
X55705000Y-73545000D02*
X55705000Y-67005000D01*
X54335000Y-66235000D02*
X54335000Y-67005000D01*
X54335000Y-74315000D02*
X54335000Y-73545000D01*
X73485000Y-67005000D02*
X70745000Y-67005000D01*
X70745000Y-67005000D02*
X70745000Y-73545000D01*
X70745000Y-73545000D02*
X73485000Y-73545000D01*
X73485000Y-73545000D02*
X73485000Y-67005000D01*
X72115000Y-66235000D02*
X72115000Y-67005000D01*
X72115000Y-74315000D02*
X72115000Y-73545000D01*
X62055000Y-67005000D02*
X59315000Y-67005000D01*
X59315000Y-67005000D02*
X59315000Y-73545000D01*
X59315000Y-73545000D02*
X62055000Y-73545000D01*
X62055000Y-73545000D02*
X62055000Y-67005000D01*
X60685000Y-66235000D02*
X60685000Y-67005000D01*
X60685000Y-74315000D02*
X60685000Y-73545000D01*
X49255000Y-74315000D02*
X49255000Y-73545000D01*
X49255000Y-66235000D02*
X49255000Y-67005000D01*
X50625000Y-73545000D02*
X50625000Y-67005000D01*
X47885000Y-73545000D02*
X50625000Y-73545000D01*
X47885000Y-67005000D02*
X47885000Y-73545000D01*
X50625000Y-67005000D02*
X47885000Y-67005000D01*
X148315000Y-74315000D02*
X148315000Y-73545000D01*
X148315000Y-66235000D02*
X148315000Y-67005000D01*
X149685000Y-73545000D02*
X149685000Y-67005000D01*
X146945000Y-73545000D02*
X149685000Y-73545000D01*
X146945000Y-67005000D02*
X146945000Y-73545000D01*
X149685000Y-67005000D02*
X146945000Y-67005000D01*
X138255000Y-67005000D02*
X135515000Y-67005000D01*
X135515000Y-67005000D02*
X135515000Y-73545000D01*
X135515000Y-73545000D02*
X138255000Y-73545000D01*
X138255000Y-73545000D02*
X138255000Y-67005000D01*
X136885000Y-66235000D02*
X136885000Y-67005000D01*
X136885000Y-74315000D02*
X136885000Y-73545000D01*
X125455000Y-74315000D02*
X125455000Y-73545000D01*
X125455000Y-66235000D02*
X125455000Y-67005000D01*
X126825000Y-73545000D02*
X126825000Y-67005000D01*
X124085000Y-73545000D02*
X126825000Y-73545000D01*
X124085000Y-67005000D02*
X124085000Y-73545000D01*
X126825000Y-67005000D02*
X124085000Y-67005000D01*
X70310000Y-67005000D02*
X67570000Y-67005000D01*
X67570000Y-67005000D02*
X67570000Y-73545000D01*
X67570000Y-73545000D02*
X70310000Y-73545000D01*
X70310000Y-73545000D02*
X70310000Y-67005000D01*
X68940000Y-66235000D02*
X68940000Y-67005000D01*
X68940000Y-74315000D02*
X68940000Y-73545000D01*
X57510000Y-74315000D02*
X57510000Y-73545000D01*
X57510000Y-66235000D02*
X57510000Y-67005000D01*
X58880000Y-73545000D02*
X58880000Y-67005000D01*
X56140000Y-73545000D02*
X58880000Y-73545000D01*
X56140000Y-67005000D02*
X56140000Y-73545000D01*
X58880000Y-67005000D02*
X56140000Y-67005000D01*
X47450000Y-67005000D02*
X44710000Y-67005000D01*
X44710000Y-67005000D02*
X44710000Y-73545000D01*
X44710000Y-73545000D02*
X47450000Y-73545000D01*
X47450000Y-73545000D02*
X47450000Y-67005000D01*
X46080000Y-66235000D02*
X46080000Y-67005000D01*
X46080000Y-74315000D02*
X46080000Y-73545000D01*
X118470000Y-66235000D02*
X118470000Y-67005000D01*
X118470000Y-74315000D02*
X118470000Y-73545000D01*
X117100000Y-67005000D02*
X117100000Y-73545000D01*
X119840000Y-67005000D02*
X117100000Y-67005000D01*
X119840000Y-73545000D02*
X119840000Y-67005000D01*
X117100000Y-73545000D02*
X119840000Y-73545000D01*
X88685000Y-54915000D02*
X78405000Y-54915000D01*
X88685000Y-75475000D02*
X88685000Y-54915000D01*
X78405000Y-75475000D02*
X88685000Y-75475000D01*
X78405000Y-54915000D02*
X78405000Y-75475000D01*
X86195000Y-54975000D02*
X84545000Y-54975000D01*
X86195000Y-75415000D02*
X86195000Y-54975000D01*
X80895000Y-75415000D02*
X86195000Y-75415000D01*
X80895000Y-54975000D02*
X80895000Y-75415000D01*
X82545000Y-54975000D02*
X80895000Y-54975000D01*
X84545000Y-54975000D02*
G75*
G02X82545000Y-54975000I-1000000J0D01*
G01*
D12*
X43357380Y-70568666D02*
X42881190Y-70902000D01*
X43357380Y-71140095D02*
X42357380Y-71140095D01*
X42357380Y-70759142D01*
X42405000Y-70663904D01*
X42452619Y-70616285D01*
X42547857Y-70568666D01*
X42690714Y-70568666D01*
X42785952Y-70616285D01*
X42833571Y-70663904D01*
X42881190Y-70759142D01*
X42881190Y-71140095D01*
X43357380Y-70092476D02*
X43357380Y-69902000D01*
X43309761Y-69806761D01*
X43262142Y-69759142D01*
X43119285Y-69663904D01*
X42928809Y-69616285D01*
X42547857Y-69616285D01*
X42452619Y-69663904D01*
X42405000Y-69711523D01*
X42357380Y-69806761D01*
X42357380Y-69997238D01*
X42405000Y-70092476D01*
X42452619Y-70140095D01*
X42547857Y-70187714D01*
X42785952Y-70187714D01*
X42881190Y-70140095D01*
X42928809Y-70092476D01*
X42976428Y-69997238D01*
X42976428Y-69806761D01*
X42928809Y-69711523D01*
X42881190Y-69663904D01*
X42785952Y-69616285D01*
X108818095Y-53427380D02*
X108818095Y-54236904D01*
X108865714Y-54332142D01*
X108913333Y-54379761D01*
X109008571Y-54427380D01*
X109199047Y-54427380D01*
X109294285Y-54379761D01*
X109341904Y-54332142D01*
X109389523Y-54236904D01*
X109389523Y-53427380D01*
X109818095Y-53522619D02*
X109865714Y-53475000D01*
X109960952Y-53427380D01*
X110199047Y-53427380D01*
X110294285Y-53475000D01*
X110341904Y-53522619D01*
X110389523Y-53617857D01*
X110389523Y-53713095D01*
X110341904Y-53855952D01*
X109770476Y-54427380D01*
X110389523Y-54427380D01*
X121549761Y-59007619D02*
X121454523Y-58960000D01*
X121359285Y-58864761D01*
X121216428Y-58721904D01*
X121121190Y-58674285D01*
X121025952Y-58674285D01*
X121073571Y-58912380D02*
X120978333Y-58864761D01*
X120883095Y-58769523D01*
X120835476Y-58579047D01*
X120835476Y-58245714D01*
X120883095Y-58055238D01*
X120978333Y-57960000D01*
X121073571Y-57912380D01*
X121264047Y-57912380D01*
X121359285Y-57960000D01*
X121454523Y-58055238D01*
X121502142Y-58245714D01*
X121502142Y-58579047D01*
X121454523Y-58769523D01*
X121359285Y-58864761D01*
X121264047Y-58912380D01*
X121073571Y-58912380D01*
X121835476Y-57912380D02*
X122454523Y-57912380D01*
X122121190Y-58293333D01*
X122264047Y-58293333D01*
X122359285Y-58340952D01*
X122406904Y-58388571D01*
X122454523Y-58483809D01*
X122454523Y-58721904D01*
X122406904Y-58817142D01*
X122359285Y-58864761D01*
X122264047Y-58912380D01*
X121978333Y-58912380D01*
X121883095Y-58864761D01*
X121835476Y-58817142D01*
X95911666Y-53852380D02*
X95911666Y-54566666D01*
X95864047Y-54709523D01*
X95768809Y-54804761D01*
X95625952Y-54852380D01*
X95530714Y-54852380D01*
X96292619Y-53852380D02*
X96959285Y-53852380D01*
X96530714Y-54852380D01*
X142052380Y-58543333D02*
X142766666Y-58543333D01*
X142909523Y-58590952D01*
X143004761Y-58686190D01*
X143052380Y-58829047D01*
X143052380Y-58924285D01*
X143052380Y-57543333D02*
X143052380Y-58114761D01*
X143052380Y-57829047D02*
X142052380Y-57829047D01*
X142195238Y-57924285D01*
X142290476Y-58019523D01*
X142338095Y-58114761D01*
X130622380Y-58543333D02*
X131336666Y-58543333D01*
X131479523Y-58590952D01*
X131574761Y-58686190D01*
X131622380Y-58829047D01*
X131622380Y-58924285D01*
X130717619Y-58114761D02*
X130670000Y-58067142D01*
X130622380Y-57971904D01*
X130622380Y-57733809D01*
X130670000Y-57638571D01*
X130717619Y-57590952D01*
X130812857Y-57543333D01*
X130908095Y-57543333D01*
X131050952Y-57590952D01*
X131622380Y-58162380D01*
X131622380Y-57543333D01*
X119192380Y-58543333D02*
X119906666Y-58543333D01*
X120049523Y-58590952D01*
X120144761Y-58686190D01*
X120192380Y-58829047D01*
X120192380Y-58924285D01*
X119192380Y-58162380D02*
X119192380Y-57543333D01*
X119573333Y-57876666D01*
X119573333Y-57733809D01*
X119620952Y-57638571D01*
X119668571Y-57590952D01*
X119763809Y-57543333D01*
X120001904Y-57543333D01*
X120097142Y-57590952D01*
X120144761Y-57638571D01*
X120192380Y-57733809D01*
X120192380Y-58019523D01*
X120144761Y-58114761D01*
X120097142Y-58162380D01*
X62677380Y-58543333D02*
X63391666Y-58543333D01*
X63534523Y-58590952D01*
X63629761Y-58686190D01*
X63677380Y-58829047D01*
X63677380Y-58924285D01*
X63010714Y-57638571D02*
X63677380Y-57638571D01*
X62629761Y-57876666D02*
X63344047Y-58114761D01*
X63344047Y-57495714D01*
X51247380Y-58543333D02*
X51961666Y-58543333D01*
X52104523Y-58590952D01*
X52199761Y-58686190D01*
X52247380Y-58829047D01*
X52247380Y-58924285D01*
X51247380Y-57590952D02*
X51247380Y-58067142D01*
X51723571Y-58114761D01*
X51675952Y-58067142D01*
X51628333Y-57971904D01*
X51628333Y-57733809D01*
X51675952Y-57638571D01*
X51723571Y-57590952D01*
X51818809Y-57543333D01*
X52056904Y-57543333D01*
X52152142Y-57590952D01*
X52199761Y-57638571D01*
X52247380Y-57733809D01*
X52247380Y-57971904D01*
X52199761Y-58067142D01*
X52152142Y-58114761D01*
X39817380Y-58543333D02*
X40531666Y-58543333D01*
X40674523Y-58590952D01*
X40769761Y-58686190D01*
X40817380Y-58829047D01*
X40817380Y-58924285D01*
X39817380Y-57638571D02*
X39817380Y-57829047D01*
X39865000Y-57924285D01*
X39912619Y-57971904D01*
X40055476Y-58067142D01*
X40245952Y-58114761D01*
X40626904Y-58114761D01*
X40722142Y-58067142D01*
X40769761Y-58019523D01*
X40817380Y-57924285D01*
X40817380Y-57733809D01*
X40769761Y-57638571D01*
X40722142Y-57590952D01*
X40626904Y-57543333D01*
X40388809Y-57543333D01*
X40293571Y-57590952D01*
X40245952Y-57638571D01*
X40198333Y-57733809D01*
X40198333Y-57924285D01*
X40245952Y-58019523D01*
X40293571Y-58067142D01*
X40388809Y-58114761D01*
X144409761Y-59007619D02*
X144314523Y-58960000D01*
X144219285Y-58864761D01*
X144076428Y-58721904D01*
X143981190Y-58674285D01*
X143885952Y-58674285D01*
X143933571Y-58912380D02*
X143838333Y-58864761D01*
X143743095Y-58769523D01*
X143695476Y-58579047D01*
X143695476Y-58245714D01*
X143743095Y-58055238D01*
X143838333Y-57960000D01*
X143933571Y-57912380D01*
X144124047Y-57912380D01*
X144219285Y-57960000D01*
X144314523Y-58055238D01*
X144362142Y-58245714D01*
X144362142Y-58579047D01*
X144314523Y-58769523D01*
X144219285Y-58864761D01*
X144124047Y-58912380D01*
X143933571Y-58912380D01*
X145314523Y-58912380D02*
X144743095Y-58912380D01*
X145028809Y-58912380D02*
X145028809Y-57912380D01*
X144933571Y-58055238D01*
X144838333Y-58150476D01*
X144743095Y-58198095D01*
X132979761Y-59007619D02*
X132884523Y-58960000D01*
X132789285Y-58864761D01*
X132646428Y-58721904D01*
X132551190Y-58674285D01*
X132455952Y-58674285D01*
X132503571Y-58912380D02*
X132408333Y-58864761D01*
X132313095Y-58769523D01*
X132265476Y-58579047D01*
X132265476Y-58245714D01*
X132313095Y-58055238D01*
X132408333Y-57960000D01*
X132503571Y-57912380D01*
X132694047Y-57912380D01*
X132789285Y-57960000D01*
X132884523Y-58055238D01*
X132932142Y-58245714D01*
X132932142Y-58579047D01*
X132884523Y-58769523D01*
X132789285Y-58864761D01*
X132694047Y-58912380D01*
X132503571Y-58912380D01*
X133313095Y-58007619D02*
X133360714Y-57960000D01*
X133455952Y-57912380D01*
X133694047Y-57912380D01*
X133789285Y-57960000D01*
X133836904Y-58007619D01*
X133884523Y-58102857D01*
X133884523Y-58198095D01*
X133836904Y-58340952D01*
X133265476Y-58912380D01*
X133884523Y-58912380D01*
X150124761Y-59007619D02*
X150029523Y-58960000D01*
X149934285Y-58864761D01*
X149791428Y-58721904D01*
X149696190Y-58674285D01*
X149600952Y-58674285D01*
X149648571Y-58912380D02*
X149553333Y-58864761D01*
X149458095Y-58769523D01*
X149410476Y-58579047D01*
X149410476Y-58245714D01*
X149458095Y-58055238D01*
X149553333Y-57960000D01*
X149648571Y-57912380D01*
X149839047Y-57912380D01*
X149934285Y-57960000D01*
X150029523Y-58055238D01*
X150077142Y-58245714D01*
X150077142Y-58579047D01*
X150029523Y-58769523D01*
X149934285Y-58864761D01*
X149839047Y-58912380D01*
X149648571Y-58912380D01*
X150934285Y-58245714D02*
X150934285Y-58912380D01*
X150696190Y-57864761D02*
X150458095Y-58579047D01*
X151077142Y-58579047D01*
X138694761Y-59007619D02*
X138599523Y-58960000D01*
X138504285Y-58864761D01*
X138361428Y-58721904D01*
X138266190Y-58674285D01*
X138170952Y-58674285D01*
X138218571Y-58912380D02*
X138123333Y-58864761D01*
X138028095Y-58769523D01*
X137980476Y-58579047D01*
X137980476Y-58245714D01*
X138028095Y-58055238D01*
X138123333Y-57960000D01*
X138218571Y-57912380D01*
X138409047Y-57912380D01*
X138504285Y-57960000D01*
X138599523Y-58055238D01*
X138647142Y-58245714D01*
X138647142Y-58579047D01*
X138599523Y-58769523D01*
X138504285Y-58864761D01*
X138409047Y-58912380D01*
X138218571Y-58912380D01*
X139551904Y-57912380D02*
X139075714Y-57912380D01*
X139028095Y-58388571D01*
X139075714Y-58340952D01*
X139170952Y-58293333D01*
X139409047Y-58293333D01*
X139504285Y-58340952D01*
X139551904Y-58388571D01*
X139599523Y-58483809D01*
X139599523Y-58721904D01*
X139551904Y-58817142D01*
X139504285Y-58864761D01*
X139409047Y-58912380D01*
X139170952Y-58912380D01*
X139075714Y-58864761D01*
X139028095Y-58817142D01*
X127264761Y-59007619D02*
X127169523Y-58960000D01*
X127074285Y-58864761D01*
X126931428Y-58721904D01*
X126836190Y-58674285D01*
X126740952Y-58674285D01*
X126788571Y-58912380D02*
X126693333Y-58864761D01*
X126598095Y-58769523D01*
X126550476Y-58579047D01*
X126550476Y-58245714D01*
X126598095Y-58055238D01*
X126693333Y-57960000D01*
X126788571Y-57912380D01*
X126979047Y-57912380D01*
X127074285Y-57960000D01*
X127169523Y-58055238D01*
X127217142Y-58245714D01*
X127217142Y-58579047D01*
X127169523Y-58769523D01*
X127074285Y-58864761D01*
X126979047Y-58912380D01*
X126788571Y-58912380D01*
X128074285Y-57912380D02*
X127883809Y-57912380D01*
X127788571Y-57960000D01*
X127740952Y-58007619D01*
X127645714Y-58150476D01*
X127598095Y-58340952D01*
X127598095Y-58721904D01*
X127645714Y-58817142D01*
X127693333Y-58864761D01*
X127788571Y-58912380D01*
X127979047Y-58912380D01*
X128074285Y-58864761D01*
X128121904Y-58817142D01*
X128169523Y-58721904D01*
X128169523Y-58483809D01*
X128121904Y-58388571D01*
X128074285Y-58340952D01*
X127979047Y-58293333D01*
X127788571Y-58293333D01*
X127693333Y-58340952D01*
X127645714Y-58388571D01*
X127598095Y-58483809D01*
X65034761Y-59007619D02*
X64939523Y-58960000D01*
X64844285Y-58864761D01*
X64701428Y-58721904D01*
X64606190Y-58674285D01*
X64510952Y-58674285D01*
X64558571Y-58912380D02*
X64463333Y-58864761D01*
X64368095Y-58769523D01*
X64320476Y-58579047D01*
X64320476Y-58245714D01*
X64368095Y-58055238D01*
X64463333Y-57960000D01*
X64558571Y-57912380D01*
X64749047Y-57912380D01*
X64844285Y-57960000D01*
X64939523Y-58055238D01*
X64987142Y-58245714D01*
X64987142Y-58579047D01*
X64939523Y-58769523D01*
X64844285Y-58864761D01*
X64749047Y-58912380D01*
X64558571Y-58912380D01*
X65320476Y-57912380D02*
X65987142Y-57912380D01*
X65558571Y-58912380D01*
X53604761Y-59007619D02*
X53509523Y-58960000D01*
X53414285Y-58864761D01*
X53271428Y-58721904D01*
X53176190Y-58674285D01*
X53080952Y-58674285D01*
X53128571Y-58912380D02*
X53033333Y-58864761D01*
X52938095Y-58769523D01*
X52890476Y-58579047D01*
X52890476Y-58245714D01*
X52938095Y-58055238D01*
X53033333Y-57960000D01*
X53128571Y-57912380D01*
X53319047Y-57912380D01*
X53414285Y-57960000D01*
X53509523Y-58055238D01*
X53557142Y-58245714D01*
X53557142Y-58579047D01*
X53509523Y-58769523D01*
X53414285Y-58864761D01*
X53319047Y-58912380D01*
X53128571Y-58912380D01*
X54128571Y-58340952D02*
X54033333Y-58293333D01*
X53985714Y-58245714D01*
X53938095Y-58150476D01*
X53938095Y-58102857D01*
X53985714Y-58007619D01*
X54033333Y-57960000D01*
X54128571Y-57912380D01*
X54319047Y-57912380D01*
X54414285Y-57960000D01*
X54461904Y-58007619D01*
X54509523Y-58102857D01*
X54509523Y-58150476D01*
X54461904Y-58245714D01*
X54414285Y-58293333D01*
X54319047Y-58340952D01*
X54128571Y-58340952D01*
X54033333Y-58388571D01*
X53985714Y-58436190D01*
X53938095Y-58531428D01*
X53938095Y-58721904D01*
X53985714Y-58817142D01*
X54033333Y-58864761D01*
X54128571Y-58912380D01*
X54319047Y-58912380D01*
X54414285Y-58864761D01*
X54461904Y-58817142D01*
X54509523Y-58721904D01*
X54509523Y-58531428D01*
X54461904Y-58436190D01*
X54414285Y-58388571D01*
X54319047Y-58340952D01*
X42174761Y-59007619D02*
X42079523Y-58960000D01*
X41984285Y-58864761D01*
X41841428Y-58721904D01*
X41746190Y-58674285D01*
X41650952Y-58674285D01*
X41698571Y-58912380D02*
X41603333Y-58864761D01*
X41508095Y-58769523D01*
X41460476Y-58579047D01*
X41460476Y-58245714D01*
X41508095Y-58055238D01*
X41603333Y-57960000D01*
X41698571Y-57912380D01*
X41889047Y-57912380D01*
X41984285Y-57960000D01*
X42079523Y-58055238D01*
X42127142Y-58245714D01*
X42127142Y-58579047D01*
X42079523Y-58769523D01*
X41984285Y-58864761D01*
X41889047Y-58912380D01*
X41698571Y-58912380D01*
X42603333Y-58912380D02*
X42793809Y-58912380D01*
X42889047Y-58864761D01*
X42936666Y-58817142D01*
X43031904Y-58674285D01*
X43079523Y-58483809D01*
X43079523Y-58102857D01*
X43031904Y-58007619D01*
X42984285Y-57960000D01*
X42889047Y-57912380D01*
X42698571Y-57912380D01*
X42603333Y-57960000D01*
X42555714Y-58007619D01*
X42508095Y-58102857D01*
X42508095Y-58340952D01*
X42555714Y-58436190D01*
X42603333Y-58483809D01*
X42698571Y-58531428D01*
X42889047Y-58531428D01*
X42984285Y-58483809D01*
X43031904Y-58436190D01*
X43079523Y-58340952D01*
X70273571Y-59007619D02*
X70178333Y-58960000D01*
X70083095Y-58864761D01*
X69940238Y-58721904D01*
X69845000Y-58674285D01*
X69749761Y-58674285D01*
X69797380Y-58912380D02*
X69702142Y-58864761D01*
X69606904Y-58769523D01*
X69559285Y-58579047D01*
X69559285Y-58245714D01*
X69606904Y-58055238D01*
X69702142Y-57960000D01*
X69797380Y-57912380D01*
X69987857Y-57912380D01*
X70083095Y-57960000D01*
X70178333Y-58055238D01*
X70225952Y-58245714D01*
X70225952Y-58579047D01*
X70178333Y-58769523D01*
X70083095Y-58864761D01*
X69987857Y-58912380D01*
X69797380Y-58912380D01*
X71178333Y-58912380D02*
X70606904Y-58912380D01*
X70892619Y-58912380D02*
X70892619Y-57912380D01*
X70797380Y-58055238D01*
X70702142Y-58150476D01*
X70606904Y-58198095D01*
X71797380Y-57912380D02*
X71892619Y-57912380D01*
X71987857Y-57960000D01*
X72035476Y-58007619D01*
X72083095Y-58102857D01*
X72130714Y-58293333D01*
X72130714Y-58531428D01*
X72083095Y-58721904D01*
X72035476Y-58817142D01*
X71987857Y-58864761D01*
X71892619Y-58912380D01*
X71797380Y-58912380D01*
X71702142Y-58864761D01*
X71654523Y-58817142D01*
X71606904Y-58721904D01*
X71559285Y-58531428D01*
X71559285Y-58293333D01*
X71606904Y-58102857D01*
X71654523Y-58007619D01*
X71702142Y-57960000D01*
X71797380Y-57912380D01*
X58843571Y-59007619D02*
X58748333Y-58960000D01*
X58653095Y-58864761D01*
X58510238Y-58721904D01*
X58415000Y-58674285D01*
X58319761Y-58674285D01*
X58367380Y-58912380D02*
X58272142Y-58864761D01*
X58176904Y-58769523D01*
X58129285Y-58579047D01*
X58129285Y-58245714D01*
X58176904Y-58055238D01*
X58272142Y-57960000D01*
X58367380Y-57912380D01*
X58557857Y-57912380D01*
X58653095Y-57960000D01*
X58748333Y-58055238D01*
X58795952Y-58245714D01*
X58795952Y-58579047D01*
X58748333Y-58769523D01*
X58653095Y-58864761D01*
X58557857Y-58912380D01*
X58367380Y-58912380D01*
X59748333Y-58912380D02*
X59176904Y-58912380D01*
X59462619Y-58912380D02*
X59462619Y-57912380D01*
X59367380Y-58055238D01*
X59272142Y-58150476D01*
X59176904Y-58198095D01*
X60700714Y-58912380D02*
X60129285Y-58912380D01*
X60415000Y-58912380D02*
X60415000Y-57912380D01*
X60319761Y-58055238D01*
X60224523Y-58150476D01*
X60129285Y-58198095D01*
X47413571Y-59007619D02*
X47318333Y-58960000D01*
X47223095Y-58864761D01*
X47080238Y-58721904D01*
X46985000Y-58674285D01*
X46889761Y-58674285D01*
X46937380Y-58912380D02*
X46842142Y-58864761D01*
X46746904Y-58769523D01*
X46699285Y-58579047D01*
X46699285Y-58245714D01*
X46746904Y-58055238D01*
X46842142Y-57960000D01*
X46937380Y-57912380D01*
X47127857Y-57912380D01*
X47223095Y-57960000D01*
X47318333Y-58055238D01*
X47365952Y-58245714D01*
X47365952Y-58579047D01*
X47318333Y-58769523D01*
X47223095Y-58864761D01*
X47127857Y-58912380D01*
X46937380Y-58912380D01*
X48318333Y-58912380D02*
X47746904Y-58912380D01*
X48032619Y-58912380D02*
X48032619Y-57912380D01*
X47937380Y-58055238D01*
X47842142Y-58150476D01*
X47746904Y-58198095D01*
X48699285Y-58007619D02*
X48746904Y-57960000D01*
X48842142Y-57912380D01*
X49080238Y-57912380D01*
X49175476Y-57960000D01*
X49223095Y-58007619D01*
X49270714Y-58102857D01*
X49270714Y-58198095D01*
X49223095Y-58340952D01*
X48651666Y-58912380D01*
X49270714Y-58912380D01*
X145592380Y-70441666D02*
X145116190Y-70775000D01*
X145592380Y-71013095D02*
X144592380Y-71013095D01*
X144592380Y-70632142D01*
X144640000Y-70536904D01*
X144687619Y-70489285D01*
X144782857Y-70441666D01*
X144925714Y-70441666D01*
X145020952Y-70489285D01*
X145068571Y-70536904D01*
X145116190Y-70632142D01*
X145116190Y-71013095D01*
X145592380Y-69489285D02*
X145592380Y-70060714D01*
X145592380Y-69775000D02*
X144592380Y-69775000D01*
X144735238Y-69870238D01*
X144830476Y-69965476D01*
X144878095Y-70060714D01*
X134162380Y-70441666D02*
X133686190Y-70775000D01*
X134162380Y-71013095D02*
X133162380Y-71013095D01*
X133162380Y-70632142D01*
X133210000Y-70536904D01*
X133257619Y-70489285D01*
X133352857Y-70441666D01*
X133495714Y-70441666D01*
X133590952Y-70489285D01*
X133638571Y-70536904D01*
X133686190Y-70632142D01*
X133686190Y-71013095D01*
X133257619Y-70060714D02*
X133210000Y-70013095D01*
X133162380Y-69917857D01*
X133162380Y-69679761D01*
X133210000Y-69584523D01*
X133257619Y-69536904D01*
X133352857Y-69489285D01*
X133448095Y-69489285D01*
X133590952Y-69536904D01*
X134162380Y-70108333D01*
X134162380Y-69489285D01*
X122732380Y-70441666D02*
X122256190Y-70775000D01*
X122732380Y-71013095D02*
X121732380Y-71013095D01*
X121732380Y-70632142D01*
X121780000Y-70536904D01*
X121827619Y-70489285D01*
X121922857Y-70441666D01*
X122065714Y-70441666D01*
X122160952Y-70489285D01*
X122208571Y-70536904D01*
X122256190Y-70632142D01*
X122256190Y-71013095D01*
X121732380Y-70108333D02*
X121732380Y-69489285D01*
X122113333Y-69822619D01*
X122113333Y-69679761D01*
X122160952Y-69584523D01*
X122208571Y-69536904D01*
X122303809Y-69489285D01*
X122541904Y-69489285D01*
X122637142Y-69536904D01*
X122684761Y-69584523D01*
X122732380Y-69679761D01*
X122732380Y-69965476D01*
X122684761Y-70060714D01*
X122637142Y-70108333D01*
X151942380Y-70441666D02*
X151466190Y-70775000D01*
X151942380Y-71013095D02*
X150942380Y-71013095D01*
X150942380Y-70632142D01*
X150990000Y-70536904D01*
X151037619Y-70489285D01*
X151132857Y-70441666D01*
X151275714Y-70441666D01*
X151370952Y-70489285D01*
X151418571Y-70536904D01*
X151466190Y-70632142D01*
X151466190Y-71013095D01*
X151275714Y-69584523D02*
X151942380Y-69584523D01*
X150894761Y-69822619D02*
X151609047Y-70060714D01*
X151609047Y-69441666D01*
X140512380Y-70441666D02*
X140036190Y-70775000D01*
X140512380Y-71013095D02*
X139512380Y-71013095D01*
X139512380Y-70632142D01*
X139560000Y-70536904D01*
X139607619Y-70489285D01*
X139702857Y-70441666D01*
X139845714Y-70441666D01*
X139940952Y-70489285D01*
X139988571Y-70536904D01*
X140036190Y-70632142D01*
X140036190Y-71013095D01*
X139512380Y-69536904D02*
X139512380Y-70013095D01*
X139988571Y-70060714D01*
X139940952Y-70013095D01*
X139893333Y-69917857D01*
X139893333Y-69679761D01*
X139940952Y-69584523D01*
X139988571Y-69536904D01*
X140083809Y-69489285D01*
X140321904Y-69489285D01*
X140417142Y-69536904D01*
X140464761Y-69584523D01*
X140512380Y-69679761D01*
X140512380Y-69917857D01*
X140464761Y-70013095D01*
X140417142Y-70060714D01*
X129082380Y-70441666D02*
X128606190Y-70775000D01*
X129082380Y-71013095D02*
X128082380Y-71013095D01*
X128082380Y-70632142D01*
X128130000Y-70536904D01*
X128177619Y-70489285D01*
X128272857Y-70441666D01*
X128415714Y-70441666D01*
X128510952Y-70489285D01*
X128558571Y-70536904D01*
X128606190Y-70632142D01*
X128606190Y-71013095D01*
X128082380Y-69584523D02*
X128082380Y-69775000D01*
X128130000Y-69870238D01*
X128177619Y-69917857D01*
X128320476Y-70013095D01*
X128510952Y-70060714D01*
X128891904Y-70060714D01*
X128987142Y-70013095D01*
X129034761Y-69965476D01*
X129082380Y-69870238D01*
X129082380Y-69679761D01*
X129034761Y-69584523D01*
X128987142Y-69536904D01*
X128891904Y-69489285D01*
X128653809Y-69489285D01*
X128558571Y-69536904D01*
X128510952Y-69584523D01*
X128463333Y-69679761D01*
X128463333Y-69870238D01*
X128510952Y-69965476D01*
X128558571Y-70013095D01*
X128653809Y-70060714D01*
X66217380Y-70441666D02*
X65741190Y-70775000D01*
X66217380Y-71013095D02*
X65217380Y-71013095D01*
X65217380Y-70632142D01*
X65265000Y-70536904D01*
X65312619Y-70489285D01*
X65407857Y-70441666D01*
X65550714Y-70441666D01*
X65645952Y-70489285D01*
X65693571Y-70536904D01*
X65741190Y-70632142D01*
X65741190Y-71013095D01*
X65217380Y-70108333D02*
X65217380Y-69441666D01*
X66217380Y-69870238D01*
X54787380Y-70441666D02*
X54311190Y-70775000D01*
X54787380Y-71013095D02*
X53787380Y-71013095D01*
X53787380Y-70632142D01*
X53835000Y-70536904D01*
X53882619Y-70489285D01*
X53977857Y-70441666D01*
X54120714Y-70441666D01*
X54215952Y-70489285D01*
X54263571Y-70536904D01*
X54311190Y-70632142D01*
X54311190Y-71013095D01*
X54215952Y-69870238D02*
X54168333Y-69965476D01*
X54120714Y-70013095D01*
X54025476Y-70060714D01*
X53977857Y-70060714D01*
X53882619Y-70013095D01*
X53835000Y-69965476D01*
X53787380Y-69870238D01*
X53787380Y-69679761D01*
X53835000Y-69584523D01*
X53882619Y-69536904D01*
X53977857Y-69489285D01*
X54025476Y-69489285D01*
X54120714Y-69536904D01*
X54168333Y-69584523D01*
X54215952Y-69679761D01*
X54215952Y-69870238D01*
X54263571Y-69965476D01*
X54311190Y-70013095D01*
X54406428Y-70060714D01*
X54596904Y-70060714D01*
X54692142Y-70013095D01*
X54739761Y-69965476D01*
X54787380Y-69870238D01*
X54787380Y-69679761D01*
X54739761Y-69584523D01*
X54692142Y-69536904D01*
X54596904Y-69489285D01*
X54406428Y-69489285D01*
X54311190Y-69536904D01*
X54263571Y-69584523D01*
X54215952Y-69679761D01*
X72567380Y-70917857D02*
X72091190Y-71251190D01*
X72567380Y-71489285D02*
X71567380Y-71489285D01*
X71567380Y-71108333D01*
X71615000Y-71013095D01*
X71662619Y-70965476D01*
X71757857Y-70917857D01*
X71900714Y-70917857D01*
X71995952Y-70965476D01*
X72043571Y-71013095D01*
X72091190Y-71108333D01*
X72091190Y-71489285D01*
X72567380Y-69965476D02*
X72567380Y-70536904D01*
X72567380Y-70251190D02*
X71567380Y-70251190D01*
X71710238Y-70346428D01*
X71805476Y-70441666D01*
X71853095Y-70536904D01*
X71567380Y-69346428D02*
X71567380Y-69251190D01*
X71615000Y-69155952D01*
X71662619Y-69108333D01*
X71757857Y-69060714D01*
X71948333Y-69013095D01*
X72186428Y-69013095D01*
X72376904Y-69060714D01*
X72472142Y-69108333D01*
X72519761Y-69155952D01*
X72567380Y-69251190D01*
X72567380Y-69346428D01*
X72519761Y-69441666D01*
X72472142Y-69489285D01*
X72376904Y-69536904D01*
X72186428Y-69584523D01*
X71948333Y-69584523D01*
X71757857Y-69536904D01*
X71662619Y-69489285D01*
X71615000Y-69441666D01*
X71567380Y-69346428D01*
X61137380Y-70917857D02*
X60661190Y-71251190D01*
X61137380Y-71489285D02*
X60137380Y-71489285D01*
X60137380Y-71108333D01*
X60185000Y-71013095D01*
X60232619Y-70965476D01*
X60327857Y-70917857D01*
X60470714Y-70917857D01*
X60565952Y-70965476D01*
X60613571Y-71013095D01*
X60661190Y-71108333D01*
X60661190Y-71489285D01*
X61137380Y-69965476D02*
X61137380Y-70536904D01*
X61137380Y-70251190D02*
X60137380Y-70251190D01*
X60280238Y-70346428D01*
X60375476Y-70441666D01*
X60423095Y-70536904D01*
X61137380Y-69013095D02*
X61137380Y-69584523D01*
X61137380Y-69298809D02*
X60137380Y-69298809D01*
X60280238Y-69394047D01*
X60375476Y-69489285D01*
X60423095Y-69584523D01*
X49707380Y-70917857D02*
X49231190Y-71251190D01*
X49707380Y-71489285D02*
X48707380Y-71489285D01*
X48707380Y-71108333D01*
X48755000Y-71013095D01*
X48802619Y-70965476D01*
X48897857Y-70917857D01*
X49040714Y-70917857D01*
X49135952Y-70965476D01*
X49183571Y-71013095D01*
X49231190Y-71108333D01*
X49231190Y-71489285D01*
X49707380Y-69965476D02*
X49707380Y-70536904D01*
X49707380Y-70251190D02*
X48707380Y-70251190D01*
X48850238Y-70346428D01*
X48945476Y-70441666D01*
X48993095Y-70536904D01*
X48802619Y-69584523D02*
X48755000Y-69536904D01*
X48707380Y-69441666D01*
X48707380Y-69203571D01*
X48755000Y-69108333D01*
X48802619Y-69060714D01*
X48897857Y-69013095D01*
X48993095Y-69013095D01*
X49135952Y-69060714D01*
X49707380Y-69632142D01*
X49707380Y-69013095D01*
X148767380Y-70917857D02*
X148291190Y-71251190D01*
X148767380Y-71489285D02*
X147767380Y-71489285D01*
X147767380Y-71108333D01*
X147815000Y-71013095D01*
X147862619Y-70965476D01*
X147957857Y-70917857D01*
X148100714Y-70917857D01*
X148195952Y-70965476D01*
X148243571Y-71013095D01*
X148291190Y-71108333D01*
X148291190Y-71489285D01*
X148767380Y-69965476D02*
X148767380Y-70536904D01*
X148767380Y-70251190D02*
X147767380Y-70251190D01*
X147910238Y-70346428D01*
X148005476Y-70441666D01*
X148053095Y-70536904D01*
X147767380Y-69632142D02*
X147767380Y-69013095D01*
X148148333Y-69346428D01*
X148148333Y-69203571D01*
X148195952Y-69108333D01*
X148243571Y-69060714D01*
X148338809Y-69013095D01*
X148576904Y-69013095D01*
X148672142Y-69060714D01*
X148719761Y-69108333D01*
X148767380Y-69203571D01*
X148767380Y-69489285D01*
X148719761Y-69584523D01*
X148672142Y-69632142D01*
X137337380Y-70917857D02*
X136861190Y-71251190D01*
X137337380Y-71489285D02*
X136337380Y-71489285D01*
X136337380Y-71108333D01*
X136385000Y-71013095D01*
X136432619Y-70965476D01*
X136527857Y-70917857D01*
X136670714Y-70917857D01*
X136765952Y-70965476D01*
X136813571Y-71013095D01*
X136861190Y-71108333D01*
X136861190Y-71489285D01*
X137337380Y-69965476D02*
X137337380Y-70536904D01*
X137337380Y-70251190D02*
X136337380Y-70251190D01*
X136480238Y-70346428D01*
X136575476Y-70441666D01*
X136623095Y-70536904D01*
X136670714Y-69108333D02*
X137337380Y-69108333D01*
X136289761Y-69346428D02*
X137004047Y-69584523D01*
X137004047Y-68965476D01*
X125907380Y-70917857D02*
X125431190Y-71251190D01*
X125907380Y-71489285D02*
X124907380Y-71489285D01*
X124907380Y-71108333D01*
X124955000Y-71013095D01*
X125002619Y-70965476D01*
X125097857Y-70917857D01*
X125240714Y-70917857D01*
X125335952Y-70965476D01*
X125383571Y-71013095D01*
X125431190Y-71108333D01*
X125431190Y-71489285D01*
X125907380Y-69965476D02*
X125907380Y-70536904D01*
X125907380Y-70251190D02*
X124907380Y-70251190D01*
X125050238Y-70346428D01*
X125145476Y-70441666D01*
X125193095Y-70536904D01*
X124907380Y-69060714D02*
X124907380Y-69536904D01*
X125383571Y-69584523D01*
X125335952Y-69536904D01*
X125288333Y-69441666D01*
X125288333Y-69203571D01*
X125335952Y-69108333D01*
X125383571Y-69060714D01*
X125478809Y-69013095D01*
X125716904Y-69013095D01*
X125812142Y-69060714D01*
X125859761Y-69108333D01*
X125907380Y-69203571D01*
X125907380Y-69441666D01*
X125859761Y-69536904D01*
X125812142Y-69584523D01*
X69392380Y-70917857D02*
X68916190Y-71251190D01*
X69392380Y-71489285D02*
X68392380Y-71489285D01*
X68392380Y-71108333D01*
X68440000Y-71013095D01*
X68487619Y-70965476D01*
X68582857Y-70917857D01*
X68725714Y-70917857D01*
X68820952Y-70965476D01*
X68868571Y-71013095D01*
X68916190Y-71108333D01*
X68916190Y-71489285D01*
X69392380Y-69965476D02*
X69392380Y-70536904D01*
X69392380Y-70251190D02*
X68392380Y-70251190D01*
X68535238Y-70346428D01*
X68630476Y-70441666D01*
X68678095Y-70536904D01*
X68392380Y-69108333D02*
X68392380Y-69298809D01*
X68440000Y-69394047D01*
X68487619Y-69441666D01*
X68630476Y-69536904D01*
X68820952Y-69584523D01*
X69201904Y-69584523D01*
X69297142Y-69536904D01*
X69344761Y-69489285D01*
X69392380Y-69394047D01*
X69392380Y-69203571D01*
X69344761Y-69108333D01*
X69297142Y-69060714D01*
X69201904Y-69013095D01*
X68963809Y-69013095D01*
X68868571Y-69060714D01*
X68820952Y-69108333D01*
X68773333Y-69203571D01*
X68773333Y-69394047D01*
X68820952Y-69489285D01*
X68868571Y-69536904D01*
X68963809Y-69584523D01*
X57962380Y-70917857D02*
X57486190Y-71251190D01*
X57962380Y-71489285D02*
X56962380Y-71489285D01*
X56962380Y-71108333D01*
X57010000Y-71013095D01*
X57057619Y-70965476D01*
X57152857Y-70917857D01*
X57295714Y-70917857D01*
X57390952Y-70965476D01*
X57438571Y-71013095D01*
X57486190Y-71108333D01*
X57486190Y-71489285D01*
X57962380Y-69965476D02*
X57962380Y-70536904D01*
X57962380Y-70251190D02*
X56962380Y-70251190D01*
X57105238Y-70346428D01*
X57200476Y-70441666D01*
X57248095Y-70536904D01*
X56962380Y-69632142D02*
X56962380Y-68965476D01*
X57962380Y-69394047D01*
X46659380Y-71044857D02*
X46183190Y-71378190D01*
X46659380Y-71616285D02*
X45659380Y-71616285D01*
X45659380Y-71235333D01*
X45707000Y-71140095D01*
X45754619Y-71092476D01*
X45849857Y-71044857D01*
X45992714Y-71044857D01*
X46087952Y-71092476D01*
X46135571Y-71140095D01*
X46183190Y-71235333D01*
X46183190Y-71616285D01*
X46659380Y-70092476D02*
X46659380Y-70663904D01*
X46659380Y-70378190D02*
X45659380Y-70378190D01*
X45802238Y-70473428D01*
X45897476Y-70568666D01*
X45945095Y-70663904D01*
X46087952Y-69521047D02*
X46040333Y-69616285D01*
X45992714Y-69663904D01*
X45897476Y-69711523D01*
X45849857Y-69711523D01*
X45754619Y-69663904D01*
X45707000Y-69616285D01*
X45659380Y-69521047D01*
X45659380Y-69330571D01*
X45707000Y-69235333D01*
X45754619Y-69187714D01*
X45849857Y-69140095D01*
X45897476Y-69140095D01*
X45992714Y-69187714D01*
X46040333Y-69235333D01*
X46087952Y-69330571D01*
X46087952Y-69521047D01*
X46135571Y-69616285D01*
X46183190Y-69663904D01*
X46278428Y-69711523D01*
X46468904Y-69711523D01*
X46564142Y-69663904D01*
X46611761Y-69616285D01*
X46659380Y-69521047D01*
X46659380Y-69330571D01*
X46611761Y-69235333D01*
X46564142Y-69187714D01*
X46468904Y-69140095D01*
X46278428Y-69140095D01*
X46183190Y-69187714D01*
X46135571Y-69235333D01*
X46087952Y-69330571D01*
X118922380Y-70282857D02*
X118446190Y-70616190D01*
X118922380Y-70854285D02*
X117922380Y-70854285D01*
X117922380Y-70473333D01*
X117970000Y-70378095D01*
X118017619Y-70330476D01*
X118112857Y-70282857D01*
X118255714Y-70282857D01*
X118350952Y-70330476D01*
X118398571Y-70378095D01*
X118446190Y-70473333D01*
X118446190Y-70854285D01*
X118922380Y-69330476D02*
X118922380Y-69901904D01*
X118922380Y-69616190D02*
X117922380Y-69616190D01*
X118065238Y-69711428D01*
X118160476Y-69806666D01*
X118208095Y-69901904D01*
X118922380Y-68854285D02*
X118922380Y-68663809D01*
X118874761Y-68568571D01*
X118827142Y-68520952D01*
X118684285Y-68425714D01*
X118493809Y-68378095D01*
X118112857Y-68378095D01*
X118017619Y-68425714D01*
X117970000Y-68473333D01*
X117922380Y-68568571D01*
X117922380Y-68759047D01*
X117970000Y-68854285D01*
X118017619Y-68901904D01*
X118112857Y-68949523D01*
X118350952Y-68949523D01*
X118446190Y-68901904D01*
X118493809Y-68854285D01*
X118541428Y-68759047D01*
X118541428Y-68568571D01*
X118493809Y-68473333D01*
X118446190Y-68425714D01*
X118350952Y-68378095D01*
X82783095Y-53427380D02*
X82783095Y-54236904D01*
X82830714Y-54332142D01*
X82878333Y-54379761D01*
X82973571Y-54427380D01*
X83164047Y-54427380D01*
X83259285Y-54379761D01*
X83306904Y-54332142D01*
X83354523Y-54236904D01*
X83354523Y-53427380D01*
X84354523Y-54427380D02*
X83783095Y-54427380D01*
X84068809Y-54427380D02*
X84068809Y-53427380D01*
X83973571Y-53570238D01*
X83878333Y-53665476D01*
X83783095Y-53713095D01*
M02*
